<?xml version="1.0" encoding="UTF-8"?>
<svg version="1.1" xmlns="http://www.w3.org/2000/svg" width="50" height="50">
<path d="M0 0 C3.3830426 1.25916595 6.58452168 2.82717622 9.8125 4.4375 C10.68326172 4.85837891 11.55402344 5.27925781 12.45117188 5.71289062 C18.81102774 8.81102774 18.81102774 8.81102774 20 10 C20.04063832 11.66617115 20.042721 13.33388095 20 15 C18.68 15 17.36 15 16 15 C16 22.59 16 30.18 16 38 C17.32 38 18.64 38 20 38 C20 39.98 20 41.96 20 44 C4.82 44 -10.36 44 -26 44 C-26 42.02 -26 40.04 -26 38 C-24.68 38 -23.36 38 -22 38 C-22 30.41 -22 22.82 -22 15 C-23.32 15 -24.64 15 -26 15 C-26 13.35 -26 11.7 -26 10 C-20.66666667 7.33333333 -15.33333333 4.66666667 -10 2 C-9.31413818 1.63817627 -8.62827637 1.27635254 -7.92163086 0.90356445 C-5.01298786 -0.4641001 -3.21432574 -0.38452445 0 0 Z M-8.66796875 4.96875 C-10.00698242 5.57783203 -10.00698242 5.57783203 -11.37304688 6.19921875 C-12.30181641 6.62847656 -13.23058594 7.05773437 -14.1875 7.5 C-15.12787109 7.92925781 -16.06824219 8.35851562 -17.03710938 8.80078125 C-19.36041769 9.86219114 -21.68120906 10.92876607 -24 12 C-24 12.33 -24 12.66 -24 13 C-20.7 13 -17.4 13 -14 13 C-14 13.66 -14 14.32 -14 15 C-14.66 15 -15.32 15 -16 15 C-16 22.59 -16 30.18 -16 38 C-7.42 38 1.16 38 10 38 C10 30.41 10 22.82 10 15 C9.34 15 8.68 15 8 15 C8 14.34 8 13.68 8 13 C11.3 13 14.6 13 18 13 C15.01643474 10.01643474 11.35652556 8.6482605 7.5625 6.875 C6.78583984 6.50246094 6.00917969 6.12992188 5.20898438 5.74609375 C4.46068359 5.39417969 3.71238281 5.04226562 2.94140625 4.6796875 C2.25763916 4.35726074 1.57387207 4.03483398 0.86938477 3.70263672 C-2.86258606 2.29991868 -5.2316504 3.39285878 -8.66796875 4.96875 Z M-20 15 C-20 22.59 -20 30.18 -20 38 C-19.34 38 -18.68 38 -18 38 C-18 30.41 -18 22.82 -18 15 C-18.66 15 -19.32 15 -20 15 Z M12 15 C12 22.59 12 30.18 12 38 C12.66 38 13.32 38 14 38 C14 30.41 14 22.82 14 15 C13.34 15 12.68 15 12 15 Z M-23 40 C-23.33 40.66 -23.66 41.32 -24 42 C-10.14 42 3.72 42 18 42 C17.505 41.01 17.505 41.01 17 40 C3.8 40 -9.4 40 -23 40 Z " fill="#000000" transform="translate(28,2)"/>
<path d="M0 0 C0.66 0 1.32 0 2 0 C2 0.99 2 1.98 2 3 C3.32 3.33 4.64 3.66 6 4 C6.33 5.65 6.66 7.3 7 9 C6.01 9 5.02 9 4 9 C3.67 8.34 3.34 7.68 3 7 C0.47266765 6.34444881 0.47266765 6.34444881 -2 6 C-2 7.32 -2 8.64 -2 10 C-0.329375 10.433125 -0.329375 10.433125 1.375 10.875 C5 12 5 12 7 14 C7.25 17 7.25 17 7 20 C6.34 20.66 5.68 21.32 5 22 C4.01 22 3.02 22 2 22 C2 22.99 2 23.98 2 25 C1.34 25 0.68 25 0 25 C0 24.01 0 23.02 0 22 C-1.32 21.67 -2.64 21.34 -4 21 C-4.33 19.35 -4.66 17.7 -5 16 C-4.01 16 -3.02 16 -2 16 C-1.67 16.66 -1.34 17.32 -1 18 C1.52733235 18.65555119 1.52733235 18.65555119 4 19 C4 17.68 4 16.36 4 15 C2.88625 14.71125 1.7725 14.4225 0.625 14.125 C-3 13 -3 13 -5 11 C-5.25 8 -5.25 8 -5 5 C-4.34 4.34 -3.68 3.68 -3 3 C-2.01 3 -1.02 3 0 3 C0 2.01 0 1.02 0 0 Z " fill="#000000" transform="translate(24,11)"/>
</svg>
