<?xml version="1.0" encoding="UTF-8"?>
<svg version="1.1" xmlns="http://www.w3.org/2000/svg" width="512" height="512">
<path d="M0 0 C0.92776245 -0.01591187 1.8555249 -0.03182373 2.81140137 -0.04821777 C3.80627563 -0.04841919 4.8011499 -0.04862061 5.82617188 -0.04882812 C7.36827332 -0.06024841 7.36827332 -0.06024841 8.94152832 -0.07189941 C11.1135007 -0.08269705 13.28552498 -0.0855549 15.45751953 -0.08105469 C18.78310443 -0.08008158 22.1063884 -0.12172486 25.43164062 -0.16601562 C27.54231289 -0.17122202 29.65299319 -0.17391083 31.76367188 -0.17382812 C32.75854614 -0.19022339 33.75342041 -0.20661865 34.77844238 -0.22351074 C41.66443724 -0.15444449 41.66443724 -0.15444449 44.93359375 2.82373047 C46.32587961 5.47896144 46.75246214 6.62810271 46.29492188 9.54492188 C46.21242188 10.2075 46.12992187 10.87007813 46.04492188 11.55273438 C44.96118528 14.25078695 43.83112933 14.96654163 41.29492188 16.41992188 C38.47121476 16.74473256 35.85545499 16.90808993 33.02929688 16.93164062 C31.83920013 16.95856743 31.83920013 16.95856743 30.62506104 16.98603821 C28.09840156 17.04009114 25.57193043 17.07401999 23.04492188 17.10742188 C21.32874986 17.14059947 19.61260269 17.17508955 17.89648438 17.2109375 C13.69609955 17.29581443 9.4957701 17.36264909 5.29492188 17.41992188 C-5.09837665 46.64557572 -15.39116188 75.90509583 -25.60009766 105.19555664 C-32.60242847 125.28208246 -39.65360297 145.35033874 -46.70507812 165.41992188 C-83.99507812 165.41992188 -121.28507812 165.41992188 -159.70507812 165.41992188 C-161.68507813 161.45992187 -163.66507812 157.49992188 -165.70507812 153.41992188 C-174.5632397 140.21952424 -187.93521425 132.09612349 -203.41601562 128.92382812 C-212.41257296 127.54549571 -220.2157928 128.46636354 -228.99023438 130.76367188 C-231.70507812 131.41992188 -231.70507812 131.41992188 -234.70507812 131.41992188 C-236.0168457 130.0690918 -236.0168457 130.0690918 -237.34960938 128.15039062 C-237.85419678 127.43633057 -238.35878418 126.72227051 -238.87866211 125.98657227 C-239.41950439 125.20145264 -239.96034668 124.41633301 -240.51757812 123.60742188 C-241.69104794 121.94264744 -242.86556078 120.27860783 -244.04101562 118.61523438 C-244.94932129 117.32214355 -244.94932129 117.32214355 -245.87597656 116.00292969 C-248.74254371 111.95484101 -251.69123617 107.96889872 -254.64257812 103.98242188 C-255.21363281 103.20721191 -255.7846875 102.43200195 -256.37304688 101.63330078 C-259.45231638 97.45441517 -262.54954857 93.28989743 -265.66601562 89.13867188 C-266.31062744 88.27556396 -266.95523926 87.41245605 -267.61938477 86.52319336 C-268.8581156 84.86512625 -270.10187539 83.21080097 -271.35131836 81.56079102 C-272.18578491 80.44111938 -272.18578491 80.44111938 -273.03710938 79.29882812 C-273.52928955 78.64470947 -274.02146973 77.99059082 -274.52856445 77.31665039 C-275.70507812 75.41992188 -275.70507812 75.41992188 -276.70507812 71.41992188 C-195.85507812 71.41992188 -115.00507812 71.41992188 -31.70507812 71.41992188 C-30.71507812 67.78992188 -29.72507812 64.15992188 -28.70507812 60.41992188 C-28.02624365 58.26717923 -27.32581806 56.12096823 -26.59204102 53.98632812 C-26.20476334 52.85565918 -25.81748566 51.72499023 -25.41847229 50.56005859 C-25.00902878 49.37943848 -24.59958527 48.19881836 -24.17773438 46.98242188 C-23.74754501 45.73992676 -23.31735565 44.49743164 -22.87413025 43.21728516 C-21.97026876 40.61109031 -21.06282052 38.00617265 -20.15356445 35.40185547 C-18.99104714 32.06921023 -17.84446462 28.73130207 -16.70119572 25.39201355 C-15.60059532 22.18899705 -14.48165707 18.99245724 -13.36523438 15.79492188 C-12.95781509 14.59810791 -12.55039581 13.40129395 -12.13063049 12.16821289 C-11.54498573 10.5100354 -11.54498573 10.5100354 -10.94750977 8.81835938 C-10.61014297 7.84560059 -10.27277618 6.8728418 -9.92518616 5.87060547 C-7.66895456 1.33878565 -4.93742718 0.05106756 0 0 Z " fill="#000000" transform="translate(454.705078125,259.580078125)"/>
<path d="M0 0 C9.16504543 7.07823508 16.62394721 16.22911121 24.125 24.9765625 C31.98259942 34.1496645 31.98259942 34.1496645 42.97265625 38.3203125 C50.10943632 38.71136894 55.27673168 36.84849962 60.61328125 32.125 C61.33128906 31.45210938 62.04929688 30.77921875 62.7890625 30.0859375 C71.39369451 22.09378798 80.78858545 18.76262087 92.3515625 18.7734375 C93.41407227 18.7724707 93.41407227 18.7724707 94.49804688 18.77148438 C99.51489149 18.82225281 103.79663303 19.38012768 108.5390625 20.9609375 C107.09227787 24.25311068 105.26048516 26.48998579 102.7890625 29.0859375 C91.25218367 41.91862519 87.48223837 55.78763477 88.1015625 72.796875 C88.96686916 85.88704193 94.7060616 95.79563858 102.5390625 105.9609375 C103.5290625 107.2809375 104.5190625 108.6009375 105.5390625 109.9609375 C42.1790625 109.9609375 -21.1809375 109.9609375 -86.4609375 109.9609375 C-86.4609375 30.9609375 -86.4609375 30.9609375 -74.4609375 17.9609375 C-72.02740073 15.2575623 -72.02740073 15.2575623 -69.59765625 12.55078125 C-51.12495783 -7.88361966 -24.63586043 -15.80867917 0 0 Z " fill="#000000" transform="translate(97.4609375,377.0390625)"/>
<path d="M0 0 C7.81578693 4.90166846 12.76042936 13.36956315 17.6875 20.9375 C18.27337891 21.82759766 18.85925781 22.71769531 19.46289062 23.63476562 C20.62086406 25.39421694 21.77668652 27.1550861 22.93017578 28.91748047 C25.47342487 32.79280298 28.04768624 36.64727805 30.625 40.5 C32.60118232 38.60286497 34.47438901 36.68528135 36.203125 34.55859375 C40.78491553 28.95518776 44.37824169 25.92956966 51.67578125 25.19140625 C58.60365988 24.92771537 64.00359752 25.28882971 69.625 29.5 C74.58446673 34.49543617 78.56999246 40.10536786 82.375 46 C83.40494877 47.5750704 84.43623033 49.14926997 85.46875 50.72265625 C85.98695313 51.5130127 86.50515625 52.30336914 87.0390625 53.11767578 C88.60893341 55.47586549 90.21623485 57.80238085 91.84375 60.12109375 C92.35325195 60.848125 92.86275391 61.57515625 93.38769531 62.32421875 C94.36083072 63.70692723 95.33915477 65.08600215 96.32324219 66.4609375 C99.625 71.17004205 99.625 71.17004205 99.625 74.5 C42.205 74.5 -15.215 74.5 -74.375 74.5 C-72.75370778 70.44676944 -71.60132839 68.22462311 -69.0546875 64.89453125 C-65.2918263 59.82731333 -61.74680438 54.64597209 -58.2578125 49.38671875 C-57.71147156 48.56390411 -57.16513062 47.74108948 -56.60223389 46.89334106 C-54.33138682 43.46896623 -52.0649263 40.04169774 -49.79833984 36.61450195 C-38.61264973 19.71336619 -38.61264973 19.71336619 -32.9296875 11.58203125 C-31.81956299 9.98645386 -31.81956299 9.98645386 -30.68701172 8.35864258 C-23.08888781 -1.03591211 -11.63515724 -5.14588168 0 0 Z M-18.375 15.5 C-20.51677632 18.22956631 -22.42542463 21.09502988 -24.33203125 23.9921875 C-24.87985764 24.81574738 -25.42768402 25.63930725 -25.99211121 26.48782349 C-27.14343869 28.22491408 -28.29043747 29.96488056 -29.43334961 31.70751953 C-31.18378401 34.36934921 -32.95716406 37.01483783 -34.73242188 39.66015625 C-35.85039054 41.35322182 -36.96697484 43.0472025 -38.08203125 44.7421875 C-38.87877007 45.92371902 -38.87877007 45.92371902 -39.69160461 47.12911987 C-42.41097295 51.32524981 -44.29726282 54.3180388 -43.375 59.5 C-40.84446497 62.40267254 -39.33769068 63.39535971 -35.5 63.8125 C-26.8899388 60.1962743 -20.91493932 47.18595773 -15.81982422 39.53369141 C-14.85050606 38.08544686 -13.87283285 36.64276218 -12.88720703 35.20556641 C-11.44730992 33.10498262 -10.0338525 30.98867847 -8.625 28.8671875 C-8.18244873 28.23158905 -7.73989746 27.5959906 -7.28393555 26.94113159 C-5.1094592 23.60176507 -4.37084745 21.68552009 -4.4609375 17.66064453 C-5.09201471 14.35590158 -5.09201471 14.35590158 -7.75 12.5625 C-12.7932313 10.52119209 -14.60558356 11.94686998 -18.375 15.5 Z " fill="#000000" transform="translate(296.375,242.5)"/>
<path d="M0 0 C9.69332607 7.07350822 15.58042381 17.12975956 17.69140625 28.85546875 C19.19449745 40.6606457 16.74041372 51.30078512 10.2265625 61.2734375 C2.83964935 70.40519048 -5.42416105 75.50238274 -16.7734375 78.2734375 C-30.18905407 79.47150918 -41.53639527 77.50838656 -52.51953125 69.2578125 C-61.68234116 61.19072856 -66.95790038 50.7737296 -67.99609375 38.6796875 C-68.42845013 25.59620739 -64.49457229 14.70472993 -55.703125 4.984375 C-40.4536966 -9.609164 -17.63473717 -10.97824483 0 0 Z M-34.7734375 30.2734375 C-35.8297237 33.02430049 -36.12273969 35.34731585 -35.7734375 38.2734375 C-34.16526442 41.48978366 -32.79633684 43.52331132 -29.8984375 45.6484375 C-25.51376528 46.93804698 -22.68525283 46.69427534 -18.5234375 44.7734375 C-15.44777624 41.97738181 -14.56209631 40.30320801 -13.82421875 36.30078125 C-13.71878959 32.09172469 -15.75424857 29.40586964 -18.4609375 26.3984375 C-25.03542246 23.20003941 -30.1929848 24.9109563 -34.7734375 30.2734375 Z " fill="#000000" transform="translate(266.7734375,408.7265625)"/>
<path d="M0 0 C6.14985061 4.50745727 10.056443 9.44302126 13.3203125 16.3046875 C13.65933594 17.01238281 13.99835938 17.72007813 14.34765625 18.44921875 C17.89377708 27.25732532 17.54084414 38.03786479 14.42578125 46.9296875 C9.30368006 57.93406038 1.79878252 64.9950276 -9.4375 69.32421875 C-20.19278211 72.57671972 -30.54756584 71.79989944 -40.62890625 66.859375 C-50.06530468 61.32369788 -56.16456002 53.66108459 -59.6796875 43.3046875 C-62.2890672 32.46437856 -60.95644324 21.70676475 -55.359375 12.01953125 C-42.56673329 -6.12085412 -19.19216255 -12.14198039 0 0 Z " fill="#000000" transform="translate(410.6796875,75.6953125)"/>
<path d="M0 0 C14.7501981 -0.30482614 27.23363431 -0.38163215 38.75 10.1875 C42.57147408 14.21385497 44.79647934 18.95322688 47 24 C49.02990666 21.97009334 49.82120788 20.42876944 51.0625 17.875 C55.62191662 9.57178089 62.95970356 3.7925523 72 1 C77.14172218 -0.13761539 82.14019346 -0.11676833 87.375 -0.0625 C88.20644531 -0.05798828 89.03789063 -0.05347656 89.89453125 -0.04882812 C91.92971897 -0.03713164 93.96486923 -0.01919935 96 0 C96.61250676 27.42669142 96.61250676 27.42669142 86.98828125 38.265625 C77.59255573 47.12023544 68.5515917 49.16735456 56 49 C56 55.27 56 61.54 56 68 C50.39 67.67 44.78 67.34 39 67 C39 61.06 39 55.12 39 49 C37.55625 49.061875 36.1125 49.12375 34.625 49.1875 C25.18497131 49.1475563 17.19157508 46.13752233 10 40 C2.54751192 32.18574065 -0.36598561 24.82993117 -0.26367188 14.12109375 C-0.23853516 13.09113281 -0.21339844 12.06117188 -0.1875 11 C-0.17396484 9.93910156 -0.16042969 8.87820313 -0.14648438 7.78515625 C-0.11140879 5.18956313 -0.06225844 2.59505933 0 0 Z " fill="#000000" transform="translate(25,287)"/>
<path d="M0 0 C15.04486561 -0.4170548 27.16543326 -0.60818676 39 10 C42.75860026 14.54988453 45.53427543 19.65759676 48 25 C48.20753906 24.443125 48.41507813 23.88625 48.62890625 23.3125 C52.45969526 13.82368372 58.74670862 6.58329933 67.9609375 2.03125 C76.781838 -1.31140703 86.72629618 -0.2632274 96 0 C96.5617004 13.9020849 96.55248986 26.90197536 86.9921875 38.0625 C76.24599372 48.51370023 64.08632706 49.18698485 49.77661133 49.18530273 C47.70307706 49.18748362 45.63008077 49.20566823 43.55664062 49.22460938 C30.99087393 49.27875187 19.25392224 48.26951334 9.4453125 39.61328125 C1.63456869 30.89480234 -0.31513816 21.96015978 -0.125 10.625 C-0.11597656 9.60277344 -0.10695313 8.58054688 -0.09765625 7.52734375 C-0.0742043 5.01798478 -0.04138355 2.50911664 0 0 Z " fill="#000000" transform="translate(25,232)"/>
<path d="M0 0 C20.79 0 41.58 0 63 0 C59.625 10.125 59.625 10.125 58.00708008 13.60180664 C57.64693314 14.38193619 57.28678619 15.16206573 56.91572571 15.96583557 C56.53748154 16.7724614 56.15923737 17.57908722 55.76953125 18.41015625 C55.1766053 19.68952309 55.1766053 19.68952309 54.57170105 20.99473572 C53.32313294 23.68610805 52.06794438 26.37432946 50.8125 29.0625 C49.95854253 30.90018537 49.10502275 32.73807419 48.25195312 34.57617188 C46.17382078 39.05354739 44.08674044 43.52659006 42 48 C35.07 48 28.14 48 21 48 C19.98679687 45.76863281 18.97359375 43.53726563 17.9296875 41.23828125 C16.92685201 39.03047477 15.92388131 36.82272976 14.92089844 34.61499023 C14.23423431 33.10333538 13.54770645 31.59161862 12.86132812 30.07983398 C11.86365736 27.88247871 10.86542953 25.68537705 9.8671875 23.48828125 C9.54095398 22.76923615 9.21472046 22.05019104 8.87860107 21.30935669 C7.32647462 17.89348611 5.76358506 14.4836586 4.16894531 11.08740234 C3.62077148 9.91773926 3.07259766 8.74807617 2.5078125 7.54296875 C2.02199707 6.51582764 1.53618164 5.48868652 1.03564453 4.43041992 C0 2 0 2 0 0 Z " fill="#000000" transform="translate(312,439)"/>
<path d="M0 0 C9.93994983 8.31710088 18.62177831 15.98479604 20.78125 29.3984375 C21.58091407 38.90872802 19.84955324 47.97398755 13.98046875 55.63671875 C9.67859813 60.53953211 5.06784191 64.9025959 0 69 C-10.40671532 59.04142075 -18.74276271 50.70989829 -19.9609375 35.640625 C-20.10803837 25.69660623 -16.58748832 16.68012005 -9.78125 9.48046875 C-6.59747084 6.2372369 -3.32095531 3.10215152 0 0 Z " fill="#000000" transform="translate(72,167)"/>
<path d="M0 0 C3.5 0.5 3.5 0.5 5.19604492 2.2421875 C6.66708641 4.78931195 6.87426796 6.20787993 6.86328125 9.125 C6.86263672 9.99640625 6.86199219 10.8678125 6.86132812 11.765625 C6.84521484 12.66796875 6.82910156 13.5703125 6.8125 14.5 C6.81572266 15.40234375 6.81894531 16.3046875 6.82226562 17.234375 C6.7577242 25.16710321 6.7577242 25.16710321 4.5 28.5 C1.0625 29.375 1.0625 29.375 -2.5 29.5 C-5.5 27.5 -5.5 27.5 -6.5 24.5 C-6.75226905 21.19183538 -6.73122127 17.87929333 -6.75 14.5625 C-6.770625 13.65564453 -6.79125 12.74878906 -6.8125 11.81445312 C-6.81765625 10.93853516 -6.8228125 10.06261719 -6.828125 9.16015625 C-6.8374707 8.36230713 -6.84681641 7.56445801 -6.85644531 6.74243164 C-6.13785109 2.22168651 -4.4591886 0.63702694 0 0 Z " fill="#000000" transform="translate(388.5,24.5)"/>
<path d="M0 0 C2.85771569 1.27845175 3.73786732 2.41892853 5.375 5.0625 C5.76318359 7.2890625 5.76318359 7.2890625 5.7734375 9.6875 C5.77730469 10.55890625 5.78117187 11.4303125 5.78515625 12.328125 C5.77355469 13.23046875 5.76195312 14.1328125 5.75 15.0625 C5.76160156 15.96484375 5.77320313 16.8671875 5.78515625 17.796875 C5.78128906 18.66828125 5.77742188 19.5396875 5.7734375 20.4375 C5.77005371 21.22898438 5.76666992 22.02046875 5.76318359 22.8359375 C5.28044825 25.60483457 4.23976161 26.99016143 2.375 29.0625 C0.5 30 0.5 30 -1.625 30.0625 C-6.25576923 27.80096154 -6.25576923 27.80096154 -7.625 25.0625 C-7.9423081 21.79904645 -7.94919393 18.52699132 -8 15.25 C-8.03738281 14.34701172 -8.07476562 13.44402344 -8.11328125 12.51367188 C-8.17484772 7.85856256 -8.14393682 5.75155186 -5.265625 1.9296875 C-2.625 0.0625 -2.625 0.0625 0 0 Z " fill="#000000" transform="translate(389.625,161.9375)"/>
<path d="M0 0 C2 2 2 2 2.6875 5.25 C2 9 2 9 0.3046875 10.6171875 C-2.06943629 12.21372371 -4.49757179 13.61398134 -7 15 C-7.77730469 15.50144531 -8.55460937 16.00289062 -9.35546875 16.51953125 C-13.02249808 18.81063563 -15.66452979 20.43193242 -20.0625 19.8125 C-21.031875 19.544375 -22.00125 19.27625 -23 19 C-24.1875 16.3125 -24.1875 16.3125 -25 13 C-22.89872103 7.74680258 -18.91289321 5.72974984 -14.1875 3.125 C-13.13852539 2.50238281 -13.13852539 2.50238281 -12.06835938 1.8671875 C-7.72011788 -0.57335965 -4.97504404 -1.68065763 0 0 Z " fill="#000000" transform="translate(340,133)"/>
<path d="M0 0 C1.875 1.75 1.875 1.75 3 4 C3 6.5 3 6.5 2 9 C-1.40940194 11.99006373 -5.05780312 14.41319416 -8.9375 16.75 C-10.43603516 17.67039062 -10.43603516 17.67039062 -11.96484375 18.609375 C-15.28935148 20.13257288 -17.38735085 20.36074956 -21 20 C-22.875 18.875 -22.875 18.875 -24 17 C-24.4375 14.0625 -24.4375 14.0625 -24 11 C-20.85388506 7.13027863 -16.88738481 5.00002394 -12.5625 2.6875 C-11.90701172 2.31560547 -11.25152344 1.94371094 -10.57617188 1.56054688 C-6.69895771 -0.52778212 -4.21111104 -1.64916006 0 0 Z " fill="#000000" transform="translate(459,64)"/>
<path d="M0 0 C2.23168937 2.48280227 3.7707715 5.27226302 5.375 8.1875 C5.82488281 8.94353516 6.27476562 9.69957031 6.73828125 10.47851562 C9.18363648 14.7634618 10.70986275 17.93065402 10 23 C8.875 24.875 8.875 24.875 7 26 C4.0625 26.5 4.0625 26.5 1 26 C-3.89291168 20.58947491 -10.28543734 12.48019547 -10.6875 4.9375 C-10 2 -10 2 -8.375 0 C-4.99958202 -1.42122862 -3.48313027 -1.17384905 0 0 Z " fill="#000000" transform="translate(423,155)"/>
<path d="M0 0 C2 2 2 2 2.3984375 5.13671875 C1.90112498 9.95869999 0.22072233 12.81142493 -2.375 16.8125 C-2.7875 17.47958984 -3.2 18.14667969 -3.625 18.83398438 C-5.25850317 21.44495476 -6.81605805 23.81605805 -9 26 C-12.10347254 26.33015665 -14.15781176 26.50531294 -16.875 24.875 C-18.58301641 22.02830599 -18.36198584 20.31443285 -18 17 C-16.63447637 13.89953572 -14.90590172 11.06490732 -13.125 8.1875 C-12.43470703 7.02444336 -12.43470703 7.02444336 -11.73046875 5.83789062 C-8.22727756 0.03477826 -7.09095418 -1.62501033 0 0 Z " fill="#000000" transform="translate(362,155)"/>
<path d="M0 0 C2.9375 0.75 2.9375 0.75 4.9375 2.75 C5.78385084 9.15002442 3.68723308 12.91937752 0.375 18.125 C-0.04330078 18.84816406 -0.46160156 19.57132813 -0.89257812 20.31640625 C-3.29019959 24.15981149 -4.26759859 25.52789519 -8.78125 26.7890625 C-12.0625 26.75 -12.0625 26.75 -14 25.75 C-15.66410069 22.61757518 -15.3682456 20.2660744 -15.0625 16.75 C-13.91197046 13.95289581 -12.38067276 11.4783157 -10.75 8.9375 C-10.34587891 8.27041016 -9.94175781 7.60332031 -9.52539062 6.91601562 C-4.981072 -0.40661812 -4.981072 -0.40661812 0 0 Z " fill="#000000" transform="translate(428.0625,35.25)"/>
<path d="M0 0 C5.43782287 1.84332979 6.96205585 5.41174756 9.6875 10.25 C10.10386719 10.8790625 10.52023437 11.508125 10.94921875 12.15625 C13.62044008 16.28024083 14.34246251 19.38456419 13.6875 24.25 C12.625 26.25 12.625 26.25 10.6875 27.25 C7.3359375 27.20703125 7.3359375 27.20703125 3.6875 26.25 C1.85159727 24.07422768 0.67339777 22.39299147 -0.625 19.9375 C-0.95822266 19.35548828 -1.29144531 18.77347656 -1.63476562 18.17382812 C-2.55673489 16.5488803 -3.4361324 14.89998866 -4.3125 13.25 C-4.71210938 12.51523437 -5.11171875 11.78046875 -5.5234375 11.0234375 C-6.72251212 8.32848761 -6.62128159 6.15254698 -6.3125 3.25 C-4.62932596 0.18068263 -3.50375109 0.26443404 0 0 Z " fill="#000000" transform="translate(350.3125,34.75)"/>
<path d="M0 0 C2.71817386 1.32441996 5.25619006 2.88890125 7.8125 4.5 C8.49248047 4.91636719 9.17246094 5.33273438 9.87304688 5.76171875 C14.79340503 8.79340503 14.79340503 8.79340503 16 10 C16.45506692 16.14340344 16.45506692 16.14340344 14.9375 19 C11.77428782 20.63262564 9.42051724 19.7455416 6 19 C3.23460512 17.71046974 0.6945194 16.14022681 -1.875 14.5 C-2.88820313 13.87544922 -2.88820313 13.87544922 -3.921875 13.23828125 C-8.76971726 10.23028274 -8.76971726 10.23028274 -10 9 C-10.58184143 2.71611253 -10.58184143 2.71611253 -8.375 0 C-5.09770684 -1.37991291 -3.4524647 -0.87220161 0 0 Z " fill="#000000" transform="translate(445,133)"/>
<path d="M0 0 C2.44140625 1.62109375 2.44140625 1.62109375 3.44140625 3.62109375 C3.88861122 8.87575214 3.88861122 8.87575214 2.31640625 11.49609375 C-0.48912202 13.17941071 -2.30438717 12.94235688 -5.55859375 12.62109375 C-8.28973918 11.48528406 -10.74065558 9.9973242 -13.24609375 8.43359375 C-13.90931641 8.04623047 -14.57253906 7.65886719 -15.25585938 7.25976562 C-19.11572831 4.90808314 -21.72809275 2.92064261 -23.55859375 -1.37890625 C-22.93463722 -4.36003191 -22.16522985 -5.81893447 -19.93359375 -7.87890625 C-13.18461282 -9.29974434 -5.55009217 -3.23002861 0 0 Z " fill="#000000" transform="translate(338.55859375,71.37890625)"/>
<path d="M0 0 C1.58748047 -0.0299707 1.58748047 -0.0299707 3.20703125 -0.06054688 C4.72876953 -0.05958008 4.72876953 -0.05958008 6.28125 -0.05859375 C7.6744043 -0.06137329 7.6744043 -0.06137329 9.09570312 -0.06420898 C11.5 0.4375 11.5 0.4375 13.30273438 2.30834961 C14.78755244 4.94886721 14.95935715 6.45167849 14.5 9.4375 C12.81989243 11.72126775 11.92362599 12.36910385 9.09570312 12.82568359 C8.16693359 12.82906738 7.23816406 12.83245117 6.28125 12.8359375 C5.26675781 12.83980469 4.25226563 12.84367187 3.20703125 12.84765625 C2.14871094 12.83605469 1.09039062 12.82445313 0 12.8125 C-1.05832031 12.82410156 -2.11664063 12.83570312 -3.20703125 12.84765625 C-4.72876953 12.84185547 -4.72876953 12.84185547 -6.28125 12.8359375 C-7.21001953 12.83255371 -8.13878906 12.82916992 -9.09570312 12.82568359 C-11.5 12.4375 -11.5 12.4375 -13.30273438 11.10009766 C-15.16377513 8.51574048 -14.8858071 6.52395682 -14.5 3.4375 C-11.05551624 -1.33940335 -5.32681662 -0.03568513 0 0 Z " fill="#000000" transform="translate(457.5,101.5625)"/>
<path d="M0 0 C1.06669922 0.00322266 2.13339844 0.00644531 3.23242188 0.00976562 C4.29525391 -0.00634766 5.35808594 -0.02246094 6.453125 -0.0390625 C7.98163086 -0.0400293 7.98163086 -0.0400293 9.54101562 -0.04101562 C10.4761499 -0.04399658 11.41128418 -0.04697754 12.37475586 -0.05004883 C14.79492188 0.32226562 14.79492188 0.32226562 16.59985352 1.6574707 C18.4566848 4.2441372 18.18072393 6.23584918 17.79492188 9.32226562 C16.59765625 10.98486328 16.59765625 10.98486328 14.79492188 12.32226562 C12.390625 12.71044922 12.390625 12.71044922 9.57617188 12.72070312 C8.56167969 12.72457031 7.5471875 12.7284375 6.50195312 12.73242188 C5.44363281 12.72082031 4.3853125 12.70921875 3.29492188 12.69726562 C2.23660156 12.70886719 1.17828125 12.72046875 0.08789062 12.73242188 C-1.43384766 12.72662109 -1.43384766 12.72662109 -2.98632812 12.72070312 C-3.91509766 12.71731934 -4.84386719 12.71393555 -5.80078125 12.71044922 C-8.20507812 12.32226562 -8.20507812 12.32226562 -10.04296875 11.02001953 C-11.20507812 9.32226562 -11.20507812 9.32226562 -11.01757812 5.75976562 C-9.4408774 -0.91089131 -5.9640039 0.04154784 0 0 Z " fill="#000000" transform="translate(316.205078125,101.677734375)"/>
</svg>
