<?xml version="1.0" encoding="UTF-8"?>
<svg version="1.1" xmlns="http://www.w3.org/2000/svg" width="28" height="28">
<path d="M0 0 C0.89009766 -0.00128906 1.78019531 -0.00257812 2.69726562 -0.00390625 C3.63376953 -0.00003906 4.57027344 0.00382813 5.53515625 0.0078125 C6.46779297 0.00394531 7.40042969 0.00007812 8.36132812 -0.00390625 C9.25271484 -0.00261719 10.14410156 -0.00132813 11.0625 0 C11.88355225 0.00112793 12.70460449 0.00225586 13.55053711 0.00341797 C15.59765625 0.1328125 15.59765625 0.1328125 17.59765625 1.1328125 C17.59765625 5.7528125 17.59765625 10.3728125 17.59765625 15.1328125 C16.60765625 15.1328125 15.61765625 15.1328125 14.59765625 15.1328125 C14.41203125 16.2465625 14.22640625 17.3603125 14.03515625 18.5078125 C12.59765625 22.1328125 12.59765625 22.1328125 9.53515625 23.5703125 C2.36045654 24.5952696 -3.5229641 24.47472898 -10.40234375 22.1328125 C-10.40234375 17.5128125 -10.40234375 12.8928125 -10.40234375 8.1328125 C-8.75234375 7.8028125 -7.10234375 7.4728125 -5.40234375 7.1328125 C-5.42296875 6.1634375 -5.44359375 5.1940625 -5.46484375 4.1953125 C-5.36943752 -0.4795927 -4.23120854 0.00582067 0 0 Z " fill="#26120F" transform="translate(10.40234375,1.8671875)"/>
<path d="M0 0 C5.61 0 11.22 0 17 0 C17 2.31 17 4.62 17 7 C15.68 7 14.36 7 13 7 C13.020625 7.969375 13.04125 8.93875 13.0625 9.9375 C13 13 13 13 12 14 C10.65732587 14.08631874 9.31025678 14.10706473 7.96484375 14.09765625 C7.15595703 14.09443359 6.34707031 14.09121094 5.51367188 14.08789062 C4.66353516 14.07951172 3.81339844 14.07113281 2.9375 14.0625 C2.08349609 14.05798828 1.22949219 14.05347656 0.34960938 14.04882812 C-1.76695663 14.03700373 -3.88348685 14.01906769 -6 14 C-6.33 12.02 -6.66 10.04 -7 8 C-6.401875 7.79375 -5.80375 7.5875 -5.1875 7.375 C-2.24601316 5.79017733 -2.24601316 5.79017733 0 0 Z " fill="#DA6B58" transform="translate(9,9)"/>
<path d="M0 0 C1.73443359 0.00966797 1.73443359 0.00966797 3.50390625 0.01953125 C6.4375 0.1875 6.4375 0.1875 8.4375 1.1875 C8.4375 5.8075 8.4375 10.4275 8.4375 15.1875 C7.4475 15.1875 6.4575 15.1875 5.4375 15.1875 C5.1075 16.5075 4.7775 17.8275 4.4375 19.1875 C3.7775 19.1875 3.1175 19.1875 2.4375 19.1875 C2.4375 17.5375 2.4375 15.8875 2.4375 14.1875 C3.7575 14.1875 5.0775 14.1875 6.4375 14.1875 C6.4375 11.8775 6.4375 9.5675 6.4375 7.1875 C0.8275 7.1875 -4.7825 7.1875 -10.5625 7.1875 C-10.2325 5.5375 -9.9025 3.8875 -9.5625 2.1875 C-5.96639031 -0.20990646 -4.26157673 -0.05237692 0 0 Z " fill="#351A15" transform="translate(19.5625,1.8125)"/>
<path d="M0 0 C5.61 0 11.22 0 17 0 C17 2.31 17 4.62 17 7 C15.68 7 14.36 7 13 7 C13 8.98 13 10.96 13 13 C12.67 13 12.34 13 12 13 C11.67 11.02 11.34 9.04 11 7 C10.67 7.33 10.34 7.66 10 8 C8.33382885 8.04063832 6.66611905 8.042721 5 8 C5 6.68 5 5.36 5 4 C6.65614657 3.61781233 8.32457024 3.28604898 10 3 C10.33 3.33 10.66 3.66 11 4 C11.33 3.34 11.66 2.68 12 2 C8.04 1.67 4.08 1.34 0 1 C0 0.67 0 0.34 0 0 Z " fill="#4B251E" transform="translate(9,9)"/>
<path d="M0 0 C4.62 0 9.24 0 14 0 C14.33 1.32 14.66 2.64 15 4 C9.72 4 4.44 4 -1 4 C-0.67 2.68 -0.34 1.36 0 0 Z " fill="#95493C" transform="translate(10,4)"/>
<path d="M0 0 C5.61 0 11.22 0 17 0 C17 1.98 17 3.96 17 6 C16.01 6 15.02 6 14 6 C13.67 4.68 13.34 3.36 13 2 C8.71 1.67 4.42 1.34 0 1 C0 0.67 0 0.34 0 0 Z " fill="#F67863" transform="translate(9,9)"/>
<path d="M0 0 C0.66 0 1.32 0 2 0 C2 1.32 2 2.64 2 4 C2.99 4.33 3.98 4.66 5 5 C3.68 5 2.36 5 1 5 C1 6.98 1 8.96 1 11 C0.67 11 0.34 11 0 11 C-1.125 3.375 -1.125 3.375 0 0 Z " fill="#7B3C31" transform="translate(21,11)"/>
</svg>
