<?xml version="1.0" encoding="UTF-8"?>
<svg version="1.1" xmlns="http://www.w3.org/2000/svg" width="512" height="512">
<path d="M0 0 C0.84886091 -0.00226556 1.69772183 -0.00453111 2.5723058 -0.00686532 C5.40947472 -0.01318259 8.24659559 -0.01237742 11.08377075 -0.0115509 C13.12091127 -0.01454379 15.15805122 -0.01794662 17.19519043 -0.02172852 C22.72412461 -0.03055902 28.25304331 -0.03290622 33.78198385 -0.0335443 C37.23713562 -0.03425529 40.69228345 -0.03639052 44.14743423 -0.03904152 C56.20368957 -0.04829144 68.25993386 -0.0523768 80.31619263 -0.05158997 C91.55081906 -0.0509891 102.7853975 -0.06154357 114.02001178 -0.07733363 C123.66943712 -0.09041202 133.31884678 -0.09577374 142.96828091 -0.09513456 C148.72974468 -0.09487968 154.49116577 -0.09772535 160.2526207 -0.10831261 C165.671514 -0.11799869 171.09032387 -0.11806922 176.50922012 -0.11079597 C178.49576184 -0.10975081 180.48230877 -0.11210898 182.46884155 -0.11815643 C185.1852174 -0.12588884 187.901306 -0.12122327 190.61767578 -0.11352539 C191.39959758 -0.11866895 192.18151937 -0.12381252 192.98713577 -0.12911195 C200.54387575 -0.08194432 207.53726891 1.03950823 213.43582153 6.13371277 C217.48316108 10.88493746 217.80812797 16.15124348 217.87332153 22.19621277 C217.8834729 22.86878113 217.89362427 23.54134949 217.90408325 24.23429871 C217.80399812 29.99976603 216.58751726 34.72803069 212.68191528 39.09465027 C212.08507935 39.56129089 211.48824341 40.02793152 210.87332153 40.50871277 C210.27390747 40.99082214 209.67449341 41.47293152 209.05691528 41.96965027 C205.77736701 44.324603 203.42361468 44.22040392 199.43582153 44.13371277 C199.75886009 45.17456024 199.75886009 45.17456024 200.08842468 46.23643494 C200.39586105 47.22701904 200.70329742 48.21760315 201.02005005 49.23820496 C201.36962265 50.36454346 201.71919525 51.49088196 202.07936096 52.65135193 C202.87626817 55.21916289 203.67312249 57.7869902 204.46989441 60.35484314 C206.68366448 67.48921105 208.89842678 74.62326856 211.11502075 81.75675964 C213.17453236 88.38508807 215.23093915 95.01437348 217.28462791 101.64450836 C218.45687516 105.42862174 219.63055363 109.21228024 220.80715942 112.99504089 C221.97482988 116.74927232 223.13896643 120.50458303 224.3006916 124.26065826 C224.7359772 125.66590108 225.17248772 127.07076516 225.6103344 128.4752121 C227.8442548 135.6434237 229.95281507 142.76642213 231.43582153 150.13371277 C232.96275635 150.28404968 232.96275635 150.28404968 234.52053833 150.43742371 C259.17421384 152.86825985 283.81104632 155.42568409 308.43582153 158.13371277 C308.44168777 157.41010056 308.44755402 156.68648834 308.45359802 155.94094849 C308.51165782 149.0999215 308.58381016 142.25917029 308.67153645 135.41846371 C308.7161406 131.90210224 308.75541791 128.38585396 308.78225708 124.86930847 C308.81339796 120.82043176 308.86818253 116.77216738 308.92410278 112.72355652 C308.93049271 111.46913254 308.93688263 110.21470856 308.94346619 108.92227173 C309.07597673 101.01819128 309.56162884 95.64661494 314.68582153 89.38371277 C319.04059004 85.82072036 322.79795768 84.13371277 328.43582153 84.13371277 C328.42693909 83.51841202 328.41805664 82.90311127 328.40890503 82.26916504 C328.32036882 75.86156001 328.2600611 69.45412892 328.21609497 63.04606628 C328.19598736 60.65504396 328.16869723 58.26407076 328.13406372 55.87321472 C328.08551002 52.43518446 328.06284379 48.99780473 328.04519653 45.55949402 C328.02455139 44.49161148 328.00390625 43.42372894 327.9826355 42.32348633 C327.98038985 34.88572693 327.98038985 34.88572693 330.28933716 31.07316589 C342.99938151 19.58902209 342.99938151 19.58902209 348.93582153 19.32121277 C352.43582153 20.13371277 352.43582153 20.13371277 354.93582153 21.69621277 C357.04588993 25.12507391 357.06073677 27.17591628 356.43582153 31.13371277 C353.99737443 34.14591214 351.55470594 36.05659279 348.306427 38.16374207 C346.34504065 39.81169541 345.53955061 40.746163 344.87191772 43.24055481 C344.64520083 45.85216793 344.60507455 48.40689909 344.63113403 51.02824402 C344.61742767 51.97559921 344.60372131 52.92295441 344.58959961 53.89901733 C344.55230536 56.91523247 344.55601412 59.92979982 344.56082153 62.94621277 C344.54269438 64.99506662 344.52189164 67.04389868 344.49832153 69.09269714 C344.4464757 74.10664508 344.43139063 79.11951148 344.43582153 84.13371277 C345.36136841 84.26390808 346.28691528 84.39410339 347.24050903 84.52824402 C352.53114929 85.5307492 355.53643997 87.94263989 358.74832153 92.19621277 C361.87119512 97.63232604 361.71996389 102.39647135 361.81082153 108.50871277 C361.84820435 109.45488464 361.88558716 110.40105652 361.92410278 111.37590027 C361.98384979 116.10255208 362.00169667 118.37668918 359.09988403 122.25871277 C356.43582153 124.13371277 356.43582153 124.13371277 353.43582153 124.75871277 C349.29764957 123.89659361 348.02309819 122.46509874 345.43582153 119.13371277 C344.70381153 116.02935446 344.64591205 113.0014549 344.62332153 109.82121277 C344.58561646 108.56727722 344.58561646 108.56727722 344.54714966 107.28800964 C344.48855163 105.23707868 344.45925661 103.18534684 344.43582153 101.13371277 C341.62325872 101.10686965 338.81094912 101.08695089 335.99832153 101.07121277 C335.19588013 101.06283386 334.39343872 101.05445496 333.56668091 101.04582214 C331.52286932 101.03719847 329.47898252 101.08143127 327.43582153 101.13371277 C325.6928118 102.8767225 326.26576068 105.29066466 326.23049927 107.66325378 C326.21055405 108.84440262 326.19060883 110.02555145 326.1700592 111.24249268 C326.14499046 113.17058022 326.14499046 113.17058022 326.11941528 115.13761902 C326.08824364 117.09984657 326.08824364 117.09984657 326.05644226 119.10171509 C326.00115854 122.58526724 325.95177723 126.06887936 325.90359497 129.55253601 C325.85342579 133.10504007 325.79771586 136.65745667 325.74246216 140.20988464 C325.63480362 147.18441822 325.53337587 154.15903075 325.43582153 161.13371277 C326.12352631 161.13117493 326.81123108 161.12863708 327.51977539 161.12602234 C328.42132355 161.12404846 329.3228717 161.12207458 330.2517395 161.12004089 C331.14569427 161.11750305 332.03964905 161.11496521 332.96069336 161.11235046 C336.84381302 161.14586484 340.58844048 161.6372765 344.43582153 162.13371277 C344.45000122 161.25328308 344.46418091 160.37285339 344.47879028 159.46574402 C344.86775499 149.99392782 344.86775499 149.99392782 347.62332153 145.82121277 C351.01580944 143.78572002 352.5540252 143.3250052 356.43582153 144.13371277 C360.00752786 146.91170658 361.29866565 148.4024673 362.14285278 152.90324402 C362.20198135 154.25006143 362.23671141 155.59814803 362.24832153 156.94621277 C362.28602661 157.98551941 362.28602661 157.98551941 362.32449341 159.04582214 C362.38295416 160.74118399 362.412352 162.43750564 362.43582153 164.13371277 C363.26694962 164.21434967 363.26694962 164.21434967 364.11486816 164.2966156 C369.92507247 164.86329435 375.73290023 165.4508881 381.53982544 166.05021667 C383.70205386 166.27066779 385.86481837 166.48592919 388.02810669 166.69572449 C391.1525749 166.99967229 394.27458546 167.32275227 397.39675903 167.64933777 C398.35134003 167.73806152 399.30592102 167.82678528 400.28942871 167.91819763 C407.67329234 168.71902598 414.98207153 170.34968031 420.87332153 175.09855652 C421.64675903 176.07502136 421.64675903 176.07502136 422.43582153 177.07121277 C422.97207153 177.71961121 423.50832153 178.36800964 424.06082153 179.03605652 C427.32528809 184.01622282 427.71913478 188.48917845 427.67532349 194.33293152 C427.67733765 195.14493011 427.67935181 195.95692871 427.681427 196.79353333 C427.68496383 198.55101685 427.68421613 200.30851311 427.67965126 202.06599426 C427.67404738 204.84872573 427.68323353 207.63104208 427.69685364 210.41374207 C427.73394275 218.32334797 427.75250653 226.23281136 427.74124146 234.14250183 C427.73539017 238.98548001 427.75364877 243.82787195 427.78713036 248.67073059 C427.79508277 250.51428082 427.79380951 252.35789496 427.78310585 254.20143127 C427.76877667 256.7797677 427.78504894 259.35625945 427.80813599 261.93449402 C427.79048439 263.07393967 427.79048439 263.07393967 427.7724762 264.23640442 C427.84236429 268.2188902 428.25626745 269.91930221 430.8483429 273.01457214 C431.70221085 273.71388855 432.5560788 274.41320496 433.43582153 275.13371277 C441.28828812 283.28877923 446.64678703 291.58597081 450.68582153 302.13371277 C450.9321936 302.77381287 451.17856567 303.41391296 451.43240356 304.07341003 C458.86851931 324.44178928 457.74823681 348.70622894 448.75027466 368.31681824 C442.54151167 381.12466119 433.92441387 392.61356448 422.43582153 401.13371277 C423.32890015 401.14829529 424.22197876 401.16287781 425.14212036 401.17790222 C428.45799431 401.23898354 431.77304053 401.31313755 435.08840942 401.39616394 C436.52286781 401.42940278 437.95745666 401.45743812 439.39212036 401.48014832 C441.4554296 401.51371548 443.51754456 401.5660269 445.58035278 401.62199402 C446.82147827 401.6481781 448.06260376 401.67436218 449.34133911 401.70133972 C452.43582153 402.13371277 452.43582153 402.13371277 454.33938599 403.53092957 C455.79102997 405.65296091 455.83637775 407.07809095 455.81082153 409.63371277 C455.81855591 410.40715027 455.82629028 411.18058777 455.83425903 411.97746277 C455.33694847 414.66879053 454.61841175 415.51405306 452.43582153 417.13371277 C448.38098594 418.36933615 444.38213309 418.2733207 440.18014622 418.26234722 C438.91425498 418.26497678 438.91425498 418.26497678 437.62279019 418.26765946 C434.7759917 418.27233611 431.92924391 418.26984968 429.08244324 418.26742554 C427.02840347 418.26929267 424.97436406 418.27159298 422.92032522 418.27429086 C417.26102789 418.28042731 411.6017453 418.28027311 405.9424454 418.27909648 C399.84488293 418.27889294 393.74732526 418.28440673 387.64976501 418.28915405 C375.69844849 418.29747105 363.74713825 418.3002223 351.79581959 418.30076643 C342.08533427 418.30122566 332.37485056 418.30328234 322.66436577 418.30646706 C319.87104637 418.30736457 317.07772696 418.30825439 314.28440756 418.30914193 C313.59001893 418.30936298 312.89563031 418.30958403 312.18019961 418.30981178 C292.64444843 418.31596725 273.10869779 418.31991221 253.57294559 418.3194685 C252.83617134 418.31945292 252.09939709 418.31943734 251.34029634 418.31942129 C247.60585792 418.31933818 243.8714195 418.31923914 240.13698108 418.31913658 C239.02443317 418.31910666 239.02443317 418.31910666 237.88940954 418.31907614 C236.38951431 418.31903571 234.88961907 418.31899391 233.38972384 418.31895075 C210.04709198 418.31833782 186.70447463 418.3258473 163.36184692 418.33952332 C137.14856114 418.35487479 110.9352849 418.36349012 84.72199434 418.36256009 C81.92836058 418.36248546 79.13472682 418.36243675 76.34109306 418.36240578 C75.65320724 418.36239412 74.96532142 418.36238247 74.25659057 418.36237046 C63.17418151 418.36233965 52.09178504 418.36873257 41.00937972 418.37733804 C29.87715462 418.3858036 18.74494776 418.38664109 7.6127196 418.38022872 C1.57878676 418.37695238 -4.45510037 418.3769468 -10.48902893 418.38558197 C-16.00773701 418.39339883 -21.52636274 418.39206522 -27.04506869 418.38329784 C-29.0463711 418.38175218 -31.04767952 418.38361871 -33.04897486 418.38915791 C-35.76030496 418.39616801 -38.4713422 418.39096387 -41.18266201 418.38260174 C-41.96734758 418.38756992 -42.75203315 418.3925381 -43.56049708 418.39765683 C-48.85785636 418.36289867 -52.74055958 417.95733166 -56.56417847 414.13371277 C-56.86495972 412.07511902 -56.86495972 412.07511902 -56.87667847 409.69621277 C-56.89343628 408.91375183 -56.91019409 408.13129089 -56.92745972 407.32511902 C-56.46237852 404.51962919 -55.83745221 403.82737839 -53.56417847 402.13371277 C-50.77372742 401.73498535 -50.77372742 401.73498535 -47.34860229 401.70133972 C-46.06750076 401.68154556 -44.78639923 401.6617514 -43.46647644 401.64135742 C-42.06805569 401.63458762 -40.66963334 401.62814076 -39.27120972 401.62199402 C-37.84058586 401.60514923 -36.40997682 401.58699926 -34.97938538 401.56759644 C-31.21637604 401.52006795 -27.45342678 401.49027736 -23.69021606 401.4641571 C-19.8492547 401.43436571 -16.0085004 401.38783059 -12.16769409 401.34269714 C-4.63329156 401.25663177 2.90112598 401.18930124 10.43582153 401.13371277 C8.1072769 399.93533068 8.1072769 399.93533068 5.43582153 399.13371277 C4.44582153 399.79371277 3.45582153 400.45371277 2.43582153 401.13371277 C0.16629028 401.46965027 0.16629028 401.46965027 -2.37667847 401.50871277 C-3.20812378 401.53707214 -4.03956909 401.56543152 -4.89620972 401.59465027 C-10.97590812 400.54427778 -15.34775137 395.64913751 -19.54855347 391.41496277 C-20.3610556 390.60533081 -20.3610556 390.60533081 -21.18997192 389.77934265 C-22.32514029 388.6455267 -23.45782146 387.50921555 -24.58810425 386.37052917 C-26.31621336 384.63166521 -28.05479532 382.90378725 -29.79464722 381.17668152 C-30.90075815 380.06924964 -32.00624887 378.96119788 -33.11105347 377.85246277 C-33.88760284 377.08198608 -33.88760284 377.08198608 -34.67984009 376.29594421 C-38.8973602 372.02314652 -40.85090346 369.15661095 -40.81417847 363.13371277 C-40.81933472 362.28808777 -40.82449097 361.44246277 -40.82980347 360.57121277 C-40.56417847 358.13371277 -40.56417847 358.13371277 -39.40011597 356.28996277 C-38.0469533 352.79956186 -39.59555645 349.92427255 -40.93917847 346.63371277 C-41.21229858 345.95316833 -41.4854187 345.2726239 -41.76681519 344.57145691 C-43.45670563 340.71807316 -44.77613861 338.27029586 -48.68917847 336.57121277 C-49.33113159 336.40492371 -49.97308472 336.23863464 -50.63449097 336.06730652 C-53.71039961 334.57916448 -55.20965855 332.16656369 -56.56417847 329.13371277 C-57.15958824 325.73749895 -57.17247752 322.39225714 -57.16574097 318.95011902 C-57.17431122 317.9763884 -57.18288147 317.00265778 -57.19171143 315.99942017 C-57.20316468 313.94615277 -57.20422305 311.89280424 -57.19552612 309.83952332 C-57.1892042 306.70895673 -57.2361548 303.5821719 -57.28683472 300.45207214 C-57.29138125 298.45142584 -57.29278744 296.45076944 -57.29074097 294.45011902 C-57.30916046 293.52075027 -57.32757996 292.59138153 -57.34655762 291.6338501 C-57.26432082 285.81780722 -56.17829813 282.66166406 -52.1807251 278.39382935 C-49.778101 276.5209564 -47.55658564 276.20496056 -44.56417847 276.13371277 C-44.38242065 275.49304871 -44.20066284 274.85238464 -44.01339722 274.19230652 C-42.81560644 270.07067773 -41.6371379 266.12222116 -39.75167847 262.25871277 C-39.35980347 261.22746277 -38.96792847 260.19621277 -38.56417847 259.13371277 C-39.19773023 257.7843298 -39.86794519 256.45184836 -40.56417847 255.13371277 C-41.30198748 250.41516676 -41.02396077 246.98985913 -38.75167847 242.75871277 C-37.09115229 240.76608135 -35.49014691 238.86708437 -33.56417847 237.13371277 C-34.99442608 233.92823319 -36.7685092 231.59826817 -39.12667847 229.00871277 C-42.46356514 225.33189377 -43.73244809 223.39382066 -43.87667847 218.38371277 C-43.91406128 217.54324402 -43.95144409 216.70277527 -43.98995972 215.83683777 C-42.97992607 209.42451408 -38.16766149 205.5698047 -33.25167847 201.82121277 C-32.64791382 201.35408875 -32.04414917 200.88696472 -31.42208862 200.40568542 C-15.54567284 188.37908636 -15.54567284 188.37908636 -6.56417847 186.13371277 C-6.56417847 139.27371277 -6.56417847 92.41371277 -6.56417847 44.13371277 C-9.20417847 44.13371277 -11.84417847 44.13371277 -14.56417847 44.13371277 C-19.38842083 41.67429509 -24.29126848 37.68024814 -26.18527222 32.40324402 C-27.50764657 24.48263061 -27.94662717 15.08518313 -23.56417847 8.13371277 C-16.78845061 0.31556524 -9.95863412 -0.01961125 0 0 Z M-10.56417847 18.13371277 C-10.8446083 20.30908961 -10.8446083 20.30908961 -10.75167847 22.69621277 C-10.74523315 23.50187683 -10.73878784 24.30754089 -10.73214722 25.13761902 C-10.78048758 27.13251162 -10.78048758 27.13251162 -9.56417847 28.13371277 C-6.86054828 28.23378267 -4.18239342 28.26811151 -1.47824097 28.26069641 C-0.62054611 28.2622564 0.23714874 28.26381639 1.12083435 28.26542366 C4.01751382 28.26943741 6.9141416 28.26624257 9.81082153 28.2631073 C11.87828604 28.26446117 13.94575031 28.26624103 16.01321411 28.26841736 C21.64527981 28.27299334 27.27732728 28.27120146 32.90939331 28.26803827 C38.78929699 28.26551552 44.66919905 28.26785197 50.54910278 28.26942444 C60.42540773 28.27124638 70.30170522 28.26883918 80.17800903 28.26408386 C91.61430967 28.2586412 103.05059249 28.26040384 114.4868927 28.26591027 C124.28642429 28.27044069 134.08595049 28.27109229 143.88548279 28.2684716 C149.74682915 28.26690843 155.60816711 28.26671613 161.46951294 28.27000809 C166.97858519 28.27288578 172.48763435 28.27091299 177.9967041 28.26511383 C180.02488161 28.26378568 182.05306104 28.26418127 184.08123779 28.2663765 C186.83747992 28.26908587 189.59364678 28.2657095 192.34988403 28.26069641 C193.16338821 28.26292713 193.9768924 28.26515785 194.81504822 28.26745617 C198.42292862 28.59357825 198.42292862 28.59357825 201.43582153 27.13371277 C201.63524021 25.06598542 201.63524021 25.06598542 201.62332153 22.69621277 C201.63750122 21.89312683 201.65168091 21.09004089 201.66629028 20.26261902 C201.6374451 17.91740644 201.6374451 17.91740644 199.43582153 16.13371277 C196.69473989 15.93597786 194.05458583 15.86449278 191.31228638 15.87974548 C190.03777146 15.87506551 190.03777146 15.87506551 188.73750877 15.87029099 C185.87385616 15.86227673 183.01041344 15.86864792 180.14675903 15.87492371 C178.10047277 15.87221536 176.05418748 15.86865532 174.00790405 15.86430359 C168.43779374 15.85515866 162.86775723 15.85873249 157.29764557 15.86506176 C151.47960709 15.87011089 145.6615751 15.86543335 139.84353638 15.86228943 C130.07155213 15.8586466 120.29959808 15.86345717 110.52761841 15.87297058 C99.21569843 15.88385573 87.90385053 15.88033037 76.5919323 15.86931777 C66.89511941 15.8602539 57.19832828 15.8589552 47.50151253 15.86419511 C41.70329735 15.86731977 35.9051161 15.86771059 30.10690308 15.86112213 C24.65688437 15.85536236 19.20695896 15.85932038 13.75695038 15.87091064 C11.75176906 15.87356458 9.74657994 15.87277972 7.74140167 15.86838531 C5.01394582 15.86295725 2.286793 15.86973044 -0.44064331 15.87974548 C-1.6438343 15.87305332 -1.6438343 15.87305332 -2.87133217 15.86622596 C-7.18201862 15.73520232 -7.18201862 15.73520232 -10.56417847 18.13371277 Z M9.43582153 44.13371277 C9.43582153 79.11371277 9.43582153 114.09371277 9.43582153 150.13371277 C25.27582153 150.13371277 41.11582153 150.13371277 57.43582153 150.13371277 C57.43582153 115.15371277 57.43582153 80.17371277 57.43582153 44.13371277 C41.59582153 44.13371277 25.75582153 44.13371277 9.43582153 44.13371277 Z M73.43582153 44.13371277 C73.43582153 79.11371277 73.43582153 114.09371277 73.43582153 150.13371277 C80.36582153 150.46371277 87.29582153 150.79371277 94.43582153 151.13371277 C97.61304058 155.37000483 97.85901024 156.1612455 97.43582153 161.13371277 C96.94082153 162.61871277 96.94082153 162.61871277 96.43582153 164.13371277 C53.37082153 164.62871277 53.37082153 164.62871277 9.43582153 165.13371277 C9.43582153 169.75371277 9.43582153 174.37371277 9.43582153 179.13371277 C10.54957153 178.86816589 11.66332153 178.60261902 12.81082153 178.32902527 C51.30878329 169.33369763 90.51077732 171.81867918 124.74832153 193.00871277 C141.80725517 203.91128499 156.6085152 217.99277361 167.43582153 235.13371277 C167.82608521 235.74940125 168.21634888 236.36508972 168.61843872 236.99943542 C182.19048941 258.81205935 188.65785382 283.42453273 188.56082153 309.00871277 C188.56468872 310.02062683 188.56855591 311.03254089 188.57254028 312.07511902 C188.57060669 313.58525574 188.57060669 313.58525574 188.56863403 315.12590027 C188.5675061 316.01648132 188.56637817 316.90706238 188.56521606 317.82463074 C188.37827027 322.60550493 187.86899233 327.36883399 187.43582153 332.13371277 C220.10582153 332.13371277 252.77582153 332.13371277 286.43582153 332.13371277 C287.09582153 326.85371277 287.75582153 321.57371277 288.43582153 316.13371277 C291.97888524 300.60792797 298.66306987 286.94712381 309.43582153 275.13371277 C310.02234497 274.47757996 310.60886841 273.82144714 311.21316528 273.14543152 C324.98631802 258.52968591 345.78822338 249.63710108 365.74832153 248.93058777 C381.14177283 248.67364838 394.12259058 251.17700887 408.43582153 257.13371277 C409.42582153 257.46371277 410.41582153 257.79371277 411.43582153 258.13371277 C411.43582153 250.54371277 411.43582153 242.95371277 411.43582153 235.13371277 C409.36805954 235.13006714 407.30029755 235.12642151 405.1698761 235.12266541 C385.67431417 235.08640158 366.17890577 235.02816562 346.68346691 234.94981003 C336.66089305 234.91005334 326.63839732 234.87764373 316.61575317 234.86271667 C307.87684523 234.84968268 299.13810946 234.82267345 290.39929849 234.7790997 C285.7750054 234.75652418 281.15092435 234.74079974 276.52657127 234.74182892 C272.16720014 234.74257785 267.80829704 234.72453419 263.44904709 234.69254494 C261.85564499 234.68407924 260.26219018 234.68227321 258.66877556 234.68791008 C246.13131187 234.72632891 235.72228662 233.37499202 226.38113403 224.41886902 C219.43559672 216.25995471 218.31225329 207.7606171 218.11941528 197.45793152 C218.09863419 196.53277237 218.07785309 195.60761322 218.05644226 194.65441895 C217.99125594 191.7100897 217.93220595 188.76567412 217.87332153 185.82121277 C217.83010689 183.82055293 217.78649167 181.81990171 217.74246216 179.81925964 C217.63560633 174.92416498 217.53425234 170.0289838 217.43582153 165.13371277 C216.23978806 165.13228775 215.04375458 165.13086273 213.81147766 165.12939453 C202.55437396 165.11274399 191.29763265 165.07002998 180.04072094 165.0016222 C174.25301593 164.96729299 168.46557655 164.94223298 162.67776489 164.93815613 C157.09488965 164.93388593 151.51261422 164.90552936 145.92992592 164.86028099 C143.79725955 164.84726503 141.66452154 164.84301271 139.5318203 164.84755898 C136.55018261 164.85243582 133.57031782 164.82650227 130.58889771 164.7931366 C129.2585701 164.80607506 129.2585701 164.80607506 127.90136719 164.8192749 C125.63562327 164.77661172 123.63055754 164.69687078 121.43582153 164.13371277 C119.35203552 161.79171753 119.35203552 161.79171753 118.43582153 159.13371277 C118.6534852 155.43343041 118.79073194 153.77880236 121.43582153 151.13371277 C124.38671363 150.91581007 127.2464709 150.82226299 130.19998169 150.81486511 C131.1073558 150.80481949 132.01472992 150.79477386 132.94960022 150.78442383 C135.95802152 150.75345696 138.96635331 150.73651929 141.97488403 150.71965027 C144.05711647 150.70094947 146.13934125 150.68137689 148.22155762 150.66096497 C153.7091318 150.60952273 159.19673059 150.56996185 164.68441772 150.53282166 C170.28130235 150.49285764 175.87808356 150.44173072 181.47488403 150.39152527 C192.46179069 150.29462288 203.44875557 150.21026407 214.43582153 150.13371277 C212.05825941 140.29871878 209.47260327 130.59122782 206.42410278 120.93840027 C206.05407135 119.75315765 205.68403992 118.56791504 205.30279541 117.34675598 C204.32246286 114.20832973 203.3384384 111.07109301 202.35276413 107.93434143 C200.72674105 102.75416937 199.11164001 97.57057134 197.49501991 92.3874588 C196.90043223 90.48142523 196.30535831 88.57554336 195.71028137 86.66966248 C192.32546059 75.8150704 189.02893638 64.9365696 185.81008911 54.03166199 C185.34445557 52.45795837 185.34445557 52.45795837 184.86941528 50.85246277 C184.61216675 49.97525574 184.35491821 49.09804871 184.08987427 48.19425964 C183.48420643 46.10077095 183.48420643 46.10077095 182.43582153 44.13371277 C146.46582153 44.13371277 110.49582153 44.13371277 73.43582153 44.13371277 Z M233.43582153 167.13371277 C233.33639071 172.39895722 233.26408955 177.6636462 233.21609497 182.92961121 C233.19607194 184.71811961 233.16884499 186.50656331 233.13406372 188.29484558 C233.08513198 190.87671439 233.06275989 193.45771227 233.04519653 196.03996277 C233.02455139 196.8298761 233.00390625 197.61978943 232.9826355 198.43363953 C232.98037753 204.11498752 234.27501164 208.38071753 237.43582153 213.13371277 C242.48081512 217.92645668 246.25585767 219.38474615 253.18087769 219.3742218 C253.85808152 219.37593065 254.53528536 219.3776395 255.23301053 219.37940013 C257.50091735 219.38269292 259.76852793 219.37169501 262.03640747 219.36076355 C263.6625925 219.36019939 265.28877804 219.36051609 266.91496277 219.36164856 C271.32991892 219.36222288 275.74476661 219.35045564 280.15969753 219.33650064 C284.77348215 219.32400661 289.38726919 219.32282383 294.00106812 219.32044983 C302.73807804 219.31423116 311.47503798 219.2978151 320.21202588 219.27775085 C330.15871803 219.2554039 340.10541255 219.24440145 350.05212355 219.23435998 C370.51338412 219.21344922 390.97459968 219.17826571 411.43582153 219.13371277 C411.55966116 214.9345968 411.65026761 210.73645461 411.71047974 206.53605652 C411.735585 205.10813375 411.7696774 203.68033902 411.8130188 202.25285339 C411.87385831 200.19719359 411.90206704 198.14323524 411.92410278 196.08683777 C411.95028687 194.8509491 411.97647095 193.61506042 412.00344849 192.34172058 C411.70563109 189.01878752 411.70563109 189.01878752 409.32543468 186.77191544 C405.98255086 184.87674092 403.52983568 184.38513676 399.71372986 183.96934509 C398.71947661 183.85396263 398.71947661 183.85396263 397.70513743 183.73624921 C395.49290452 183.48371656 393.27885234 183.25554471 391.06399536 183.02726746 C389.47343092 182.85078664 387.88303064 182.67282098 386.29278564 182.4934845 C381.97802174 182.01130348 377.6612278 181.55033345 373.34372544 181.09341335 C368.81876668 180.61119924 364.29585318 180.11049342 359.7726593 179.61204529 C352.171919 178.77714881 344.56988578 177.95502828 336.96682739 177.14152527 C327.22802014 176.09944121 317.49158769 175.03668694 307.75575733 173.96718979 C299.36688578 173.04580484 290.97700254 172.13376009 282.58693862 171.2233057 C279.9002746 170.93139416 277.21374593 170.63826044 274.52723122 170.34497833 C270.2916748 169.88321413 266.05552577 169.42729715 261.81886673 168.97576523 C260.26997212 168.80989533 258.7212662 168.64225166 257.17277718 168.47263718 C249.24872955 167.60601379 241.41777051 166.85922538 233.43582153 167.13371277 Z M-1.56417847 201.13371277 C-2.45363159 201.57328308 -3.34308472 202.01285339 -4.25949097 202.46574402 C-12.05432802 206.49640762 -21.62493079 211.72484125 -26.56417847 219.13371277 C-24.91417847 220.78371277 -23.26417847 222.43371277 -21.56417847 224.13371277 C-18.40592329 222.75456204 -16.4884915 221.18130843 -14.18917847 218.63371277 C-11.14971092 215.53616622 -8.96545735 213.85228891 -4.56417847 213.13371277 C-1.21824077 213.27014906 2.06795215 213.59741156 5.20925903 214.82902527 C8.74081353 215.31229062 11.70294972 213.97558961 14.93582153 212.69621277 C15.61636597 212.42760437 16.2969104 212.15899597 16.99807739 211.88224792 C20.86540147 210.21272927 23.2990297 208.92958961 24.99832153 205.00871277 C25.1646106 204.36675964 25.33089966 203.72480652 25.50222778 203.06340027 C26.98385929 200.00094854 29.42165557 198.49630457 32.43582153 197.13371277 C35.6305438 196.57571559 38.7616758 196.59577296 41.99832153 196.63761902 C42.90783569 196.63616379 43.81734985 196.63470856 44.75442505 196.63320923 C46.67071752 196.63486369 48.5870239 196.64637402 50.50320435 196.66716003 C53.42663351 196.69612175 56.3482479 196.68775783 59.27175903 196.67472839 C61.13895529 196.6809664 63.00614586 196.68935782 64.87332153 196.70011902 C65.74223022 196.69718338 66.61113892 196.69424774 67.50637817 196.69122314 C72.54482129 196.76906044 76.0815783 197.32061133 80.43582153 200.13371277 C82.19796274 202.50348888 83.34656647 204.16520035 83.61941528 207.12590027 C84.311862 209.44810398 84.311862 209.44810398 87.20144653 210.58293152 C88.35129028 210.99156433 89.50113403 211.40019714 90.68582153 211.82121277 C91.82535278 212.23757996 92.96488403 212.65394714 94.13894653 213.08293152 C99.43589032 215.03612589 99.43589032 215.03612589 104.68582153 214.13371277 C108.90390816 212.59986309 112.17713214 212.6958031 116.43582153 214.13371277 C119.55750353 216.19390875 122.09674906 218.72730866 124.70828247 221.39299011 C126.84631913 223.54734305 129.03610847 225.64422725 131.22488403 227.74699402 C132.96328784 229.43693601 134.70025157 231.12836055 136.43582153 232.82121277 C137.28579712 233.64089539 138.13577271 234.460578 139.01150513 235.30509949 C139.81152954 236.09803406 140.61155396 236.89096863 141.43582153 237.70793152 C142.15769653 238.415224 142.87957153 239.12251648 143.62332153 239.85124207 C146.12493075 243.001504 147.42558474 246.24673074 147.44754028 250.29386902 C146.47517236 255.99920854 146.47517236 255.99920854 145.74441528 258.49699402 C145.33199917 262.0208026 146.35481265 264.04905783 147.81082153 267.25871277 C148.5030481 268.80945496 148.5030481 268.80945496 149.20925903 270.39152527 C149.61402466 271.29644714 150.01879028 272.20136902 150.43582153 273.13371277 C150.76582153 274.12371277 151.09582153 275.11371277 151.43582153 276.13371277 C153.20712348 277.00778766 153.20712348 277.00778766 155.31082153 277.57121277 C158.82356409 278.77145218 160.63366988 279.74142731 162.43582153 283.13371277 C163.34605872 285.86442434 163.56214488 287.45834512 163.56521606 290.26628113 C163.56836823 291.09401535 163.57152039 291.92174957 163.57476807 292.77456665 C163.57173172 294.11056664 163.57173172 294.11056664 163.56863403 295.47355652 C163.56959076 296.39205887 163.57054749 297.31056122 163.5715332 298.25689697 C163.5722137 300.19947885 163.57036849 302.142063 163.56619263 304.0846405 C163.56084866 307.05612816 163.56613888 310.02746424 163.57254028 312.99894714 C163.57187936 314.88631727 163.5705979 316.7736873 163.56863403 318.66105652 C163.57065826 319.54969894 163.5726825 320.43834137 163.57476807 321.35391235 C163.57003983 322.60024193 163.57003983 322.60024193 163.56521606 323.87174988 C163.56442047 324.59994431 163.56362488 325.32813873 163.56280518 326.07839966 C163.43582153 328.13371277 163.43582153 328.13371277 162.43582153 332.13371277 C165.40582153 332.13371277 168.37582153 332.13371277 171.43582153 332.13371277 C178.67616254 301.49155528 170.48086939 269.50772229 154.43582153 243.13371277 C136.87101881 215.68464426 108.51975731 197.46450217 77.06082153 190.38371277 C50.23026133 185.08938818 22.88057962 188.76273337 -1.56417847 201.13371277 Z M38.43582153 212.13371277 C37.11582153 214.77371277 35.79582153 217.41371277 34.43582153 220.13371277 C30.68582153 222.19621277 30.68582153 222.19621277 28.33425903 223.05949402 C25.99362983 223.92697789 23.79359877 224.87013117 21.53738403 225.92668152 C20.84225708 226.24822205 20.14713013 226.56976257 19.43093872 226.90104675 C18.0454684 227.54320682 16.66313227 228.19218454 15.28445435 228.84880066 C9.97287416 231.24607989 5.39779659 232.25012897 -0.271698 230.11320496 C-1.02821655 229.78997253 -1.78473511 229.46674011 -2.56417847 229.13371277 C-5.58914391 232.03518697 -8.59742286 234.95266868 -11.59127808 237.88615417 C-12.61222644 238.88194004 -13.63761468 239.87319468 -14.66744995 240.85978699 C-16.14621669 242.27797774 -17.60830261 243.71164523 -19.06808472 245.14933777 C-19.95310669 246.00817566 -20.83812866 246.86701355 -21.74996948 247.75187683 C-23.83070681 249.92767901 -23.83070681 249.92767901 -23.3666687 252.31925964 C-23.10184692 252.91802917 -22.83702515 253.51679871 -22.56417847 254.13371277 C-21.01481032 263.21864415 -24.85682758 270.41689123 -28.72286987 278.36320496 C-29.41394931 279.81756017 -30.03623389 281.30441021 -30.63839722 282.79777527 C-33.19071775 288.96492082 -34.69138909 288.69731808 -41.56417847 292.13371277 C-41.56417847 302.03371277 -41.56417847 311.93371277 -41.56417847 322.13371277 C-38.92417847 323.45371277 -36.28417847 324.77371277 -33.56417847 326.13371277 C-30.60703914 329.10338234 -29.48415217 332.6037851 -28.06417847 336.50871277 C-26.83344191 339.87745962 -25.61854303 343.03223226 -23.92355347 346.19621277 C-22.46582716 349.34624204 -22.21729684 351.31941487 -22.31417847 354.75871277 C-22.32964722 355.67910339 -22.34511597 356.59949402 -22.36105347 357.54777527 C-22.56417847 360.13371277 -22.56417847 360.13371277 -23.3354187 361.99528503 C-23.82386536 364.3135044 -23.82386536 364.3135044 -21.90524292 366.43962097 C-20.67874023 367.67458313 -20.67874023 367.67458313 -19.42745972 368.93449402 C-18.53994019 369.82845886 -17.65242065 370.72242371 -16.73800659 371.64347839 C-16.26822388 372.10278748 -15.79844116 372.56209656 -15.31442261 373.0353241 C-13.88157863 374.44140414 -12.47734361 375.87213963 -11.07394409 377.30754089 C-9.73299683 378.63882019 -9.73299683 378.63882019 -8.36495972 379.99699402 C-7.54165161 380.81466248 -6.71834351 381.63233093 -5.87008667 382.47477722 C-3.73928674 384.3942267 -3.73928674 384.3942267 -1.38790894 383.91374207 C-0.48516235 383.52762756 -0.48516235 383.52762756 0.43582153 383.13371277 C11.93748126 381.13736946 23.52427808 387.96896272 33.43582153 393.13371277 C36.98164966 395.79308386 36.84038398 397.34740012 38.43582153 402.13371277 C48.33582153 402.13371277 58.23582153 402.13371277 68.43582153 402.13371277 C70.08582153 399.16371277 71.73582153 396.19371277 73.43582153 393.13371277 C75.89944458 391.30168152 75.89944458 391.30168152 78.44754028 390.32121277 C79.3698645 389.94867371 80.29218872 389.57613464 81.24246216 389.19230652 C82.19314575 388.84297058 83.14382935 388.49363464 84.12332153 388.13371277 C85.08560669 387.75343933 86.04789185 387.37316589 87.03933716 386.98136902 C88.80763851 386.28397579 90.58088763 385.59890391 92.36038208 384.93058777 C94.45232611 384.16583426 94.45232611 384.16583426 96.43582153 383.13371277 C98.05851144 383.03759525 99.68529459 383.00388925 101.31082153 383.00871277 C102.17449341 383.00613464 103.03816528 383.00355652 103.92800903 383.00090027 C106.43582153 383.13371277 106.43582153 383.13371277 108.28103638 383.92301941 C110.64540904 384.40092119 110.64540904 384.40092119 112.81765747 382.31950378 C114.10591431 380.99197083 114.10591431 380.99197083 115.42019653 379.63761902 C115.88065369 379.17008713 116.34111084 378.70255524 116.81552124 378.22085571 C118.28441915 376.72395458 119.73500224 375.21062239 121.18582153 373.69621277 C122.17815311 372.67880597 123.17162982 371.66251474 124.16629028 370.64738464 C126.60289086 368.15563798 129.02335482 365.6488578 131.43582153 363.13371277 C130.95206055 361.995672 130.95206055 361.995672 130.45852661 360.8346405 C127.76011821 353.70823989 130.31999112 348.0996972 133.24832153 341.57121277 C133.60474731 340.7468573 133.9611731 339.92250183 134.32839966 339.07316589 C135.02709367 337.46937469 135.74038772 335.87184938 136.46951294 334.28166199 C137.27949986 332.48119081 137.99982917 330.64075139 138.69754028 328.79386902 C140.43582153 326.13371277 140.43582153 326.13371277 148.43582153 322.13371277 C148.43582153 311.90371277 148.43582153 301.67371277 148.43582153 291.13371277 C146.12582153 290.14371277 143.81582153 289.15371277 141.43582153 288.13371277 C137.36945063 283.58894529 135.68612191 277.91820267 133.61160278 272.24699402 C132.70526967 269.84716846 131.72662268 267.65675884 130.56082153 265.38371277 C128.73917364 260.1211744 129.70311753 255.33182477 131.43582153 250.13371277 C124.50582153 243.20371277 117.57582153 236.27371277 110.43582153 229.13371277 C108.45582153 229.79371277 106.47582153 230.45371277 104.43582153 231.13371277 C98.09527921 231.57926439 92.80195605 229.1954662 87.21707153 226.45793152 C84.5171348 225.17242793 81.80971707 224.14664204 78.99832153 223.13371277 C74.95262204 221.54111995 72.66430943 220.0093439 70.43582153 216.13371277 C69.94082153 214.15371277 69.94082153 214.15371277 69.43582153 212.13371277 C59.20582153 212.13371277 48.97582153 212.13371277 38.43582153 212.13371277 Z M317.12722778 289.82511902 C305.55716238 304.85089393 300.63272305 322.36277711 302.43582153 341.13371277 C305.05277366 359.82747414 314.4094619 376.28248992 329.24832153 388.00871277 C345.51038702 399.51725142 364.22099119 404.25052619 383.92410278 400.91886902 C403.83664654 396.46678749 419.49296237 385.31914259 430.43582153 368.13371277 C439.69582541 352.774453 442.50344299 334.01879746 438.51785278 316.48527527 C435.03416772 303.70731424 428.744992 293.47315696 419.43582153 284.13371277 C418.6739856 283.34867371 417.91214966 282.56363464 417.12722778 281.75480652 C404.20946856 269.21885298 386.60803222 263.40300238 368.79641724 263.66520691 C347.92841823 264.57956952 330.59079471 274.12901477 317.12722778 289.82511902 Z M146.52877522 350.4681673 C144.99114165 354.21821842 146.28552299 356.29938429 147.43582153 360.13371277 C147.74062322 364.06778106 147.48501208 367.61562063 145.19631958 370.9271698 C144.66047241 371.5135321 144.12462524 372.09989441 143.57254028 372.70402527 C142.94210815 373.39391541 142.31167603 374.08380554 141.66213989 374.79460144 C137.71553334 378.94115669 133.72109135 383.03441632 129.67312622 387.08171082 C128.16924522 388.58781357 126.67359168 390.10179632 125.17800903 391.61613464 C124.21755987 392.57951237 123.25663976 393.54242086 122.29519653 394.50480652 C121.43378052 395.37033142 120.5723645 396.23585632 119.68484497 397.12760925 C115.9059473 400.49834331 112.44932229 400.32893006 107.64285278 400.31340027 C105.43582153 400.13371277 105.43582153 400.13371277 102.74832153 398.94621277 C100.2491618 397.77894957 100.2491618 397.77894957 97.12332153 399.50871277 C96.23644653 400.04496277 95.34957153 400.58121277 94.43582153 401.13371277 C94.43582153 401.46371277 94.43582153 401.79371277 94.43582153 402.13371277 C169.34582153 402.13371277 244.25582153 402.13371277 321.43582153 402.13371277 C316.94617278 397.43733946 316.94617278 397.43733946 313.62332153 394.94621277 C301.19274722 384.64568572 294.22759339 369.14050214 289.43582153 354.13371277 C288.7707132 352.133194 288.10426441 350.13311982 287.43582153 348.13371277 C269.36435008 348.01699419 251.29297623 347.92878107 233.22120953 347.87465191 C224.83046061 347.84885253 216.43994567 347.81366922 208.04934692 347.7565155 C200.73745233 347.7067332 193.42572714 347.67443437 186.11366779 347.66327029 C182.2406469 347.65674263 178.36811074 347.6413658 174.49524498 347.60506248 C170.85163076 347.57118406 167.20870198 347.56064286 163.56494522 347.56817436 C161.5866091 347.56613775 159.60834805 347.53919983 157.63020325 347.51161194 C156.45651184 347.51848526 155.28282043 347.52535858 154.07356262 347.53244019 C152.54015999 347.52552674 152.54015999 347.52552674 150.97577953 347.51847363 C148.22310622 347.91466446 148.22310622 347.91466446 146.52877522 350.4681673 Z " fill="#000000" transform="translate(56.564178466796875,46.86628723144531)"/>
<path d="M0 0 C12.58268811 11.73696645 19.38480679 27.07668702 20.30834961 44.12133789 C20.91662749 62.0350163 14.49205512 78.80203915 2.2578125 91.91015625 C-11.37053262 104.82122005 -27.61354985 109.81734431 -46.0234375 109.5 C-62.62015827 108.79562059 -75.95903162 101.84081846 -87.6171875 90.22265625 C-88.25527344 89.60777344 -88.89335938 88.99289062 -89.55078125 88.359375 C-100.82549405 76.63266926 -105.16542225 60.56799998 -105.03710938 44.66967773 C-104.44567314 27.79289298 -97.32074183 12.78157243 -85.5 0.8828125 C-61.55062504 -21.21681398 -24.56867765 -20.60226104 0 0 Z M-77.3046875 15.84765625 C-86.68588894 27.23599847 -89.83643961 39.76140017 -88.6171875 54.22265625 C-86.04889432 67.77155621 -78.31934364 79.07375892 -66.9921875 86.91015625 C-56.10745024 93.2195433 -43.64864025 95.14562107 -31.3515625 92.52734375 C-18.84195167 88.71030865 -8.84725176 81.89690917 -2.015625 70.56640625 C4.15069835 58.59436325 6.01664229 46.45379798 2.4453125 33.31640625 C-1.85669024 20.78998651 -9.77192286 11.22922384 -21.6171875 5.22265625 C-40.91368466 -3.68180769 -62.53505134 0.20158014 -77.3046875 15.84765625 Z " fill="#000000" transform="translate(152.6171875,306.77734375)"/>
<path d="M0 0 C6.19982993 5.69311306 11.17259495 13.07887346 13.25 21.25 C12.61910432 24.40447842 11.6919189 25.758979 9.5625 28.125 C6.07837258 29.81998091 3.92147831 29.2989938 0.25 28.25 C-1.9375 26.0625 -1.9375 26.0625 -3.75 23.25 C-4.8328125 21.703125 -4.8328125 21.703125 -5.9375 20.125 C-7.75 17.25 -7.75 17.25 -8.75 14.25 C-10.51591887 13.24083967 -10.51591887 13.24083967 -12.75 12.25 C-13.595625 11.610625 -14.44125 10.97125 -15.3125 10.3125 C-21.34036222 6.2276289 -29.58807172 4.46869873 -36.75 5.25 C-46.74981492 7.26001305 -54.70025991 11.76488558 -60.53515625 20.234375 C-65.11068573 27.82592873 -67.05391248 35.63750716 -65.03125 44.34375 C-61.83189261 55.59310339 -58.01356254 61.51907676 -47.75 67.25 C-39.93733601 71.5172867 -30.3941697 71.58299396 -21.9375 69.125 C-13.06067613 65.5839719 -8.17779165 59.55073347 -3.0234375 51.76171875 C-0.75 49.25 -0.75 49.25 2.3515625 48.31640625 C5.94069064 48.23417555 7.44146633 49.06558493 10.25 51.25 C12.33171838 54.37257758 12.63666335 55.54636863 11.97265625 59.1640625 C8.32659619 69.68836559 -1.26153667 77.64502668 -10.8125 82.625 C-23.01717784 88.26028412 -36.435863 89.33557039 -49.37109375 85.15234375 C-63.02931988 79.97163729 -72.71171839 70.94008489 -79.0625 57.75 C-84.5496709 44.34999895 -83.63451281 30.68500654 -78.75 17.25 C-72.65524564 4.64388781 -62.84222047 -4.4130489 -49.6875 -9 C-32.05088513 -14.48793035 -14.61872953 -11.44215415 0 0 Z " fill="#000000" transform="translate(460.75,341.75)"/>
<path d="M0 0 C7.30981049 5.97384215 11.29396145 13.20610309 14.25390625 22.0859375 C15.1706436 36.03236797 13.92110056 46.82499784 4.5390625 57.85546875 C-3.15178171 65.36225857 -12.71932093 68.90152988 -23.30859375 69.3984375 C-35.28986281 69.2179967 -44.47799493 64.45372776 -52.7109375 56.08984375 C-59.29397423 48.504738 -62.55548846 38.59717549 -62.06640625 28.5546875 C-60.39282989 15.65590388 -55.03354057 7.07039949 -44.99609375 -1.0390625 C-31.5400562 -10.68960329 -13.22513114 -9.21808571 0 0 Z M-42.24609375 18.0859375 C-45.36547939 24.32470878 -46.93525101 29.60701584 -45.09375 36.54296875 C-42.65708514 43.51831408 -39.33529595 47.71003164 -32.76171875 51.11328125 C-26.91605712 53.5716312 -21.66920932 53.89728026 -15.62109375 51.8359375 C-9.42633241 49.23389902 -5.7912283 45.65424184 -2.69921875 39.71484375 C-0.45831221 33.53398267 -0.65830703 26.73745904 -3.30859375 20.7109375 C-6.65354086 15.0174105 -11.49883454 11.14364009 -17.74609375 9.0859375 C-27.8895506 7.59383069 -35.63593311 10.15374473 -42.24609375 18.0859375 Z " fill="#000000" transform="translate(133.74609375,322.9140625)"/>
<path d="M0 0 C5.54685951 4.09385807 9.3179688 9.29166379 11 16 C12.1168562 24.99806791 11.43812085 32.56196569 6 40 C1.23785845 45.32771655 -4.09465018 48.61841576 -11.23828125 49.31640625 C-20.80121818 49.63482843 -27.60942865 48.30305734 -34.8125 41.875 C-40.59904352 35.55017336 -42.74160678 28.14747357 -42.3828125 19.66796875 C-41.33127461 12.33939346 -37.54620954 5.87509286 -32 1 C-21.82990174 -5.45938673 -10.57423221 -6.00687477 0 0 Z M-25.4375 17.75 C-26.33375314 21.33501256 -26.16003788 24.53361463 -25 28 C-22.54739878 30.87133801 -20.73420049 32.58677254 -17 33.4765625 C-12.94199117 33.76861617 -11.18415462 33.15280915 -8.0625 30.5625 C-7.0415625 29.2940625 -7.0415625 29.2940625 -6 28 C-5.67 27.67 -5.34 27.34 -5 27 C-4.4967163 22.05104366 -4.46491731 19.91967337 -7 15.5625 C-10.20685721 12.82330947 -11.88823275 11.98734168 -16.00390625 11.76171875 C-20.16367393 12.25828593 -22.8588064 14.61072084 -25.4375 17.75 Z " fill="#000000" transform="translate(443,357)"/>
<path d="M0 0 C2.16210938 1.44946289 2.16210938 1.44946289 4 4 C4.60060726 7.20476284 4.56037694 10.36827726 4.53125 13.62109375 C4.5350769 14.55800552 4.53890381 15.4949173 4.54284668 16.46022034 C4.54556601 18.43971838 4.53820334 20.41925234 4.52148438 22.39868164 C4.50009893 25.42350749 4.52127281 28.4459517 4.546875 31.47070312 C4.54423126 33.39583856 4.53910532 35.32097252 4.53125 37.24609375 C4.53934692 38.14831161 4.54744385 39.05052948 4.55578613 39.98008728 C4.49329686 44.18086902 4.35424367 46.4300194 2.09179688 50.0703125 C-0.1665412 52.15363464 -0.97993886 52.66277547 -4 52.5625 C-4.66 52.56378906 -5.32 52.56507813 -6 52.56640625 C-9.07327822 51.69604426 -10.085928 50.58972766 -12 48 C-12.60905427 44.71270843 -12.56031269 41.46041307 -12.53125 38.125 C-12.5350769 37.16352051 -12.53890381 36.20204102 -12.54284668 35.21142578 C-12.54556602 33.1806534 -12.53820329 31.14984601 -12.52148438 29.11914062 C-12.50007525 26.0109243 -12.52128546 22.90501944 -12.546875 19.796875 C-12.54423173 17.82291157 -12.53910676 15.84894957 -12.53125 13.875 C-12.53934692 12.94574707 -12.54744385 12.01649414 -12.55578613 11.05908203 C-12.4622016 4.61879191 -12.4622016 4.61879191 -10.09179688 1.4453125 C-6.28639583 -1.18400288 -4.52299742 -1.17597933 0 0 Z " fill="#000000" transform="translate(301,315)"/>
<path d="M0 0 C2.08856438 1.80327158 2.90232139 3.2998807 3.28390503 6.03491211 C3.41524986 8.65286771 3.4418747 11.25373144 3.43359375 13.875 C3.4388356 14.83647949 3.44407745 15.79795898 3.44947815 16.78857422 C3.45589532 18.81932612 3.4545653 20.85011521 3.44604492 22.88085938 C3.43753026 25.98895336 3.46630837 29.09521235 3.49804688 32.203125 C3.49965887 34.17708278 3.4990814 36.15104382 3.49609375 38.125 C3.51294472 39.51887939 3.51294472 39.51887939 3.53013611 40.94091797 C3.46056308 47.37614261 3.46056308 47.37614261 1.09399414 50.58178711 C-1.15367336 52.10407934 -2.30771324 52.56775837 -5 52.5625 C-5.99 52.59537109 -5.99 52.59537109 -7 52.62890625 C-10.25342035 51.60585805 -11.208172 49.86816276 -13 47 C-13.58568006 43.83166516 -13.56092554 40.71499727 -13.53125 37.5 C-13.5350769 36.58669922 -13.53890381 35.67339844 -13.54284668 34.73242188 C-13.54556253 32.80597834 -13.53822424 30.87949772 -13.52148438 28.953125 C-13.50006968 26.00957792 -13.52129671 23.06847145 -13.546875 20.125 C-13.54423167 18.24999463 -13.53910657 16.37499077 -13.53125 14.5 C-13.53934692 13.62279297 -13.54744385 12.74558594 -13.55578613 11.84179688 C-13.49319047 7.74928016 -13.32461894 5.53313079 -11.15429688 1.96875 C-7.45052598 -1.41601977 -4.67606698 -1.26643481 0 0 Z " fill="#000000" transform="translate(328,315)"/>
<path d="M0 0 C2.52737004 1.91731521 2.9716847 2.91505409 4 6 C4.12141211 8.96355933 4.1881944 11.90282571 4.203125 14.8671875 C4.20882507 15.73892609 4.21452515 16.61066467 4.22039795 17.50881958 C4.22984183 19.35303536 4.2363795 21.19726797 4.24023438 23.04150391 C4.24993933 25.85739686 4.28096786 28.67255959 4.3125 31.48828125 C4.31903043 33.28124567 4.32428075 35.07421531 4.328125 36.8671875 C4.3404718 37.70692108 4.3528186 38.54665466 4.36553955 39.41183472 C4.34603722 44.55056736 3.81581425 48.18418575 0 52 C-7.1290903 52.58435166 -7.1290903 52.58435166 -10.10058594 50.59057617 C-13.00082439 46.63499388 -12.5539426 42.91014447 -12.49609375 38.125 C-12.49754898 37.16352051 -12.49900421 36.20204102 -12.50050354 35.21142578 C-12.49884514 33.18063321 -12.48729044 31.14982799 -12.46655273 29.11914062 C-12.43760409 26.01117552 -12.44594398 22.90491686 -12.45898438 19.796875 C-12.45274664 17.82290838 -12.44435543 15.84894714 -12.43359375 13.875 C-12.43652939 12.94574707 -12.43946503 12.01649414 -12.44248962 11.05908203 C-12.34902898 4.66561677 -12.34902898 4.66561677 -10.66040039 1.4453125 C-7.17878498 -1.58529524 -4.22789719 -1.0569743 0 0 Z " fill="#000000" transform="translate(275,315)"/>
</svg>
