<?xml version="1.0" encoding="UTF-8"?>
<svg version="1.1" xmlns="http://www.w3.org/2000/svg" width="50" height="50">
<path d="M0 0 C3.79465168 0.2147916 6.28051087 0.46985012 9.375 2.75 C11 5 11 5 11.375 7.5625 C11.58125 8.366875 11.7875 9.17125 12 10 C14.96707046 11.85916824 14.96707046 11.85916824 18 13 C18.56123666 16.8164093 18.03056013 17.95670649 15.75 21.1875 C12.03296703 24.98901099 12.03296703 24.98901099 9 26 C8.01 26 7.02 26 6 26 C5.01 23.69 4.02 21.38 3 19 C-0.25283201 20.41147116 -2.22954548 22.09327373 -4.625 24.6875 C-7.63751152 27.82435534 -10.64411064 30.17043887 -14.3125 32.5 C-19.20263252 35.75257662 -20.61181867 38.34811887 -22 44 C-28.625 45.25 -28.625 45.25 -32 43 C-32.14419352 36.36709806 -29.07568744 33.11948374 -24.62109375 28.4296875 C-21.36121362 25.40786121 -17.91706402 22.94125632 -14.1640625 20.5703125 C-10.66229031 18.02931535 -9.21726558 15.88577506 -8.1875 11.6875 C-6.58584205 6.71393056 -3.63883386 3.63883386 0 0 Z M0 4 C-1.485 5.98 -1.485 5.98 -3 8 C-2.45730469 8.50789062 -1.91460938 9.01578125 -1.35546875 9.5390625 C2.71094239 13.45160944 5.89477656 16.7369414 8 22 C10.46800047 20.84826645 12.04783565 19.95216435 14 18 C14 17.01 14 16.02 14 15 C12.43883347 13.4818492 12.43883347 13.4818492 10.375 12.125 C6.76790612 9.55767339 3.37278656 6.86686858 0 4 Z M-4 12 C-4.33257813 12.81791016 -4.33257813 12.81791016 -4.671875 13.65234375 C-7.80576524 20.29482849 -12.02893878 23.54909863 -17.97265625 27.71484375 C-22.27663307 30.96365206 -25.6342305 34.81258677 -29 39 C-28.67 39.99 -28.34 40.98 -28 42 C-27.01 42 -26.02 42 -25 42 C-24.87367187 41.46632813 -24.74734375 40.93265625 -24.6171875 40.3828125 C-22.0887573 32.69106168 -16.86326636 29.65736494 -10.44140625 25.375 C-6.43548429 22.68917438 -3.24952199 19.55900028 0 16 C-0.66 14.68 -1.32 13.36 -2 12 C-2.66 12 -3.32 12 -4 12 Z " fill="#000000" transform="translate(32,2)"/>
</svg>
