<?xml version="1.0" encoding="UTF-8"?>
<svg version="1.1" xmlns="http://www.w3.org/2000/svg" width="512" height="512">
<path d="M0 0 C7.77452223 7.03409154 8.96074172 12.23430283 9.80859375 22.625 C10.62239588 47.90073681 -0.38344488 71.46089096 -16.375 90.375 C-16.8174707 90.90254883 -17.25994141 91.43009766 -17.71582031 91.97363281 C-29.29408184 105.62212423 -43.30417928 115.72296829 -61.375 118.375 C-78.03302629 119.71556895 -92.28437878 116.76874748 -106.375 107.375 C-113.62128403 115.4264267 -117.65993669 124.16036121 -117.69384766 135.12451172 C-117.70389328 135.87641281 -117.7139389 136.6283139 -117.72428894 137.40299988 C-117.75499955 139.87022183 -117.77212202 142.33733587 -117.7890625 144.8046875 C-117.80778393 146.52248047 -117.82735807 148.24026435 -117.8477478 149.95803833 C-117.89897207 154.46572492 -117.9386496 158.9734413 -117.97589111 163.48126221 C-118.01599175 168.08654082 -118.0670564 172.69169658 -118.1171875 177.296875 C-118.2138318 186.32283024 -118.29827323 195.34885501 -118.375 204.375 C-117.11727783 204.5181665 -115.85955566 204.66133301 -114.5637207 204.80883789 C-102.7503984 206.15354827 -92.91772217 214.69500222 -85.56640625 223.5546875 C-84.375 225.375 -84.375 225.375 -84.375 227.375 C-83.55515625 226.95347656 -82.7353125 226.53195312 -81.890625 226.09765625 C-80.81296875 225.54980469 -79.7353125 225.00195312 -78.625 224.4375 C-77.55765625 223.89222656 -76.4903125 223.34695313 -75.390625 222.78515625 C-65.9918191 218.39011878 -53.01600724 218.95066132 -43.375 222.375 C-36.33063645 225.4998761 -29.69045107 229.90182339 -25.375 236.375 C-22.67732953 236.65880808 -20.13844077 236.78497486 -17.4375 236.8125 C-5.02344083 237.27936018 4.28112206 240.93719507 13.625 249.375 C24.17515167 261.05805386 26.79737036 273.52916522 26.875 288.8125 C26.9059375 290.3294043 26.9059375 290.3294043 26.9375 291.87695312 C26.97661755 299.3728529 26.23381828 304.36482506 21.1875 310.1875 C17.35717392 313.45729055 14.7406118 314.62401863 9.69861794 314.63226891 C8.7015862 314.6387178 7.70455446 314.64516669 6.67730963 314.651811 C5.58413345 314.6487138 4.49095727 314.6456166 3.36465454 314.64242554 C2.20165781 314.64695665 1.03866109 314.65148776 -0.15957797 314.65615618 C-3.38844813 314.66663768 -6.61717848 314.6681241 -9.84606028 314.66576743 C-13.32808946 314.66535962 -16.81008531 314.67639499 -20.292099 314.68588257 C-27.11422579 314.70250102 -33.93631803 314.70799249 -40.75846337 314.70910732 C-46.30323051 314.71005737 -51.84798625 314.71416547 -57.39274979 314.72050858 C-73.1099246 314.73812305 -88.82707209 314.74734709 -104.54425685 314.74584763 C-105.39171264 314.74576772 -106.23916842 314.7456878 -107.11230469 314.74560547 C-108.3850387 314.74548283 -108.3850387 314.74548283 -109.68348451 314.74535771 C-123.43675891 314.74454468 -137.18992382 314.76368607 -150.94316654 314.7918822 C-165.0617049 314.82059908 -179.18018984 314.83442317 -193.29875815 314.83269465 C-201.22656669 314.83203035 -209.15426044 314.83754018 -217.08204269 314.85905075 C-223.83155778 314.87724682 -230.58090605 314.88162291 -237.33043502 314.8680319 C-240.77427609 314.86149427 -244.21779698 314.8614132 -247.66160774 314.8787384 C-251.39492259 314.89410895 -255.12739143 314.88493571 -258.86068726 314.86947632 C-259.94940199 314.87976344 -261.03811673 314.89005057 -262.15982282 314.90064943 C-268.22755219 314.84496607 -271.76149775 314.43346919 -276.375 310.375 C-282.00236625 303.98717885 -281.62424352 298.80350343 -281.67016602 290.63867188 C-281.68157773 289.23069116 -281.7018539 287.82274988 -281.73168945 286.41503906 C-282.03694947 272.00130932 -279.36633157 260.28835042 -269.375 249.375 C-259.46140972 240.43774816 -249.49280518 236.73524542 -236.30029297 237.05297852 C-233.89471494 237.09487325 -233.89471494 237.09487325 -230.375 236.375 C-227.61766389 233.61517054 -227.61766389 233.61517054 -225.375 230.375 C-213.89697431 221.29484142 -201.70116889 218.74338922 -187.375 220.375 C-182.0069592 221.68924447 -177.27945964 223.88348961 -172.375 226.375 C-171.68535156 225.57835937 -170.99570313 224.78171875 -170.28515625 223.9609375 C-160.47890128 212.8137914 -151.52714892 207.58894685 -137.375 203.375 C-137.31628509 199.08339209 -137.28116517 194.79188942 -137.25 190.5 C-137.22486328 188.69402344 -137.22486328 188.69402344 -137.19921875 186.8515625 C-137.1190453 172.09964784 -139.99388429 159.31428021 -150.36328125 148.19921875 C-154.06877525 144.83909118 -158.17634228 142.07836111 -162.375 139.375 C-165.67648767 140.94417767 -168.70964261 142.82176569 -171.8125 144.75 C-185.96259687 152.88673037 -201.98112859 155.09823249 -217.99609375 151.45703125 C-239.77545214 145.54739594 -256.00200636 128.24245303 -267.375 109.375 C-276.47149167 93.23554564 -281.72853262 77.90515492 -281.75 59.25 C-281.77449219 58.12207031 -281.79898437 56.99414062 -281.82421875 55.83203125 C-281.85022402 48.42052848 -281.18121367 42.35539102 -275.8918457 36.82397461 C-271.44968072 32.92429075 -267.36672748 31.75 -261.58984375 31.75 C-256.44574611 32.75006758 -252.18410537 35.3463744 -247.70458984 37.99755859 C-239.88843112 42.54950479 -232.4641315 43.73422353 -223.5 43.625 C-222.71044922 43.62113281 -221.92089844 43.61726563 -221.10742188 43.61328125 C-216.91536015 43.55138042 -212.98598109 43.26592469 -208.875 42.375 C-197.39793179 39.93080955 -184.93698294 39.94264253 -174.375 45.375 C-173.50359375 45.82230469 -172.6321875 46.26960938 -171.734375 46.73046875 C-158.55615638 54.08896508 -150.52562391 66.25517817 -145.69140625 80.37109375 C-142.55392967 91.81747381 -143.80584165 104.23343813 -147.375 115.375 C-147.66117188 116.27863281 -147.94734375 117.18226563 -148.2421875 118.11328125 C-148.92674199 120.20932189 -149.6465791 122.29379742 -150.375 124.375 C-149.52035156 125.01308594 -148.66570312 125.65117187 -147.78515625 126.30859375 C-146.66923934 127.14318707 -145.55335564 127.97782478 -144.4375 128.8125 C-143.87353516 129.23337891 -143.30957031 129.65425781 -142.72851562 130.08789062 C-138.48828125 133.26171875 -138.48828125 133.26171875 -137.375 134.375 C-137.24544922 133.21097656 -137.24544922 133.21097656 -137.11328125 132.0234375 C-135.40446151 118.88590593 -131.67997058 107.78573326 -123.375 97.375 C-122.570625 96.34375 -121.76625 95.3125 -120.9375 94.25 C-120.421875 93.63125 -119.90625 93.0125 -119.375 92.375 C-119.77332031 91.73175781 -120.17164063 91.08851563 -120.58203125 90.42578125 C-128.22004819 77.39840929 -130.48537508 63.21459585 -127.3125 48.375 C-123.12436794 33.8612889 -115.19027161 21.05346391 -102.3125 12.8125 C-100.68941867 11.95545238 -99.04363931 11.13956946 -97.375 10.375 C-96.65570313 10.03855469 -95.93640625 9.70210937 -95.1953125 9.35546875 C-84.2041895 5.19101211 -70.59972084 6.72976788 -59.328125 8.91796875 C-44.68989356 11.18340933 -32.30210906 8.72353877 -19.87109375 0.8984375 C-13.8641992 -2.76774227 -6.30114488 -3.03388457 0 0 Z M-15.8125 20.1875 C-26.4695592 25.55400012 -36.61436432 27.57211427 -48.5 27.5625 C-49.3367627 27.56314453 -50.17352539 27.56378906 -51.03564453 27.56445312 C-56.92897121 27.51465355 -62.51290431 26.85555878 -68.3203125 25.8359375 C-78.6636102 24.27518414 -86.84037181 24.82969589 -95.4921875 30.84765625 C-104.61556289 38.12914265 -109.28091661 48.25763844 -110.65625 59.71875 C-110.99039074 67.62674759 -108.56920419 74.74886228 -104.375 81.375 C-96.52443385 76.61970112 -89.11527105 71.37223216 -81.74658203 65.9074707 C-71.38610838 58.296133 -71.38610838 58.296133 -66.1875 58.5 C-63.2379401 59.41764086 -62.05437946 59.81173662 -60.375 62.375 C-59.37262933 65.66850364 -58.99874368 67.52091245 -60.40234375 70.70703125 C-63.05294032 74.29189751 -66.21965306 76.59182743 -69.8125 79.1875 C-70.87307617 79.97036377 -70.87307617 79.97036377 -71.95507812 80.76904297 C-77.27993136 84.66905383 -82.72834608 88.33176335 -88.3125 91.8515625 C-88.993125 92.35429687 -89.67375 92.85703125 -90.375 93.375 C-90.375 94.035 -90.375 94.695 -90.375 95.375 C-88.81479133 96.02634925 -87.25171421 96.67082964 -85.6875 97.3125 C-84.81738281 97.67214844 -83.94726562 98.03179687 -83.05078125 98.40234375 C-72.16740172 102.35849193 -60.85269069 100.84284546 -50.375 96.375 C-31.03866288 85.57181307 -17.33504301 63.89416642 -10.9375 43.125 C-8.73170379 34.5653395 -7.59141799 26.09473428 -9.375 17.375 C-11.54623422 17.375 -13.96610604 19.22078928 -15.8125 20.1875 Z M-263.375 51.375 C-264.35255137 75.08062084 -257.60062793 94.07821977 -242.375 112.375 C-241.25931641 113.71884766 -241.25931641 113.71884766 -240.12109375 115.08984375 C-231.29053911 125.30257216 -221.0721741 133.590712 -207.125 134.61328125 C-198.04372495 134.79301482 -188.10670366 134.71833937 -181.04296875 128.234375 C-180.49253906 127.62078125 -179.94210938 127.0071875 -179.375 126.375 C-180.98181641 125.21871094 -180.98181641 125.21871094 -182.62109375 124.0390625 C-184.01838698 123.02625935 -185.41551381 122.01322661 -186.8125 121 C-187.51955078 120.49210937 -188.22660156 119.98421875 -188.95507812 119.4609375 C-189.62861328 118.97109375 -190.30214844 118.48125 -190.99609375 117.9765625 C-191.93086548 117.30101318 -191.93086548 117.30101318 -192.88452148 116.61181641 C-194.375 115.375 -194.375 115.375 -195.375 113.375 C-195.94642857 106.28928571 -195.94642857 106.28928571 -193.8125 102.875 C-190.36747064 100.75498193 -188.3966543 100.92408725 -184.375 101.375 C-181.37133453 102.88133517 -178.74853306 104.8035763 -176.0625 106.8125 C-174.65015075 107.83260076 -173.23740895 108.85215831 -171.82421875 109.87109375 C-171.20893311 110.32669678 -170.59364746 110.7822998 -169.9597168 111.25170898 C-168.36051981 112.44573277 -168.36051981 112.44573277 -166.375 113.375 C-165.900625 112.323125 -165.42625 111.27125 -164.9375 110.1875 C-164.67066406 109.59582031 -164.40382813 109.00414062 -164.12890625 108.39453125 C-160.73044322 99.29087641 -161.68571508 89.20144015 -165.375 80.375 C-169.85237145 71.08550035 -176.18048246 63.91275315 -185.90234375 60.02734375 C-192.50071873 58.28654024 -199.14436034 59.06337659 -205.75 60.375 C-224.02081762 63.68388823 -243.27806508 62.34654336 -259.3359375 52.546875 C-261.27203431 51.20890537 -261.27203431 51.20890537 -263.375 51.375 Z M-144.375 225.375 C-145.04789062 225.7875 -145.72078125 226.2 -146.4140625 226.625 C-151.4281747 230.03227315 -154.86051927 234.22989063 -158.41796875 239.10546875 C-161.23069876 242.36733729 -163.77954995 244.07233374 -168.03125 244.87890625 C-174.17520389 245.00549871 -178.36754286 244.17506535 -183.875 241.375 C-190.85743908 237.84615055 -197.13834799 236.73093483 -204.7265625 239.11328125 C-209.10890413 241.10749289 -212.09756536 243.84545501 -215.375 247.375 C-216.59045934 248.47369032 -217.8203151 249.55661875 -219.0625 250.625 C-219.64386719 251.12515625 -220.22523438 251.6253125 -220.82421875 252.140625 C-223.51163923 254.27973047 -225.30071586 254.5022748 -228.6640625 254.55078125 C-229.95376953 254.58655273 -229.95376953 254.58655273 -231.26953125 254.62304688 C-233.06617749 254.66545698 -234.86311851 254.69700571 -236.66015625 254.71679688 C-244.17870275 254.95698818 -249.4707806 256.80080553 -255.125 261.8125 C-256.23875 263.0809375 -256.23875 263.0809375 -257.375 264.375 C-258.096875 265.179375 -258.81875 265.98375 -259.5625 266.8125 C-265.99169276 275.90204838 -263.375 284.92842175 -263.375 296.375 C-173.615 296.375 -83.855 296.375 8.625 296.375 C9.23188576 277.59689273 9.23188576 277.59689273 0.625 262.375 C-5.50165769 257.38794246 -10.11360154 255.23985171 -18.0625 255.4375 C-26.97611186 255.47421931 -32.71967521 254.87906741 -39.375 248.375 C-39.9525 247.55 -40.53 246.725 -41.125 245.875 C-45.9137647 240.55415033 -52.09247884 238.08218992 -59.1875 237.6875 C-65.31249193 237.91493248 -69.74190711 240.29436951 -75.12890625 243.0234375 C-80.26360636 245.16135114 -84.92884486 245.29779784 -90.375 244.375 C-95.88912455 242.04210115 -98.72917104 237.46319936 -102.3046875 232.84765625 C-108.04532876 225.99138093 -114.99593148 221.85804274 -123.8984375 221.05859375 C-131.63830186 220.81913687 -137.7688222 221.19718004 -144.375 225.375 Z " fill="#000000" transform="translate(281.375,197.625)"/>
<path d="M0 0 C4.0929801 1.80368615 7.46587013 4.27881736 11 7 C12.01835937 7.77214844 13.03671875 8.54429688 14.0859375 9.33984375 C16.27454089 11.01010249 18.44619746 12.70039463 20.61328125 14.3984375 C23.99638762 17.02832396 27.48884948 19.48290516 31 21.9375 C60.3800881 42.67207589 81.27793546 70.04480383 91.3125 104.75 C91.55500488 105.58861572 91.79750977 106.42723145 92.04736328 107.29125977 C95.65408956 120.37105899 96.33722482 132.93430272 96.37109375 146.4140625 C96.38008072 148.278677 96.38920287 150.14329084 96.39845276 152.00790405 C96.41484668 155.89591208 96.42262625 159.78383493 96.42553711 163.671875 C96.43093646 168.63244922 96.46872184 173.59221527 96.51428127 178.55256081 C96.54412866 182.39607632 96.5512622 186.23939797 96.55226326 190.08301926 C96.55644383 191.91132721 96.56879026 193.7396369 96.58978081 195.56782913 C96.70306618 206.27832367 96.79769971 215.26293263 89.44261169 223.8097229 C81.72499704 231.23171841 72.26887291 231.42923865 62.08984375 231.29296875 C60.27777184 231.28660149 60.27777184 231.28660149 58.42909241 231.28010559 C54.59832788 231.26341094 50.76810358 231.22577474 46.9375 231.1875 C44.32878368 231.17244131 41.72005905 231.15875498 39.11132812 231.14648438 C32.74070337 231.11353755 26.3703903 231.06343014 20 231 C19.99374538 235.25135216 20.05325831 239.49930479 20.125 243.75 C20.12242187 244.9565625 20.11984375 246.163125 20.1171875 247.40625 C20.19057963 250.708896 20.32164214 253.76592173 21 257 C23.69768791 259.81019059 23.69768791 259.81019059 27 261 C32.3680014 265.72895362 35.90630611 270.83245365 37 278 C37.09123903 279.79158856 37.13466499 281.58599708 37.14044189 283.37989807 C37.14615204 284.44644119 37.15186218 285.51298431 37.15774536 286.61184692 C37.15942215 288.35194534 37.15942215 288.35194534 37.16113281 290.12719727 C37.16609772 291.35710892 37.17106262 292.58702057 37.17617798 293.85420227 C37.18826584 297.22238897 37.19573994 300.59051374 37.20018864 303.95871472 C37.20312715 306.06795277 37.20723353 308.17718548 37.21169281 310.28642082 C37.22536085 316.8997592 37.23502949 323.51308525 37.2388947 330.12643677 C37.24336639 337.7337632 37.26087565 345.34090914 37.2898953 352.94818074 C37.31159983 358.84481464 37.32160372 364.7413981 37.32293582 370.63807148 C37.32397809 374.1517809 37.32976074 377.66532052 37.34775543 381.1789875 C37.36748784 385.10839616 37.3629124 389.03758429 37.35644531 392.96704102 C37.37026749 394.68588501 37.37026749 394.68588501 37.3843689 396.43945312 C37.31312324 410.33615752 33.85860131 421.74674779 24.5 432.1875 C14.83541409 441.40257029 3.00732193 444.42465167 -9.953125 444.2109375 C-21.41915449 443.78135915 -31.70541151 438.17754671 -39.47265625 429.84375 C-49.11687069 418.20162924 -50.15124319 405.5529576 -50.14526367 390.94360352 C-50.14862228 389.75720276 -50.1519809 388.570802 -50.15544128 387.34844971 C-50.1632786 384.1149411 -50.16661674 380.88147117 -50.16725707 377.64795423 C-50.16797084 375.6229807 -50.17011127 373.59801379 -50.17275429 371.57304192 C-50.18198609 364.4952235 -50.18609173 357.41742384 -50.18530273 350.33959961 C-50.1847019 343.76284244 -50.19526032 337.18616727 -50.2110464 330.60943085 C-50.22415658 324.9437791 -50.2294852 319.27815405 -50.22884732 313.61248726 C-50.22859344 310.23701105 -50.23138385 306.86160789 -50.24202538 303.48614693 C-50.25184791 299.71929273 -50.24893834 295.95264877 -50.24291992 292.18579102 C-50.24853943 291.08057602 -50.25415894 289.97536102 -50.25994873 288.83665466 C-50.21797177 278.47121772 -49.16599478 270.77586667 -42 263 C-39.20901596 260.28971911 -36.75031218 258.25010406 -33 257 C-32.67 248.42 -32.34 239.84 -32 231 C-37.88972656 231.06960937 -37.88972656 231.06960937 -43.8984375 231.140625 C-47.72443348 231.17186904 -51.55041495 231.19612936 -55.37646484 231.21972656 C-58.0243166 231.2397738 -60.67212446 231.26701884 -63.31982422 231.30175781 C-67.13780588 231.35057744 -70.95519936 231.37303881 -74.7734375 231.390625 C-75.94675629 231.41127014 -77.12007507 231.43191528 -78.32894897 231.45318604 C-86.92424247 231.4555038 -93.50237569 229.79852179 -100.8125 225.25 C-107.29803828 218.57916063 -109.14279529 212.49931646 -109.17700195 203.36767578 C-109.18357315 202.60263733 -109.19014435 201.83759888 -109.19691467 201.04937744 C-109.21662952 198.51468793 -109.22831886 195.98005824 -109.23828125 193.4453125 C-109.24235678 192.57176998 -109.2464323 191.69822746 -109.25063133 190.79821396 C-109.27150458 186.15633127 -109.28578947 181.51447806 -109.29516602 176.87255859 C-109.30395254 173.07291258 -109.32464789 169.27364106 -109.35668945 165.47412109 C-109.71265138 122.33513554 -104.07800334 83.88748298 -75 50 C-74.30132812 49.17886719 -73.60265625 48.35773437 -72.8828125 47.51171875 C-63.61369539 36.90666128 -53.2977766 28.55534829 -41.859375 20.4609375 C-38.48274254 18.07087614 -35.14452629 15.63703642 -31.828125 13.1640625 C-30.97927734 12.53145508 -30.13042969 11.89884766 -29.25585938 11.24707031 C-27.624511 10.0283272 -25.99547742 8.80647745 -24.36914062 7.58105469 C-16.41270134 1.65670513 -10.15853677 -1.71835945 0 0 Z M-7 18 C-12.1945331 21.74189308 -17.38495128 25.48943134 -22.57128906 29.24267578 C-24.09612117 30.34598715 -25.62143863 31.44862839 -27.14746094 32.55029297 C-60.889672 56.93064605 -83.64033359 85.44790228 -90.5365448 127.2525177 C-91.01462868 131.118287 -91.16181968 134.91178893 -91.17700195 138.79956055 C-91.18357315 139.5451825 -91.19014435 140.29080444 -91.19691467 141.059021 C-91.2164669 143.50158819 -91.22826247 145.94409479 -91.23828125 148.38671875 C-91.24235678 149.22481394 -91.2464323 150.06290913 -91.25063133 150.92640114 C-91.27140353 155.35303112 -91.28574956 159.77963082 -91.29516602 164.20629883 C-91.3062804 168.77624941 -91.34076254 173.34571979 -91.38033772 177.91549969 C-91.40644451 181.43535786 -91.41485197 184.95509968 -91.41844749 188.47504616 C-91.42331995 190.16038105 -91.43495274 191.84571051 -91.45348549 193.53095055 C-91.47777691 195.88390285 -91.47693226 198.23558435 -91.4699707 200.58862305 C-91.48278076 201.2832515 -91.49559082 201.97787994 -91.50878906 202.69355774 C-91.4724 206.06462527 -91.21874056 207.72424895 -89.09562683 210.40071106 C-85.80909162 212.90884817 -83.99381946 213.1232081 -79.90771484 213.11352539 C-78.84676605 213.11344986 -77.78581726 213.11337433 -76.69271851 213.11329651 C-75.54373077 213.10813522 -74.39474304 213.10297394 -73.2109375 213.09765625 C-72.03737701 213.0962413 -70.86381653 213.09482635 -69.6546936 213.09336853 C-65.89477015 213.08775689 -62.13490555 213.07520238 -58.375 213.0625 C-55.83073002 213.0574865 -53.28645912 213.05292333 -50.7421875 213.04882812 C-44.49477147 213.03778368 -38.24738994 213.02103418 -32 213 C-31.99589111 211.81035645 -31.99178223 210.62071289 -31.98754883 209.39501953 C-31.96561756 204.94032698 -31.91118475 200.48650024 -31.84741211 196.03222656 C-31.82435339 194.1120642 -31.80986513 192.19177753 -31.80444336 190.27148438 C-31.73290155 169.09510799 -31.73290155 169.09510799 -26 162 C-20.32714039 156.5220792 -14.55414982 154.03105069 -6.625 153.6875 C0.81561023 153.90261968 7.02810643 156.1577408 12.49609375 161.2578125 C18.42661985 168.12798039 19.12934957 175.81234729 19.31640625 184.58203125 C19.33718735 185.39621017 19.35796844 186.2103891 19.37937927 187.04924011 C19.44449463 189.63691179 19.50358208 192.22468053 19.5625 194.8125 C19.60572142 196.57227545 19.64933685 198.33204128 19.69335938 200.09179688 C19.8001368 204.39443309 19.90151018 208.69716643 20 213 C27.31397841 213.07608962 34.62785466 213.12861664 41.94213867 213.16479492 C44.4301332 213.17987761 46.91810117 213.20034654 49.40600586 213.22631836 C52.98297688 213.26272337 56.55959622 213.27973184 60.13671875 213.29296875 C61.24834885 213.30845261 62.35997894 213.32393646 63.5052948 213.33988953 C65.06634697 213.34022942 65.06634697 213.34022942 66.65893555 213.34057617 C67.5716069 213.34723801 68.48427826 213.35389984 69.42460632 213.36076355 C72.56155743 212.92133651 74.44344571 211.83964297 77 210 C78.47466741 207.05066517 78.16460653 204.05708737 78.17700195 200.82250977 C78.18685875 199.71205292 78.18685875 199.71205292 78.19691467 198.5791626 C78.21669487 196.11657605 78.22833345 193.65405126 78.23828125 191.19140625 C78.24235678 190.34538282 78.2464323 189.4993594 78.25063133 188.6276989 C78.27153252 184.1319287 78.28580505 179.63618919 78.29516602 175.14038086 C78.30611512 170.5459741 78.34036645 165.95206731 78.38033772 161.35783482 C78.40681912 157.78760539 78.41488633 154.21748804 78.41844749 150.64716911 C78.42324907 148.95748535 78.43467313 147.26780431 78.45348549 145.57821846 C78.8205979 110.35815871 65.18309753 79.35585644 41 54 C40.48058838 53.45504883 39.96117676 52.91009766 39.42602539 52.34863281 C35.44638758 48.26026173 31.29194118 44.73517153 26.6875 41.375 C26.00888916 40.87355469 25.33027832 40.37210938 24.63110352 39.85546875 C22.42565386 38.23016296 20.21313989 36.61481458 18 35 C17.21431641 34.42282227 16.42863281 33.84564453 15.61914062 33.25097656 C13.22895421 31.49553245 10.83424665 29.74647425 8.4375 28 C7.70039795 27.46036621 6.9632959 26.92073242 6.20385742 26.36474609 C1.93377685 23.27504856 -2.37443596 20.52856063 -7 18 Z M-13 174 C-14.52509489 177.05018978 -14.12975944 180.22549613 -14.11352539 183.57080078 C-14.11367142 184.35137848 -14.11381744 185.13195618 -14.1139679 185.93618774 C-14.11326986 188.52259069 -14.10548257 191.10892209 -14.09765625 193.6953125 C-14.09579168 195.48607341 -14.09436796 197.27683483 -14.09336853 199.06759644 C-14.08954641 203.78584191 -14.07971871 208.5040567 -14.06866455 213.22229004 C-14.05844389 218.03490789 -14.0538695 222.84753068 -14.04882812 227.66015625 C-14.03809618 237.10678649 -14.02050183 246.5533859 -14 256 C-8.72 256 -3.44 256 2 256 C2.06779634 245.91642477 2.12282797 235.8330011 2.15543652 225.74924946 C2.17108754 221.06687764 2.19231556 216.38466994 2.22631836 211.70239258 C2.25893186 207.18310624 2.27685725 202.66397769 2.28463173 198.14458275 C2.29017166 196.42100732 2.30098984 194.69744046 2.31719017 192.97393227 C2.33899113 190.5583599 2.34196585 188.14343824 2.34057617 185.7277832 C2.351362 185.01640198 2.36214783 184.30502075 2.3732605 183.57208252 C2.3461114 179.20624895 1.65987349 176.48141481 -1 173 C-5.67823065 169.92991113 -8.57123828 170.96979461 -13 174 Z M-29.51806641 275.77661133 C-31.92708589 279.39093431 -32.1253855 282.65375445 -32.13371277 286.931427 C-32.13797775 287.92375839 -32.14224274 288.91608978 -32.14663696 289.93849182 C-32.14618378 291.02113815 -32.14573059 292.10378448 -32.14526367 293.21923828 C-32.14862228 294.36443436 -32.1519809 295.50963043 -32.15544128 296.68952942 C-32.16495523 300.48313476 -32.16689486 304.27669596 -32.16796875 308.0703125 C-32.17118187 310.70864887 -32.17454598 313.34698505 -32.17805481 315.98532104 C-32.18444989 321.52179247 -32.18593743 327.05825194 -32.18530273 332.59472656 C-32.18470331 338.9748407 -32.1952289 345.35486991 -32.2110464 351.73496258 C-32.22575506 357.88909058 -32.22928918 364.0431782 -32.22869301 370.19732285 C-32.22987057 372.80710064 -32.23427977 375.4168791 -32.24202538 378.02664566 C-32.25186592 381.68596596 -32.24893065 385.34507046 -32.24291992 389.00439453 C-32.24853943 390.07489548 -32.25415894 391.14539642 -32.25994873 392.24833679 C-32.21626862 402.75835976 -31.34160182 411.12878013 -24 419 C-18.81728834 423.91693157 -13.68504794 426.15154834 -6.625 426.4375 C0.73571609 426.19550385 6.30590042 423.8010784 11.8125 418.9375 C18.79681507 411.12316851 19.58910888 401.50119999 19.50170898 391.44775391 C19.50711197 390.24473633 19.51251495 389.04171875 19.51808167 387.80224609 C19.52836627 384.53796412 19.52096478 381.27435443 19.50437045 378.01011705 C19.49040904 374.57985154 19.49699182 371.14961359 19.50050354 367.71932983 C19.5031948 361.96823608 19.48981662 356.21735236 19.46655273 350.46630859 C19.43987359 343.82515066 19.43822391 337.1843419 19.4499411 330.54314864 C19.46072649 324.13426426 19.45453079 317.72550571 19.44038582 311.31663132 C19.43464021 308.59663275 19.43469721 305.87672671 19.43945122 303.15672684 C19.44235726 299.36289543 19.42588706 295.56963784 19.40405273 291.77587891 C19.40855438 290.6516452 19.41305603 289.5274115 19.41769409 288.36911011 C19.40778946 287.33477844 19.39788483 286.30044678 19.38768005 285.23477173 C19.38525016 284.33924906 19.38282026 283.44372639 19.38031673 282.52106667 C18.91375986 279.42832611 17.81109362 277.5290242 16 275 C12.59819251 273.29909626 8.7208744 273.79336684 4.9765625 273.76171875 C4.07884125 273.753647 3.18112 273.74557526 2.25619507 273.73725891 C0.35473565 273.72341709 -1.54674864 273.71269537 -3.44824219 273.70483398 C-6.35659784 273.68760899 -9.26382032 273.64372309 -12.171875 273.59960938 C-14.0182208 273.58948355 -15.86457627 273.5809671 -17.7109375 273.57421875 C-18.5808432 273.55671066 -19.4507489 273.53920258 -20.34701538 273.52116394 C-25.25485398 273.52433076 -25.25485398 273.52433076 -29.51806641 275.77661133 Z " fill="#000000" transform="translate(416,0)"/>
<path d="M0 0 C3.14533477 3.04387236 3.95874248 6.01169318 4.14044189 10.36422729 C4.15248847 11.77777718 4.15896642 13.19138091 4.16113281 14.60498047 C4.16609772 15.37767273 4.17106262 16.15036499 4.17617798 16.94647217 C4.19078638 19.50338633 4.19759916 22.06023846 4.203125 24.6171875 C4.20887726 26.39454144 4.21463499 28.17189536 4.22039795 29.94924927 C4.23090398 33.67661834 4.23674934 37.40396586 4.24023438 41.13134766 C4.24572021 45.90524504 4.26975177 50.67885737 4.29820633 55.45266533 C4.31683792 59.12440827 4.32203857 62.79608259 4.32357025 66.4678688 C4.32659581 68.22771896 4.3346211 69.98756793 4.34775543 71.74737167 C4.36482802 74.21054482 4.36293299 76.67302201 4.35644531 79.13623047 C4.3656601 79.86160004 4.37487488 80.5869696 4.3843689 81.33432007 C4.34810442 85.73405983 3.72088662 88.51394816 1 92 C-2.75047482 94.50031654 -4.55856266 94.53603554 -9 94 C-12.67057321 91.25687167 -13.87325009 89.76698645 -14.62818909 85.19871521 C-14.65471668 83.69708253 -14.65388991 82.19480934 -14.63110352 80.69311523 C-14.63825882 79.86975677 -14.64541412 79.04639832 -14.65278625 78.1980896 C-14.66965558 75.48435498 -14.65028363 72.77227634 -14.62890625 70.05859375 C-14.62973504 68.16960005 -14.63219478 66.28060642 -14.63621521 64.39161682 C-14.63907189 60.43639368 -14.62438333 56.48173724 -14.59692383 52.52661133 C-14.56281787 47.45653189 -14.56886821 42.38746416 -14.5875864 37.31733608 C-14.59815308 33.41823388 -14.589222 29.51936724 -14.57420158 25.62028694 C-14.56901844 23.75078086 -14.56950319 21.8812502 -14.57574654 20.01174736 C-14.5811957 17.39978972 -14.56083518 14.78928259 -14.53344727 12.17749023 C-14.53997314 11.40491379 -14.54649902 10.63233734 -14.55322266 9.83634949 C-14.49028039 6.307099 -14.29245864 4.37525391 -12.09165955 1.55140686 C-8.07022227 -1.43133734 -4.75662551 -1.27688103 0 0 Z " fill="#000000" transform="translate(415,43)"/>
<path d="M0 0 C4.37280182 3.20861432 7.90260913 6.08349915 9.46875 11.453125 C9.35287468 14.8714468 9.10001893 17.33912101 7.40625 20.328125 C4.27230109 22.14783727 1.03204216 22.57190141 -2.53125 22.453125 C-5.57864688 21.13720362 -7.2179419 19.80820751 -9.40625 17.328125 C-12.40635609 14.68097256 -14.57256013 14.52137827 -18.53125 14.453125 C-21.92934172 15.74439985 -24.23229505 17.19249761 -26.96875 19.578125 C-30.2488156 21.978173 -32.48724103 22.38091055 -36.53125 22.453125 C-39.47880732 21.10750101 -41.07402272 20.36757956 -42.53125 17.453125 C-43.08665733 13.42642189 -43.35175139 10.89561937 -41.3203125 7.32421875 C-31.22687563 -5.16226301 -13.75400289 -8.40522399 0 0 Z " fill="#000000" transform="translate(170.53125,447.546875)"/>
<path d="M0 0 C0.94617188 -0.020625 1.89234375 -0.04125 2.8671875 -0.0625 C11.6816965 -0.11201971 11.6816965 -0.11201971 15.625 3.25 C17.96409307 6.7586396 18.03791057 8.12089433 17.625 12.25 C15.36029412 16.88235294 15.36029412 16.88235294 12.625 18.25 C8.5275007 18.57354067 4.42118877 18.57447392 0.3125 18.625 C-1.39969727 18.68107422 -1.39969727 18.68107422 -3.14648438 18.73828125 C-11.54723205 18.82665849 -11.54723205 18.82665849 -15.6328125 15.98046875 C-18.27805531 11.8346734 -18.06763407 10.09843849 -17.375 5.25 C-12.86457274 -0.81574701 -6.88811039 0.03723303 0 0 Z " fill="#000000" transform="translate(85.375,459.75)"/>
<path d="M0 0 C1.00675781 -0.01224609 2.01351562 -0.02449219 3.05078125 -0.03710938 C4.02144531 -0.03904297 4.99210937 -0.04097656 5.9921875 -0.04296875 C6.88019043 -0.04707764 7.76819336 -0.05118652 8.68310547 -0.05541992 C11.33654599 0.20854462 12.89623808 0.73835236 15.125 2.1875 C17.148815 5.2232225 17.46274253 6.14522487 17.5625 9.625 C17.62244141 10.76775391 17.62244141 10.76775391 17.68359375 11.93359375 C17.125 14.1875 17.125 14.1875 15.37890625 16.43359375 C10.28466545 19.17946904 5.32070491 18.84504689 -0.375 18.8125 C-2.06689453 18.86083984 -2.06689453 18.86083984 -3.79296875 18.91015625 C-11.76886555 18.91959518 -11.76886555 18.91959518 -14.76733398 16.93505859 C-17.28287564 14.10158227 -17.87213576 12.35362603 -17.9375 8.5625 C-16.80525993 4.96597271 -15.80314395 3.4945225 -12.875 1.1875 C-9.0168084 -0.7415958 -4.2434909 0.00269599 0 0 Z " fill="#000000" transform="translate(221.875,459.8125)"/>
<path d="M0 0 C3.74785043 2.08213913 4.79482295 3.2947039 6 7.4375 C6 11.40316899 5.44976383 12.93779521 3 16 C-0.75047482 18.50031654 -2.55856266 18.53603554 -7 18 C-9.92488107 16.00859161 -11.66988282 14.58770642 -12.41015625 11.02734375 C-12.54869651 7.80477693 -12.21857831 5.40593114 -10.6875 2.5625 C-7.51350848 -0.37638104 -4.13334357 -0.41333436 0 0 Z " fill="#000000" transform="translate(413,392)"/>
</svg>
