<?xml version="1.0" encoding="UTF-8"?>
<svg version="1.1" xmlns="http://www.w3.org/2000/svg" width="512" height="512">
<path d="M0 0 C0.68148102 0.1119873 1.36296204 0.22397461 2.06509399 0.33935547 C23.9038417 3.94911873 46.74109419 8.50150794 61.7578125 26.11328125 C62.9375 27.8125 62.9375 27.8125 62.9375 29.8125 C63.5975 29.8125 64.2575 29.8125 64.9375 29.8125 C65.205625 29.23242188 65.47375 28.65234375 65.75 28.0546875 C72.90158498 14.55136587 87.27548103 10.03914827 100.9375 5.8125 C110.76394391 2.82725122 120.66883523 1.1077972 130.8125 -0.4375 C132.52445557 -0.70071045 132.52445557 -0.70071045 134.27099609 -0.96923828 C153.46832308 -3.7453292 153.46832308 -3.7453292 159.9375 0.8125 C163.69962757 4.55692345 166.81672214 7.74474241 167.03515625 13.29296875 C167.01775391 14.63294922 167.01775391 14.63294922 167 16 C166.99097656 16.90105469 166.98195313 17.80210937 166.97265625 18.73046875 C166.95525391 19.76107422 166.95525391 19.76107422 166.9375 20.8125 C168.35289062 21.24949219 168.35289062 21.24949219 169.796875 21.6953125 C185.31672296 26.60038097 198.60459 32.8301259 208.9375 45.8125 C209.618125 45.131875 210.29875 44.45125 211 43.75 C211.46921875 43.29109375 211.9384375 42.8321875 212.421875 42.359375 C213.95115423 40.84247718 213.95115423 40.84247718 215.265625 39.203125 C229.13563046 23.28911873 255.09099812 20.02499292 274.75 16.9375 C275.79317383 16.77297836 275.79317383 16.77297836 276.85742188 16.60513306 C297.0095068 13.47454146 297.0095068 13.47454146 304.9375 17.8125 C309.06427042 21.38903437 311.69802053 24.23084691 312.2097168 29.74707031 C312.18251828 38.53915024 311.27730719 46.9101898 309.75 55.5625 C309.63701569 56.21414124 309.52403137 56.86578247 309.40762329 57.53717041 C306.0627033 76.75673962 302.10088539 99.00993125 286.9375 112.8125 C286.27234375 113.42351562 285.6071875 114.03453125 284.921875 114.6640625 C273.26144471 124.52090105 258.94030109 127.83711769 244.00244141 127.0078125 C234.36583822 126.09633431 226.55892195 122.59426838 218.9375 116.8125 C218.6075 122.7525 218.2775 128.6925 217.9375 134.8125 C219.62617188 134.77769531 221.31484375 134.74289062 223.0546875 134.70703125 C225.30728164 134.67887382 227.55988664 134.65157578 229.8125 134.625 C230.92109375 134.59986328 232.0296875 134.57472656 233.171875 134.54882812 C242.22160426 134.46897757 249.36917747 136.14993146 257.5625 139.875 C261.93588443 141.70011319 266.19513171 142.33265364 270.875 142.8125 C286.33786345 144.45422276 295.91683306 150.67064741 305.984375 162.33984375 C310.6161677 168.20369331 312.61291445 172.92594719 312.25390625 180.48828125 C311.5813805 185.42843953 309.56601587 188.44837999 305.875 191.625 C301.47697906 194.90012198 298.6326697 194.95721022 293.30553055 194.94672108 C292.10433169 194.95024942 292.10433169 194.95024942 290.8788662 194.95384905 C288.16672835 194.9605627 285.45463815 194.96008012 282.74249268 194.95967102 C280.7898866 194.96296817 278.83728121 194.96669342 276.88467669 194.9708125 C271.49643207 194.98085749 266.10819858 194.9845533 260.71994591 194.98720181 C254.91748961 194.99109745 249.1150422 195.00067626 243.31259155 195.00941467 C229.28880434 195.0291997 215.26501637 195.03924772 201.24121869 195.04814246 C194.64318044 195.05252189 188.04514301 195.05788958 181.44710541 195.06313133 C159.52418304 195.08014539 137.60126124 195.0946657 115.67833328 195.10188007 C114.26008266 195.10235483 112.84183203 195.10283072 111.42358141 195.10330774 C110.72024402 195.10354411 110.01690664 195.10378049 109.292256 195.10402403 C105.72869149 195.10522525 102.165127 195.10644069 98.6015625 195.10766602 C97.89435739 195.10790617 97.18715228 195.10814632 96.45851671 195.10839374 C73.52393906 195.11628848 50.5894131 195.13972331 27.65485803 195.17222196 C3.4173405 195.20650434 -20.82014677 195.22622973 -45.05768895 195.22952431 C-58.27395306 195.23169277 -71.4901412 195.2404904 -84.70638275 195.26598549 C-95.9592802 195.28764253 -107.21208324 195.29576757 -118.46499917 195.28601871 C-124.20948605 195.28145954 -129.95377796 195.28345389 -135.69823837 195.30278015 C-140.95378544 195.32030934 -146.20899381 195.31949783 -151.46454397 195.30388286 C-153.36902387 195.30149114 -155.27352661 195.3059106 -157.17797145 195.31771151 C-159.76145177 195.33273248 -162.3437167 195.32322648 -164.92716599 195.30748463 C-165.67129195 195.31770683 -166.41541791 195.32792904 -167.18209314 195.33846101 C-172.27563989 195.27044958 -175.12624778 193.99190596 -179.0625 190.8125 C-183.64904035 185.73011745 -184.60711581 181.57014287 -184.52734375 174.8515625 C-182.99199933 164.81376455 -173.76250178 156.18870098 -166.02734375 150.25 C-158.90581934 145.49287832 -151.88171627 143.83223036 -143.4375 143 C-136.07508916 142.26663316 -130.01210545 140.14011498 -123.26953125 137.15234375 C-118.46925481 135.14686894 -114.28601995 134.68827682 -109.10546875 134.71484375 C-107.99365234 134.71806641 -106.88183594 134.72128906 -105.73632812 134.72460938 C-104.58583984 134.73298828 -103.43535156 134.74136719 -102.25 134.75 C-101.08017578 134.75451172 -99.91035156 134.75902344 -98.70507812 134.76367188 C-95.82419677 134.77543057 -92.94334181 134.79336526 -90.0625 134.8125 C-90.5575 125.9025 -90.5575 125.9025 -91.0625 116.8125 C-92.444375 117.72 -93.82625 118.6275 -95.25 119.5625 C-107.77757083 126.987549 -121.02034029 128.78978874 -135.25 125.6875 C-148.1903854 121.91105553 -160.36022343 114.91694705 -167.41796875 103.10546875 C-179.07261867 81.74791727 -186.49614585 51.09236205 -184.0625 26.8125 C-182.46084169 21.94764998 -179.76590348 18.8953844 -175.375 16.3125 C-166.97997101 12.91196893 -157.34712505 15.12199404 -148.6875 16.5 C-147.55352783 16.67861572 -146.41955566 16.85723145 -145.2512207 17.04125977 C-121.19616068 20.97520626 -98.03888057 26.1843753 -82.0625 45.8125 C-81.4025 45.131875 -80.7425 44.45125 -80.0625 43.75 C-79.06733327 42.76592148 -78.06676093 41.78729606 -77.0625 40.8125 C-76.50433594 40.26980469 -75.94617188 39.72710937 -75.37109375 39.16796875 C-66.27732867 30.75765991 -52.02975831 21.8125 -39.0625 21.8125 C-39.09730469 21.08804687 -39.13210937 20.36359375 -39.16796875 19.6171875 C-39.45089896 9.51253726 -39.45089896 9.51253726 -36.0625 4.8125 C-25.68910838 -5.58541501 -13.46769025 -2.25616152 0 0 Z M-21.0625 15.8125 C-18.13091856 52.9214507 -18.13091856 52.9214507 0.19140625 83.74609375 C8.91168126 90.31018183 18.0246727 93.14035451 28.9375 91.8125 C37.16242352 90.00369939 43.47667788 86.23828667 48.9375 79.8125 C54.25790849 71.33548552 56.29055992 63.21992972 54.4765625 53.2890625 C52.00825426 44.0837247 47.29734125 34.85150621 38.9375 29.8125 C20.32544452 20.51841838 -0.62796732 17.95493762 -21.0625 15.8125 Z M82.6171875 34.9375 C75.51162718 42.86928827 72.22234641 52.37574418 72.59765625 63.01953125 C73.73446645 72.36228175 77.77142788 79.72256158 84.9375 85.8125 C93.05928918 90.90995927 100.39549084 92.69349174 109.9375 91.8125 C119.53271285 89.50912243 128.90112792 84.66829472 134.5390625 76.3515625 C144.52566143 58.21946948 147.21761662 36.14306171 148.9375 15.8125 C129.27843394 15.8125 97.41885848 20.68858852 82.6171875 34.9375 Z M-166.0625 32.8125 C-165.55053716 41.57852112 -164.50651785 50.07300479 -162.8125 58.6875 C-162.59142578 59.81792725 -162.37035156 60.94835449 -162.14257812 62.11303711 C-158.88540082 78.20630727 -155.05124806 93.79138713 -141.0625 103.8125 C-132.20369102 108.71673665 -123.12521778 110.36536245 -113.11328125 108.1640625 C-103.96819737 105.17947445 -98.23995576 100.5050257 -93.625 92.0625 C-89.50130262 83.00388608 -89.27110143 75.21423881 -91.98046875 65.67578125 C-93.67845801 61.18254612 -96.07065432 57.54459616 -99.0625 53.8125 C-99.76375 52.925625 -100.465 52.03875 -101.1875 51.125 C-118.30907648 37.35329718 -144.90955881 34.66162368 -166.0625 32.8125 Z M229.25390625 51.2734375 C222.24352218 58.95766962 218.07206212 67.34404949 217.5625 77.875 C218.48537514 87.56518899 221.62419298 94.86910676 228.7890625 101.53515625 C236.65878963 107.91559239 244.92092715 109.83257531 254.9375 108.8125 C264.35993341 107.11730958 272.66520993 102.39310001 278.60546875 94.81640625 C289.42344422 78.54185664 294.32439519 52.01892812 293.9375 32.8125 C274.57257973 32.8125 244.2003392 37.56710161 229.25390625 51.2734375 Z M163.9375 39.8125 C163.69966797 40.78123047 163.69966797 40.78123047 163.45703125 41.76953125 C162.79475922 44.44423209 162.12282135 47.11634813 161.44677734 49.78759766 C161.08946592 51.20827884 160.7359522 52.62991801 160.38525391 54.05224609 C156.84518915 68.38107962 153.03303974 80.91501674 143.9375 92.8125 C143.37289063 93.5653125 142.80828125 94.318125 142.2265625 95.09375 C141.80117188 95.6609375 141.37578125 96.228125 140.9375 96.8125 C150.14577504 104.56225394 158.74185232 109.2727364 170.9375 109.078125 C181.02867747 108.18463533 188.32321385 103.29967522 194.9375 95.8125 C200.15655847 87.95629823 200.66693714 80.01382855 199.9375 70.8125 C197.7197981 60.61908703 192.34811773 52.83532198 183.75 47 C178.03081706 43.59383842 170.74970539 39.8125 163.9375 39.8125 Z M-62.94140625 52.5390625 C-70.18445032 60.49007329 -72.46996875 68.79982838 -72.328125 79.3671875 C-71.53675407 89.63173394 -66.80615301 97.15741163 -59.0625 103.8125 C-51.52021229 108.36678875 -43.77427732 109.63628205 -35.0625 108.8125 C-26.11769368 106.5289714 -19.4060175 102.52916559 -13.0625 95.8125 C-13.49820313 95.37421875 -13.93390625 94.9359375 -14.3828125 94.484375 C-28.15089986 79.822256 -31.79252694 58.81731255 -36.0625 39.8125 C-45.63877055 39.8125 -56.11123813 46.26269179 -62.94140625 52.5390625 Z M50.25 101.5625 C38.8854287 109.13888087 25.12027981 110.54595717 11.87890625 108.12890625 C8.54241828 107.42666457 5.23794137 106.66685154 1.9375 105.8125 C0.7928125 107.3284375 0.7928125 107.3284375 -0.375 108.875 C-8.17258203 117.95991868 -21.17771846 124.40214966 -33.0625 125.8125 C-45.94134628 126.71772242 -57.72194775 125.48072987 -68.57421875 117.765625 C-70.04864987 116.63273182 -70.04864987 116.63273182 -72.0625 116.8125 C-72.0625 122.7525 -72.0625 128.6925 -72.0625 134.8125 C-70.39703125 134.83828125 -68.7315625 134.8640625 -67.015625 134.890625 C-53.99418865 135.18741547 -43.60037361 135.81946393 -31.73828125 141.3671875 C-21.75558496 145.29237095 -10.54925666 145.27055173 -0.0625 143.8125 C0.98421875 143.6990625 2.0309375 143.585625 3.109375 143.46875 C10.27208511 142.57769515 16.50044762 140.70778634 23.16015625 137.93359375 C27.4659329 136.19553764 31.1513544 135.6620052 35.796875 135.49609375 C37.30459473 135.43893188 37.30459473 135.43893188 38.84277344 135.38061523 C40.74591309 135.31596069 40.74591309 135.31596069 42.6875 135.25 C46.73 135.105625 50.7725 134.96125 54.9375 134.8125 C54.9375 122.9325 54.9375 111.0525 54.9375 98.8125 C53.11548257 98.8125 51.65691629 100.51186381 50.25 101.5625 Z M72.9375 98.8125 C72.9375 110.6925 72.9375 122.5725 72.9375 134.8125 C80.71424711 135.02152745 80.71424711 135.02152745 88.49169922 135.20043945 C97.28756638 135.49458928 104.57827217 137.24272857 112.5625 140.875 C123.07203749 145.17135181 134.8405109 145.35333694 145.9375 143.8125 C146.99582031 143.6990625 148.05414063 143.585625 149.14453125 143.46875 C156.11215288 142.60916204 161.9943745 140.85297937 168.37890625 137.93359375 C172.569487 136.09741562 176.2289877 135.65923258 180.796875 135.49609375 C181.91191406 135.45419922 183.02695312 135.41230469 184.17578125 135.36914062 C185.33464844 135.32982422 186.49351562 135.29050781 187.6875 135.25 C188.86183594 135.20681641 190.03617187 135.16363281 191.24609375 135.11914062 C194.14309355 135.01315283 197.0402815 134.91233084 199.9375 134.8125 C199.9375 128.8725 199.9375 122.9325 199.9375 116.8125 C196.47130912 118.19897635 193.39095947 119.58191082 190.125 121.3125 C178.28809516 127.18762554 164.55558807 127.5916194 151.87890625 123.91796875 C141.96210187 120.19093603 131.9332623 114.80614345 125.9375 105.8125 C124.68259766 106.13734375 124.68259766 106.13734375 123.40234375 106.46875 C104.31332964 111.03489291 89.8919862 108.98519172 72.9375 98.8125 Z M-125.1940918 157.39160156 C-129.50209203 159.52561819 -133.7629802 159.99039317 -138.5 160.4375 C-146.84127634 161.27753412 -153.96504003 163.02570003 -159.9375 169.3125 C-160.76894531 170.16328125 -160.76894531 170.16328125 -161.6171875 171.03125 C-163.36115961 173.04934369 -163.36115961 173.04934369 -165.0625 176.8125 C-123.4825 176.8125 -81.9025 176.8125 -39.0625 176.8125 C-37.7425 173.5125 -36.4225 170.2125 -35.0625 166.8125 C-33.78187515 165.1050002 -32.46799561 163.41878069 -31.0625 161.8125 C-31.0625 161.1525 -31.0625 160.4925 -31.0625 159.8125 C-33.10349935 159.0191145 -35.1453309 158.2278697 -37.1875 157.4375 C-38.32445312 156.99664062 -39.46140625 156.55578125 -40.6328125 156.1015625 C-46.01814102 154.07746408 -50.49067949 152.56488817 -56.28881836 152.49023438 C-58.10747658 152.46141174 -58.10747658 152.46141174 -59.96287537 152.43200684 C-61.91291222 152.4192572 -61.91291222 152.4192572 -63.90234375 152.40625 C-64.57317049 152.40059525 -65.24399723 152.39494049 -65.93515205 152.38911438 C-69.4926724 152.35920865 -73.05003252 152.34070637 -76.60766602 152.33203125 C-79.52028951 152.32329192 -82.43171791 152.29562484 -85.34399414 152.25 C-105.84935937 151.54723066 -105.84935937 151.54723066 -125.1940918 157.39160156 Z M19.80810547 157.40039062 C15.4972761 159.52097551 11.23452421 159.99062872 6.5 160.4375 C-3.01604509 161.39584286 -9.68053862 163.49897942 -16.0625 171 C-16.825625 171.88042969 -17.58875 172.76085937 -18.375 173.66796875 C-20.16556506 175.48866871 -20.16556506 175.48866871 -20.0625 176.8125 C35.3775 176.8125 90.8175 176.8125 147.9375 176.8125 C141.06197415 167.6451322 136.92858118 163.05142394 125.9375 160.8125 C123.54355627 160.5254434 121.14748517 160.25579863 118.75 160 C113.3353629 159.38245823 109.80281134 158.35538661 104.94921875 155.78515625 C93.63035307 150.70127162 80.44885702 151.91397248 68.28613281 152.03027344 C64.66466892 152.06446315 61.04585053 152.04420048 57.42447758 152.00958443 C38.05417779 151.65638621 38.05417779 151.65638621 19.80810547 157.40039062 Z M161.9375 158.8125 C160.9475 159.1425 159.9575 159.4725 158.9375 159.8125 C160.01549395 161.97350182 161.09917 164.13130719 162.19140625 166.28515625 C162.62324219 167.13980469 163.05507813 167.99445313 163.5 168.875 C163.93441406 169.73222656 164.36882812 170.58945312 164.81640625 171.47265625 C165.9375 173.8125 165.9375 173.8125 166.9375 176.8125 C208.5175 176.8125 250.0975 176.8125 292.9375 176.8125 C287.73657837 169.01111755 283.06428728 163.71834903 273.8203125 161.34375 C270.47362705 160.72701664 267.13299689 160.36725645 263.75 160 C258.33160823 159.38104645 254.77713453 158.34756487 249.9140625 155.78515625 C238.72388194 150.76838834 225.78847506 151.91321523 213.76831055 152.03027344 C210.21642299 152.06443011 206.66723649 152.04422626 203.11544228 152.00957489 C188.49513898 151.88907291 175.22641631 151.95947683 161.9375 158.8125 Z " fill="#000000" transform="translate(192.0625,317.1875)"/>
<path d="M0 0 C13.67996171 10.50255753 23.04363642 25.94310863 26.05859375 42.96875 C27.74124053 56.42992422 27.74124053 56.42992422 26.20947266 62.12670898 C24.52349244 68.48040455 24.52349244 68.48040455 25.90274048 74.72836304 C28.48187181 78.51896861 31.68453704 81.65799459 35.03955078 84.76098633 C36.8131548 86.41049192 38.50272417 88.12137624 40.1953125 89.85351562 C45.74433212 95.54050352 45.74433212 95.54050352 52.90380859 98.47021484 C55.42520366 98.21499758 57.63756515 97.70019443 60.05859375 96.96875 C79.83003348 95.73599836 98.9079546 100.8437079 114.05859375 113.96875 C117.73421429 117.45216772 121.27833754 121.05822639 124.796875 124.69921875 C126.85700081 126.82082716 128.95193279 128.73881002 131.26953125 130.57421875 C134.02583905 132.94062867 135.59117233 134.95609877 137.37109375 138.09375 C137.86222656 138.94195312 138.35335938 139.79015625 138.859375 140.6640625 C142.01809567 146.73456802 142.04532583 153.8084742 140.48046875 160.40625 C135.74037249 172.47194958 122.92745334 182.29110618 113.93359375 191.33203125 C113.26906189 192.00063864 112.60453003 192.66924603 111.91986084 193.35811424 C108.41108837 196.88758181 104.89916764 200.41388249 101.38476562 203.93774414 C97.77542239 207.55820214 94.17792653 211.19020408 90.58285522 214.82482624 C87.79442809 217.63946032 84.99709187 220.44511269 82.19732666 223.24846458 C80.86719763 224.58343777 79.54042353 225.92176311 78.21722412 227.26360512 C61.45665839 244.24582195 61.45665839 244.24582195 48.80859375 245.21875 C36.11694125 244.37263983 28.06850839 236.35870196 19.49609375 227.71875 C18.74739014 226.96440674 17.99868652 226.21006348 17.22729492 225.43286133 C12.20787644 220.30210843 7.61878462 215.24048158 4.05859375 208.96875 C3.53265625 208.06382812 3.00671875 207.15890625 2.46484375 206.2265625 C-6.61384889 189.44878248 -6.46900967 173.5911215 -5.94140625 154.96875 C-7.1889131 154.47027715 -8.43954626 153.97962477 -9.69140625 153.4921875 C-10.3875 153.21810059 -11.08359375 152.94401367 -11.80078125 152.66162109 C-18.20198596 150.58969831 -24.07764763 152.03295963 -29.94140625 154.96875 C-36.87506408 159.40600519 -42.50171681 165.29365276 -48.23779297 171.13330078 C-49.24687925 172.15279456 -50.25646596 173.17179324 -51.26651001 174.19033813 C-53.42771529 176.37130495 -55.5859303 178.55517206 -57.74197006 180.74124527 C-61.1573207 184.20303707 -64.58269411 187.65479495 -68.01004028 191.10470581 C-77.7503298 200.91160653 -87.48210022 210.72685135 -97.19287109 220.56298828 C-102.56619053 226.00550794 -107.95028949 231.43712085 -113.34645665 236.85699069 C-116.75120537 240.27786284 -120.14244366 243.71140525 -123.52412772 247.1550715 C-125.63673257 249.29986082 -127.76198495 251.43176673 -129.89092636 253.56032944 C-130.86927329 254.54348842 -131.84252509 255.53175066 -132.80997467 256.52563477 C-139.72344434 263.6199031 -146.32023752 268.97754914 -156.56640625 269.28125 C-158.82467147 269.2058422 -160.80812723 269.00238588 -163 268.44921875 C-165.29861903 267.81574015 -165.29861903 267.81574015 -168.94140625 267.96875 C-171.13373158 269.61064172 -172.81170428 271.48498994 -174.640625 273.5234375 C-192.51644392 292.52218562 -218.83181766 302.25962661 -244.44921875 303.2890625 C-246.75890475 303.33901485 -249.06885185 303.37808456 -251.37890625 303.40625 C-252.46856689 303.42856689 -253.55822754 303.45088379 -254.6809082 303.47387695 C-262.96004312 303.45046275 -269.92384143 302.10017534 -276.5625 296.92578125 C-282.09362364 290.39548689 -285.70862174 283.9765608 -285.28515625 275.13671875 C-283.94607487 266.69137598 -280.78966675 260.14053291 -273.94140625 254.96875 C-267.44348943 251.14806219 -261.61705689 250.43023927 -254.19140625 250.40625 C-235.6371541 249.91631265 -222.13706008 245.50906643 -208.94140625 231.96875 C-207.07097575 230.05701982 -207.07097575 230.05701982 -205.94140625 227.96875 C-206.18356697 226.00794123 -206.18356697 226.00794123 -206.94140625 223.96875 C-207.13327412 222.09940875 -207.25198739 220.22180756 -207.31640625 218.34375 C-207.36539063 217.38210937 -207.414375 216.42046875 -207.46484375 215.4296875 C-206.16090721 206.80813693 -201.03883727 200.32655363 -194.94799805 194.40771484 C-194.26451797 193.72350464 -193.5810379 193.03929443 -192.87684631 192.33435059 C-190.64309737 190.10405 -188.3922451 187.8919318 -186.140625 185.6796875 C-184.57726097 184.12566129 -183.01500639 182.57051824 -181.45381165 181.01431274 C-177.36310718 176.94260125 -173.25760765 172.88613723 -169.14874268 168.83276367 C-164.95007012 164.68544947 -160.76570421 160.52375476 -156.58007812 156.36328125 C-148.38105292 148.21770781 -140.16631074 140.08818553 -131.94140625 131.96875 C-133.38726588 132.12517014 -134.83299652 132.28278294 -136.27867126 132.44090271 C-137.08377608 132.52854606 -137.8888809 132.6161894 -138.71838284 132.70648861 C-156.14259183 134.76211126 -172.69573457 141.42082532 -185.94140625 152.96875 C-186.62146729 153.5555957 -187.30152832 154.14244141 -188.00219727 154.74707031 C-193.27449775 159.3922187 -198.25407526 164.24623479 -203.1640625 169.26953125 C-203.80001343 169.9180455 -204.43596436 170.56655975 -205.09118652 171.23472595 C-207.73301932 173.93072003 -210.373327 176.62777716 -212.99438477 179.34399414 C-214.93514264 181.35174895 -216.89179403 183.34285081 -218.8515625 185.33203125 C-219.42995377 185.939366 -220.00834503 186.54670074 -220.60426331 187.17243958 C-225.66346481 192.26377296 -231.19460177 195.33921738 -238.3125 196.53515625 C-247.01124959 196.52407504 -253.53154393 195.03434798 -260.04296875 189.03125 C-265.66536353 182.92296925 -267.80639967 177.24465315 -267.94140625 168.96875 C-266.75675975 156.04732803 -257.39714784 147.99985584 -248.703125 139.40234375 C-247.49573709 138.19802022 -246.288945 136.99309908 -245.0827179 135.78761292 C-242.56139391 133.27087281 -240.0352682 130.75909597 -237.50512695 128.2512207 C-234.2808034 125.05514682 -231.06518717 121.85049244 -227.85272503 118.64250088 C-224.76433135 115.55929292 -221.67128873 112.48076483 -218.578125 109.40234375 C-217.99800848 108.82410795 -217.41789196 108.24587215 -216.82019615 107.65011406 C-210.69515499 101.55071257 -204.52617793 95.57628126 -197.94140625 89.96875 C-195.92497917 88.15262935 -193.934737 86.31041428 -191.94140625 84.46875 C-184.62709631 77.73908341 -177.12218353 71.25130383 -169.56689453 64.79541016 C-166.42795314 62.11093108 -163.30083456 59.41451078 -160.1953125 56.69140625 C-153.59546407 50.91031017 -146.92771033 45.28631399 -139.98901367 39.91503906 C-136.33191947 37.08075246 -132.77547955 34.15936945 -129.25390625 31.15625 C-92.5401211 0.39078064 -46.51648564 -32.12293829 0 0 Z M-131.86328125 57.35546875 C-134.66847945 59.74757269 -137.51603782 62.08330851 -140.37890625 64.40625 C-149.70889238 72.00896464 -158.81031798 79.87718613 -167.72265625 87.96484375 C-169.73449018 89.78186982 -171.76801059 91.56819392 -173.81640625 93.34375 C-178.15839317 97.12548055 -182.38823471 101.02696789 -186.62109375 104.9296875 C-188.4173519 106.58395948 -190.2255272 108.22085625 -192.05215454 109.84165955 C-198.68675729 115.73916442 -205.05143369 121.88310162 -211.34765625 128.13671875 C-211.86555222 128.65053919 -212.38344818 129.16435963 -212.91703796 129.69375038 C-215.64549826 132.40158434 -218.37084061 135.11251258 -221.09375 137.82592773 C-223.89397319 140.6149869 -226.70571065 143.39214461 -229.51999664 146.16700268 C-231.69882041 148.31968578 -233.8687147 150.48120407 -236.03630066 152.64519691 C-237.06953251 153.67357563 -238.10612458 154.69859029 -239.14619446 155.72005272 C-240.59579306 157.14526246 -242.03160363 158.58445493 -243.46679688 160.02416992 C-244.28490845 160.83641525 -245.10302002 161.64866058 -245.94592285 162.48551941 C-248.18209181 165.26826527 -249.16208867 167.49472449 -249.94140625 170.96875 C-248.61014178 173.89753184 -247.2083566 175.70179965 -244.94140625 177.96875 C-242.20014975 178.7242932 -242.20014975 178.7242932 -238.94140625 177.96875 C-229.67659183 171.65368044 -221.90963999 161.97256302 -214.07373047 154.00512695 C-195.65529122 135.29826085 -195.65529122 135.29826085 -184.06640625 128.78125 C-182.99648437 128.16894531 -181.9265625 127.55664062 -180.82421875 126.92578125 C-171.85162517 122.23372474 -162.68561235 119.07762847 -152.81640625 116.90625 C-151.70185059 116.65584961 -150.58729492 116.40544922 -149.43896484 116.14746094 C-122.09993137 110.1743556 -93.67509842 106.60153146 -65.65234375 107.01171875 C-64.88363953 107.02189529 -64.1149353 107.03207184 -63.32293701 107.04255676 C-60.20414361 107.08746214 -57.08591614 107.13681228 -53.96777344 107.21557617 C-38.04997795 107.59480788 -24.04800096 105.90073699 -10.94140625 95.96875 C-9.86890625 95.205625 -8.79640625 94.4425 -7.69140625 93.65625 C1.8015356 84.37905683 8.04574424 71.78989773 8.35131836 58.47070312 C8.47608581 42.68531047 4.27482588 30.50656852 -6.62890625 18.71875 C-17.45035751 8.54491455 -29.96676182 4.43331252 -44.53295898 4.54882812 C-76.59132513 5.66006135 -108.48713005 37.38900764 -131.86328125 57.35546875 Z M16.05859375 91.96875 C14.77071132 93.44019268 13.55289048 94.9733215 12.37109375 96.53125 C0.08561574 112.16330983 -16.0382402 121.40216532 -35.94140625 123.96875 C-41.82816356 124.36682079 -47.7352328 124.16912465 -53.62890625 124.03125 C-58.29508756 123.92988879 -62.94311216 123.88082755 -67.60961914 123.98535156 C-71.46172926 124.05318872 -75.09441803 123.71166625 -78.91186523 123.20996094 C-89.72406112 122.29166442 -97.8348825 123.78368864 -106.27531528 130.61333942 C-115.92840275 138.95517023 -124.63380974 148.30130711 -133.31756592 157.6282959 C-137.19360368 161.76277712 -141.14384853 165.82506349 -145.08789062 169.89453125 C-152.77881652 177.85143202 -160.38574374 185.88344121 -167.94140625 193.96875 C-163.46057141 199.28273204 -163.46057141 199.28273204 -158.68994141 204.33374023 C-158.12981354 204.89379257 -157.56968567 205.45384491 -156.99258423 206.03086853 C-156.41108612 206.60720535 -155.82958801 207.18354218 -155.23046875 207.77734375 C-154.61746918 208.38892838 -154.0044696 209.000513 -153.37289429 209.63063049 C-151.43976061 211.55822559 -149.50315638 213.48228928 -147.56640625 215.40625 C-146.24455926 216.72307404 -144.92294253 218.04012926 -143.6015625 219.35742188 C-140.38416326 222.56387373 -137.16364944 225.76716629 -133.94140625 228.96875 C-130.86640423 227.59829652 -128.77166254 226.04235114 -126.40791321 223.65557861 C-125.38423393 222.62952011 -125.38423393 222.62952011 -124.33987427 221.58273315 C-123.60163422 220.83258942 -122.86339417 220.08244568 -122.1027832 219.30957031 C-121.31686295 218.51912323 -120.53094269 217.72867615 -119.72120667 216.91427612 C-118.01445212 215.19656084 -116.30997656 213.47657881 -114.60750771 211.75461578 C-111.90877908 209.02573296 -109.20343524 206.30357297 -106.49613953 203.58319092 C-99.76935161 196.82166207 -93.05111187 190.05166706 -86.33831787 183.27624512 C-80.67190157 177.55697902 -74.99964416 171.84367839 -69.31847191 166.13906097 C-67.52828229 164.33833311 -65.74101174 162.5346982 -63.95678139 160.72806549 C-61.45371147 158.19363155 -58.94140606 155.66869056 -56.42700195 153.14550781 C-55.69888306 152.403461 -54.97076416 151.66141418 -54.22058105 150.8968811 C-48.23128273 144.91819051 -41.6926972 139.66335769 -33.69140625 136.65625 C-32.9025 136.35074219 -32.11359375 136.04523438 -31.30078125 135.73046875 C-21.88116822 132.68936852 -12.55686497 133.35063093 -3.21875 136.3125 C-0.85595855 137.10719864 -0.85595855 137.10719864 2.05859375 136.96875 C3.44834008 135.07234175 3.44834008 135.07234175 4.68359375 132.59375 C11.09185117 121.36737347 20.57514821 113.24297751 31.05859375 105.96875 C24.94913317 98.59409578 24.94913317 98.59409578 18.05859375 91.96875 C17.39859375 91.96875 16.73859375 91.96875 16.05859375 91.96875 Z M22.24609375 137.34375 C12.81707378 150.08626991 10.52701122 164.5273852 12.05859375 179.96875 C13.74550077 189.4597319 17.98526075 197.53022975 24.05859375 204.96875 C29.03071995 200.80049662 33.7057982 196.46119504 38.27905273 191.86181641 C38.96282486 191.17819031 39.64659698 190.49456421 40.35108948 189.79022217 C42.58800358 187.552617 44.82136464 185.31150155 47.0546875 183.0703125 C48.61388112 181.50925184 50.17329714 179.94841327 51.73292542 178.38778687 C55.82036595 174.29654371 59.90479335 170.20230542 63.98858643 166.10742188 C68.16309045 161.9226551 72.34045667 157.74074759 76.51757812 153.55859375 C84.70070986 145.36476449 92.88065914 137.16776608 101.05859375 128.96875 C99.49430026 124.27586952 95.90102843 123.03973711 91.71484375 120.6875 C66.78361519 108.24916277 39.53142865 116.5193918 22.24609375 137.34375 Z M112.60996056 142.17128754 C112.04397966 142.73911201 111.47799877 143.30693649 110.89486694 143.89196777 C109.91890816 144.86380257 109.91890816 144.86380257 108.92323303 145.85527039 C108.21041672 146.57527725 107.4976004 147.29528412 106.76318359 148.03710938 C106.01186661 148.78813431 105.26054962 149.53915924 104.48646545 150.3129425 C101.99272053 152.80808596 99.50614308 155.31024939 97.01953125 157.8125 C95.29646599 159.53929353 93.57295999 161.26564737 91.84902954 162.99157715 C87.30392574 167.54433206 82.76485871 172.10306029 78.22698975 176.6630249 C73.59894245 181.31149882 68.96525689 185.95434469 64.33203125 190.59765625 C55.2353338 199.71582968 46.14480612 208.84012882 37.05859375 217.96875 C38.01281183 219.11801266 38.9721142 220.26305541 39.93359375 221.40625 C40.46726562 222.04433594 41.0009375 222.68242187 41.55078125 223.33984375 C43.6567901 225.61498803 44.99172257 225.95481851 48.05859375 226.59375 C51.9313846 226.50662209 53.6663697 224.87002295 56.4453125 222.2824707 C57.76861572 221.05048447 57.76861572 221.05048447 59.11865234 219.79360962 C64.7799526 214.38178058 70.33173362 208.86033058 75.87109375 203.32421875 C77.17473404 202.023799 78.47844629 200.7234514 79.78222656 199.423172 C82.49346496 196.71787678 85.20267447 194.01056853 87.91064453 191.30200195 C91.38011002 187.83243407 94.85645255 184.36984378 98.33451843 180.90890026 C101.01962524 178.23489654 103.70019046 175.5563759 106.37948608 172.87655067 C107.66010213 171.59711344 108.94233719 170.31929456 110.22622681 169.04314232 C112.01367005 167.26548245 113.79468334 165.48161613 115.57421875 163.69604492 C116.10301132 163.17287186 116.63180389 162.64969879 117.17662048 162.110672 C120.62572208 158.63172464 123.05859375 156.16100101 123.05859375 151.15625 C121.72806777 146.91519845 119.36119406 143.929702 116.05859375 140.96875 C114.00128586 140.75584216 114.00128586 140.75584216 112.60996056 142.17128754 Z M-183.703125 209.47265625 C-184.65638672 210.49166016 -184.65638672 210.49166016 -185.62890625 211.53125 C-186.27214844 212.19253906 -186.91539062 212.85382813 -187.578125 213.53515625 C-189.57177896 217.0940285 -188.92905984 219.05097258 -187.94140625 222.96875 C-186.29254584 225.44954322 -184.27815945 227.45115795 -182.1484375 229.5234375 C-181.56478928 230.11045441 -180.98114105 230.69747131 -180.37980652 231.30227661 C-179.14710898 232.53467624 -177.90696116 233.75966357 -176.65991211 234.97753906 C-174.75784658 236.83989194 -172.88691555 238.72985997 -171.01757812 240.625 C-169.81294563 241.82207382 -168.60661986 243.01744658 -167.3984375 244.2109375 C-166.84195023 244.77440887 -166.28546295 245.33788025 -165.71211243 245.91842651 C-162.29461041 249.2150574 -159.9035025 250.8653822 -154.94140625 250.96875 C-152.52539893 249.71697789 -152.52539893 249.71697789 -150.56640625 247.71875 C-149.87804687 247.09484375 -149.1896875 246.4709375 -148.48046875 245.828125 C-146.62258927 243.985865 -146.62258927 243.985865 -146.94140625 240.96875 C-148.1931433 239.26634953 -148.1931433 239.26634953 -149.93896484 237.59887695 C-150.59319427 236.93841873 -151.24742371 236.27796051 -151.92147827 235.5974884 C-152.63703888 234.89113754 -153.35259949 234.18478668 -154.08984375 233.45703125 C-154.81756989 232.72880661 -155.54529602 232.00058197 -156.29507446 231.25028992 C-157.83668099 229.71102625 -159.38198744 228.17546068 -160.93066406 226.64331055 C-163.3083963 224.28918044 -165.67252557 221.92200996 -168.03515625 219.55273438 C-169.53176107 218.06170561 -171.02913138 216.57144472 -172.52734375 215.08203125 C-173.2388559 214.3696077 -173.95036804 213.65718414 -174.68344116 212.923172 C-175.34397491 212.27217026 -176.00450867 211.62116852 -176.68505859 210.95043945 C-177.26685883 210.37324661 -177.84865906 209.79605377 -178.4480896 209.20137024 C-180.716822 207.3287028 -181.50078375 207.59260884 -183.703125 209.47265625 Z M-193.94140625 242.96875 C-195.41455266 244.47523923 -196.86931936 245.99971167 -198.31640625 247.53125 C-213.26299952 262.58414906 -231.42699013 267.8583732 -252.12890625 268.40625 C-253.03817871 268.40915039 -253.94745117 268.41205078 -254.88427734 268.41503906 C-260.04996005 268.45249872 -260.04996005 268.45249872 -264.49609375 270.8515625 C-266.22053661 273.37763826 -266.86654894 274.89960033 -266.94140625 277.96875 C-265.31984996 281.45509601 -264.17687333 282.81177194 -260.94140625 284.96875 C-257.72998337 285.40661823 -254.49199015 285.3012276 -251.25390625 285.28125 C-249.84020752 285.27279053 -249.84020752 285.27279053 -248.39794922 285.26416016 C-223.22924894 284.8335251 -203.21092281 274.91476465 -184.94140625 257.96875 C-183.13516641 255.78885835 -183.13516641 255.78885835 -181.94140625 253.96875 C-183.75093216 252.13239422 -185.56381263 250.29958792 -187.37890625 248.46875 C-187.89517578 247.94410156 -188.41144531 247.41945313 -188.94335938 246.87890625 C-190.25717412 245.55650448 -191.5973413 244.26039432 -192.94140625 242.96875 C-193.27140625 242.96875 -193.60140625 242.96875 -193.94140625 242.96875 Z " fill="#000000" transform="translate(300.94140625,13.03125)"/>
<path d="M0 0 C9.01855281 6.46955008 14.35893698 13.45286137 16.4375 24.375 C17.65160729 34.40305927 15.72967853 43.59368333 10 52 C3.43003115 59.386431 -4.89256596 64.40527644 -14.84765625 65.23828125 C-25.33385619 65.48036849 -33.10610024 63.74884518 -41.3125 57 C-48.73210386 49.86394788 -52.98174337 40.72577215 -53.3125 30.4375 C-53.18583011 20.99355634 -49.75118233 11.69130488 -43 5 C-40.1503695 2.67905791 -37.21322746 0.7783552 -34 -1 C-33.39671875 -1.34160156 -32.7934375 -1.68320312 -32.171875 -2.03515625 C-22.43497144 -6.58610031 -9.17758211 -5.19643919 0 0 Z M-31.8125 20.6875 C-34.56301778 24.85256978 -35.42108585 28.03118695 -35 33 C-33.27762662 38.93261943 -29.97055779 42.51003389 -25 46 C-20.44267716 47.51910761 -16.30111047 47.9653845 -11.83984375 46.09375 C-7.35907694 43.4806673 -4.14722071 40.83124659 -2 36 C-1.23610556 30.66865341 -1.29589893 26.43427995 -3.6875 21.5625 C-7.31488285 17.54296765 -10.48916802 14.40792524 -16.05078125 13.76171875 C-23.27350001 13.5247038 -26.58081691 15.68833616 -31.8125 20.6875 Z " fill="#000000" transform="translate(277,38)"/>
<path d="M0 0 C17.93765606 13.92806235 27.01756512 44.77762125 30 66 C32.82303148 88.45445728 32.82303148 88.45445728 28 95 C25.35555365 97.17222379 23.97012982 96.99893321 20.5 96.875 C16.43105127 95.85776282 15.38934428 95.41407368 13 92 C12.31460975 88.37620658 12.21573708 84.7419181 12.0625 81.0625 C10.65804357 58.84991285 4.98762957 31.75223374 -11.60107422 15.42407227 C-13.93449516 13.04870676 -13.87057551 10.43071835 -14.13671875 7.2265625 C-13.9267255 3.80667246 -12.50210709 2.22409519 -10 0 C-6.02373645 -1.32542118 -4.05552496 -1.1490654 0 0 Z " fill="#000000" transform="translate(448,202)"/>
<path d="M0 0 C7.13243373 2.26816858 10.89542329 11.31913605 14.18383789 17.50390625 C20.53126276 30.17688448 23.212722 43.68575489 23.3515625 57.7734375 C23.38056641 58.76214844 23.40957031 59.75085938 23.43945312 60.76953125 C23.50282892 67.97487198 23.50282892 67.97487198 21.234375 71.26953125 C18.11020167 73.23186788 15.71338792 73.58397565 12.0390625 73.6484375 C9.26606005 72.47761424 7.6520641 71.52599769 5.92578125 69.0546875 C4.63111147 65.54139857 4.7413977 62.0348139 4.6640625 58.3359375 C4.03195317 43.20491553 -0.23845814 27.60498265 -9.67578125 15.4375 C-11.45904064 12.95502949 -11.5016164 10.61773797 -11.3671875 7.62109375 C-10.18998042 1.90484784 -5.55372319 -0.43680969 0 0 Z " fill="#000000" transform="translate(420.9609375,225.3515625)"/>
<path d="M0 0 C7.0151369 6.18982667 10.53494174 17.94965061 11.13720703 27.08007812 C11.25737099 29.49140168 11.32591508 31.8987192 11.375 34.3125 C11.40118408 35.10213135 11.42736816 35.8917627 11.4543457 36.70532227 C11.47074496 42.384932 11.47074496 42.384932 9.1015625 45.48046875 C5.56195931 48.03977292 3.38454172 48.42985703 -1 48 C-4.33761045 45.84909549 -5.73470933 44.79587201 -7 41 C-7.1282131 38.83462323 -7.22857955 36.66754527 -7.3125 34.5 C-7.79447409 26.99053279 -9.58827368 20.55927061 -13.10546875 13.91015625 C-14.54870278 10.8283159 -14.35204224 8.34440128 -14 5 C-10.20713399 -1.01627021 -6.78649926 -1.66685947 0 0 Z " fill="#000000" transform="translate(399,251)"/>
<path d="M0 0 C3.81624697 0.48460279 5.36934044 0.72638767 7.9375 3.5 C9.71074695 8.81974085 9.24244102 14.55218201 9.28759766 20.12353516 C9.30416136 21.62108903 9.33145771 23.11856371 9.36962891 24.61572266 C9.42454638 26.78329128 9.44628833 28.94901594 9.4609375 31.1171875 C9.48075684 32.41253418 9.50057617 33.70788086 9.52099609 35.04248047 C8.79194925 39.36246434 7.30737069 40.80004718 3.9375 43.5 C1.875 44.1640625 1.875 44.1640625 -0.0625 44.125 C-0.701875 44.13789063 -1.34125 44.15078125 -2 44.1640625 C-5.33041659 43.09176928 -6.85982208 41.17433006 -9.0625 38.5 C-9.56367036 35.7751462 -9.76695211 33.68373559 -9.7265625 30.96875 C-9.73134613 30.25521362 -9.73612976 29.54167725 -9.74105835 28.80651855 C-9.7444481 27.30376978 -9.73531008 25.80094634 -9.71435547 24.29833984 C-9.68756783 22.00580525 -9.71412531 19.71816466 -9.74609375 17.42578125 C-9.74278948 15.96092676 -9.73638286 14.4960753 -9.7265625 13.03125 C-9.73668365 12.35090698 -9.74680481 11.67056396 -9.75723267 10.96960449 C-9.66311009 7.12266753 -9.12723431 5.57878533 -6.65209961 2.56640625 C-4.08555007 0.51839312 -3.19445036 -0.1524191 0 0 Z " fill="#000000" transform="translate(256.0625,263.5)"/>
<path d="M0 0 C2.9764653 2.66315316 3.87581279 4.40164343 4.6875 8.3125 C3.67607003 13.73744257 0.83376044 16.17872738 -3 20 C-4.05127256 21.10767568 -5.10060971 22.21719011 -6.1484375 23.328125 C-7.2849858 24.5118323 -8.42301593 25.69411852 -9.5625 26.875 C-10.10414795 27.44686035 -10.6457959 28.0187207 -11.20385742 28.60791016 C-14.53517632 31.98411737 -17.18976622 34.07776207 -22 35 C-26.38423967 33.61165744 -28.42670983 32.85993526 -31 29 C-31.59494169 25.62866376 -31.75403889 23.20805527 -29.890625 20.22265625 C-28.02354509 18.03669387 -26.03830625 16.02836329 -24 14 C-22.93728171 12.89208135 -21.87620507 11.78258665 -20.81640625 10.671875 C-19.67072557 9.48817359 -18.52358099 8.30588736 -17.375 7.125 C-16.82497314 6.55313965 -16.27494629 5.9812793 -15.70825195 5.39208984 C-10.9322213 0.58084091 -6.96047327 -2.22142764 0 0 Z " fill="#000000" transform="translate(312,273)"/>
<path d="M0 0 C5.053436 1.74256414 7.85389084 4.54040975 11.625 8.25 C12.744565 9.27640958 13.8657857 10.30101488 14.98828125 11.32421875 C16.18120048 12.44370246 17.37260093 13.56480669 18.5625 14.6875 C19.14273926 15.2124707 19.72297852 15.73744141 20.32080078 16.27832031 C23.28742629 19.15243151 24.97316114 21.2957683 25.625 25.44140625 C25.625 29.9640283 25.625 29.9640283 23.6875 32.75 C20.57505411 35.29077215 18.76442104 36.23664909 14.7109375 35.875 C10.39306923 34.5812567 7.70674251 31.40317363 4.625 28.25 C3.5070367 27.15178149 2.3870889 26.05558107 1.265625 24.9609375 C-9.2124948 14.66611678 -9.2124948 14.66611678 -9.8125 9.4375 C-9.75824023 5.72070542 -9.39133253 5.26951936 -6.8125 2.1875 C-3.375 0.25 -3.375 0.25 0 0 Z " fill="#000000" transform="translate(205.375,271.75)"/>
</svg>
