<?xml version="1.0" encoding="UTF-8"?>
<svg version="1.1" xmlns="http://www.w3.org/2000/svg" width="32" height="32">
<path d="M0 0 C1.81242052 -0.02687279 3.62495233 -0.04633715 5.4375 -0.0625 C6.44683594 -0.07410156 7.45617187 -0.08570313 8.49609375 -0.09765625 C11 0 11 0 12 1 C12.04092937 3.33297433 12.04241723 5.66705225 12 8 C12.66 8.33 13.32 8.66 14 9 C14 9.66 14 10.32 14 11 C6.08 11 -1.84 11 -10 11 C-10 8.69 -10 6.38 -10 4 C-6.7 4 -3.4 4 0 4 C0 2.68 0 1.36 0 0 Z M2 3 C3 6 3 6 3 6 Z M9 4 C10 6 10 6 10 6 Z M3 6 C3 6.33 3 6.66 3 7 C4.98 7 6.96 7 9 7 C9 6.67 9 6.34 9 6 C7.02 6 5.04 6 3 6 Z " fill="#000000" transform="translate(10,13)"/>
<path d="M0 0 C1.65 0 3.3 0 5 0 C8.86800104 6.99079088 12 12.90098347 12 21 C11.34 21.66 10.68 22.32 10 23 C6.875 22.625 6.875 22.625 4 22 C3.67 20.68 3.34 19.36 3 18 C4.32 17.01 5.64 16.02 7 15 C6.34 14.21625 5.68 13.4325 5 12.625 C3 10 3 10 3 8 C2.2575 8.66 1.515 9.32 0.75 10 C-2 12 -2 12 -6 12 C-5.01621713 9.80540745 -4.22103594 8.20335306 -2.4375 6.5625 C-0.54736879 4.50800956 -0.3675753 2.72005723 0 0 Z " fill="#000000" transform="translate(20,0)"/>
<path d="M0 0 C1.58206057 0.00667536 3.16410534 0.0186375 4.74609375 0.03515625 C5.55240234 0.03966797 6.35871094 0.04417969 7.18945312 0.04882812 C9.18753131 0.06065107 11.18557158 0.07858711 13.18359375 0.09765625 C13.18359375 1.74765625 13.18359375 3.39765625 13.18359375 5.09765625 C7.57359375 5.09765625 1.96359375 5.09765625 -3.81640625 5.09765625 C-4.14640625 3.77765625 -4.47640625 2.45765625 -4.81640625 1.09765625 C-3.81640625 0.09765625 -3.81640625 0.09765625 0 0 Z M-1.81640625 1.09765625 C-1.81640625 1.42765625 -1.81640625 1.75765625 -1.81640625 2.09765625 C2.14359375 2.09765625 6.10359375 2.09765625 10.18359375 2.09765625 C10.18359375 1.76765625 10.18359375 1.43765625 10.18359375 1.09765625 C6.22359375 1.09765625 2.26359375 1.09765625 -1.81640625 1.09765625 Z M-1.81640625 3.09765625 C-1.81640625 3.42765625 -1.81640625 3.75765625 -1.81640625 4.09765625 C2.14359375 4.09765625 6.10359375 4.09765625 10.18359375 4.09765625 C10.18359375 3.76765625 10.18359375 3.43765625 10.18359375 3.09765625 C6.22359375 3.09765625 2.26359375 3.09765625 -1.81640625 3.09765625 Z " fill="#000000" transform="translate(7.81640625,26.90234375)"/>
<path d="M0 0 C3.96 0 7.92 0 12 0 C12 0.33 12 0.66 12 1 C8.04 1 4.08 1 0 1 C0 0.67 0 0.34 0 0 Z " fill="#000000" transform="translate(6,25)"/>
<path d="M0 0 C1.65 0 3.3 0 5 0 C5 0.66 5 1.32 5 2 C3.35 2 1.7 2 0 2 C0 1.34 0 0.68 0 0 Z " fill="#000000" transform="translate(3,14)"/>
</svg>
