<?xml version="1.0" encoding="UTF-8"?>
<svg version="1.1" xmlns="http://www.w3.org/2000/svg" width="100" height="100">
<path d="M0 0 C1.07765625 0.01804687 2.1553125 0.03609375 3.265625 0.0546875 C4.49539062 0.08949219 4.49539062 0.08949219 5.75 0.125 C6.43359375 1.921875 6.43359375 1.921875 6.75 4.125 C5.53515625 5.828125 5.53515625 5.828125 3.8125 7.375 C3.24660156 7.89578125 2.68070312 8.4165625 2.09765625 8.953125 C1.65292969 9.33984375 1.20820312 9.7265625 0.75 10.125 C1.74 12.105 1.74 12.105 2.75 14.125 C4.07 14.125 5.39 14.125 6.75 14.125 C7.9875 12.8565625 7.9875 12.8565625 9.25 11.5625 C10.4875 10.3559375 10.4875 10.3559375 11.75 9.125 C13.90625 9.47265625 13.90625 9.47265625 15.75 10.125 C16.37110153 20.78724287 16.37110153 20.78724287 14.125 25.625 C8.14224656 31.9226352 3.15834603 32.8257706 -5.25 33.125 C-4.425 33.785 -3.6 34.445 -2.75 35.125 C-0.21809906 38.16328113 0.12730823 38.64080183 0.1875 42.3125 C-0.25 46.125 -0.25 46.125 -2.25 48.125 C-5.875 48.25 -5.875 48.25 -9.25 48.125 C-9.58 49.445 -9.91 50.765 -10.25 52.125 C-13.715 52.62 -13.715 52.62 -17.25 53.125 C-17.683125 54.3315625 -17.683125 54.3315625 -18.125 55.5625 C-19.25 58.125 -19.25 58.125 -21.25 59.125 C-23.24960012 59.164992 -25.25047242 59.16846799 -27.25 59.125 C-27.559375 59.764375 -27.86875 60.40375 -28.1875 61.0625 C-29.25 63.125 -29.25 63.125 -30.25 64.125 C-31.3225 64.0425 -32.395 63.96 -33.5 63.875 C-37.39336658 63.71521642 -37.39336658 63.71521642 -39.6875 66.625 C-42.40974485 69.28084864 -42.81241239 69.52117231 -46.375 69.625 C-50.25 69.125 -50.25 69.125 -52.25 68.125 C-53.87693544 64.87112912 -54.17246412 61.59030928 -53.25 58.125 C-51.70844168 55.97848491 -50.02534314 54.09417016 -48.25 52.125 C-48.89138916 51.50979492 -49.53277832 50.89458984 -50.19360352 50.26074219 C-52.56485342 47.97464945 -54.92446976 45.67774874 -57.27709961 43.37255859 C-58.29804798 42.37677273 -59.32343622 41.38551809 -60.35327148 40.39892578 C-61.83203823 38.98073503 -63.29412415 37.54706754 -64.75390625 36.109375 C-65.63892822 35.25053711 -66.5239502 34.39169922 -67.43579102 33.50683594 C-69.25 31.125 -69.25 31.125 -69.11743164 28.91601562 C-68.07374132 26.7610727 -66.88372897 25.49965546 -65.125 23.875 C-62.5852103 21.44854777 -60.21328878 18.98830866 -57.9375 16.3125 C-55.05617179 13.00840354 -52.13244066 9.75261483 -49.125 6.5625 C-47.91457031 5.26119141 -47.91457031 5.26119141 -46.6796875 3.93359375 C-44.25 2.125 -44.25 2.125 -41.8203125 1.97265625 C-38.81948458 3.31801223 -37.18350095 5.26689808 -34.96777344 7.64160156 C-31.89475088 10.29533736 -28.2474084 11.04174301 -24.375 12 C-23.59125 12.21140625 -22.8075 12.4228125 -22 12.640625 C-20.08811175 13.15357063 -18.1696426 13.64188282 -16.25 14.125 C-16.13269531 13.20203125 -16.01539063 12.2790625 -15.89453125 11.328125 C-15.04884216 7.12530649 -13.21762996 5.16164461 -10.25 2.125 C-6.84314941 -0.10629995 -4.0157009 -0.08729785 0 0 Z M-12.25 9.125 C-13.61112895 11.84725791 -13.34560957 14.02745585 -13.3125 17.0625 C-13.30347656 18.12339844 -13.29445312 19.18429688 -13.28515625 20.27734375 C-13.27355469 21.21707031 -13.26195312 22.15679687 -13.25 23.125 C-13.25 24.115 -13.25 25.105 -13.25 26.125 C-11.00503458 28.4543081 -11.00503458 28.4543081 -8.25 30.125 C-7.26 29.795 -6.27 29.465 -5.25 29.125 C-3.66527922 29.20534424 -2.08180381 29.31223293 -0.5 29.4375 C3.61968756 29.50384929 5.66960847 28.9374 8.8125 26.25 C11.86188678 23.27953853 12.73646221 21.91019168 12.8125 17.5 C12.791875 16.38625 12.77125 15.2725 12.75 14.125 C12.04875 14.785 11.3475 15.445 10.625 16.125 C7.24736169 18.47466143 5.77695637 18.81043938 1.75 18.125 C-0.625 16.5 -0.625 16.5 -2.25 14.125 C-2.93543938 10.09804363 -2.59966143 8.62763831 -0.25 5.25 C0.41 4.54875 1.07 3.8475 1.75 3.125 C-4.9139555 2.30900545 -7.92067778 4.40432662 -12.25 9.125 Z M-45.58837891 8.23632812 C-46.55625211 9.20451895 -47.51861594 10.1782365 -48.4765625 11.15625 C-49.23808121 11.92201355 -49.23808121 11.92201355 -50.01498413 12.70324707 C-51.63972835 14.33921065 -53.2573924 15.98198244 -54.875 17.625 C-55.97349988 18.73352741 -57.07245255 19.84160632 -58.171875 20.94921875 C-60.86987018 23.66929755 -63.56153427 26.39550344 -66.25 29.125 C-64.27 31.435 -62.29 33.745 -60.25 36.125 C-56.01030171 34.00515085 -53.57570948 31.46628352 -50.5 28 C-49.43881742 26.82563113 -48.37631451 25.652454 -47.3125 24.48046875 C-46.53519531 23.62267822 -46.53519531 23.62267822 -45.7421875 22.74755859 C-42.69043159 19.42917349 -39.47959766 16.26910831 -36.25 13.125 C-37.61239218 10.28276803 -38.80233169 8.16472359 -41.25 6.125 C-43.52767791 5.9016153 -43.52767791 5.9016153 -45.58837891 8.23632812 Z M-37.78515625 16.1328125 C-38.98306758 17.48593493 -40.15833395 18.8593769 -41.3125 20.25 C-42.48742964 21.60976455 -43.66577153 22.96658882 -44.84765625 24.3203125 C-45.41363525 24.97233643 -45.97961426 25.62436035 -46.56274414 26.29614258 C-48.93371043 28.86609026 -51.49897734 30.96976568 -54.25 33.125 C-56.17283085 34.54091827 -56.17283085 34.54091827 -57.25 36.125 C-56.69427506 42.16645357 -50.537352 46.30616118 -46.5 50.3125 C-45.5925 51.23998047 -44.685 52.16746094 -43.75 53.12304688 C-42.86828125 54.00412109 -41.9865625 54.88519531 -41.078125 55.79296875 C-40.2727832 56.60016357 -39.46744141 57.4073584 -38.63769531 58.23901367 C-36.08483809 60.25545764 -34.44912211 60.79137321 -31.25 61.125 C-30.03309467 59.35970405 -30.03309467 59.35970405 -29.25 57.125 C-30.03309467 54.89029595 -30.03309467 54.89029595 -31.25 53.125 C-30.5075 53.434375 -29.765 53.74375 -29 54.0625 C-25.69425905 55.36785852 -25.69425905 55.36785852 -22.25 56.125 C-21.59 55.465 -20.93 54.805 -20.25 54.125 C-20.60355436 51.86225212 -21.22544426 50.17411148 -22.25 48.125 C-21.528125 48.475625 -20.80625 48.82625 -20.0625 49.1875 C-16.9377295 50.22909017 -15.36838004 50.01596572 -12.25 49.125 C-12.745 45.66 -12.745 45.66 -13.25 42.125 C-12.528125 42.640625 -11.80625 43.15625 -11.0625 43.6875 C-7.8304634 45.33942982 -6.63391693 45.18851675 -3.25 44.125 C-3.39890377 39.22978841 -5.94270803 37.0616717 -9.265625 33.85546875 C-9.92046875 33.24316406 -10.5753125 32.63085938 -11.25 32 C-12.54604624 30.77283811 -13.83791573 29.54124573 -15.125 28.3046875 C-15.69992188 27.76569824 -16.27484375 27.22670898 -16.8671875 26.67138672 C-18.25 25.125 -18.25 25.125 -19.25 22.125 C-18.26 22.125 -17.27 22.125 -16.25 22.125 C-16.25 20.805 -16.25 19.485 -16.25 18.125 C-17.93406269 17.47025592 -19.62246336 16.82666594 -21.3125 16.1875 C-22.72208984 15.64802734 -22.72208984 15.64802734 -24.16015625 15.09765625 C-31.54086602 12.47739167 -31.54086602 12.47739167 -37.78515625 16.1328125 Z M-45.25 55.125 C-49.10243381 58.32130506 -49.10243381 58.32130506 -50.625 62.875 C-50.48007345 65.08867261 -50.48007345 65.08867261 -49.25 66.125 C-46.92171371 66.71110371 -46.92171371 66.71110371 -44.25 66.125 C-42.26550254 64.28033163 -40.85970204 62.33259137 -39.25 60.125 C-41.23 58.475 -43.21 56.825 -45.25 55.125 Z " fill="#000000" transform="translate(77.25,14.875)"/>
<path d="M0 0 C4.41006862 0.4305067 6.83000573 3.4217054 9.75 6.4375 C10.25660156 6.94087891 10.76320313 7.44425781 11.28515625 7.96289062 C15 11.73280618 15 11.73280618 15 14 C10.94772191 12.38873705 8.23778153 9.49978002 5.25 6.4375 C4.74339844 5.93025391 4.23679687 5.42300781 3.71484375 4.90039062 C0 1.14048812 0 1.14048812 0 0 Z " fill="#000000" transform="translate(45,38)"/>
<path d="M0 0 C4.09274885 1.57413417 7.35956013 4.54102377 10 8 C10 8.99 10 9.98 10 11 C5.90725115 9.42586583 2.64043987 6.45897623 0 3 C0 2.01 0 1.02 0 0 Z " fill="#000000" transform="translate(42,48)"/>
<path d="M0 0 C0.66 0 1.32 0 2 0 C1.86237302 2.95898005 1.67947621 5.20795996 -0.296875 7.51171875 C-2.97126444 9.82202051 -4.39877478 11 -8 11 C-8 10.34 -8 9.68 -8 9 C-7.05125 8.401875 -6.1025 7.80375 -5.125 7.1875 C-1.85050303 4.89535212 -1.04394363 3.75819708 0 0 Z " fill="#000000" transform="translate(87,32)"/>
<path d="M0 0 C3.78520613 0.54074373 5.59177555 2.07572746 8 5 C8 5.99 8 6.98 8 8 C4.63820226 6.55922954 2.40843732 4.75249979 0 2 C0 1.34 0 0.68 0 0 Z " fill="#000000" transform="translate(36,57)"/>
<path d="M0 0 C1.65 0 3.3 0 5 0 C5 1.65 5 3.3 5 5 C3.35 5 1.7 5 0 5 C0 3.35 0 1.7 0 0 Z " fill="#000000" transform="translate(16,43)"/>
<path d="M0 0 C1.32 0 2.64 0 4 0 C4 1.32 4 2.64 4 4 C2.68 4 1.36 4 0 4 C0 2.68 0 1.36 0 0 Z " fill="#000000" transform="translate(29,75)"/>
<path d="M0 0 C1.32 0.33 2.64 0.66 4 1 C4 1.66 4 2.32 4 3 C2.68 2.67 1.36 2.34 0 2 C0 1.34 0 0.68 0 0 Z " fill="#000000" transform="translate(38,45)"/>
<path d="M0 0 C1.32 0.33 2.64 0.66 4 1 C2.68 1.33 1.36 1.66 0 2 C0 1.34 0 0.68 0 0 Z " fill="#000000" transform="translate(74,41)"/>
<path d="M0 0 C0.66 0 1.32 0 2 0 C1.67 0.99 1.34 1.98 1 3 C0.67 2.01 0.34 1.02 0 0 Z " fill="#000000" transform="translate(71,40)"/>
</svg>
