<?xml version="1.0" encoding="UTF-8"?>
<svg version="1.1" xmlns="http://www.w3.org/2000/svg" width="512" height="512">
<path d="M0 0 C3.90383456 3.37943888 6.66754757 7.69732458 7.1913147 12.90057373 C7.28079289 15.19384956 7.30337864 17.47841005 7.30078125 19.7734375 C7.30506638 20.6154068 7.3093515 21.4573761 7.31376648 22.32485962 C7.31949516 24.1016551 7.32002084 25.87847404 7.31567383 27.65527344 C7.31251851 30.35913575 7.33597453 33.06189814 7.36132812 35.765625 C7.36360189 37.49739446 7.36430425 39.22916685 7.36328125 40.9609375 C7.372491 41.76220062 7.38170074 42.56346375 7.39118958 43.38900757 C7.33663299 50.08195775 6.0733781 54.83018571 1.3125 59.8125 C-2.56860471 62.37549368 -5.46484603 63.13988459 -10 64 C-10 68.95 -10 73.9 -10 79 C-8.12158417 78.99333817 -6.24316833 78.98667633 -4.30783081 78.97981262 C13.37909036 78.91904447 31.06599042 78.87386776 48.75299263 78.84456348 C57.84643879 78.82909668 66.939807 78.80801072 76.03320312 78.77368164 C83.95930022 78.74377358 91.88534085 78.72442364 99.8114928 78.71773452 C104.00807806 78.71382464 108.20450182 78.70463979 112.40103531 78.68280983 C116.35232892 78.66242243 120.30339473 78.65617073 124.25473595 78.66067696 C125.70352988 78.65985276 127.15233155 78.65390041 128.60107994 78.64238358 C130.58263995 78.62740602 132.56432264 78.63284591 134.54592896 78.63923645 C135.65392412 78.63647107 136.76191929 78.63370569 137.90349007 78.63085651 C142.13755748 79.13561136 145.51463319 80.61342243 148.64453125 83.53515625 C153.82499938 90.30961457 153.24965975 95.35454265 153.3125 103.75 C153.34150391 105.02617187 153.37050781 106.30234375 153.40039062 107.6171875 C153.48000274 119.35078852 153.48000274 119.35078852 149 124 C145.99709822 126.26749726 143.56500652 127.81166449 140 129 C140.78744748 133.33411092 141.58071618 137.66713715 142.375 142 C142.59671875 143.22074219 142.8184375 144.44148437 143.046875 145.69921875 C144.17917253 151.86024945 145.38101468 157.94771845 147 164 C148.03125 163.525625 149.0625 163.05125 150.125 162.5625 C156.40926685 159.67173725 163.03347027 159.81756276 169.8125 159.8125 C170.66392578 159.80025391 171.51535156 159.78800781 172.39257812 159.77539062 C179.36516603 159.75945935 185.71666473 160.64803842 192.1875 163.3125 C196.05525049 164.25795012 197.57720252 162.88603127 201 161 C206.78474605 159.87126906 212.50532976 159.81669262 218.375 159.8125 C219.26960938 159.80025391 220.16421875 159.78800781 221.0859375 159.77539062 C228.17682457 159.75993084 234.60478888 160.60197189 241.1875 163.3125 C245.05525049 164.25795012 246.57720252 162.88603127 250 161 C255.4665529 159.95482259 260.83205739 159.81692727 266.375 159.8125 C267.17421875 159.80025391 267.9734375 159.78800781 268.796875 159.77539062 C278.50873015 159.75181816 286.56922309 161.43326692 294 168 C299.38587042 174.66822052 300.15012414 180.4081867 300.19287109 188.83251953 C300.20104858 189.72412277 300.20922607 190.61572601 300.21765137 191.53434753 C300.2424533 194.48382912 300.25901016 197.43326266 300.2734375 200.3828125 C300.27876118 201.392691 300.28408485 202.4025695 300.28956985 203.44305038 C300.31628178 208.7908019 300.33566097 214.13853026 300.35009766 219.48632812 C300.36342279 223.90157858 300.39125232 228.31636535 300.43212891 232.73144531 C300.48157198 238.0723821 300.50623325 243.41289916 300.51332474 248.75405502 C300.52001745 250.78332985 300.53518757 252.81259605 300.55921555 254.84173965 C300.80116015 276.51416138 300.80116015 276.51416138 293.32304382 284.87487793 C287.3772214 290.781308 280.14259992 292.16930572 271.99609375 292.29296875 C269.47639453 292.2732322 266.95677528 292.23775664 264.4375 292.1875 C263.14263672 292.17396484 261.84777344 292.16042969 260.51367188 292.14648438 C257.34200786 292.1113737 254.1712291 292.06219347 251 292 C250.83757812 293.61455078 250.83757812 293.61455078 250.671875 295.26171875 C250.02935805 298.83665318 249.61586399 300.2088301 247.25 302.8125 C246.76015625 303.37582031 246.2703125 303.93914062 245.765625 304.51953125 C240.837993 308.65132888 235.67658912 308.17473786 229.60546875 307.9921875 C227.74416877 307.97350862 225.88283496 307.95798244 224.02148438 307.9453125 C221.10309606 307.9188107 218.19012481 307.87508796 215.27319336 307.77734375 C204.83983214 306.97009603 204.83983214 306.97009603 195.31890869 310.2154541 C192.37285267 313.38558365 190.62933244 317.03578404 189 321 C188.67 321.33 188.34 321.66 188 322 C198.23 322.33 208.46 322.66 219 323 C219 328.94 219 334.88 219 341 C105.48 341 -8.04 341 -125 341 C-125 335.06 -125 329.12 -125 323 C-114.77 322.67 -104.54 322.34 -94 322 C-95.98 319.36 -97.96 316.72 -100 314 C-101.57421875 311.27734375 -101.57421875 311.27734375 -102.6875 308.9375 C-103.08710937 308.10347656 -103.48671875 307.26945312 -103.8984375 306.41015625 C-105.32255812 303.29426112 -106.69209173 300.16651475 -108 297 C-108.64324219 297.45890625 -109.28648438 297.9178125 -109.94921875 298.390625 C-122.82787584 307.13561898 -136.20491222 310.21239715 -151.51953125 307.33984375 C-164.76059572 303.71150936 -175.27818055 296.10709547 -182.6875 284.625 C-188.24987997 274.66533317 -192.10306101 261.00231151 -189.45703125 249.67578125 C-186.84004919 240.92841027 -181.84513831 234.16003186 -173.75244141 229.78491211 C-171.25347946 228.64487844 -168.73518338 227.5889675 -166.1875 226.5625 C-165.27911377 226.18488525 -164.37072754 225.80727051 -163.43481445 225.41821289 C-154.68024474 221.80274067 -145.85450925 218.36233501 -137 215 C-137.54414551 214.71801758 -138.08829102 214.43603516 -138.64892578 214.14550781 C-141.14282028 212.85057046 -143.63391439 211.55033208 -146.125 210.25 C-146.9809375 209.8065625 -147.836875 209.363125 -148.71875 208.90625 C-152.43228724 206.96378437 -155.96770388 205.09076386 -159.3046875 202.546875 C-161.87432797 200.67243897 -161.87432797 200.67243897 -164.57421875 201.5546875 C-167.03643573 203.02170889 -169.44926144 204.502478 -171.8125 206.125 C-172.60269531 206.66382813 -173.39289063 207.20265625 -174.20703125 207.7578125 C-174.79871094 208.16773438 -175.39039063 208.57765625 -176 209 C-180.09480199 205.25618103 -183.7448683 201.1331093 -186 196 C-184.82255415 192.46766245 -184.04394359 192.13691925 -180.9375 190.3125 C-180.20402344 189.87550781 -179.47054687 189.43851563 -178.71484375 188.98828125 C-178.14894531 188.66214844 -177.58304688 188.33601562 -177 188 C-177.65355469 186.98292969 -177.65355469 186.98292969 -178.3203125 185.9453125 C-180.22410841 182.9701163 -182.1147008 179.98694994 -184 177 C-184.55945313 176.11699219 -185.11890625 175.23398438 -185.6953125 174.32421875 C-188.78328925 169.33535179 -191.14355751 164.56932748 -193 159 C-198.445 159.99 -198.445 159.99 -204 161 C-205.65 155.72 -207.3 150.44 -209 145 C-199.25 141 -199.25 141 -197 141 C-197.16081055 140.41766602 -197.32162109 139.83533203 -197.48730469 139.23535156 C-200.79792341 124.80105394 -197.06893007 107.51714686 -192 94 C-196.95 90.535 -196.95 90.535 -202 87 C-200.99503148 82.98012591 -199.68441649 80.68165427 -197.4375 77.25 C-196.79683594 76.26515625 -196.15617188 75.2803125 -195.49609375 74.265625 C-195.00238281 73.51796875 -194.50867188 72.7703125 -194 72 C-189.70816541 73.64557388 -185.95419701 75.67400176 -182 78 C-181.75121094 77.44699219 -181.50242188 76.89398438 -181.24609375 76.32421875 C-176.38840449 67.26363847 -168.37778002 59.80000155 -160 54 C-159.34 54 -158.68 54 -158 54 C-158.433125 53.30132812 -158.86625 52.60265625 -159.3125 51.8828125 C-159.869375 50.97273438 -160.42625 50.06265625 -161 49.125 C-161.556875 48.22007813 -162.11375 47.31515625 -162.6875 46.3828125 C-164 44 -164 44 -164 42 C-161.515625 40.01953125 -161.515625 40.01953125 -158.25 37.8125 C-157.18265625 37.07644531 -156.1153125 36.34039062 -155.015625 35.58203125 C-152 34 -152 34 -149.8125 33.9765625 C-147.29932436 35.39564013 -146.26248206 37.12190394 -144.75 39.5625 C-144.22921875 40.38878906 -143.7084375 41.21507812 -143.171875 42.06640625 C-142.59179688 43.02353516 -142.59179688 43.02353516 -142 44 C-141.19163696 43.77280273 -141.19163696 43.77280273 -140.36694336 43.54101562 C-137.89295139 42.85136417 -135.41536048 42.17561413 -132.9375 41.5 C-132.08994141 41.26152344 -131.24238281 41.02304688 -130.36914062 40.77734375 C-129.53447266 40.55175781 -128.69980469 40.32617188 -127.83984375 40.09375 C-127.08050537 39.88427734 -126.32116699 39.67480469 -125.53881836 39.45898438 C-123 39 -123 39 -116 39 C-116 33.39 -116 27.78 -116 22 C-110.39 22 -104.78 22 -99 22 C-99 27.61 -99 33.22 -99 39 C-97.453125 39.0825 -95.90625 39.165 -94.3125 39.25 C-87.03893271 39.89234101 -79.56146476 41.71926762 -73 45 C-72.62875 43.948125 -72.62875 43.948125 -72.25 42.875 C-70.83911974 39.62997541 -69.02104602 36.89683263 -67 34 C-63.17009294 34.64743667 -60.4716102 36.45311237 -57.25 38.5625 C-56.26515625 39.20316406 -55.2803125 39.84382813 -54.265625 40.50390625 C-53.51796875 40.99761719 -52.7703125 41.49132812 -52 42 C-52.63065757 45.21852831 -53.78020695 47.50801069 -55.5625 50.25 C-56.01753906 50.95640625 -56.47257813 51.6628125 -56.94140625 52.390625 C-57.29074219 52.92171875 -57.64007813 53.4528125 -58 54 C-57.43410156 54.26167969 -56.86820313 54.52335937 -56.28515625 54.79296875 C-48.92990501 58.67805018 -43.19671905 64.59816739 -37.875 70.875 C-37.1468811 71.73218628 -37.1468811 71.73218628 -36.40405273 72.60668945 C-33 76.73257135 -33 76.73257135 -33 79 C-31.02 79 -29.04 79 -27 79 C-27 74.05 -27 69.1 -27 64 C-28.216875 63.773125 -29.43375 63.54625 -30.6875 63.3125 C-35.92278214 61.99905466 -38.35282171 59.11312513 -41.60961914 54.93505859 C-43.59870261 50.73615404 -43.44869368 46.94385916 -43.43359375 42.3515625 C-43.4388356 41.42080902 -43.44407745 40.49005554 -43.44947815 39.53109741 C-43.45588904 37.56598913 -43.45457344 35.60084242 -43.44604492 33.63574219 C-43.4375479 30.64187607 -43.46628829 27.64992718 -43.49804688 24.65625 C-43.49965947 22.74218807 -43.49908024 20.82812278 -43.49609375 18.9140625 C-43.50732773 18.02530426 -43.51856171 17.13654602 -43.53013611 16.22085571 C-43.46447267 10.31156907 -42.39704827 6.8641006 -39 2 C-30.48270086 -5.4312006 -9.49951491 -5.8660599 0 0 Z M-26 15 C-26 25.23 -26 35.46 -26 46 C-21.05 46 -16.1 46 -11 46 C-11 35.77 -11 25.54 -11 15 C-15.95 15 -20.9 15 -26 15 Z M-162.4140625 79.4609375 C-171.47567516 89.83041178 -177.63936933 102.42637362 -180 116 C-180.12890625 116.72574219 -180.2578125 117.45148438 -180.390625 118.19921875 C-180.67774029 120.12213564 -180.84116925 122.06226489 -181 124 C-181.05285156 124.63550781 -181.10570312 125.27101563 -181.16015625 125.92578125 C-181.96703342 144.55411943 -174.55729943 163.47667756 -162.203125 177.171875 C-152.98634392 186.96782378 -142.71312215 193.48675898 -130 198 C-129.10152344 198.32097656 -128.20304687 198.64195312 -127.27734375 198.97265625 C-109.79116745 204.26031856 -90.22329036 201.67130074 -74.1875 193.3125 C-60.68774169 185.82819618 -49.21966964 175.33228222 -43 161 C-43.59167969 160.82984375 -44.18335938 160.6596875 -44.79296875 160.484375 C-49.63657645 158.99889662 -53.22504826 157.53140647 -57 154 C-57.31710938 154.60585937 -57.63421875 155.21171875 -57.9609375 155.8359375 C-65.81045458 169.93037424 -76.94115423 178.37034264 -92.140625 183.23828125 C-108.09046128 187.48721305 -123.32552285 184.79893008 -137.66796875 177.01171875 C-151.48449698 168.66996958 -159.49133446 156.11838643 -163.61328125 140.70703125 C-165.85473666 125.01684335 -164.10457927 109.30669278 -155 96 C-153.43529621 94.07278801 -151.83538518 92.22007036 -150.13671875 90.41015625 C-148.79080539 89.04236067 -148.79080539 89.04236067 -149 87 C-148.43152344 86.73832031 -147.86304688 86.47664063 -147.27734375 86.20703125 C-144.82354385 84.90647521 -142.77214092 83.36801948 -140.5625 81.6875 C-127.06113833 72.09231863 -111.64485891 70.41210873 -95.609375 72.42578125 C-80.70593829 75.67345529 -68.38044655 84.42933017 -60 97 C-59.67 97 -59.34 97 -59 97 C-58.87044922 96.14728516 -58.87044922 96.14728516 -58.73828125 95.27734375 C-57.65388869 89.31815895 -55.80483365 85.70597846 -52 81 C-65.81236235 66.14592317 -84.27200926 56.06008583 -104.81640625 54.96875 C-127.29366346 55.18938565 -146.58425128 63.3237513 -162.4140625 79.4609375 Z M-139.09765625 102.3203125 C-146.44746018 112.026423 -149.42869917 122.91437129 -148 135 C-145.38828937 147.04614846 -138.9699828 155.84363198 -129 163 C-118.99478278 168.52200513 -108.95877489 170.22848524 -97.76953125 167.859375 C-86.33928664 164.31261363 -77.77649138 157.36847751 -72 147 C-67.13999881 137.53499769 -66.49697965 127.17714452 -68.66015625 116.84765625 C-71.98890044 106.57322073 -78.911591 98.68949182 -88 93 C-105.93392612 84.2067635 -125.40812744 87.17770521 -139.09765625 102.3203125 Z M-42 96 C-42 101.28 -42 106.56 -42 112 C16.74 112 75.48 112 136 112 C136 106.72 136 101.44 136 96 C77.26 96 18.52 96 -42 96 Z M-42 129 C-42 133.95 -42 138.9 -42 144 C-37.05 144 -32.1 144 -27 144 C-27 139.05 -27 134.1 -27 129 C-31.95 129 -36.9 129 -42 129 Z M-10 129 C-10.33 135.93 -10.66 142.86 -11 150 C-15.57564576 158.00738007 -15.57564576 158.00738007 -21 160 C-22.66275248 160.35233942 -24.32902388 160.68898922 -26 161 C-26.23214892 170.00553562 -26.40959919 179.01003532 -26.51812172 188.01791477 C-26.57022107 192.20125375 -26.64081846 196.38253995 -26.75439453 200.56469727 C-26.8634091 204.60437447 -26.92291076 208.64208386 -26.94877243 212.68311882 C-26.96718909 214.22111944 -27.00315895 215.75901731 -27.05730057 217.296175 C-27.57359959 225.97048334 -27.57359959 225.97048334 -23.85443115 233.42843628 C-21.31008033 235.21587214 -18.77192584 236.60178785 -16 238 C-9.62113638 242.76739912 -5.30655149 248.34230419 -1 255 C-0.34 255.99 0.32 256.98 1 258 C13.21 258 25.42 258 38 258 C38 215.43 38 172.86 38 129 C22.16 129 6.32 129 -10 129 Z M56 129 C56 171.57 56 214.14 56 258 C58.97 258 61.94 258 65 258 C65.29132813 257.05640625 65.58265625 256.1128125 65.8828125 255.140625 C69.78642596 242.78942385 74.54705938 231.97109626 83 222 C83.50917969 221.33484375 84.01835937 220.6696875 84.54296875 219.984375 C96.78189368 204.6328346 115.62038086 198.34497273 134 194 C133.30749269 186.59760551 131.99849908 179.41010664 130.53125 172.125 C130.29088013 170.91932373 130.05051025 169.71364746 129.80285645 168.47143555 C129.29705633 165.93972577 128.7893329 163.40839957 128.27978516 160.87744141 C127.49715076 156.98583233 126.72280681 153.09263501 125.94921875 149.19921875 C125.45622293 146.73688026 124.96275042 144.27463715 124.46875 141.8125 C124.12028015 140.05800537 124.12028015 140.05800537 123.76477051 138.26806641 C123.54784546 137.1960498 123.33092041 136.1240332 123.10742188 135.01953125 C122.91724487 134.07182861 122.72706787 133.12412598 122.53112793 132.14770508 C122.20414977 130.03192499 122.20414977 130.03192499 121 129 C118.97505769 128.90590521 116.9468013 128.88256878 114.91967773 128.88647461 C113.60012085 128.88659546 112.28056396 128.88671631 110.92102051 128.88684082 C109.50854445 128.89187731 108.09606885 128.89704394 106.68359375 128.90234375 C104.76842957 128.90385437 104.76842957 128.90385437 102.8145752 128.90539551 C98.02220773 128.91064734 93.22985301 128.92460844 88.4375 128.9375 C77.733125 128.958125 67.02875 128.97875 56 129 Z M154 182 C153.03929566 184.88211302 152.89418117 186.69850044 152.9375 189.6875 C152.94652344 190.49574219 152.95554687 191.30398437 152.96484375 192.13671875 C152.97644531 192.75160156 152.98804688 193.36648437 153 194 C154.39798828 194.23783203 154.39798828 194.23783203 155.82421875 194.48046875 C178.37289664 198.6071732 197.09471 208.7590054 211.125 227.14453125 C217.3704129 236.65577465 221.85698047 247.08214269 225 258 C226.08539063 258.09796875 227.17078125 258.1959375 228.2890625 258.296875 C229.73446565 258.44704676 231.17977353 258.59813732 232.625 258.75 C233.69427734 258.8428125 233.69427734 258.8428125 234.78515625 258.9375 C239.79343983 259.48887067 242.99153512 260.74123293 247 264 C249.24214796 267.633826 250.2333225 270.84306052 251 275 C254.89577024 275.05821935 258.79142802 275.0936703 262.6875 275.125 C264.34168945 275.15013672 264.34168945 275.15013672 266.02929688 275.17578125 C267.09599609 275.18222656 268.16269531 275.18867188 269.26171875 275.1953125 C270.73064575 275.21102295 270.73064575 275.21102295 272.22924805 275.22705078 C276.07628637 274.91180313 278.80960913 274.14999154 281.62129211 271.43373108 C283.58160997 267.97332692 283.41861291 264.6937698 283.38818359 260.82250977 C283.39344055 260.00090363 283.39869751 259.17929749 283.40411377 258.33279419 C283.4173096 255.61880439 283.40857644 252.90540195 283.3984375 250.19140625 C283.40045855 248.30337919 283.40337025 246.41535288 283.40713501 244.52732849 C283.41155796 240.57047086 283.40512895 236.61381643 283.39111328 232.65698242 C283.37403315 227.58824999 283.38385534 222.51999452 283.40183067 217.45127964 C283.41267927 213.55218421 283.40921702 209.65320156 283.4014473 205.75410271 C283.39944766 203.88541546 283.40189626 202.01671793 283.40888596 200.14804268 C283.41651682 197.53404822 283.40487299 194.92082211 283.38818359 192.30688477 C283.39729263 191.15105644 283.39729263 191.15105644 283.40658569 189.97187805 C283.35356461 185.48238077 282.79207138 182.56403896 280 179 C276.04938126 177.02469063 271.21986004 177.59655245 266.875 177.5 C265.8540625 177.44585937 264.833125 177.39171875 263.78125 177.3359375 C258.16964794 177.23495751 254.76751278 177.58531498 250.4453125 181.34375 C249.27084702 182.53743802 248.12005747 183.75511787 247 185 C245.40893555 186.73022461 245.40893555 186.73022461 244 188 C242.01171875 187.97265625 242.01171875 187.97265625 240 187 C238.91951911 185.49188816 237.85976907 183.96886141 236.8125 182.4375 C232.30803557 177.6979541 228.25800761 177.28540394 221.82495117 177.02758789 C220.14816284 177.01393188 220.14816284 177.01393188 218.4375 177 C217.34864502 176.97607178 216.25979004 176.95214355 215.13793945 176.92749023 C208.26964221 177.08290999 204.45659215 178.27539265 199.60571289 183.2109375 C198.81088501 184.09652344 198.81088501 184.09652344 198 185 C196.41088867 186.72827148 196.41088867 186.72827148 195 188 C193.015625 187.97265625 193.015625 187.97265625 191 187 C189.89566507 185.49434748 188.81546445 183.97090492 187.75 182.4375 C184.15141733 178.61362535 181.30163949 177.67456506 176.21484375 177.265625 C174.03978155 177.20392694 171.86341907 177.17864564 169.6875 177.1875 C168.61274414 177.1887085 167.53798828 177.18991699 166.43066406 177.19116211 C159.24334615 177.36465373 159.24334615 177.36465373 154 182 Z M-49.0625 195.9375 C-49.98160156 196.66839844 -50.90070313 197.39929688 -51.84765625 198.15234375 C-52.55792969 198.76207031 -53.26820313 199.37179688 -54 200 C-54 200.33 -54 200.66 -54 201 C-50.37 201 -46.74 201 -43 201 C-43 198.03 -43 195.06 -43 192 C-45.17709754 192 -47.48187664 194.67255669 -49.0625 195.9375 Z M96.640625 231.421875 C90.78714263 238.0610597 83 248.70963582 83 258 C86.59650969 258.8784794 89.42748166 259.06223547 93 258 C95.22202658 255.52691814 96.86816259 253.08155673 98.60986328 250.27246094 C104.78704042 240.32976274 113.24625897 234.40889251 124 230 C124.82628906 229.6596875 125.65257812 229.319375 126.50390625 228.96875 C140.91947309 224.09588234 157.46147725 226.09579856 170.98828125 232.390625 C182.46268844 238.29086144 190.19186424 246.38372848 196 258 C199.63 258 203.26 258 207 258 C202.84348411 245.83834239 198.04941738 237.21813534 189 228 C188.38382812 227.35933594 187.76765625 226.71867187 187.1328125 226.05859375 C175.45910061 214.86084866 158.95148947 209.99047214 143.09667969 209.94287109 C125.21897946 210.42999055 109.00544862 218.72950639 96.640625 231.421875 Z M-101 220 C-102.1916143 223.57484289 -101.74788456 224.28587882 -100.34765625 227.66796875 C-99.98349609 228.56064453 -99.61933594 229.45332031 -99.24414062 230.37304688 C-98.85419922 231.30181641 -98.46425781 232.23058594 -98.0625 233.1875 C-97.67642578 234.12787109 -97.29035156 235.06824219 -96.89257812 236.03710938 C-95.93678351 238.36169628 -94.97232993 240.68229199 -94 243 C-90.71439881 241.82339957 -88.44936249 240.725986 -86 238.25 C-76.50320772 229.77146335 -63.86290166 226.85824046 -51.5 226.375 C-50.67757812 226.33632813 -49.85515625 226.29765625 -49.0078125 226.2578125 C-47.0055299 226.16468308 -45.00279738 226.08131015 -43 226 C-43 223.36 -43 220.72 -43 218 C-48.68846409 217.94987118 -54.37679442 217.91394252 -60.06542969 217.89013672 C-61.9931869 217.88019321 -63.9209295 217.86663365 -65.84863281 217.84912109 C-77.75056463 217.74384906 -89.22893895 218.13020574 -101 220 Z M-124.26269531 228.57299805 C-125.58482025 229.08935066 -125.58482025 229.08935066 -126.93365479 229.61613464 C-127.88882996 229.9941774 -128.84400513 230.37222015 -129.828125 230.76171875 C-130.80988708 231.14938919 -131.79164917 231.53705963 -132.80316162 231.93647766 C-134.8853557 232.7609076 -136.96673429 233.58739963 -139.04736328 234.41577148 C-142.21891115 235.67515499 -145.39635752 236.91875944 -148.57421875 238.16210938 C-150.59674108 238.96517207 -152.6188889 239.76917875 -154.640625 240.57421875 C-156.06124237 241.12610115 -156.06124237 241.12610115 -157.51055908 241.68913269 C-163.9419655 244.27885794 -169.52471991 246.66884895 -172.46875 253.31640625 C-173.07539503 257.52277583 -172.60788102 260.89960978 -171.5 264.9375 C-171.22023315 265.99300049 -171.22023315 265.99300049 -170.93481445 267.06982422 C-169.33705803 272.65194123 -167.18001498 276.88998527 -163 281 C-162.44054687 281.56074219 -161.88109375 282.12148438 -161.3046875 282.69921875 C-154.72325971 288.79367991 -147.23129454 291.38029745 -138.23828125 291.2109375 C-130.17112938 290.45068235 -123.94839415 287.3971421 -118 282 C-117.443125 281.50886719 -116.88625 281.01773438 -116.3125 280.51171875 C-110.79316712 274.95099088 -108.06111742 267.10120484 -107.96801758 259.33056641 C-108.35992486 251.47317814 -110.52046918 244.95211279 -113.5625 237.75 C-113.98724609 236.70714844 -114.41199219 235.66429687 -114.84960938 234.58984375 C-115.88511826 232.05342874 -116.93519432 229.52422148 -118 227 C-120.43154963 227 -121.99513352 227.68367773 -124.26269531 228.57299805 Z M-81.03515625 256.1015625 C-89.13527644 265.83546489 -91.83148997 276.55844632 -91 289 C-88.97560771 300.66598947 -82.53555022 310.13440384 -73 317 C-62.59597631 323.14158227 -51.5819619 324.96946331 -39.71484375 322.24609375 C-32.19003216 319.60671692 -26.43846835 315.85681207 -21 310 C-20.154375 309.0925 -19.30875 308.185 -18.4375 307.25 C-10.81539559 297.96882554 -9.98805559 286.50450769 -11 275 C-13.15842209 264.41593021 -20.02262605 254.97913902 -29 249 C-46.92674519 239.46834442 -66.47395212 241.0652327 -81.03515625 256.1015625 Z M114.125 256.8125 C105.63656594 266.7556657 104.11808315 277.15164919 104.7734375 289.86279297 C105.73491383 298.93258153 111.19459654 307.622196 117.84375 313.6796875 C128.45553945 322.14385289 139.74681281 324.16575946 153 323 C163.58406979 320.84157791 173.02086098 313.97737395 179 305 C184.88055162 293.94010075 187.14000498 283.13756991 183.4375 270.875 C179.44433297 260.1939763 172.71873296 251.72315355 162.34375 246.71875 C144.78886098 239.49026629 127.32427162 242.9003381 114.125 256.8125 Z M6 276 C6 280.95 6 285.9 6 291 C33.06 291 60.12 291 88 291 C88 286.05 88 281.1 88 276 C60.94 276 33.88 276 6 276 Z M202 276 C202 280.95 202 285.9 202 291 C212.56 291 223.12 291 234 291 C234 286.05 234 281.1 234 276 C223.44 276 212.88 276 202 276 Z M-3.61303711 313.31713867 C-4.44472623 315.19588363 -5.2434962 317.08974049 -6 319 C-6.99 320.32 -7.98 321.64 -9 323 C27.96 323 64.92 323 103 323 C101.02 320.36 99.04 317.72 97 315 C95.62796832 312.68920981 94.2799725 310.36302616 93 308 C81.12609469 307.74491577 69.25284282 307.54957459 57.37675381 307.43006611 C51.86175583 307.3727003 46.34863452 307.29492731 40.8347168 307.17016602 C35.51125289 307.05047055 30.18959114 306.98484066 24.86488533 306.95635033 C22.83567995 306.93605418 20.80657129 306.89641556 18.7781353 306.83696938 C5.82802749 305.87331943 5.82802749 305.87331943 -3.61303711 313.31713867 Z " fill="#000000" transform="translate(209,38)"/>
<path d="M0 0 C0.66 0 1.32 0 2 0 C3.99839156 4.661142 5.9920982 9.3242485 7.98144531 13.98925781 C8.65918895 15.57672445 9.33822092 17.16364168 10.01855469 18.75 C10.99491297 21.02722049 11.96665631 23.30636152 12.9375 25.5859375 C13.24373291 26.29744965 13.54996582 27.00896179 13.86547852 27.74203491 C16 32.77225659 16 32.77225659 16 35 C16.92039062 34.28714844 17.84078125 33.57429688 18.7890625 32.83984375 C35.67530239 19.97381578 56.21584867 9.69383433 78 10 C74.93108807 22.76960078 71.38723151 35.38192541 67.75 48 C65.8525 54.6 63.955 61.2 62 68 C80.81 68.33 99.62 68.66 119 69 C117.2675 62.98845703 117.2675 62.98845703 115.5 56.85546875 C114.58172586 53.66079994 113.66425017 50.46590424 112.74731445 47.27085114 C111.7789247 43.89733379 110.80913076 40.52423469 109.8359375 37.15209961 C108.71957546 33.28363989 107.60961788 29.41336839 106.5 25.54296875 C105.9750293 23.72879707 105.9750293 23.72879707 105.43945312 21.87797546 C105.11912109 20.75703995 104.79878906 19.63610443 104.46875 18.48120117 C104.18451172 17.49302902 103.90027344 16.50485687 103.60742188 15.48674011 C103 13 103 13 103 10 C126.69792149 11.50462994 145.8934272 19.91118933 164 35 C168.95 23.45 173.9 11.9 179 0 C179.66 0 180.32 0 181 0 C188.425 17.325 188.425 17.325 196 35 C198.31 33.02 200.62 31.04 203 29 C219.15621331 17.30232627 237.3023078 11.85413499 257 10 C255.66062928 17.36660223 253.82721087 24.50730226 251.7421875 31.6953125 C251.33238647 33.12508423 251.33238647 33.12508423 250.91430664 34.58374023 C249.90557817 38.0987516 248.88989409 41.61176388 247.875 45.125 C244.471875 56.943125 244.471875 56.943125 241 69 C269.215 68.505 269.215 68.505 298 68 C296.845 63.98070312 295.69 59.96140625 294.5 55.8203125 C293.58196416 52.62004417 292.66445935 49.41962467 291.74731445 46.21910095 C290.7782335 42.83788967 289.80821374 39.45695415 288.8359375 36.07666016 C287.72104551 32.20037575 286.61040576 28.32288444 285.5 24.4453125 C285.15001953 23.23070343 284.80003906 22.01609436 284.43945312 20.76467896 C284.11912109 19.64366791 283.79878906 18.52265686 283.46875 17.36767578 C283.04239258 15.88208664 283.04239258 15.88208664 282.60742188 14.3664856 C282 12 282 12 282 10 C305.78941352 11.51043895 325.3962129 20.48904606 344 35 C344.37769531 33.79472656 344.75539063 32.58945312 345.14453125 31.34765625 C347.29556383 24.89455851 350.0080143 18.68502342 352.6875 12.4375 C353.45416992 10.63829102 353.45416992 10.63829102 354.23632812 8.80273438 C355.48775802 5.86713715 356.74238293 2.93295065 358 0 C361 1 361 1 362.62573242 4.14282227 C363.21353235 5.52931313 363.78933401 6.92092887 364.35546875 8.31640625 C364.81521843 9.41298805 364.81521843 9.41298805 365.28425598 10.53172302 C366.26231472 12.87117409 367.22501388 15.21660497 368.1875 17.5625 C368.84730654 19.14820324 369.50810161 20.73349554 370.16992188 22.31835938 C371.79146343 26.20756136 373.39925651 30.10219433 375 34 C377.7607268 34 378.28858772 32.91024501 380.25 31 C394.58459673 18.21788667 416.78008945 10 436 10 C435.35936002 17.17166939 433.54225694 23.83629404 431.578125 30.75 C431.2362616 31.96268555 430.89439819 33.17537109 430.54217529 34.42480469 C429.81901278 36.98077113 429.0931846 39.5358114 428.36328125 42.08984375 C427.4351306 45.34070818 426.52407662 48.59609445 425.61726761 51.85296631 C424.74057078 54.9885378 423.84567853 58.11891201 422.953125 61.25 C422.47156952 62.98781738 422.47156952 62.98781738 421.98028564 64.76074219 C419.73806827 72.51075801 417.39164058 79.24429203 411 84.4375 C405.91610133 87.08536389 401.08473314 87.14568856 395.44455338 87.13142776 C394.3104221 87.13450672 394.3104221 87.13450672 393.15337908 87.13764787 C390.61137132 87.14331733 388.06941776 87.14186068 385.52740479 87.14044189 C383.68984215 87.14302555 381.85228007 87.14603872 380.01471877 87.1494453 C374.95828631 87.15751834 369.90186804 87.15930504 364.8454299 87.16004276 C359.39471143 87.16189277 353.94400034 87.1694398 348.49328613 87.17617798 C336.57187152 87.18976363 324.65046026 87.19578628 312.72903919 87.20018864 C305.28698721 87.20295046 297.84493654 87.20718769 290.40288544 87.21169281 C269.80262966 87.22388539 249.20237493 87.23418498 228.60211563 87.2375679 C227.28350068 87.23778747 225.96488572 87.23800703 224.60631274 87.23823325 C223.27117418 87.23845389 221.93603563 87.23867438 220.60089707 87.2388947 C217.92240794 87.23933725 215.24391882 87.23978437 212.56542969 87.24023438 C211.56926682 87.24039846 211.56926682 87.24039846 210.55297945 87.24056586 C189.01748019 87.24419679 167.48201459 87.26011872 145.94652821 87.28342474 C123.17506557 87.30802327 100.40361942 87.32173401 77.63214278 87.32293582 C65.22011838 87.32385303 52.80813806 87.32961708 40.39612579 87.34775543 C29.82814083 87.36314449 19.26021356 87.3682839 8.69221953 87.36001733 C3.29976677 87.35610672 -2.09256974 87.3570606 -7.48500824 87.37107468 C-12.42227609 87.38378859 -17.35934006 87.38263809 -22.29660752 87.37048396 C-24.08193807 87.36852263 -25.86728293 87.3716255 -27.65259334 87.38032833 C-48.09214374 87.47365001 -48.09214374 87.47365001 -54.8125 81.5 C-60.2666692 73.92437111 -62.17605047 63.32065261 -64.671875 54.47265625 C-64.99915588 53.32131699 -65.32643677 52.16997772 -65.66363525 50.98374939 C-66.34795795 48.57169718 -67.03020384 46.15905487 -67.71044922 43.74584961 C-68.75446945 40.0466638 -69.80850252 36.35042753 -70.86328125 32.65429688 C-71.5292491 30.30225406 -72.19463459 27.95004626 -72.859375 25.59765625 C-73.17493347 24.49349869 -73.49049194 23.38934113 -73.81561279 22.25172424 C-74.24671356 20.71378456 -74.24671356 20.71378456 -74.68652344 19.14477539 C-75.06813629 17.79555748 -75.06813629 17.79555748 -75.4574585 16.41908264 C-76 14 -76 14 -76 10 C-53.83351035 12.12494099 -32.00919593 18.7162136 -16 35 C-12.16539009 27.63660164 -8.88220697 20.12266052 -5.75 12.4375 C-4.87200544 10.28945839 -3.99191544 8.14227165 -3.109375 5.99609375 C-2.53654785 4.59121704 -2.53654785 4.59121704 -1.95214844 3.15795898 C-1 1 -1 1 0 0 Z M128 33 C128.59500277 37.73372785 129.49967896 42.18837078 130.8125 46.7734375 C131.34230469 48.62775391 131.34230469 48.62775391 131.8828125 50.51953125 C132.06618164 51.15197754 132.24955078 51.78442383 132.43847656 52.43603516 C133.00412929 54.38925862 133.56112989 56.34480708 134.1171875 58.30078125 C135.29154556 64.05030811 135.29154556 64.05030811 138 69 C140.01964199 69.07244053 142.04167124 69.08377188 144.0625 69.0625 C145.16722656 69.05347656 146.27195313 69.04445313 147.41015625 69.03515625 C148.69212891 69.01775391 148.69212891 69.01775391 150 69 C151.03513247 66.9237343 152.05266211 64.83868521 153.0625 62.75 C153.63097656 61.58984375 154.19945312 60.4296875 154.78515625 59.234375 C156.1393873 56.2439823 156.1393873 56.2439823 155.9453125 53.875 C150.95675751 43.98034548 138.23299326 36.41099775 128 33 Z M307 33 C308.36782591 40.65725842 310.34787328 48.04789523 312.5625 55.5 C312.87896484 56.5828125 313.19542969 57.665625 313.52148438 58.78125 C314.96082097 64.00493314 314.96082097 64.00493314 317 69 C320.96 69 324.92 69 329 69 C333.52419305 61.38474608 333.52419305 61.38474608 335 53 C329.1139978 43.38817823 318.03374004 37.39862947 308 33 C307.67 33 307.34 33 307 33 Z M-51 34 C-50.39763544 41.64907384 -48.17340876 48.68599105 -45.9375 56 C-45.56044922 57.25167969 -45.18339844 58.50335938 -44.79492188 59.79296875 C-43.86901058 62.86371255 -42.93528403 65.93209795 -42 69 C-37.71 69 -33.42 69 -29 69 C-27.93870574 66.75749122 -26.90118767 64.50850911 -25.875 62.25 C-25.57207031 61.61578125 -25.26914062 60.9815625 -24.95703125 60.328125 C-23.2647787 56.67170092 -23.2647787 56.67170092 -23.60546875 52.78515625 C-29.9965242 44.60388919 -38.44562934 38.1348747 -48 34 C-48.99 34 -49.98 34 -51 34 Z M52 33 C41.55128014 37.64995386 31.72463778 43.49543113 25 53 C24.86441603 58.83011052 28.35490648 63.9811046 31 69 C34.96 69 38.92 69 43 69 C45.02328483 62.67386276 47.02606313 56.34171857 49 50 C49.22864746 49.26555664 49.45729492 48.53111328 49.69287109 47.77441406 C50.28526287 45.85292056 50.86194252 43.92660294 51.4375 42 C51.76621094 40.906875 52.09492188 39.81375 52.43359375 38.6875 C53.25344566 35.91854868 53.25344566 35.91854868 52 33 Z M231 33 C222.10914511 37.33394337 215.05974952 41.96625324 208 49 C206.84177734 49.96873047 206.84177734 49.96873047 205.66015625 50.95703125 C203.73245489 52.87049559 203.73245489 52.87049559 204.08984375 55.38671875 C205.09918208 58.28477603 206.25723754 61.03463374 207.5625 63.8125 C208.366875 65.524375 209.17125 67.23625 210 69 C214.29 69 218.58 69 223 69 C224.31270404 64.51952685 225.6123673 60.03555228 226.90014648 55.54785156 C227.33994811 54.02208197 227.78328124 52.49732568 228.23022461 50.97363281 C228.87246398 48.78187485 229.50186806 46.58677317 230.12890625 44.390625 C230.33093155 43.7113092 230.53295685 43.03199341 230.74110413 42.33209229 C231.70464233 38.90922906 232.35365053 36.37475201 231 33 Z M411 33 C403.21422982 36.37460157 396.4932084 39.9011827 390.25 45.6875 C389.49928223 46.3822644 389.49928223 46.3822644 388.73339844 47.09106445 C385.02348021 50.54249377 385.02348021 50.54249377 383 55 C383.83727716 57.58794758 384.71359967 59.81847251 385.875 62.25 C386.17019531 62.8996875 386.46539062 63.549375 386.76953125 64.21875 C387.49903434 65.81895032 388.24769825 67.41039065 389 69 C393.29 69 397.58 69 402 69 C403.45175852 64.19724122 404.8939996 59.39176813 406.32739258 54.58349609 C406.81662896 52.94729206 407.30848324 51.31186847 407.80297852 49.67724609 C408.512231 47.33109293 409.21210237 44.98231825 409.91015625 42.6328125 C410.13405533 41.89942657 410.35795441 41.16604065 410.58863831 40.41043091 C411.91398754 36.66351542 411.91398754 36.66351542 411 33 Z M0 44 C-1.67257264 47.78908876 -3.33705115 51.58167885 -5 55.375 C-5.47695312 56.45523438 -5.95390625 57.53546875 -6.4453125 58.6484375 C-6.89648438 59.6796875 -7.34765625 60.7109375 -7.8125 61.7734375 C-8.23144531 62.72653809 -8.65039062 63.67963867 -9.08203125 64.66162109 C-10.12180594 66.89159667 -10.12180594 66.89159667 -10 69 C-2.74 69 4.52 69 12 69 C10.38308226 65.01737051 8.75694686 61.03896556 7.125 57.0625 C6.66480469 55.92619141 6.20460938 54.78988281 5.73046875 53.61914062 C5.28574219 52.53955078 4.84101562 51.45996094 4.3828125 50.34765625 C3.77010498 48.84730835 3.77010498 48.84730835 3.14501953 47.31665039 C2.22009565 44.85851537 2.22009565 44.85851537 0 44 Z M179 44 C177.33048395 47.9779772 175.66486446 51.95757402 174 55.9375 C173.52304688 57.07380859 173.04609375 58.21011719 172.5546875 59.38085938 C172.10351562 60.46044922 171.65234375 61.54003906 171.1875 62.65234375 C170.76855469 63.65257568 170.34960938 64.65280762 169.91796875 65.68334961 C168.93860301 67.73963009 168.93860301 67.73963009 169 69 C176.26 69 183.52 69 191 69 C187.80559568 60.60328008 184.50286117 52.27271468 181 44 C180.34 44 179.68 44 179 44 Z M359 44 C354.68607386 52.11247172 351.3415117 60.45194681 348 69 C355.26 69 362.52 69 370 69 C367.79277659 62.18671095 367.79277659 62.18671095 365.17578125 55.62109375 C364.86962891 54.92822266 364.56347656 54.23535156 364.24804688 53.52148438 C363.93931641 52.83376953 363.63058594 52.14605469 363.3125 51.4375 C362.99216797 50.71498047 362.67183594 49.99246094 362.34179688 49.24804688 C361.56487057 47.49706371 360.78297505 45.74828676 360 44 C359.67 44 359.34 44 359 44 Z " fill="#000000" transform="translate(76,390)"/>
<path d="M0 0 C5.95706769 4.77229772 9.1887445 9.8748627 10.1640625 17.484375 C10.49084784 25.52125205 9.21995484 31.78916934 3.73046875 37.8203125 C-3.15498166 44.28775918 -8.7035975 46.12030894 -18.109375 45.93359375 C-24.71004374 45.13552801 -30.09337957 42.10987103 -34.6484375 37.30859375 C-39.07443634 31.5410032 -40.98479958 24.7813065 -40.2109375 17.55859375 C-38.61577204 10.63384446 -36.02421411 4.2348206 -30.0625 0.05078125 C-20.30602276 -5.62158924 -9.6968272 -6.3217831 0 0 Z M-20.6484375 15.12109375 C-22.83093422 18.52578863 -22.84828212 20.59289387 -22.2109375 24.55859375 C-20.22073633 27.21743976 -20.22073633 27.21743976 -17.2109375 28.55859375 C-13.23961874 28.63964107 -11.73337916 28.02745165 -8.7734375 25.37109375 C-6.94722542 22.63933598 -6.94722542 22.63933598 -7.2734375 19.43359375 C-8.39183468 15.80974208 -8.39183468 15.80974208 -11.2109375 13.55859375 C-15.10598541 13.06286038 -17.30587467 12.97842527 -20.6484375 15.12109375 Z " fill="#000000" transform="translate(173.2109375,300.44140625)"/>
<path d="M0 0 C6.37007537 5.52073199 9.42507823 12.40101699 10.0625 20.6875 C9.59352027 27.72219594 7.56801153 33.6901365 2.66015625 38.86328125 C-3.65514351 44.24397005 -10.04317439 46.26667481 -18.30078125 45.84375 C-26.52210819 44.68675676 -31.39002011 41.03065625 -36.58984375 34.65234375 C-40.96461587 28.58756187 -41.06486441 21.69403477 -40.1875 14.4375 C-38.04779792 7.61719962 -34.33970199 2.1657344 -28.1875 -1.5625 C-18.11098488 -6.26130049 -9.68824657 -4.74914048 0 0 Z M-21.6875 15.5625 C-23.41262299 18.34977102 -23.41262299 18.34977102 -23.25 21.5 C-21.90372156 25.22206393 -20.63994657 26.51947413 -17.1875 28.4375 C-13.66352562 28.4375 -11.94474692 28.11902223 -9.3125 25.75 C-7.82939396 22.70139315 -7.69858343 20.79007076 -8.1875 17.4375 C-9.62411311 14.91743156 -9.62411311 14.91743156 -12.1875 13.4375 C-16.50008722 12.74440563 -18.31714308 12.69769661 -21.6875 15.5625 Z " fill="#000000" transform="translate(369.1875,300.5625)"/>
<path d="M0 0 C5.73604386 6.72501694 7.38958718 12.39825264 7.2734375 21.12109375 C6.58726442 28.345516 3.13751777 33.74456282 -2.16796875 38.55859375 C-8.82592795 43.79694544 -15.77705143 43.86819967 -24 43 C-31.18015539 41.28065556 -36.00341554 37.11943149 -40 31 C-43.08222023 24.71490322 -44.14859895 18.33459365 -42.34375 11.5234375 C-39.97818315 4.77341485 -36.4481716 -0.42973453 -30.16796875 -4.05859375 C-19.46427508 -8.93238891 -9.05583628 -7.51275918 0 0 Z M-23.375 12.5625 C-25.63913895 15.95870843 -25.64269755 18.00099302 -25 22 C-22.58140437 24.69500656 -20.99236035 25.80636871 -17.4375 26.5 C-14.148958 25.82542728 -13.01144341 24.65797879 -11 22 C-9.91975342 19.59889783 -9.91975342 19.59889783 -10 17 C-11.75113525 13.28738773 -11.75113525 13.28738773 -15 11 C-18.54231061 10.61496624 -20.36257342 10.58064041 -23.375 12.5625 Z " fill="#000000" transform="translate(119,148)"/>
<path d="M0 0 C22.11 0 44.22 0 67 0 C67 5.61 67 11.22 67 17 C44.89 17 22.78 17 0 17 C0 11.39 0 5.78 0 0 Z " fill="#000000" transform="translate(410,231)"/>
<path d="M0 0 C11.22 0 22.44 0 34 0 C34 5.61 34 11.22 34 17 C22.78 17 11.56 17 0 17 C0 11.39 0 5.78 0 0 Z " fill="#000000" transform="translate(443,264)"/>
</svg>
