<?xml version="1.0" encoding="UTF-8"?>
<svg version="1.1" xmlns="http://www.w3.org/2000/svg" width="64" height="64">
<path d="M0 0 C0.79792969 0.00386719 1.59585937 0.00773438 2.41796875 0.01171875 C3.61486328 0.00591797 3.61486328 0.00591797 4.8359375 0 C10.79136108 0.01011108 10.79136108 0.01011108 11.91796875 1.13671875 C13.62344234 1.29605365 15.33286568 1.41386544 17.04296875 1.51171875 C21.99182385 1.93056716 25.62252147 2.61547795 29.91796875 5.13671875 C30.59765625 7.2421875 30.59765625 7.2421875 30.91796875 9.13671875 C31.55863281 9.05292969 32.19929688 8.96914062 32.859375 8.8828125 C38.14872189 8.2600727 42.68842374 8.1135469 47.91796875 9.13671875 C47.58796875 9.79671875 47.25796875 10.45671875 46.91796875 11.13671875 C45.84546875 11.11609375 44.77296875 11.09546875 43.66796875 11.07421875 C40.1559296 10.98286892 40.1559296 10.98286892 37.79296875 11.69921875 C35.29499966 12.2820782 33.37717056 11.7515192 30.91796875 11.13671875 C30.58796875 12.45671875 30.25796875 13.77671875 29.91796875 15.13671875 C25.38095381 16.58856353 21.73735399 17.37181071 16.91796875 17.13671875 C16.91796875 18.45671875 16.91796875 19.77671875 16.91796875 21.13671875 C13.79115285 24.51367992 10.34943546 24.71061618 5.91796875 25.13671875 C6.10359375 25.94109375 6.28921875 26.74546875 6.48046875 27.57421875 C6.62484375 28.41984375 6.76921875 29.26546875 6.91796875 30.13671875 C5.91796875 31.13671875 5.91796875 31.13671875 2.85546875 31.19921875 C1.88609375 31.17859375 0.91671875 31.15796875 -0.08203125 31.13671875 C-0.04078125 32.35359375 0.00046875 33.57046875 0.04296875 34.82421875 C0.05551383 38.35566002 -0.48204908 40.93675441 -2.08203125 44.13671875 C-2.74203125 44.13671875 -3.40203125 44.13671875 -4.08203125 44.13671875 C-4.08203125 46.11671875 -4.08203125 48.09671875 -4.08203125 50.13671875 C-5.56703125 50.63171875 -5.56703125 50.63171875 -7.08203125 51.13671875 C-5.96348539 54.86286028 -5.96348539 54.86286028 -3.08203125 57.13671875 C-0.70800624 57.20788257 1.66797552 57.2208096 4.04296875 57.19921875 C5.32429688 57.19019531 6.605625 57.18117187 7.92578125 57.171875 C9.40691406 57.15447266 9.40691406 57.15447266 10.91796875 57.13671875 C10.43199219 56.57855469 9.94601563 56.02039062 9.4453125 55.4453125 C6.89001977 51.58296467 7.25838107 47.60886818 7.91796875 43.13671875 C9.96110548 39.63419864 12.01584108 37.36310173 15.91796875 36.13671875 C20.23932774 35.65656775 22.38480545 35.84498789 26.23046875 37.94921875 C28.91796875 40.13671875 28.91796875 40.13671875 30.91796875 43.13671875 C31.17557154 45.83124396 31.00696928 48.4222025 30.91796875 51.13671875 C30.25796875 51.13671875 29.59796875 51.13671875 28.91796875 51.13671875 C28.64984375 49.87859375 28.38171875 48.62046875 28.10546875 47.32421875 C27.06799246 43.03265964 27.06799246 43.03265964 23.91796875 40.13671875 C20.32190081 39.04226329 18.62123118 38.81705401 15.16796875 40.38671875 C12.23865759 42.66507187 11.04193552 44.32208 10.48046875 48.01171875 C10.69317291 51.29341474 10.69317291 51.29341474 12.98046875 54.01171875 C15.8000638 56.38712707 15.8000638 56.38712707 19.41796875 56.69921875 C23.40858413 56.05786985 24.98098536 54.82196071 27.91796875 52.13671875 C28.57796875 52.13671875 29.23796875 52.13671875 29.91796875 52.13671875 C29.25796875 53.78671875 28.59796875 55.43671875 27.91796875 57.13671875 C32.53534248 57.60655958 32.53534248 57.60655958 36.61645508 55.8894043 C38.20133217 53.75512693 38.33612266 52.54477845 38.4296875 49.90625 C38.46513672 49.10380859 38.50058594 48.30136719 38.53710938 47.47460938 C38.55966797 46.64123047 38.58222656 45.80785156 38.60546875 44.94921875 C38.63962891 44.10423828 38.67378906 43.25925781 38.70898438 42.38867188 C38.79138346 40.30515226 38.8563552 38.22095659 38.91796875 36.13671875 C37.59796875 35.80671875 36.27796875 35.47671875 34.91796875 35.13671875 C34.25796875 31.83671875 33.59796875 28.53671875 32.91796875 25.13671875 C33.90796875 25.13671875 34.89796875 25.13671875 35.91796875 25.13671875 C35.91796875 23.15671875 35.91796875 21.17671875 35.91796875 19.13671875 C36.57796875 19.13671875 37.23796875 19.13671875 37.91796875 19.13671875 C37.91796875 21.11671875 37.91796875 23.09671875 37.91796875 25.13671875 C38.90796875 25.13671875 39.89796875 25.13671875 40.91796875 25.13671875 C40.91796875 23.48671875 40.91796875 21.83671875 40.91796875 20.13671875 C41.90796875 20.13671875 42.89796875 20.13671875 43.91796875 20.13671875 C43.91796875 21.78671875 43.91796875 23.43671875 43.91796875 25.13671875 C44.90796875 25.13671875 45.89796875 25.13671875 46.91796875 25.13671875 C46.91796875 25.79671875 46.91796875 26.45671875 46.91796875 27.13671875 C46.25796875 27.13671875 45.59796875 27.13671875 44.91796875 27.13671875 C44.91796875 29.44671875 44.91796875 31.75671875 44.91796875 34.13671875 C43.59796875 34.79671875 42.27796875 35.45671875 40.91796875 36.13671875 C40.93891602 36.72163086 40.95986328 37.30654297 40.98144531 37.90917969 C41.0647699 40.5681834 41.11667772 43.2269123 41.16796875 45.88671875 C41.21824219 47.26730469 41.21824219 47.26730469 41.26953125 48.67578125 C41.28242187 49.56523438 41.2953125 50.4546875 41.30859375 51.37109375 C41.32954102 52.18803711 41.35048828 53.00498047 41.37207031 53.84667969 C40.70626461 57.20434499 39.76238398 58.21265104 36.91796875 60.13671875 C33.77127977 60.72527067 30.67427667 60.69717243 27.48046875 60.66796875 C26.10483765 60.67370911 26.10483765 60.67370911 24.70141602 60.67956543 C22.76480002 60.68228424 20.82814728 60.67492521 18.89160156 60.65820312 C15.92820322 60.63679269 12.96722924 60.65800544 10.00390625 60.68359375 C8.1210884 60.68095047 6.23827206 60.67582548 4.35546875 60.66796875 C3.46996338 60.67606567 2.58445801 60.6841626 1.67211914 60.69250488 C-4.44219974 60.59935868 -4.44219974 60.59935868 -7.65625 58.27539062 C-9.37702707 55.69422502 -9.42017166 54.17998246 -9.08203125 51.13671875 C-9.74203125 51.13671875 -10.40203125 51.13671875 -11.08203125 51.13671875 C-11.41203125 48.82671875 -11.74203125 46.51671875 -12.08203125 44.13671875 C-12.74203125 44.13671875 -13.40203125 44.13671875 -14.08203125 44.13671875 C-14.07155762 43.54656982 -14.06108398 42.9564209 -14.05029297 42.34838867 C-14.00871081 39.67370871 -13.98269835 36.99909678 -13.95703125 34.32421875 C-13.94027344 33.39544922 -13.92351563 32.46667969 -13.90625 31.50976562 C-13.89980469 30.61708984 -13.89335937 29.72441406 -13.88671875 28.8046875 C-13.87624512 27.98250732 -13.86577148 27.16032715 -13.85498047 26.31323242 C-13.9420699 23.84250283 -13.9420699 23.84250283 -16.08203125 21.13671875 C-16.27724394 18.42670727 -16.36092875 15.84345084 -16.33203125 13.13671875 C-16.33976562 12.41226562 -16.3475 11.6878125 -16.35546875 10.94140625 C-16.34145188 7.14283382 -16.23645069 5.36834791 -14.08203125 2.13671875 C-11.76046528 1.72942647 -9.42515255 1.39233198 -7.08203125 1.13671875 C-5.19650595 -0.74880655 -2.50434294 0.00425186 0 0 Z " fill="#070505" transform="translate(16.08203125,1.86328125)"/>
<path d="M0 0 C0.66 0 1.32 0 2 0 C2 2.64 2 5.28 2 8 C10.25 8 18.5 8 27 8 C27 8.33 27 8.66 27 9 C24.36 9.33 21.72 9.66 19 10 C19 10.99 19 11.98 19 13 C19.66 13 20.32 13 21 13 C21 13.99 21 14.98 21 16 C19.35 16.33 17.7 16.66 16 17 C16.04125 18.216875 16.0825 19.43375 16.125 20.6875 C16.13754508 24.21894127 15.59998217 26.80003566 14 30 C13.34 30 12.68 30 12 30 C12 31.98 12 33.96 12 36 C10.515 36.495 10.515 36.495 9 37 C10.11854586 40.72614153 10.11854586 40.72614153 13 43 C15.37402501 43.07116382 17.75000677 43.08409085 20.125 43.0625 C21.40632813 43.05347656 22.68765625 43.04445312 24.0078125 43.03515625 C25.48894531 43.01775391 25.48894531 43.01775391 27 43 C26.51402344 42.44183594 26.02804688 41.88367187 25.52734375 41.30859375 C22.97205102 37.44624592 23.34041232 33.47214943 24 29 C26.04313673 25.49747989 28.09787233 23.22638298 32 22 C36.32135899 21.519849 38.4668367 21.70826914 42.3125 23.8125 C45 26 45 26 47 29 C47.25760279 31.69452521 47.08900053 34.28548375 47 37 C46.34 37 45.68 37 45 37 C44.731875 35.741875 44.46375 34.48375 44.1875 33.1875 C43.15002371 28.89594089 43.15002371 28.89594089 40 26 C36.40393206 24.90554454 34.70326243 24.68033526 31.25 26.25 C28.32068884 28.52835312 27.12396677 30.18536125 26.5625 33.875 C26.77520416 37.15669599 26.77520416 37.15669599 29.0625 39.875 C31.88209505 42.25040832 31.88209505 42.25040832 35.5 42.5625 C39.49061538 41.9211511 41.06301661 40.68524196 44 38 C44.66 38 45.32 38 46 38 C45.34 39.65 44.68 41.3 44 43 C48.61737373 43.46984083 48.61737373 43.46984083 52.69848633 41.75268555 C54.28336342 39.61840818 54.41815391 38.4080597 54.51171875 35.76953125 C54.54716797 34.96708984 54.58261719 34.16464844 54.61914062 33.33789062 C54.64169922 32.50451172 54.66425781 31.67113281 54.6875 30.8125 C54.72166016 29.96751953 54.75582031 29.12253906 54.79101562 28.25195312 C54.87341471 26.16843351 54.93838645 24.08423784 55 22 C53.68 21.67 52.36 21.34 51 21 C50.34 17.7 49.68 14.4 49 11 C49.99 11 50.98 11 52 11 C52 9.02 52 7.04 52 5 C52.66 5 53.32 5 54 5 C54 6.98 54 8.96 54 11 C54.99 11 55.98 11 57 11 C57 9.35 57 7.7 57 6 C57.99 6 58.98 6 60 6 C60 7.65 60 9.3 60 11 C60.99 11 61.98 11 63 11 C63 11.66 63 12.32 63 13 C62.34 13 61.68 13 61 13 C61 15.31 61 17.62 61 20 C59.02 20.99 59.02 20.99 57 22 C57.02094727 22.58491211 57.04189453 23.16982422 57.06347656 23.77246094 C57.14680115 26.43146465 57.19870897 29.09019355 57.25 31.75 C57.30027344 33.13058594 57.30027344 33.13058594 57.3515625 34.5390625 C57.36445312 35.42851563 57.37734375 36.31796875 57.390625 37.234375 C57.41157227 38.05131836 57.43251953 38.86826172 57.45410156 39.70996094 C56.78829586 43.06762624 55.84441523 44.07593229 53 46 C49.85331102 46.58855192 46.75630792 46.56045368 43.5625 46.53125 C42.1868689 46.53699036 42.1868689 46.53699036 40.78344727 46.54284668 C38.84683127 46.54556549 36.91017853 46.53820646 34.97363281 46.52148438 C32.01023447 46.50007394 29.04926049 46.52128669 26.0859375 46.546875 C24.20311965 46.54423172 22.32030331 46.53910673 20.4375 46.53125 C19.55199463 46.53934692 18.66648926 46.54744385 17.75415039 46.55578613 C11.63983151 46.46263993 11.63983151 46.46263993 8.42578125 44.13867188 C6.70500418 41.55750627 6.66185959 40.04326371 7 37 C6.34 37 5.68 37 5 37 C4.67 34.69 4.34 32.38 4 30 C3.34 30 2.68 30 2 30 C2.01047363 29.40985107 2.02094727 28.81970215 2.03173828 28.21166992 C2.07332044 25.53698996 2.0993329 22.86237803 2.125 20.1875 C2.14175781 19.25873047 2.15851563 18.32996094 2.17578125 17.37304688 C2.18222656 16.48037109 2.18867187 15.58769531 2.1953125 14.66796875 C2.20578613 13.84578857 2.21625977 13.0236084 2.22705078 12.17651367 C2.13996135 9.70578408 2.13996135 9.70578408 0 7 C-0.07905064 4.66800612 -0.08798769 2.33167378 0 0 Z " fill="#010101" transform="translate(0,16)"/>
<path d="M0 0 C2.31 0 4.62 0 7 0 C7.33 2.64 7.66 5.28 8 8 C13.28 8 18.56 8 24 8 C24.33 5.36 24.66 2.72 25 0 C26.32 0 27.64 0 29 0 C29.1079859 2.43868168 29.18726589 4.87259133 29.25 7.3125 C29.30027344 8.34793945 29.30027344 8.34793945 29.3515625 9.40429688 C29.390625 11.42578125 29.390625 11.42578125 29 15 C26.7531759 17.32954565 25.38693872 17.95361125 22.15917969 18.34057617 C20.55671387 18.3170105 20.55671387 18.3170105 18.921875 18.29296875 C17.76171875 18.28330078 16.6015625 18.27363281 15.40625 18.26367188 C14.1996875 18.23853516 12.993125 18.21339844 11.75 18.1875 C9.91695312 18.16719727 9.91695312 18.16719727 8.046875 18.14648438 C5.03080502 18.1111398 2.01562513 18.0617956 -1 18 C-1.22786458 15.98177083 -1.45572917 13.96354167 -1.68359375 11.9453125 C-1.91292961 9.92595684 -1.91292961 9.92595684 -3 8 C-2.44140625 6.0546875 -2.44140625 6.0546875 -1.5625 3.875 C-1.27503906 3.15054687 -0.98757812 2.42609375 -0.69140625 1.6796875 C-0.46324219 1.12539062 -0.23507812 0.57109375 0 0 Z " fill="#A4A3A3" transform="translate(3,6)"/>
<path d="M0 0 C3.3 0 6.6 0 10 0 C9.67 5.94 9.34 11.88 9 18 C5.7 18 2.4 18 -1 18 C-1.02690844 15.37493198 -1.04679404 12.75013827 -1.0625 10.125 C-1.07087891 9.37863281 -1.07925781 8.63226563 -1.08789062 7.86328125 C-1.11328125 2.2265625 -1.11328125 2.2265625 0 0 Z " fill="#77BFE3" transform="translate(5,26)"/>
<path d="M0 0 C2.625 0.9375 2.625 0.9375 5 2 C5.02689216 3.47906892 5.04634621 4.95827483 5.0625 6.4375 C5.07410156 7.26121094 5.08570312 8.08492187 5.09765625 8.93359375 C5 11 5 11 4 12 C1.66839945 12.09909302 -0.66629942 12.12970504 -3 12.125 C-4.27875 12.12757812 -5.5575 12.13015625 -6.875 12.1328125 C-10 12 -10 12 -11 11 C-11.07179964 9.48071962 -11.08392007 7.95832518 -11.0625 6.4375 C-11.05347656 5.61121094 -11.04445313 4.78492188 -11.03515625 3.93359375 C-11.02355469 3.29550781 -11.01195312 2.65742187 -11 2 C-10.06027344 1.90912109 -10.06027344 1.90912109 -9.1015625 1.81640625 C-7.87566406 1.69072266 -7.87566406 1.69072266 -6.625 1.5625 C-5.81289063 1.48128906 -5.00078125 1.40007813 -4.1640625 1.31640625 C-1.95727195 1.10909886 -1.95727195 1.10909886 0 0 Z " fill="#5C9EBE" transform="translate(22,2)"/>
<path d="M0 0 C1.65 0 3.3 0 5 0 C5.33 0.33 5.66 0.66 6 1 C6 0.67 6 0.34 6 0 C8.875 -0.125 8.875 -0.125 12 0 C12.66 0.66 13.32 1.32 14 2 C13.75 5.0625 13.75 5.0625 13 8 C12.01 8.495 12.01 8.495 11 9 C10.67 8.34 10.34 7.68 10 7 C10 7.66 10 8.32 10 9 C8.35 9.33 6.7 9.66 5 10 C5 10.66 5 11.32 5 12 C3.35 12 1.7 12 0 12 C0 8.04 0 4.08 0 0 Z " fill="#475961" transform="translate(33,6)"/>
<path d="M0 0 C0.99 0 1.98 0 3 0 C3 1.65 3 3.3 3 5 C3.99 5 4.98 5 6 5 C5.44894091 8.9492568 4.61064629 12.34920174 3 16 C2.01 16 1.02 16 0 16 C0 14.35 0 12.7 0 11 C-0.99 11 -1.98 11 -3 11 C-2.44894091 7.0507432 -1.61064629 3.65079826 0 0 Z " fill="#040300" transform="translate(34,42)"/>
<path d="M0 0 C7.92 0 15.84 0 24 0 C24 0.33 24 0.66 24 1 C21.36 1.33 18.72 1.66 16 2 C16 2.99 16 3.98 16 5 C16.66 5 17.32 5 18 5 C18 5.99 18 6.98 18 8 C16.35 8.33 14.7 8.66 13 9 C12.67 10.32 12.34 11.64 12 13 C11.67 13 11.34 13 11 13 C11.33 9.37 11.66 5.74 12 2 C8.19140625 2.09765625 8.19140625 2.09765625 4.3828125 2.1953125 C2 2 2 2 0 0 Z " fill="#2A2F32" transform="translate(3,24)"/>
<path d="M0 0 C1.65 0 3.3 0 5 0 C5 3.96 5 7.92 5 12 C3.35 12 1.7 12 0 12 C0 8.04 0 4.08 0 0 Z " fill="#BB482F" transform="translate(33,6)"/>
<path d="M0 0 C2.31 0 4.62 0 7 0 C7 2.64 7 5.28 7 8 C5.00045254 8.04254356 2.99958364 8.04080783 1 8 C0 7 0 7 -0.0625 3.4375 C-0.041875 2.303125 -0.02125 1.16875 0 0 Z " fill="#C39C1F" transform="translate(52,28)"/>
<path d="M0 0 C1.74216797 0.15275391 1.74216797 0.15275391 3.51953125 0.30859375 C4.39996094 0.39238281 5.28039062 0.47617188 6.1875 0.5625 C5.8575 1.2225 5.5275 1.8825 5.1875 2.5625 C4.115 2.541875 3.0425 2.52125 1.9375 2.5 C-1.05088004 2.54980633 -3.00791804 2.83873691 -5.8125 3.5625 C-7.81213028 3.60095443 -9.81301633 3.60794281 -11.8125 3.5625 C-11.8125 2.5725 -11.8125 1.5825 -11.8125 0.5625 C-7.71524731 -0.47917441 -4.19754776 -0.38159525 0 0 Z " fill="#000000" transform="translate(57.8125,10.4375)"/>
<path d="M0 0 C0.66 0.33 1.32 0.66 2 1 C2 2.65 2 4.3 2 6 C2.99 6 3.98 6 5 6 C5 6.66 5 7.32 5 8 C4.34 8 3.68 8 3 8 C3 9.65 3 11.3 3 13 C2.01 13.495 2.01 13.495 1 14 C1 11.69 1 9.38 1 7 C-0.65 7 -2.3 7 -4 7 C-3.01 6.67 -2.02 6.34 -1 6 C-1.020625 5.195625 -1.04125 4.39125 -1.0625 3.5625 C-1 1 -1 1 0 0 Z " fill="#141003" transform="translate(58,21)"/>
<path d="M0 0 C0.99 0.33 1.98 0.66 3 1 C3 1.66 3 2.32 3 3 C3.66 3 4.32 3 5 3 C4.1875 4.9375 4.1875 4.9375 3 7 C2.01 7.33 1.02 7.66 0 8 C-1.5 6.625 -1.5 6.625 -3 5 C-3 3 -3 3 -1.5 1.375 C-1.005 0.92125 -0.51 0.4675 0 0 Z " fill="#0D0B01" transform="translate(40,21)"/>
<path d="M0 0 C2.97 0 5.94 0 9 0 C8.01 0.495 8.01 0.495 7 1 C6.34227572 4.02934491 6.34227572 4.02934491 6 7 C4.68 7 3.36 7 2 7 C2 5.02 2 3.04 2 1 C1.34 0.67 0.68 0.34 0 0 Z " fill="#795F16" transform="translate(4,44)"/>
<path d="M0 0 C1.98 0 3.96 0 6 0 C5.67 1.98 5.34 3.96 5 6 C4.01 6 3.02 6 2 6 C2 5.34 2 4.68 2 4 C1.01 4 0.02 4 -1 4 C-0.67 2.68 -0.34 1.36 0 0 Z " fill="#695411" transform="translate(34,47)"/>
<path d="M0 0 C2.69082872 0.17635452 5.32851446 0.61835921 8 1 C8 1.33 8 1.66 8 2 C5.69 2.33 3.38 2.66 1 3 C0.67 4.65 0.34 6.3 0 8 C-0.66 8 -1.32 8 -2 8 C-1.125 1.125 -1.125 1.125 0 0 Z " fill="#0C0C0C" transform="translate(2,4)"/>
<path d="M0 0 C1.70884005 1.62339805 3.37446717 3.29319053 5 5 C5 5.66 5 6.32 5 7 C3.35 7.33 1.7 7.66 0 8 C0 5.36 0 2.72 0 0 Z " fill="#233E4B" transform="translate(38,8)"/>
<path d="M0 0 C2.31 0 4.62 0 7 0 C7 0.99 7 1.98 7 3 C4.69 3 2.38 3 0 3 C0 2.01 0 1.02 0 0 Z " fill="#797979" transform="translate(14,17)"/>
<path d="M0 0 C2.31 0 4.62 0 7 0 C6.67 0.99 6.34 1.98 6 3 C4.02 3 2.04 3 0 3 C0 2.01 0 1.02 0 0 Z " fill="#7F6514" transform="translate(52,28)"/>
<path d="M0 0 C0.99 0 1.98 0 3 0 C3 0.99 3 1.98 3 3 C3.66 3 4.32 3 5 3 C5 3.66 5 4.32 5 5 C3.35 5 1.7 5 0 5 C0 3.35 0 1.7 0 0 Z " fill="#DC5336" transform="translate(16,26)"/>
</svg>
