<?xml version="1.0" encoding="UTF-8"?>
<svg version="1.1" xmlns="http://www.w3.org/2000/svg" width="512" height="512">
<path d="M0 0 C4.37324455 2.15650351 8.15818074 5.0251704 12 8 C12.57331055 8.43344727 13.14662109 8.86689453 13.73730469 9.31347656 C20.64139415 14.53401004 27.28995078 19.97352605 33.65625 25.84375 C35.19815402 27.2623017 36.76044937 28.65905612 38.34375 30.03125 C50.62514964 40.71766268 61.30338494 52.95673489 71 66 C71.47115234 66.62535645 71.94230469 67.25071289 72.42773438 67.89501953 C107.35343723 114.51313893 126.00013219 172.16719894 126.35009766 230.22363281 C126.3667591 232.24848848 126.39418041 234.27328297 126.43212891 236.29785156 C126.48689594 239.24574674 126.50875524 242.19228986 126.5234375 245.140625 C126.54610687 246.04073303 126.56877625 246.94084106 126.59213257 247.8682251 C126.57810298 252.04348921 126.40936418 255.08821629 123.84228516 258.49121094 C118.22370497 263.4505418 112.33886924 263.29023455 105.21424866 263.26069641 C104.2340085 263.26452196 103.25376835 263.26834751 102.24382395 263.27228898 C98.96205516 263.28260061 95.68046193 263.27863028 92.39868164 263.2746582 C90.04465066 263.27900567 87.69062109 263.28418893 85.33659363 263.29014587 C78.94410487 263.30354286 72.55167522 263.30411379 66.15917516 263.30158257 C60.14856486 263.30037817 54.13796287 263.30658977 48.12735587 263.31201603 C35.49612075 263.32288776 22.86491233 263.32073075 10.23367571 263.31463119 C-1.31693033 263.3094617 -12.86745204 263.32071894 -24.4180414 263.33972941 C-36.28453336 263.35910977 -48.15098542 263.3673635 -60.01749331 263.36360615 C-66.67710674 263.36169449 -73.3366574 263.36444321 -79.99625969 263.37832069 C-86.25811704 263.39088101 -92.51980538 263.3889718 -98.78166008 263.37590981 C-101.07984473 263.37354063 -103.37804122 263.37629085 -105.67621231 263.38453293 C-108.81342673 263.3949729 -111.95007118 263.38692142 -115.08726501 263.3742218 C-115.99661 263.38159609 -116.90595498 263.38897037 -117.84285587 263.39656812 C-123.32158943 263.34991213 -127.1507466 262.60795571 -132 260 C-138.69909936 253.12460856 -137.23525069 244.57666983 -137.15234375 235.58984375 C-135.69352343 155.90931894 -104.92550629 85.55675356 -48.65185547 29.5871582 C-46.44853255 27.47013156 -44.13472266 25.53424115 -41.75 23.625 C-38.91821322 21.34876812 -36.08989298 19.07530166 -33.3046875 16.7421875 C-10.93551287 -1.97487699 -10.93551287 -1.97487699 0 0 Z M-14 34 C-16.70080482 38.05120722 -16.76279689 41.24277209 -16 46 C-12.93426868 51.00736116 -8.45508588 54.09632009 -3.8671875 57.68359375 C41.96332888 94.71015535 69.56970006 150.57821883 76.67578125 208.53515625 C76.97163564 211.69687721 77.17125027 214.84418985 77.33422852 218.0144043 C77.71862781 227.84008519 77.71862781 227.84008519 82.875 235.875 C85.43478733 237.23018153 87.08474827 237.8644069 90 238 C95.20181085 236.35732289 98.07402916 234.59975201 101 230 C101.41606201 227.30477477 101.57024416 225.12449194 101.5 222.4375 C101.48791504 221.66937988 101.47583008 220.90125977 101.46337891 220.10986328 C99.65789669 163.81164516 75.66139695 105.92640809 37 65 C35.86970833 63.69205429 34.74456689 62.37963752 33.625 61.0625 C17.00013885 41.18682138 17.00013885 41.18682138 -4.75 29.6875 C-8.83266269 30.08006372 -10.81816032 31.46899116 -14 34 Z " fill="#3D3DF4" transform="translate(382,4)"/>
<path d="M0 0 C3.12578143 1.6720747 5.39281175 3.7856235 7 7 C7.09540015 9.43083491 7.13017199 11.83283869 7.12025452 14.26382446 C7.12110894 15.0209905 7.12196337 15.77815654 7.12284368 16.558267 C7.12449767 19.10869256 7.11897843 21.6590531 7.11352539 24.20947266 C7.11324348 26.03240457 7.11340134 27.85533659 7.1139679 29.67826843 C7.1142557 34.63874548 7.10836169 39.59919852 7.10139394 44.55966997 C7.0951576 49.73935354 7.09455638 54.91903762 7.09336853 60.09872437 C7.09025604 69.91242763 7.08204376 79.7261198 7.07201904 89.53981817 C7.06085535 100.71014629 7.05534681 111.88047493 7.05032361 123.05080724 C7.03986109 146.03387907 7.02151662 169.01693568 7 192 C29.44 192 51.88 192 75 192 C74.98428955 186.55363037 74.9685791 181.10726074 74.95239258 175.49584961 C74.90272524 157.51867641 74.86940964 139.54150053 74.84456348 121.5642767 C74.82909596 110.6626886 74.80800857 99.76116551 74.77368164 88.85961914 C74.74377585 79.3576071 74.72442416 69.85564214 74.71773452 60.35358435 C74.71382428 55.32252109 74.70463693 50.29159252 74.68280983 45.26057243 C74.66242611 40.5238032 74.65617004 35.78722397 74.66067696 31.05041504 C74.6598526 29.31339548 74.65389819 27.57636948 74.64238358 25.83938789 C74.62740976 23.46377387 74.63106391 21.08887286 74.63923645 18.71324158 C74.63049793 18.02936983 74.6217594 17.34549807 74.61275607 16.64090294 C74.66798501 10.68235157 76.18831118 6.14108678 80.0625 1.5625 C84.3697729 -0.72860261 88.2264705 -0.90742813 93 0 C96.11709136 1.69624851 98.38929088 3.77858175 100 7 C100.09540015 9.43083491 100.13017199 11.83283869 100.12025452 14.26382446 C100.12110894 15.0209905 100.12196337 15.77815654 100.12284368 16.558267 C100.12449767 19.10869256 100.11897843 21.6590531 100.11352539 24.20947266 C100.11324348 26.03240457 100.11340134 27.85533659 100.1139679 29.67826843 C100.1142557 34.63874548 100.10836169 39.59919852 100.10139394 44.55966997 C100.0951576 49.73935354 100.09455638 54.91903762 100.09336853 60.09872437 C100.09025604 69.91242763 100.08204376 79.7261198 100.07201904 89.53981817 C100.06085535 100.71014629 100.05534681 111.88047493 100.05032361 123.05080724 C100.03986109 146.03387907 100.02151662 169.01693568 100 192 C122.44 192 144.88 192 168 192 C167.97643433 183.83044556 167.97643433 183.83044556 167.95239258 175.49584961 C167.90272524 157.51867641 167.86940964 139.54150053 167.84456348 121.5642767 C167.82909596 110.6626886 167.80800857 99.76116551 167.77368164 88.85961914 C167.74377585 79.3576071 167.72442416 69.85564214 167.71773452 60.35358435 C167.71382428 55.32252109 167.70463693 50.29159252 167.68280983 45.26057243 C167.66242611 40.5238032 167.65617004 35.78722397 167.66067696 31.05041504 C167.6598526 29.31339548 167.65389819 27.57636948 167.64238358 25.83938789 C167.62740976 23.46377387 167.63106391 21.08887286 167.63923645 18.71324158 C167.63049793 18.02936983 167.6217594 17.34549807 167.61275607 16.64090294 C167.66798501 10.68235157 169.18831118 6.14108678 173.0625 1.5625 C177.3697729 -0.72860261 181.2264705 -0.90742813 186 0 C189.11709136 1.69624851 191.38929088 3.77858175 193 7 C193.10458697 9.78203666 193.1477947 12.53941157 193.14717102 15.32199097 C193.15084771 16.19319678 193.1545244 17.0644026 193.1583125 17.9620086 C193.16937852 20.89899467 193.1731982 23.83594539 193.17700195 26.77294922 C193.18326467 28.87197483 193.18991129 30.97099932 193.19691467 33.07002258 C193.21434836 38.78746583 193.22488403 44.50490069 193.2331202 50.22236395 C193.23826794 53.79545201 193.24434394 57.36853746 193.25063133 60.94162369 C193.26969455 72.12332664 193.2839203 83.30502296 193.2922433 94.48673904 C193.30200487 107.38833224 193.32829151 120.28975337 193.36874419 133.19128597 C193.39893893 143.16425656 193.41371558 153.13717796 193.41702431 163.11019337 C193.41937199 169.06528862 193.42829512 175.02020029 193.45348549 180.97524643 C193.47682818 186.58458155 193.4809744 192.19361307 193.47072411 197.80298424 C193.47023006 199.85557886 193.47651159 201.90818873 193.49028015 203.96073723 C193.60755609 222.48938028 190.41659998 236.83443567 177.3828125 250.70703125 C163.61265773 263.95798347 148.7039298 264 130 264 C130 282.81 130 301.62 130 321 C133.63 321 137.26 321 141 321 C145.5524475 323.19493004 147.95372579 325.41079349 150 330 C150.45287188 333.81070689 150.4198877 337.6031962 150.40405273 341.43701172 C150.41091599 342.5938295 150.41777924 343.75064728 150.42485046 344.94252014 C150.44316697 348.77170051 150.43927094 352.60047264 150.43359375 356.4296875 C150.43700216 358.42425068 150.4404187 360.41881406 150.44494683 362.41337502 C150.4589928 368.69229481 150.45743549 374.97107862 150.44604492 381.25 C150.43461526 387.69207415 150.44855151 394.13372947 150.4754414 400.57574832 C150.49774453 406.13020727 150.50420171 411.68453622 150.49836498 417.23903668 C150.4950225 420.5455306 150.4989767 423.85170178 150.51461601 427.15816879 C150.60714252 449.94548028 148.83030506 469.38841978 132.46166992 486.81738281 C121.04623362 498.25007166 105.52250076 504.46981416 89.46875 505.06640625 C71.942302 504.7308774 56.05950284 498.86709728 43.25 486.75 C33.15952546 476.06490821 25.90952904 461.72769074 25.85955811 446.80078125 C25.85384796 445.77460693 25.84813782 444.74843262 25.84225464 443.69116211 C25.84113678 442.57620361 25.84001892 441.46124512 25.83886719 440.3125 C25.83390228 439.12986572 25.82893738 437.94723145 25.82382202 436.72875977 C25.81174112 433.49328026 25.80426321 430.25783682 25.79981136 427.02233887 C25.79687441 424.99959029 25.79276856 422.97684731 25.78830719 420.95410156 C25.7746485 414.62109403 25.76497241 408.28809936 25.7611053 401.95507812 C25.75662048 394.65161152 25.73904629 387.34833169 25.7101047 380.04492188 C25.68848635 374.39298114 25.67840103 368.74109297 25.67706418 363.08911133 C25.67601678 359.71590988 25.6701223 356.34288439 25.65224457 352.96972656 C25.6352286 349.2088393 25.63705335 345.44840992 25.64355469 341.6875 C25.62973251 340.01506226 25.62973251 340.01506226 25.6156311 338.30883789 C25.62120026 337.28266357 25.62676941 336.25648926 25.63250732 335.19921875 C25.63104076 334.31065186 25.6295742 333.42208496 25.6280632 332.5065918 C26.26831621 328.19173792 28.35461883 325.59697759 31.5 322.6875 C35 321 35 321 46 321 C46 302.19 46 283.38 46 264 C39.07 264 32.14 264 25 264 C9.32375012 259.29712504 -3.07059229 252.80190057 -11.4481287 238.02249241 C-17.66940883 225.90565515 -17.58052255 214.17826397 -17.53344727 200.88305664 C-17.54051594 198.77266846 -17.54926493 196.66228534 -17.55955505 194.5519104 C-17.58194066 188.85609399 -17.57913643 183.16055683 -17.57023358 177.46471334 C-17.56510615 172.70271863 -17.57242968 167.94077559 -17.57970566 163.17878622 C-17.59666692 151.94946663 -17.59317298 140.7202831 -17.57641602 129.4909668 C-17.55945817 117.91010091 -17.57538821 106.32961095 -17.6076389 94.74878603 C-17.63431574 84.79179634 -17.64161712 74.83492382 -17.63312382 64.87790197 C-17.62819404 58.93656806 -17.63041478 52.99546083 -17.65091133 47.05415535 C-17.66924103 41.47496018 -17.66334262 35.89630831 -17.63871193 30.31714249 C-17.63369745 28.27009414 -17.63721025 26.22300455 -17.64986038 24.17598915 C-17.66576134 21.38212565 -17.65086873 18.59005829 -17.62818909 15.79627991 C-17.64002482 14.98607063 -17.65186054 14.17586135 -17.66405493 13.34110028 C-17.56881996 7.56921892 -16.14870025 5.03156594 -12 1 C-8.27533151 -0.86233425 -4.05504687 -0.57130829 0 0 Z M8 216 C9.34529336 224.07176017 12.56524038 229.40458488 19.0625 234.4375 C27.31658439 240.09655028 35.66931973 240.14988811 45.36645508 240.14526367 C46.38529282 240.14862228 47.40413055 240.1519809 48.45384216 240.15544128 C51.80908439 240.16491019 55.1642765 240.16689236 58.51953125 240.16796875 C60.8621167 240.17118415 63.20470195 240.17454843 65.54728699 240.17805481 C70.45381129 240.18403592 75.36031801 240.18589575 80.2668457 240.18530273 C86.53771719 240.18520117 92.80847531 240.19885214 99.07931995 240.21607494 C103.91705335 240.22722198 108.75475958 240.22922111 113.5925045 240.22869301 C115.90363646 240.22986909 118.2147692 240.2342699 120.52588844 240.24202538 C123.76579233 240.25187983 127.00545309 240.24892568 130.24536133 240.24291992 C131.18958954 240.24853943 132.13381775 240.25415894 133.10665894 240.25994873 C143.40845694 240.21169716 152.03710679 238.88188859 160 232 C165.05092173 226.76521174 166.14162569 223.43349724 168 216 C115.2 216 62.4 216 8 216 Z M71 264 C71 282.81 71 301.62 71 321 C82.22 321 93.44 321 105 321 C105 302.19 105 283.38 105 264 C93.78 264 82.56 264 71 264 Z M51 346 C51 368.44 51 390.88 51 414 C75.42 414 99.84 414 125 414 C125 391.56 125 369.12 125 346 C100.58 346 76.16 346 51 346 Z M51 439 C51 451.92312868 53.58555747 460.48088298 62.66015625 469.68359375 C70.97576186 477.27939751 80.59598999 480.34024332 91.89453125 479.8828125 C101.22595941 478.5745436 110.01193308 474.05729874 116.43359375 467.125 C123.19176185 457.95681186 125 450.24522956 125 439 C100.58 439 76.16 439 51 439 Z " fill="#000000" transform="translate(21,4)"/>
<path d="M0 0 C3.31478711 1.82372696 6.35454692 4.04221723 7.57373047 7.74023438 C8.09201752 10.4878088 8.11192422 13.06285382 8.09765625 15.859375 C8.09515869 16.86452148 8.09266113 17.86966797 8.09008789 18.90527344 C8.08098389 20.1740332 8.07187988 21.44279297 8.0625 22.75 C8.041875 26.7925 8.02125 30.835 8 35 C19.22 35 30.44 35 42 35 C41.88174781 26.71332077 41.88174781 26.71332077 41.72973633 18.42724609 C41.65266539 7.72184399 41.65266539 7.72184399 45 3 C48.78501499 -0.44092272 52.71560657 -0.50888729 57.625 -0.35546875 C61.04405475 0.15626477 62.72750658 1.4434449 65 4 C67.19576704 7.44732536 67.2334415 10.25520094 67.1953125 14.296875 C67.18886719 15.50214844 67.18242187 16.70742188 67.17578125 17.94921875 C67.15064453 19.83060547 67.15064453 19.83060547 67.125 21.75 C67.11597656 23.01972656 67.10695313 24.28945313 67.09765625 25.59765625 C67.07409005 28.73196093 67.04118832 31.86588541 67 35 C68.13018555 34.97063354 68.13018555 34.97063354 69.28320312 34.94067383 C70.27255859 34.92544678 71.26191406 34.91021973 72.28125 34.89453125 C73.26158203 34.87495361 74.24191406 34.85537598 75.25195312 34.83520508 C79.1545108 35.06923372 81.16086307 36.37379834 84 39 C88.11435466 43.86790948 87.42900748 49.39520089 87.40405273 55.43701172 C87.41091599 56.5938295 87.41777924 57.75064728 87.42485046 58.94252014 C87.44316697 62.77170051 87.43927094 66.60047264 87.43359375 70.4296875 C87.43700216 72.42425068 87.4404187 74.41881406 87.44494683 76.41337502 C87.4589928 82.69229481 87.45743549 88.97107862 87.44604492 95.25 C87.43461526 101.69207415 87.44855151 108.13372947 87.4754414 114.57574832 C87.49774453 120.13020727 87.50420171 125.68453622 87.49836498 131.23903668 C87.4950225 134.5455306 87.4989767 137.85170178 87.51461601 141.15816879 C87.60876951 164.34617258 85.79179276 183.8067013 68.8671875 201.42578125 C53.45601464 215.26224298 36.88729128 218.85886772 16.69335938 218.17919922 C0.94960625 217.13170876 -12.65408868 208.49502857 -23 197 C-33.17299944 183.81415612 -37.31161419 170.27586813 -37.2746582 153.85839844 C-37.27976913 152.67518005 -37.28488007 151.49196167 -37.29014587 150.27288818 C-37.30397987 146.3849982 -37.30309052 142.49728658 -37.30078125 138.609375 C-37.30309312 136.58442615 -37.30659685 134.55948164 -37.310188 132.53453469 C-37.32124531 126.18023162 -37.32174022 119.8259877 -37.31567383 113.47167969 C-37.30961989 106.92487873 -37.32198947 100.37829191 -37.3432439 93.83152747 C-37.36086291 88.19648109 -37.36686128 82.5615029 -37.36360615 76.92642999 C-37.36179556 73.56671573 -37.36440808 70.20715471 -37.37832069 66.84746552 C-37.39063123 63.10614873 -37.38392656 59.36533197 -37.37231445 55.62402344 C-37.37995819 54.51534912 -37.38760193 53.4066748 -37.39547729 52.2644043 C-37.33119237 42.91267794 -37.33119237 42.91267794 -34 39 C-30.12125847 35.41216408 -27.40055479 34.79229661 -22.28125 34.89453125 C-21.29189453 34.9097583 -20.30253906 34.92498535 -19.28320312 34.94067383 C-18.15301758 34.97004028 -18.15301758 34.97004028 -17 35 C-17.03927612 33.77482666 -17.03927612 33.77482666 -17.0793457 32.52490234 C-17.18356213 28.80846546 -17.24840799 25.09233639 -17.3125 21.375 C-17.35439453 20.08980469 -17.39628906 18.80460937 -17.43945312 17.48046875 C-17.57759155 6.81618254 -17.57759155 6.81618254 -14.60546875 3.1640625 C-10.01910688 -0.64529953 -5.83245518 -0.9314518 0 0 Z M-12 60 C-12 82.44 -12 104.88 -12 128 C12.42 128 36.84 128 62 128 C62 105.56 62 83.12 62 60 C37.58 60 13.16 60 -12 60 Z M-12 153 C-12 165.92312868 -9.41444253 174.48088298 -0.33984375 183.68359375 C7.97576186 191.27939751 17.59598999 194.34024332 28.89453125 193.8828125 C38.22595941 192.5745436 47.01193308 188.05729874 53.43359375 181.125 C60.19176185 171.95681186 62 164.24522956 62 153 C37.58 153 13.16 153 -12 153 Z " fill="#000000" transform="translate(352,290)"/>
</svg>
