<?xml version="1.0" encoding="UTF-8"?>
<svg version="1.1" xmlns="http://www.w3.org/2000/svg" width="512" height="512">
<path d="M0 0 C1.85066826 -0.00856522 1.85066826 -0.00856522 3.73872375 -0.01730347 C5.1083373 -0.0185488 6.47795096 -0.0196739 7.8475647 -0.02069092 C9.28815335 -0.02531959 10.72874078 -0.03034431 12.16932678 -0.03573608 C16.08464878 -0.04885648 19.99995363 -0.05530421 23.91529417 -0.05974674 C26.36116104 -0.06267775 28.80702322 -0.06678259 31.25288773 -0.07125092 C38.90472402 -0.08492423 46.5565496 -0.09459198 54.20839727 -0.09845281 C63.04286371 -0.1029348 71.87717552 -0.1204899 80.71159494 -0.1494534 C87.53970577 -0.17106273 94.36777306 -0.18115667 101.19591773 -0.18249393 C105.27448509 -0.1835424 109.35290707 -0.18945915 113.43143845 -0.20731354 C117.26787739 -0.22378159 121.10406147 -0.22595601 124.94052315 -0.21717453 C126.34780751 -0.2164035 127.75510551 -0.22075563 129.16235542 -0.23063278 C131.085002 -0.24333502 133.00775079 -0.23569002 134.93041992 -0.22705078 C136.00594305 -0.22851734 137.08146618 -0.2299839 138.18958092 -0.2314949 C141.55144044 0.19928915 143.40526044 1.09524454 146.0921936 3.14044189 C147.27548263 5.62973139 148.12707412 7.78477924 148.9046936 10.39044189 C149.12061157 11.03368408 149.33652954 11.67692627 149.55899048 12.33966064 C151.2933253 17.81245053 152.23352257 22.80816097 149.6546936 28.07794189 C146.38880992 30.70657999 144.31685929 30.81338847 140.21328735 30.55059814 C138.0921936 30.14044189 138.0921936 30.14044189 135.6546936 28.64044189 C134.0921936 26.14044189 134.0921936 26.14044189 132.0921936 18.14044189 C89.8521936 18.14044189 47.6121936 18.14044189 4.0921936 18.14044189 C4.0921936 58.07044189 4.0921936 98.00044189 4.0921936 139.14044189 C57.2221936 139.14044189 110.3521936 139.14044189 165.0921936 139.14044189 C162.7821936 130.89044189 160.4721936 122.64044189 158.0921936 114.14044189 C158.0921936 113.15044189 158.0921936 112.16044189 158.0921936 111.14044189 C157.20958862 111.15615234 156.32698364 111.17186279 155.41763306 111.18804932 C152.12818474 111.23932187 148.839164 111.27686107 145.54946899 111.30523682 C144.12850219 111.32027949 142.70758148 111.34071894 141.28677368 111.36676025 C139.23872475 111.40334537 137.1912921 111.42021287 135.14297485 111.43341064 C133.912323 111.44912109 132.68167114 111.46483154 131.41372681 111.48101807 C127.81298969 111.11181349 125.95685817 110.30962352 123.0921936 108.14044189 C121.49602618 104.94810704 121.57753246 101.60582693 122.0921936 98.14044189 C123.96234455 95.70924567 125.37357705 94.49975017 128.0921936 93.14044189 C129.90390458 92.98737288 131.72057301 92.89097528 133.5375061 92.82403564 C134.61387329 92.78214111 135.69024048 92.74024658 136.79922485 92.69708252 C137.92715454 92.65776611 139.05508423 92.61844971 140.2171936 92.57794189 C141.35285767 92.5347583 142.48852173 92.49157471 143.65859985 92.44708252 C146.46967128 92.3407815 149.28083305 92.23874785 152.0921936 92.14044189 C151.76863892 91.06665283 151.44508423 89.99286377 151.11172485 88.88653564 C150.70818209 87.45067417 150.30590517 86.0144565 149.9046936 84.57794189 C149.58081665 83.52123291 149.58081665 83.52123291 149.25039673 82.44317627 C147.75400617 76.93950252 148.29273429 74.12360643 151.0921936 69.14044189 C153.69267215 66.91146028 155.12545576 67.14103586 158.5921936 67.20294189 C162.87707938 68.35067916 163.6568582 69.51232365 166.0921936 73.14044189 C167.25656128 76.20936584 167.25656128 76.20936584 168.19863892 79.67486572 C168.37478729 80.30957794 168.55093567 80.94429016 168.73242188 81.59823608 C169.30664002 83.67833448 169.86354681 85.76264397 170.4203186 87.84747314 C170.81710232 89.29793445 171.21496604 90.7481007 171.61386108 92.19798279 C172.65702113 96.00087946 173.68552438 99.80758923 174.71096802 103.61529541 C175.76146715 107.50565674 176.82585914 111.39221081 177.8890686 115.27911377 C179.97034936 122.89591027 182.03615282 130.5167937 184.0921936 138.14044189 C185.34642624 138.14408752 186.60065887 138.14773315 187.89289856 138.15148926 C199.70856134 138.1884185 211.523963 138.2461687 223.33942699 138.32434464 C229.41400934 138.36386628 235.4884457 138.39603189 241.56314087 138.41143799 C247.42476202 138.42657349 253.28598196 138.46096427 259.1474247 138.50875092 C261.38449938 138.52359671 263.62163133 138.53148473 265.85875511 138.53232574 C268.99063348 138.53468746 272.12139588 138.56170411 275.25308228 138.59454346 C276.64275459 138.58699791 276.64275459 138.58699791 278.0605011 138.57929993 C282.17886883 138.64618201 284.52877166 138.81112825 288.14463806 140.92456055 C291.03828901 144.21688624 291.21776857 147.17816838 291.21244812 151.45581055 C291.21451012 152.73880287 291.21451012 152.73880287 291.21661377 154.04771423 C291.21301849 154.97775772 291.20942322 155.90780121 291.20571899 156.86602783 C291.20586502 157.85172256 291.20601105 158.8374173 291.2061615 159.85298157 C291.20546496 163.11028241 291.19768463 166.36752604 291.18984985 169.62481689 C291.18798476 171.8835446 291.18656128 174.14227272 291.18556213 176.40100098 C291.1817442 182.34563311 291.17192005 188.2902408 291.16085815 194.23486328 C291.15062851 200.30104237 291.14606118 206.36722541 291.14102173 212.43341064 C291.13029716 224.33576686 291.11270618 236.23809852 291.0921936 248.14044189 C300.9921936 248.14044189 310.8921936 248.14044189 321.0921936 248.14044189 C321.7521936 244.51044189 322.4121936 240.88044189 323.0921936 237.14044189 C323.84857834 233.66724667 324.62928336 230.21784421 325.4671936 226.76544189 C325.6631311 225.90305908 325.8590686 225.04067627 326.0609436 224.15216064 C327.24450101 219.29058624 328.39773374 215.73466448 332.0921936 212.14044189 C335.66397733 210.89808234 337.40112837 210.87238083 340.93203735 212.24200439 C344.72667887 214.52160362 347.02128049 217.1082085 349.7796936 220.51544189 C350.29660767 221.13612549 350.81352173 221.75680908 351.34609985 222.39630127 C352.41566824 223.68108768 353.48125697 224.96919735 354.5428772 226.26055908 C356.86463812 229.07769729 359.22953642 231.85761371 361.5921936 234.64044189 C362.4959005 235.71070284 363.39954582 236.78101577 364.3031311 237.85137939 C367.254611 241.3398734 370.23651978 244.80189985 373.2171936 248.26544189 C376.71038842 252.32668999 380.15667912 256.41562968 383.5296936 260.57794189 C387.12865163 265.01295551 390.84180236 269.33401767 394.5921936 273.64044189 C395.700341 274.92423178 396.80841501 276.20808501 397.91641235 277.49200439 C399.88585106 279.76978057 401.88362485 282.0122812 403.92422485 284.22637939 C408.24542356 289.08517605 411.13679804 292.47883551 410.79922485 299.16778564 C409.75205168 302.08945665 408.58059089 303.24634839 406.0921936 305.14044189 C403.02674781 305.53495259 400.32125085 305.68757808 397.2562561 305.65802002 C395.91902496 305.66853394 395.91902496 305.66853394 394.55477905 305.67926025 C391.60860017 305.69686223 388.66338221 305.68520965 385.7171936 305.67169189 C383.66982845 305.67438617 381.62246453 305.67826806 379.57510376 305.68328857 C375.28445247 305.68918661 370.9941343 305.68061069 366.70352173 305.66192627 C361.20187872 305.63913671 355.70101622 305.65225813 350.19940186 305.67621613 C345.97177238 305.69066574 341.74432815 305.68607192 337.51669312 305.67570496 C335.48808703 305.67303536 333.45946417 305.67631558 331.43087769 305.68562317 C328.59617523 305.69577486 325.76273916 305.68030699 322.9281311 305.65802002 C322.08852844 305.66611694 321.24892578 305.67421387 320.38388062 305.68255615 C316.71433202 305.62906837 314.56185925 305.5002441 311.60244751 303.23309326 C307.69247677 297.81532505 309.19342425 298.12813546 310.0921936 289.14044189 C312.0721936 281.22044189 314.0521936 273.30044189 316.0921936 265.14044189 C297.6121936 265.47044189 279.1321936 265.80044189 260.0921936 266.14044189 C258.7721936 270.43044189 257.4521936 274.72044189 256.0921936 279.14044189 C254.16054804 282.41584089 252.39575725 285.19280881 250.0921936 288.14044189 C249.65262329 288.75403564 249.21305298 289.36762939 248.76016235 289.99981689 C241.33454683 299.67237659 228.92457616 305.22558304 217.0921936 307.14044189 C201.23058079 308.24756118 188.07816045 304.21824204 175.8421936 294.01544189 C166.85878798 285.48906167 164.10403189 277.18779505 161.0921936 265.14044189 C140.9621936 265.47044189 120.8321936 265.80044189 100.0921936 266.14044189 C98.7721936 271.75044189 97.4521936 277.36044189 96.0921936 283.14044189 C88.53597709 303.40254587 73.95017382 317.51199452 54.52578735 326.70294189 C37.30844875 333.91111096 17.51483263 333.79617661 0.0531311 327.38262939 C-20.10404937 318.92618693 -34.41523256 304.32911741 -42.9078064 284.14044189 C-50.03095065 265.92284288 -49.09091527 244.24906946 -41.3296814 226.43731689 C-36.32161069 215.54602052 -27.99693586 202.02150812 -16.81182861 196.6550293 C-13.61139621 193.88378087 -13.4670556 193.55620551 -13.14831543 189.59729004 C-13.11316773 187.68653623 -13.11117582 185.77500502 -13.13485718 183.86407471 C-13.12422745 182.81985855 -13.11359772 181.7756424 -13.10264587 180.69978333 C-13.07453406 177.24722469 -13.08867106 173.79618821 -13.1031189 170.34356689 C-13.0918724 167.95030376 -13.07799337 165.55705166 -13.06158447 163.16381836 C-13.02547643 156.86396012 -13.02518197 150.56458648 -13.03225708 144.26464844 C-13.03332876 136.70630443 -12.99007677 129.14810073 -12.95422363 121.58985901 C-12.90472914 110.10646806 -12.91166264 98.62434751 -12.9078064 87.14044189 C-31.7178064 87.14044189 -50.5278064 87.14044189 -69.9078064 87.14044189 C-70.2378064 88.79044189 -70.5678064 90.44044189 -70.9078064 92.14044189 C-71.94915218 94.56954391 -73.02432232 96.93235623 -74.1812439 99.30450439 C-74.5056546 99.97839203 -74.83006531 100.65227966 -75.16430664 101.34658813 C-75.84907361 102.76492684 -76.53674422 104.18186693 -77.22714233 105.59747314 C-78.28074745 107.76121353 -79.32136446 109.93086581 -80.3609314 112.10137939 C-81.0294294 113.48196221 -81.69867506 114.8621833 -82.3687439 116.24200439 C-82.67822968 116.88892242 -82.98771545 117.53584045 -83.30657959 118.20236206 C-86.27357142 124.24193225 -86.27357142 124.24193225 -88.9078064 126.14044189 C-93.4697284 126.65549761 -95.80655654 126.69106682 -99.9078064 124.64044189 C-102.14560546 121.84319306 -102.44541184 120.21416162 -102.34921265 116.67803955 C-101.35157594 110.94273206 -98.43985766 105.77145941 -95.9078064 100.57794189 C-95.30951155 99.32470082 -94.71210264 98.07103642 -94.11557007 96.81695557 C-82.13216543 71.75262141 -82.13216543 71.75262141 -78.9078064 70.14044189 C-76.8142562 70.04876401 -74.71771463 70.02293256 -72.62216187 70.0269165 C-71.97813416 70.02677048 -71.33410645 70.02662445 -70.67056274 70.026474 C-68.53867237 70.02717149 -66.40686903 70.03495623 -64.2749939 70.04278564 C-62.79811653 70.0446504 -61.32123855 70.04607403 -59.84436035 70.04707336 C-55.95468441 70.05089397 -52.06504573 70.06072038 -48.17538452 70.07177734 C-44.20729069 70.08200126 -40.23919085 70.08657309 -36.27108765 70.09161377 C-28.48331023 70.10234304 -20.69556353 70.11941401 -12.9078064 70.14044189 C-12.91668884 69.34974808 -12.92557129 68.55905426 -12.9347229 67.74440002 C-13.01494366 60.28490691 -13.07580841 52.82562359 -13.11505508 45.36581135 C-13.13591078 41.53081643 -13.16419055 37.69617858 -13.20956421 33.86138916 C-13.25309548 30.15904937 -13.27695869 26.45705255 -13.28731537 22.75447655 C-13.29469381 21.3434732 -13.30910253 19.93248817 -13.33072662 18.52163124 C-13.35985118 16.54229742 -13.36144106 14.56261688 -13.36190796 12.58306885 C-13.37079041 11.45721878 -13.37967285 10.33136871 -13.38882446 9.17140198 C-12.79621709 5.43730254 -11.55863327 3.79214926 -8.9078064 1.14044189 C-5.69372165 0.06908031 -3.37982808 0.00935443 0 0 Z M4.0921936 157.14044189 C4.0921936 166.71044189 4.0921936 176.28044189 4.0921936 186.14044189 C6.4846936 185.64544189 8.8771936 185.15044189 11.3421936 184.64044189 C31.70648656 180.74326554 51.16246787 184.64546748 68.4359436 196.21075439 C86.16914408 209.09340297 95.52557243 226.74071484 99.0921936 248.14044189 C119.5521936 248.14044189 140.0121936 248.14044189 161.0921936 248.14044189 C163.5671936 241.70544189 163.5671936 241.70544189 166.0921936 235.14044189 C172.97704176 222.26876925 182.15350367 213.7544343 196.3421936 209.20294189 C211.08855404 205.77206902 226.24176 208.16359251 239.0921936 216.14044189 C249.24186705 223.45687316 254.85614316 232.93327997 258.3656311 244.80450439 C258.87389566 247.07720659 258.87389566 247.07720659 260.0921936 248.14044189 C264.3821936 248.14044189 268.6721936 248.14044189 273.0921936 248.14044189 C273.0921936 218.11044189 273.0921936 188.08044189 273.0921936 157.14044189 C184.3221936 157.14044189 95.5521936 157.14044189 4.0921936 157.14044189 Z M-16.9078064 220.14044189 C-26.63366741 232.72272696 -31.28442526 247.29211719 -29.9078064 263.14044189 C-27.28380119 280.09975757 -19.5898499 292.92529873 -6.6890564 304.05450439 C5.72272003 313.08546113 22.1266504 315.97650704 37.09609985 313.67950439 C53.2947929 309.67109418 66.40671102 300.33898136 75.0921936 286.14044189 C82.65494448 272.01560946 84.94858024 255.65076046 80.4671936 240.07794189 C74.41381795 223.54756991 64.43195968 211.90182124 48.4671936 204.32794189 C41.3429841 201.11656745 34.52655579 199.76560365 26.7796936 199.82794189 C25.66558105 199.83640137 25.66558105 199.83640137 24.52896118 199.84503174 C7.83391629 200.21107961 -5.80435835 208.08894256 -16.9078064 220.14044189 Z M185.7171936 235.51544189 C179.05736157 244.02417914 177.15511753 252.44985568 178.0921936 263.14044189 C180.597468 273.13290776 186.20515267 280.37312187 194.7484436 285.91387939 C202.68279086 290.06618779 212.16999314 290.70783401 220.82266235 288.41778564 C223.04616165 287.47251142 225.03936544 286.41143937 227.0921936 285.14044189 C227.71481079 284.78981689 228.33742798 284.43919189 228.97891235 284.07794189 C236.02320538 279.67716881 240.34310521 272.31431318 242.61953735 264.44903564 C244.54398206 255.04947512 242.47614684 246.84917998 237.61953735 238.65606689 C232.05362654 230.81379066 224.53496863 226.00630918 215.04141235 224.38262939 C203.93128481 223.00221275 193.26043609 227.21217498 185.7171936 235.51544189 Z M341.0921936 239.14044189 C339.37986256 245.79648646 337.67124402 252.45347587 335.96524048 259.11114502 C335.38407081 261.37731667 334.80204204 263.64326818 334.21914673 265.90899658 C333.38291702 269.16005291 332.54974961 272.41188062 331.7171936 275.66387939 C331.45470825 276.68162445 331.1922229 277.69936951 330.92178345 278.74795532 C330.68153442 279.6887796 330.4412854 280.62960388 330.1937561 281.59893799 C329.98057739 282.42944672 329.76739868 283.25995544 329.54776001 284.1156311 C329.01902532 286.11974111 329.01902532 286.11974111 329.0921936 288.14044189 C346.5821936 288.14044189 364.0721936 288.14044189 382.0921936 288.14044189 C380.58433399 285.12472267 379.60091654 283.36802432 377.4750061 280.96075439 C376.95648071 280.36875244 376.43795532 279.77675049 375.90371704 279.16680908 C375.34716431 278.53935791 374.79061157 277.91190674 374.2171936 277.26544189 C373.03716875 275.91938339 371.8574891 274.57302221 370.6781311 273.22637939 C370.07968384 272.54543213 369.48123657 271.86448486 368.86465454 271.16290283 C366.17072814 268.08900664 363.5031207 264.99291267 360.8421936 261.89044189 C360.34920776 261.31640625 359.85622192 260.74237061 359.34829712 260.15093994 C355.52332904 255.68135018 351.80162657 251.13740142 348.12734985 246.54278564 C345.9120336 243.92777702 343.52641355 241.55111861 341.0921936 239.14044189 Z " fill="#000000" transform="translate(101.90780639648438,23.85955810546875)"/>
<path d="M0 0 C9.09483548 5.9892819 10.68627264 20.26182045 12.74438477 30.19970703 C14.59539814 39.56018022 15.15743472 48.46419228 15.125 58 C15.13080078 59.70542969 15.13080078 59.70542969 15.13671875 61.4453125 C15.13542969 62.55648437 15.13414063 63.66765625 15.1328125 64.8125 C15.13168457 65.80894531 15.13055664 66.80539062 15.12939453 67.83203125 C14.97669579 71.57055749 14.46409375 75.28725003 14 79 C24.89 79.495 24.89 79.495 36 80 C38.25228225 57.47717752 37.41099513 36.89025514 29.76171875 15.484375 C28.36985175 10.94474724 28.16263059 7.04108795 30 2.5625 C32.9997958 0.21890953 36.23110455 -0.21701893 40 0 C42.36799311 0.85438579 43.64453772 1.4891026 45.08984375 3.56640625 C54.36688723 25.41234734 61.75002948 56.74991156 54 80 C61.59 80 69.18 80 77 80 C78.87791174 57.46505914 78.10380801 36.4248703 70.1875 15 C68.83104144 11.02055528 68.71529655 8.09499224 70 4 C72.59679473 1.10642873 74.16539447 0.13910092 78 -0.5 C81.91025384 0.15170897 83.20321615 1.16449145 86 4 C87.55698215 7.12225413 88.59397915 10.35961524 89.625 13.6875 C89.92349854 14.63447754 90.22199707 15.58145508 90.52954102 16.55712891 C91.38898987 19.36244177 92.20676811 22.17530798 93 25 C93.19932129 25.70817871 93.39864258 26.41635742 93.60400391 27.14599609 C97.92148428 43.49281297 97.36904888 63.41665787 95 80 C106.88 79.505 106.88 79.505 119 79 C122.18114306 56.7319986 120.19344944 35.55757858 112.765625 14.453125 C111.67968682 10.97369042 111.39891916 8.60648504 112 5 C114.16166759 1.71426526 115.63361438 1.09992335 119.4375 0.0625 C123.57507019 -0.01008895 124.78640223 0.46776632 128 3 C129.26614888 5.41015163 130.1918545 7.51689839 131.0625 10.0625 C131.31217529 10.76060791 131.56185059 11.45871582 131.8190918 12.17797852 C136.96632262 27.12961619 139.17757734 42.17039537 139.1875 57.9375 C139.19974609 58.95779297 139.21199219 59.97808594 139.22460938 61.02929688 C139.22654297 62.03927734 139.22847656 63.04925781 139.23046875 64.08984375 C139.23457764 64.98566162 139.23868652 65.88147949 139.24291992 66.80444336 C138.90473311 71.25321438 137.87499305 75.62503474 137 80 C144.59 80 152.18 80 160 80 C162.02092596 57.76981442 161.66621724 37.48491822 153.80615234 16.4543457 C151.98609651 11.30572432 151.81904345 8.24229923 154 3 C156.28188573 0.47362651 157.56774464 0.06437846 160.9375 -0.4375 C164.83237834 0.11891119 166.17600721 1.27749446 169 4 C170.24045089 6.3816657 171.18462365 8.49394945 172.0625 11 C172.31217529 11.69134033 172.56185059 12.38268066 172.8190918 13.0949707 C177.21205239 25.86126179 179.58697414 39.52033794 180 53 C180.02835938 53.84304688 180.05671875 54.68609375 180.0859375 55.5546875 C180.21586396 63.68808388 179.97566313 72.0973475 178 80 C185.59 80 193.18 80 201 80 C202.55252069 57.48845005 203.42476047 32.84952095 193 12 C192.56976202 8.12785818 192.68330914 6.47503629 194.875 3.1875 C197.38144907 0.60733184 198.25461673 0.08282036 201.8125 -0.3125 C205.90584049 0.08880789 207.10271577 1.09364759 210 4 C211.3758788 6.69481201 212.25274673 9.48322174 213.125 12.375 C213.50338013 13.57068604 213.50338013 13.57068604 213.8894043 14.79052734 C218.32919233 29.1591915 220.17210547 42.98905591 220.125 58 C220.12886719 59.23234375 220.13273438 60.4646875 220.13671875 61.734375 C220.13478516 63.53648437 220.13478516 63.53648437 220.1328125 65.375 C220.13168457 66.45523438 220.13055664 67.53546875 220.12939453 68.6484375 C219.98269846 72.44814254 219.47164651 76.2268279 219 80 C225.6 80 232.2 80 239 80 C238.67 77.36 238.34 74.72 238 72 C237.2206093 56.55625517 237.31922858 41.07245898 241 26 C241.18224121 25.25121582 241.36448242 24.50243164 241.55224609 23.73095703 C243.61797363 15.52844828 245.75976716 7.7981399 251 1 C253.85324437 -0.42662219 255.83454549 -0.31033868 259 0 C261.69990662 1.79993774 263.5418865 3.083773 265 6 C264.79417509 11.96892239 263.40332466 17.21781536 261.5625 22.875 C256.77837044 37.58713613 255.71430018 51.76754992 256.4375 67.1875 C256.48970703 68.42564453 256.54191406 69.66378906 256.59570312 70.93945312 C256.72398541 73.95991774 256.86107601 76.98000613 257 80 C264.59 80 272.18 80 280 80 C279.649375 77.463125 279.29875 74.92625 278.9375 72.3125 C276.48121374 51.59584094 277.40061888 20.85951699 290.03125 3.15234375 C292.42350228 0.53700445 293.29810517 0.07798831 296.8125 -0.3125 C300.82232894 0.08062048 302.28446644 1.05170642 305 4 C306.73175242 9.57172519 305.13553555 13.49997203 303.25 18.75 C296.50430822 38.94806034 295.74988325 58.90515548 298 80 C305.59 80 313.18 80 321 80 C320.67 79.34 320.34 78.68 320 78 C316.4953821 57.47573376 319.15144797 35.93740346 324.9375 16.125 C325.17807129 15.2985498 325.41864258 14.47209961 325.66650391 13.62060547 C327.16047693 8.82343527 328.78983121 4.89980581 332 1 C334.64593565 -0.2256521 337.10977136 -0.26379071 340 0 C342.99795835 1.33951331 344.52779875 2.0555975 346 5 C346.66063244 10.61537575 345.56119433 14.67150591 343.6875 20 C337.0627803 39.04754103 336.14980681 59.04864769 339 79 C350.88 79.495 350.88 79.495 363 80 C362.67 77.69 362.34 75.38 362 73 C360.98225912 52.39074708 362.14312918 33.32645829 368.375 13.625 C368.65480713 12.72579834 368.93461426 11.82659668 369.22290039 10.90014648 C370.90363647 5.93686389 372.2679983 2.74906765 377 0 C380.7822566 -0.6303761 382.45611204 -0.30215998 385.8125 1.5625 C388.71444838 4.79609962 388.78718872 6.67428502 389 11 C388.34947457 13.99573636 387.30463613 16.81296981 386.25 19.6875 C379.45697409 39.68547681 379.41178697 59.15470398 381 80 C388.59 80 396.18 80 404 80 C403.67 77.81375 403.34 75.6275 403 73.375 C399.98531411 51.4276082 402.13373287 23.85018877 413 4 C415.16908386 1.3850489 415.92407707 1.01968372 419.375 0.125 C423.40156711 -0.01384714 424.88811528 0.52879743 428 3 C431.11716085 9.2343217 428.16184704 16.55452405 426.125 22.6875 C420.18175435 41.74603848 420.02040746 60.20407459 422 80 C429.26 79.67 436.52 79.34 444 79 C443.67 76.36 443.34 73.72 443 71 C441.78571528 48.44190164 442.68098792 21.86937431 455 2 C457.92836217 0.1381401 458.95652602 -0.0022881 462.5625 0.1875 C465.89475039 0.97512282 467.05370761 1.29681613 469 4 C471.80681967 9.61363934 468.37434351 17.30296071 466.5625 22.875 C460.47787527 41.70350911 460.56571641 59.54584931 463 79 C464.64548828 79.05607422 464.64548828 79.05607422 466.32421875 79.11328125 C467.77867857 79.17896653 469.23310416 79.24541299 470.6875 79.3125 C471.40873047 79.33505859 472.12996094 79.35761719 472.87304688 79.38085938 C477.3421267 79.6053337 480.34483565 80.169519 484 83 C485.59616743 86.19233485 485.51466114 89.53461497 485 93 C483.12984906 95.43119623 481.71861655 96.64069173 479 98 C476.31124733 98.09952294 473.64829473 98.13740937 470.9591856 98.13142776 C469.69169078 98.13450672 469.69169078 98.13450672 468.39859 98.13764787 C465.53611337 98.14335149 462.67368435 98.1418565 459.811203 98.14044189 C457.75063961 98.1430236 455.69007671 98.14603622 453.62951452 98.1494453 C447.94289688 98.15754134 442.25629185 98.15930631 436.56966913 98.16004276 C430.44616694 98.1618888 424.32267136 98.16943382 418.19917297 98.17617798 C404.09939421 98.19048981 389.9996196 98.19629016 375.89983532 98.20086992 C368.9355527 98.20320422 361.9712709 98.20680667 355.00698893 98.2105653 C331.17768825 98.22340193 307.34838804 98.23412123 283.51908398 98.2375679 C282.02264198 98.23778954 280.52619999 98.23801132 279.029758 98.23823325 C277.52965648 98.2384539 276.02955497 98.23867438 274.52945346 98.2388947 C271.51987978 98.23933726 268.5103061 98.23978437 265.50073242 98.24023438 C264.38142975 98.24039846 264.38142975 98.24039846 263.23951491 98.24056586 C239.03691139 98.24419753 214.8343378 98.26012114 190.63174575 98.28342474 C165.05635531 98.30800521 139.48098199 98.3217399 113.90557939 98.32293582 C111.09955712 98.32310728 108.29353485 98.32332271 105.48751259 98.32357025 C104.4510949 98.3236539 104.4510949 98.3236539 103.39373948 98.32373925 C92.26100129 98.32489123 81.12829375 98.33592568 69.99556591 98.35045731 C58.81156269 98.36480374 47.62759833 98.36781671 36.44358488 98.36001733 C30.38129021 98.35609828 24.31909895 98.35710136 18.25681686 98.37107468 C12.71209041 98.38373859 7.16754587 98.38268259 1.62281994 98.37048396 C-0.38796482 98.36851387 -2.39876213 98.37166532 -4.40952919 98.38032833 C-7.13379743 98.39132645 -9.85741291 98.38400034 -12.58166218 98.3719368 C-13.37012814 98.37953199 -14.15859409 98.38712718 -14.97095296 98.39495254 C-19.48147358 98.35156007 -22.42166011 97.81464833 -26 95 C-27.59251643 91.81496713 -27.39129761 88.4667595 -27 85 C-25.25746655 81.76386646 -24.52814056 81.17604685 -21 80 C-19.66474283 79.92026524 -18.32587917 79.89228662 -16.98828125 79.90234375 C-15.85229492 79.90717773 -15.85229492 79.90717773 -14.69335938 79.91210938 C-13.51483398 79.92467773 -13.51483398 79.92467773 -12.3125 79.9375 C-11.51521484 79.94201172 -10.71792969 79.94652344 -9.89648438 79.95117188 C-7.93095743 79.9629415 -5.96546915 79.98087652 -4 80 C-2.66809238 57.34704156 -2.57235205 35.56911987 -11.140625 14.1484375 C-12.57061409 10.57346478 -12.45891836 7.37675509 -11.25 3.75 C-8.41979274 -0.21229016 -4.63559739 -0.6622282 0 0 Z " fill="#000000" transform="translate(27,390)"/>
<path d="M0 0 C3.38590104 3.28841829 5.78191137 6.84675502 8.03515625 10.9765625 C8.44894531 11.70230469 8.86273438 12.42804688 9.2890625 13.17578125 C13.78996996 22.41283523 13.60886287 34.38918286 10.41015625 44.0390625 C5.92441201 54.40646439 -1.91674298 62.40825015 -12.10546875 67.25 C-21.4863023 70.91561983 -34.37592571 70.26359458 -43.5390625 66.30078125 C-54.54709257 60.29156677 -61.18423294 51.86125187 -64.96484375 39.9765625 C-67.53075585 29.05019508 -65.74054721 18.58533849 -60.33984375 8.7890625 C-54.25287092 -0.68793233 -45.67086663 -6.9344024 -34.71484375 -9.3359375 C-21.6728255 -11.33823906 -10.16361392 -8.42486515 0 0 Z M-44.7734375 17.09765625 C-48.40577948 22.82603819 -48.79867415 28.35914253 -47.96484375 34.9765625 C-45.86127252 42.10419706 -42.35734023 46.1189665 -36.05078125 49.91796875 C-30.4592585 52.75561419 -25.24672416 52.69715631 -19.40234375 50.8515625 C-12.25217068 46.9514681 -8.04173108 42.82960861 -5.27734375 35.0390625 C-4.22885162 28.11901445 -5.23938493 22.86050442 -8.96484375 16.9765625 C-13.94167206 11.50101236 -18.73195561 8.02804835 -26.21484375 7.6015625 C-34.11273164 7.82496365 -39.84295101 11.04341215 -44.7734375 17.09765625 Z " fill="#000000" transform="translate(154.96484375,251.0234375)"/>
<path d="M0 0 C3.83084349 2.61193874 6.65161815 5.67823629 8.75 9.875 C9.25502343 15.40542052 9.48807257 20.28530524 7.125 25.375 C2.64381379 30.09203812 -1.53351336 32.69686973 -8.0625 33.125 C-13.72967664 33.02120556 -17.03993123 31.11257033 -21 27.0625 C-24.64726362 21.89554321 -25.75110437 17.92847615 -24.71875 11.7578125 C-23.31951922 6.13756887 -19.69561166 3.20920875 -15.25 -0.125 C-10.0828841 -1.84737197 -5.14400242 -1.78061622 0 0 Z " fill="#000000" transform="translate(320.25,265.125)"/>
<path d="M0 0 C3.95082202 3.55573982 5.09308574 8.90055271 5.375 14.0625 C5 18 5 18 3.5625 21 C0.30328438 23.54377805 -1.8193076 23.72435127 -5.87890625 23.484375 C-8 23 -8 23 -10.4375 20.875 C-13.55925759 15.13096604 -14.62612155 10.46992272 -14 4 C-10.00309055 -1.19598229 -6.19768381 -1.62896002 0 0 Z " fill="#000000" transform="translate(256,61)"/>
</svg>
