<?xml version="1.0" encoding="UTF-8"?>
<svg version="1.1" xmlns="http://www.w3.org/2000/svg" width="512" height="512">
<path d="M0 0 C3.88059184 1.31648698 7.43184568 3.11071175 11.0625 5 C13.26927089 6.10338545 15.4763169 7.20622079 17.68359375 8.30859375 C19.44678955 9.20167236 19.44678955 9.20167236 21.24560547 10.11279297 C27.29095997 13.16529894 33.39892313 16.09032755 39.49755859 19.03442383 C41.62583018 20.06290118 43.75262157 21.0943749 45.87890625 22.12695312 C53.13603205 25.65107916 60.40086528 29.15766171 67.68383789 32.62817383 C71.3035372 34.35314121 74.91910132 36.08666252 78.53417969 37.82128906 C80.17078615 38.60361936 81.80945124 39.38165836 83.45019531 40.15527344 C85.70148972 41.21737978 87.94508889 42.294295 90.1875 43.375 C90.82953369 43.67277344 91.47156738 43.97054687 92.13305664 44.27734375 C96.16594687 46.24552216 98.84239925 48.02744477 101 52 C102.92923155 60.77529511 98.70952576 68.19892242 94.9375 75.875 C94.37611328 77.06480469 93.81472656 78.25460938 93.23632812 79.48046875 C82.4080376 102.12706493 70.06562863 118.36005868 45.99609375 127.140625 C43 128 43 128 40.69171143 128.2220459 C35.54182786 128.77700737 35.54182786 128.77700737 31.42835999 131.64813232 C30.1310294 133.8855127 29.10486159 136.1269565 28.11328125 138.515625 C27.72230759 139.36421082 27.33133392 140.21279663 26.92851257 141.08709717 C25.68725539 143.7934705 24.49741588 146.51854588 23.3125 149.25 C22.11030909 151.96331665 20.89747772 154.67065245 19.66435242 157.37005615 C18.90112432 159.04637538 18.15627709 160.73123198 17.4334259 162.425354 C15.04654656 167.73970392 12.19257396 172.07285267 7 175 C5.68 175 4.36 175 3 175 C2.88374268 175.72147217 2.76748535 176.44294434 2.64770508 177.1862793 C1.97722883 180.09892112 0.99081307 182.36079914 -0.36328125 185.01953125 C-0.83830078 185.95990234 -1.31332031 186.90027344 -1.80273438 187.86914062 C-2.30095703 188.84044922 -2.79917969 189.81175781 -3.3125 190.8125 C-4.04243164 192.25206055 -4.04243164 192.25206055 -4.78710938 193.72070312 C-5.74282285 195.60511799 -6.7037974 197.48687529 -7.67041016 199.36572266 C-8.5120101 201.03315992 -9.3277755 202.71410816 -10.10693359 204.41162109 C-11.90578222 208.30751378 -12.92791275 210.4942868 -17 212 C-20.68060775 211.87085587 -23.0716765 211.77859391 -25.9375 209.375 C-27.92290125 204.93704426 -27.378945 201.01927855 -25.71484375 196.54321289 C-25.12832031 195.3649292 -24.54179687 194.18664551 -23.9375 192.97265625 C-23.62675537 192.33887558 -23.31601074 191.70509491 -22.99584961 191.05210876 C-22.01003182 189.0489316 -21.00548061 187.05586772 -20 185.0625 C-19.32425556 183.69789145 -18.64976342 182.33266201 -17.9765625 180.96679688 C-16.33212533 177.63722963 -14.67076235 174.31645057 -13 171 C-14.13179688 170.43410156 -15.26359375 169.86820313 -16.4296875 169.28515625 C-21.28645833 166.85677083 -26.14322917 164.42838542 -31 162 C-31.34526733 163.17381226 -31.34526733 163.17381226 -31.69750977 164.37133789 C-33.40137749 169.11821438 -35.60271566 173.54326206 -37.83984375 178.05859375 C-38.32143448 179.03876968 -38.80302521 180.01894562 -39.29920959 181.02882385 C-40.84173234 184.16682304 -42.38934082 187.30227832 -43.9375 190.4375 C-45.94843409 194.51863713 -47.95726275 198.6008062 -49.96484375 202.68359375 C-50.46371597 203.69803055 -50.9625882 204.71246735 -51.47657776 205.75764465 C-54.99701881 212.92802918 -58.47957279 220.11582966 -61.9296875 227.3203125 C-62.36421738 228.22643784 -62.79874725 229.13256317 -63.2464447 230.06614685 C-67.65743561 239.30528605 -71.84878345 248.64182541 -76 258 C-75.13117188 258.27585937 -74.26234375 258.55171875 -73.3671875 258.8359375 C-70.18070558 259.9375287 -67.18220048 261.20824856 -64.125 262.625 C-63.15820312 263.07101562 -62.19140625 263.51703125 -61.1953125 263.9765625 C-60.47085937 264.31429688 -59.74640625 264.65203125 -59 265 C-56.90436739 261.85655109 -55.27546017 258.60251128 -53.62890625 255.21484375 C-52.96585386 253.86635985 -52.30243112 252.51805799 -51.63867188 251.16992188 C-50.59707093 249.04956389 -49.55794429 246.92812805 -48.52514648 244.8034668 C-47.52534026 242.7494318 -46.51549318 240.70059698 -45.50390625 238.65234375 C-45.19755753 238.01586411 -44.8912088 237.37938446 -44.57557678 236.72361755 C-42.97622835 233.50569439 -42.06259417 232.04172945 -39 230 C-35.16306413 229.58142518 -32.88796936 229.45355731 -29.5625 231.5 C-27.40551468 234.95117651 -27.51065206 238.07308297 -28 242 C-28.89939491 244.78831036 -30.17306756 247.3057528 -31.53515625 249.89453125 C-31.89266464 250.60856613 -32.25017303 251.32260101 -32.61851501 252.05827332 C-33.75161497 254.3175902 -34.90513136 256.56553114 -36.0625 258.8125 C-37.22122477 261.07827441 -38.37508214 263.34608974 -39.51719666 265.62028503 C-40.22588577 267.0300068 -40.94446847 268.43480746 -41.67384338 269.8339386 C-42.52498207 271.51980341 -43.27180448 273.25749935 -44 275 C-43.67 275.99 -43.34 276.98 -43 278 C-41.77178867 287.21158494 -45.88411404 294.03072081 -50 302 C-49.15832275 302.26192139 -48.31664551 302.52384277 -47.44946289 302.79370117 C-43.78270976 304.07598776 -40.30722336 305.62692194 -36.80859375 307.30078125 C-36.14086441 307.61903366 -35.47313507 307.93728607 -34.78517151 308.2651825 C-33.3816088 308.93640167 -31.97902891 309.6096795 -30.57739258 310.28491211 C-28.44498279 311.30890672 -26.30575524 312.31760245 -24.16601562 313.32617188 C-22.79642713 313.98344257 -21.42727144 314.64161602 -20.05859375 315.30078125 C-19.42513535 315.5968074 -18.79167694 315.89283356 -18.13902283 316.1978302 C-13.9975415 318.22052225 -11.01132004 320.51319014 -8 324 C-5.62885751 331.11342747 -7.35908715 335.5196119 -10.55541992 342.03076172 C-11.07338135 343.05186035 -11.59134277 344.07295898 -12.125 345.125 C-13.22814077 347.35923865 -14.33099351 349.59361954 -15.43359375 351.828125 C-16.01608887 352.99666016 -16.59858398 354.16519531 -17.19873047 355.36914062 C-19.94811337 360.8944236 -22.61740058 366.45850281 -25.29382324 372.01937866 C-26.18298246 373.86561982 -27.07408006 375.71091247 -27.96582031 377.5559082 C-32.69644851 387.34588866 -37.36913587 397.16247647 -42 407 C-41.29391602 406.98952637 -40.58783203 406.97905273 -39.86035156 406.96826172 C-36.65693734 406.9266521 -33.45358004 406.90065796 -30.25 406.875 C-29.13882812 406.85824219 -28.02765625 406.84148437 -26.8828125 406.82421875 C-25.81289063 406.81777344 -24.74296875 406.81132812 -23.640625 406.8046875 C-22.65610352 406.79421387 -21.67158203 406.78374023 -20.65722656 406.77294922 C-17.90757787 407.00789715 -16.31697749 407.53537194 -14 409 C-11.9184098 411.67633026 -12.00412409 413.11753668 -12.125 416.5625 C-13 420 -13 420 -14.73070526 421.69103432 C-17.43974514 423.25365207 -19.06906485 423.37707915 -22.18371582 423.38095093 C-23.23205597 423.3894104 -24.28039612 423.39786987 -25.36050415 423.40658569 C-26.50546356 423.400513 -27.65042297 423.39444031 -28.83007812 423.38818359 C-30.64546585 423.39606903 -30.64546585 423.39606903 -32.49752808 423.40411377 C-35.81637029 423.41505959 -39.13465173 423.41248488 -42.4534626 423.40297651 C-45.93655258 423.39536756 -49.41961901 423.40243023 -52.90270996 423.40713501 C-58.76037883 423.41259478 -64.6179343 423.40540127 -70.47558594 423.39111328 C-77.22153403 423.37484719 -83.96720923 423.38003006 -90.7131505 423.3965925 C-96.52061287 423.41027422 -102.32799374 423.41209278 -108.13546705 423.40427649 C-111.59662805 423.3996286 -115.05766157 423.39889344 -118.51881409 423.40888596 C-122.39090271 423.41928273 -126.26269474 423.40480999 -130.13476562 423.38818359 C-131.82791397 423.39729263 -131.82791397 423.39729263 -133.55526733 423.40658569 C-149.83621736 423.27797573 -162.71278451 417.81306193 -174.52734375 406.59765625 C-183.59042916 397.07640539 -190.78178009 386.05817976 -198.22363281 375.27026367 C-202.86528307 368.56473282 -207.52888729 362.06286494 -213 356 C-213.77214844 355.1234375 -214.54429687 354.246875 -215.33984375 353.34375 C-225.435851 342.4981182 -237.47786168 337.82739396 -252.1171875 336.97265625 C-272.26275864 337.11452647 -290.94539211 345.80342637 -305 360 C-310.20717306 365.59213916 -313.23038511 371.23351436 -315.859375 378.3984375 C-317.00704865 381.01607671 -317.80109039 382.23173548 -320 384 C-321.89428711 384.30883789 -321.89428711 384.30883789 -324.02734375 384.22265625 C-324.81399414 384.20235352 -325.60064453 384.18205078 -326.41113281 384.16113281 C-327.24483398 384.12858398 -328.07853516 384.09603516 -328.9375 384.0625 C-343.2911006 383.57128662 -343.2911006 383.57128662 -356.484375 388.4453125 C-362.57942033 394.69744663 -364.96961479 404.19352836 -367.00048828 412.47949219 C-368.41391027 417.68327765 -370.41073948 420.20308892 -375 423 C-377.93170583 423.61368604 -380.76230063 423.65574819 -383.75 423.625 C-386.54846465 423.625 -389.20271324 423.7462377 -392 424 C-394.23437585 427.35156377 -394.24871937 428.42932347 -394.24291992 432.34179688 C-394.24599655 433.43302856 -394.24907318 434.52426025 -394.25224304 435.64855957 C-394.24505753 436.82672241 -394.23787201 438.00488525 -394.23046875 439.21875 C-394.23001053 440.42817261 -394.22955231 441.63759521 -394.2290802 442.88366699 C-394.22605719 445.44247416 -394.21816947 448.00127948 -394.20581055 450.56005859 C-394.18757382 454.48411556 -394.18530073 458.40793636 -394.18554688 462.33203125 C-394.18063095 464.81510621 -394.1748023 467.29817957 -394.16796875 469.78125 C-394.16685593 470.95941284 -394.1657431 472.13757568 -394.16459656 473.35144043 C-394.15821671 474.44267212 -394.15183685 475.53390381 -394.14526367 476.65820312 C-394.14145187 477.61956177 -394.13764008 478.58092041 -394.13371277 479.57141113 C-394.0992176 482.14167407 -394.0992176 482.14167407 -393 485 C-389.93254278 486.53372861 -386.7223683 486.13628226 -383.3568573 486.12584114 C-382.55485968 486.12729458 -381.75286206 486.12874802 -380.92656147 486.13024551 C-378.21038114 486.13392596 -375.4942562 486.13040966 -372.77807617 486.12698364 C-370.82261978 486.12813465 -368.8671636 486.12972204 -366.91170788 486.13171089 C-361.515736 486.13590695 -356.11978168 486.13381227 -350.72380972 486.13072467 C-344.91325349 486.12847192 -339.10270039 486.13194956 -333.29214478 486.13470459 C-321.9003673 486.13916262 -310.5085964 486.13818567 -299.11681867 486.13529195 C-289.86249567 486.13303805 -280.60817451 486.13272534 -271.35385132 486.13381577 C-269.38184212 486.13404561 -269.38184212 486.13404561 -267.36999434 486.13428011 C-265.36908477 486.13451967 -263.3681752 486.13475925 -261.36726562 486.135007 C-236.3447441 486.1380684 -211.32222616 486.13528873 -186.29970519 486.1299101 C-164.05168956 486.12516423 -141.80367965 486.12558885 -119.55566406 486.13037109 C-94.5799275 486.13572168 -69.60419412 486.13785132 -44.62845707 486.13475883 C-41.96768761 486.13444026 -39.30691814 486.13412589 -36.64614868 486.13381577 C-35.33683181 486.13366149 -34.02751495 486.13350721 -32.67852181 486.13334826 C-23.43007944 486.13248307 -14.18163908 486.13394604 -4.93319702 486.13629532 C6.33003947 486.13909337 17.59326899 486.13835496 28.85650468 486.13301457 C34.60852712 486.13037763 40.36053791 486.12937239 46.11256027 486.13266373 C51.37026156 486.13562681 56.62794032 486.13403365 61.88563955 486.12868617 C63.79542753 486.12756204 65.70521739 486.12815308 67.61500418 486.13056196 C70.19564958 486.13356924 72.77621614 486.13051797 75.3568573 486.12584114 C76.11149132 486.12818231 76.86612533 486.13052347 77.64362705 486.13293558 C81.44804699 486.18389873 81.44804699 486.18389873 85 485 C86.0181159 481.94565229 86.13258439 479.85599617 86.14526367 476.65820312 C86.15164352 475.56697144 86.15802338 474.47573975 86.16459656 473.35144043 C86.16570938 472.17327759 86.1668222 470.99511475 86.16796875 469.78125 C86.17129715 468.57182739 86.17462555 467.36240479 86.17805481 466.11633301 C86.18312064 463.55753968 86.18546324 460.99873974 86.18530273 458.43994141 C86.18749117 454.51584056 86.20565617 450.5920199 86.22460938 446.66796875 C86.22754291 444.1848968 86.22952797 441.70182351 86.23046875 439.21875 C86.24124702 437.45150574 86.24124702 437.45150574 86.25224304 435.64855957 C86.24916641 434.55732788 86.24608978 433.46609619 86.24291992 432.34179688 C86.24505745 430.89975891 86.24505745 430.89975891 86.24723816 429.42858887 C86.16482204 426.74069014 86.16482204 426.74069014 84 424 C80.87502652 423.54091282 80.87502652 423.54091282 77.13525391 423.61523438 C76.42937637 423.6098616 75.72349884 423.60448883 74.99623108 423.59895325 C73.46134812 423.58915929 71.92640969 423.58623599 70.39149857 423.58930969 C67.96201296 423.59377675 65.5332601 423.57981931 63.10385132 423.56091309 C57.94424633 423.52406949 52.78471718 423.51041448 47.625 423.5 C41.65346795 423.48792901 35.68229096 423.46639706 29.71091843 423.41999817 C27.31776809 423.40641295 24.92506475 423.41060205 22.53189087 423.41540527 C21.06243316 423.40606401 19.59298041 423.39589502 18.12353516 423.38476562 C16.84161285 423.38271118 15.55969055 423.38065674 14.23892212 423.37854004 C10.78707716 422.97511523 9.3772827 422.49741123 7 420 C6.12718851 416.57109774 5.67077171 414.10740423 6.6875 410.6875 C8.34240494 408.55976507 9.47252776 407.97516427 12 407 C15.23651123 406.73930359 15.23651123 406.73930359 19.12011719 406.7253418 C20.18436417 406.7176754 20.18436417 406.7176754 21.27011108 406.70985413 C23.61245192 406.69597092 25.95449793 406.69691454 28.296875 406.69921875 C29.93109241 406.69532983 31.56530882 406.69099475 33.19952393 406.68623352 C36.62588779 406.6787731 40.05214863 406.67906034 43.47851562 406.68432617 C47.85417287 406.69010683 52.2294049 406.67322318 56.60499191 406.6499815 C59.98177529 406.63519349 63.35845761 406.63437956 66.73526764 406.63749123 C68.34749439 406.6369801 69.95972712 406.63178182 71.5719223 406.62167931 C89.91065939 406.52090405 89.91065939 406.52090405 96.27734375 411.9375 C96.82519531 412.618125 97.37304688 413.29875 97.9375 414 C98.50339844 414.680625 99.06929688 415.36125 99.65234375 416.0625 C102.23568221 419.77651704 102.14033817 423.07600111 102.17700195 427.47167969 C102.18357315 428.12411652 102.19014435 428.77655334 102.19691467 429.44876099 C102.21661281 431.60646691 102.22830345 433.76410327 102.23828125 435.921875 C102.24235678 436.66060097 102.2464323 437.39932693 102.25063133 438.16043854 C102.27147892 442.07179991 102.28578532 445.98312636 102.29516602 449.89453125 C102.30621763 453.92401064 102.34060618 457.95293586 102.38033772 461.9822197 C102.40655048 465.08958933 102.41486202 468.19682794 102.41844749 471.3042984 C102.42330279 472.78899114 102.43488664 474.27367845 102.45348549 475.75826263 C102.55679835 484.55264295 102.60228976 490.98136618 96.40234375 497.7421875 C91.20737526 501.7596298 87.43426573 502.14650492 81.06036758 502.13422108 C79.82749663 502.13774942 79.82749663 502.13774942 78.5697192 502.14134905 C75.79176668 502.14805178 73.01386081 502.14758044 70.23590088 502.14717102 C68.23364686 502.15046884 66.2313935 502.15419424 64.229141 502.1583125 C58.70826747 502.16834975 53.18740482 502.17205206 47.66652346 502.17470181 C41.71955177 502.17859971 35.77258873 502.18817834 29.82562256 502.19691467 C16.1345414 502.21575777 2.44345868 502.22593688 -11.24763189 502.23437535 C-18.01149996 502.23858063 -24.77536715 502.24380277 -31.53923448 502.24905988 C-54.6872553 502.26695014 -77.83527637 502.28194695 -100.98330307 502.28938007 C-102.43673011 502.28985483 -103.89015715 502.29033072 -105.34358419 502.29080774 C-106.06436098 502.29104411 -106.78513776 502.29128049 -107.52775626 502.29152403 C-111.17963699 502.29272524 -114.83151772 502.29394068 -118.48339844 502.29516602 C-119.5704928 502.29552624 -119.5704928 502.29552624 -120.67954867 502.29589374 C-144.1824746 502.30378849 -167.6853501 502.32722389 -191.18825401 502.35972196 C-216.02996294 502.3940086 -240.87164235 502.4137301 -265.71337533 502.41702431 C-268.43965675 502.41744186 -271.16593815 502.41792143 -273.89221954 502.41844749 C-274.89916905 502.41863228 -274.89916905 502.41863228 -275.92646097 502.4188208 C-286.73610992 502.42115421 -297.54570034 502.43682194 -308.35532841 502.45728934 C-319.21775464 502.47753065 -330.08010711 502.48269885 -340.94254848 502.47351871 C-346.82893311 502.46896123 -352.71512745 502.47094424 -358.60148621 502.49028015 C-363.98780616 502.50782113 -369.37379573 502.50698804 -374.76011875 502.49138286 C-376.71101953 502.48899297 -378.66194265 502.49340132 -380.61280915 502.50521151 C-383.26127775 502.52025459 -385.90856422 502.51071082 -388.55700302 502.49498463 C-389.31746827 502.50520683 -390.07793351 502.51542904 -390.86144316 502.52596101 C-396.96290875 502.44668862 -401.17071378 500.59456965 -405.7421875 496.40234375 C-409.46567056 491.58749497 -410.12650094 488.51395562 -410.16113281 482.51245117 C-410.16609772 481.85840805 -410.17106262 481.20436493 -410.17617798 480.53050232 C-410.19077549 478.36798039 -410.19759797 476.20553185 -410.203125 474.04296875 C-410.20887897 472.53705341 -410.21463668 471.03113809 -410.22039795 469.52522278 C-410.23090145 466.36699076 -410.23674819 463.20878414 -410.24023438 460.05053711 C-410.24571408 456.01209308 -410.26973337 451.97398707 -410.29820633 447.93564892 C-410.31687105 444.8240309 -410.32204037 441.71249362 -410.32357025 438.60082436 C-410.32658928 437.11253323 -410.33459246 435.62424328 -410.34775543 434.13600731 C-410.36489499 432.04899093 -410.36291691 429.96279148 -410.35644531 427.87573242 C-410.36009094 426.69009201 -410.36373657 425.5044516 -410.36749268 424.28288269 C-409.78366108 419.06740285 -407.70433256 415.11121161 -403.6875 411.75 C-396.91134817 406.3796888 -390.33731987 406.75716544 -382 407 C-381.90203125 406.32195312 -381.8040625 405.64390625 -381.703125 404.9453125 C-379.84239238 393.36385604 -376.30998314 382.62684417 -366.67578125 375.2109375 C-359.62756217 370.718666 -352.775303 367.90258747 -344.35546875 367.98828125 C-335.41226128 368.54956616 -335.41226128 368.54956616 -327.828125 364.91796875 C-326.44452163 362.17983974 -326.44452163 362.17983974 -325.3671875 359.18359375 C-323.70531724 355.31381014 -321.50202311 352.77262242 -318.625 349.75 C-317.90389038 348.99021851 -317.90389038 348.99021851 -317.16821289 348.21508789 C-310.46352337 341.27358815 -303.66407358 335.39645369 -295 331 C-294.34 331 -293.68 331 -293 331 C-293 303.61 -293 276.22 -293 248 C-296.3 248 -299.6 248 -303 248 C-306.99892889 247.73214984 -310.96036426 247.24175547 -314.9375 246.75 C-315.94490234 246.64042969 -316.95230469 246.53085938 -317.99023438 246.41796875 C-329.46013637 245.01650163 -338.33910444 241.70589187 -347 234 C-347.92425781 233.24976563 -347.92425781 233.24976563 -348.8671875 232.484375 C-355.53529417 226.61644113 -361.50737045 215.93930912 -362.14717102 206.9269104 C-362.16193733 205.82154434 -362.16193733 205.82154434 -362.17700195 204.69384766 C-362.18983719 203.8526236 -362.20267242 203.01139954 -362.21589661 202.14468384 C-362.22328354 201.2435788 -362.23067047 200.34247375 -362.23828125 199.4140625 C-362.246353 198.4795224 -362.25442474 197.5449823 -362.26274109 196.5821228 C-362.27655512 194.6068506 -362.28728923 192.6315548 -362.29516602 190.65625 C-362.30670194 188.63892614 -362.32717907 186.62163318 -362.35668945 184.60449219 C-362.39937463 181.68663836 -362.41553499 178.76968982 -362.42578125 175.8515625 C-362.44328934 174.95450592 -362.46079742 174.05744934 -362.47883606 173.13320923 C-362.45970952 167.59230539 -361.75040186 164.36503331 -358 160 C-351.13686862 155.41824193 -343.76190559 157.19091248 -336 158 C-335.04512695 158.09055664 -334.09025391 158.18111328 -333.10644531 158.27441406 C-318.23996623 159.70852522 -306.52802591 161.44826057 -294 170 C-291.94006799 155.38623299 -291.94006799 155.38623299 -297.09375 142.19140625 C-300.16917062 138.77937437 -303.53901557 135.74894315 -307.03051758 132.77050781 C-318.17749037 122.74970123 -327.26978554 109.49189974 -328.23828125 94.25 C-328.71790553 75.89680963 -323.07936028 63.1248227 -310.5625 49.875 C-309.29475246 48.55817627 -308.02524835 47.24304116 -306.75390625 45.9296875 C-303.5530946 42.61975254 -300.50553347 39.2016984 -297.50341797 35.71118164 C-293.70959317 31.39307218 -290.75006546 29.60011221 -285.16015625 28.78515625 C-274.59830853 29.83561127 -266.39624597 42.4432537 -260 50 C-259.18273437 50.928125 -258.36546875 51.85625 -257.5234375 52.8125 C-245.6913805 66.39307209 -241.95342391 78.94929207 -242.80908203 96.74414062 C-244.17170493 112.84469767 -255.8124591 124.32180364 -266.41162109 135.33056641 C-268.98578195 138.03608622 -271.4300007 140.84801089 -273.86328125 143.6796875 C-275 145 -275 145 -276 146 C-276.12363297 147.96287766 -276.1779544 149.93015158 -276.20532227 151.89672852 C-276.22526749 153.15796036 -276.24521271 154.4191922 -276.26576233 155.71864319 C-276.28274795 157.10539627 -276.29962671 158.49215066 -276.31640625 159.87890625 C-276.33696926 161.2899589 -276.35796555 162.70100529 -276.37937927 164.11204529 C-276.43466755 167.8323359 -276.48404686 171.55268273 -276.53222656 175.27307129 C-276.58239242 179.06686425 -276.63810408 182.86057523 -276.69335938 186.65429688 C-276.80102351 194.10279523 -276.90244997 201.55136159 -277 209 C-276.26222321 208.51594193 -275.52444641 208.03188385 -274.76431274 207.53315735 C-273.78715302 206.90000107 -272.80999329 206.26684479 -271.80322266 205.61450195 C-270.83857086 204.98606888 -269.87391907 204.3576358 -268.8800354 203.7101593 C-260.83883809 198.93531231 -251.76472738 198.2500393 -242.625 197.3125 C-241.48289063 197.18294922 -240.34078125 197.05339844 -239.1640625 196.91992188 C-219.59117476 194.81806063 -219.59117476 194.81806063 -213.4375 197.625 C-209.07377853 201.87683118 -207.66507686 205.93578039 -207.5831604 212.01321411 C-207.59226944 213.12429031 -207.59226944 213.12429031 -207.6015625 214.2578125 C-207.59725723 215.43426834 -207.59725723 215.43426834 -207.59286499 216.63449097 C-207.59083094 218.29018884 -207.5963146 219.94591111 -207.60888672 221.6015625 C-207.62482071 224.09692235 -207.60908396 226.59063044 -207.58984375 229.0859375 C-207.56758165 245.22766985 -210.21323674 258.98097328 -221.5 271.25 C-237.26781164 285.94326447 -256.51372032 285.63424802 -277 287 C-277 299.21 -277 311.42 -277 324 C-273.37 323.01 -269.74 322.02 -266 321 C-247.26347444 318.30526804 -228.91423931 321.44986093 -213 332 C-209.09407259 335.05937693 -205.37893023 338.36617948 -202 342 C-202 342.66 -202 343.32 -202 344 C-201.34 344 -200.68 344 -200 344 C-199.94457031 343.07960938 -199.88914063 342.15921875 -199.83203125 341.2109375 C-199.01241755 335.55716012 -196.21207714 330.6835846 -193.6875 325.625 C-192.58567945 323.37512636 -191.4841242 321.12512277 -190.3828125 318.875 C-189.81852539 317.7303125 -189.25423828 316.585625 -188.67285156 315.40625 C-186.59621483 311.17781513 -184.55742469 306.93202205 -182.52514648 302.68212891 C-181.54869183 300.64120666 -180.56902559 298.6018179 -179.58618164 296.56396484 C-177.1695674 291.55251648 -174.7749036 286.53296634 -172.43864441 281.48361206 C-171.28892426 279.00283284 -170.12791234 276.52741831 -168.96578979 274.0524292 C-168.14639517 272.29586555 -167.34262978 270.53203787 -166.53930664 268.76806641 C-161.42201603 257.90045195 -161.42201603 257.90045195 -156 255 C-147.96155185 253.30591375 -141.68429517 256.48084807 -134.6875 260.125 C-132.66956307 261.13469884 -130.65133537 262.1438168 -128.6328125 263.15234375 C-127.66891602 263.64202637 -126.70501953 264.13170898 -125.71191406 264.63623047 C-122.19699675 266.40381492 -118.6420917 268.05504884 -115.0625 269.6875 C-114.06347656 270.14511719 -113.06445312 270.60273438 -112.03515625 271.07421875 C-111.36355469 271.37972656 -110.69195312 271.68523437 -110 272 C-109.40832031 270.87980469 -108.81664062 269.75960938 -108.20703125 268.60546875 C-107.40953392 267.13244428 -106.61131896 265.65980817 -105.8125 264.1875 C-105.42513672 263.44951172 -105.03777344 262.71152344 -104.63867188 261.95117188 C-102.34760755 257.76666596 -100.61229312 254.86110073 -96 253 C-94.68 253 -93.36 253 -92 253 C-91.6184375 251.74445313 -91.236875 250.48890625 -90.84375 249.1953125 C-88.93217877 243.47176453 -86.25675097 238.23055849 -83.5 232.875 C-82.41241875 230.7313019 -81.32651957 228.58674969 -80.2421875 226.44140625 C-79.6965918 225.36262207 -79.15099609 224.28383789 -78.58886719 223.17236328 C-75.74372858 217.49170394 -73.02211675 211.75327165 -70.29589844 206.01489258 C-67.70127384 200.55625866 -65.08794631 195.10743522 -62.4453125 189.671875 C-54.8444356 174.09849548 -54.8444356 174.09849548 -47.5625 158.375 C-47.02753906 157.18648437 -46.49257813 155.99796875 -45.94140625 154.7734375 C-44.67623012 151.96401422 -44.67623012 151.96401422 -46 149 C-46.79783228 141.53694384 -44.3669235 136.68857215 -41 130.125 C-40.00239925 128.07692272 -39.00500575 126.02874447 -38.0078125 123.98046875 C-36.16551993 120.26685713 -34.25105149 116.61405364 -32.2421875 112.98828125 C-27.75283954 105.01259549 -27.75283954 105.01259549 -27.96484375 96.234375 C-29.23207614 93.80171747 -30.48598756 91.57141726 -31.9609375 89.28125 C-39.16032971 77.69602115 -38.47939081 61.43884442 -35.49609375 48.59375 C-33.33427027 39.93841127 -29.72131988 32.07932834 -25.76464844 24.11401367 C-24.61200229 21.78625121 -23.49251978 19.44440534 -22.375 17.09960938 C-21.6399246 15.59281977 -20.90301226 14.0869246 -20.1640625 12.58203125 C-19.67155502 11.54765678 -19.67155502 11.54765678 -19.1690979 10.49238586 C-14.92675332 2.07609633 -9.57432251 -1.70641792 0 0 Z M-4 17 C-5.00460531 19.12282669 -6.00355602 21.24833021 -7 23.375 C-7.556875 24.55835938 -8.11375 25.74171875 -8.6875 26.9609375 C-10.13216041 29.75428575 -10.13216041 29.75428575 -10 32 C13.67470486 43.50986154 13.67470486 43.50986154 37.41137695 54.89111328 C42.19536014 57.16969241 46.96879631 59.46804863 51.72869873 61.79644775 C54.40823185 63.10712677 57.0897096 64.41380513 59.77111816 65.72064209 C61.08132926 66.3607955 62.3905108 67.00306081 63.6986084 67.64752197 C65.52046716 68.54497694 67.34609504 69.43476818 69.171875 70.32421875 C70.7511377 71.0989856 70.7511377 71.0989856 72.36230469 71.8894043 C74.98382387 73.19402659 74.98382387 73.19402659 78 73 C79.98 68.71 81.96 64.42 84 60 C81.42532363 57.42532363 80.02628659 56.33445831 76.89355469 54.81445312 C76.0663089 54.4093602 75.23906311 54.00426727 74.38674927 53.5868988 C73.49084076 53.1560347 72.59493225 52.72517059 71.671875 52.28125 C70.27230057 51.59924278 70.27230057 51.59924278 68.8444519 50.90345764 C65.81587006 49.42957711 62.78306313 47.96463335 59.75 46.5 C57.677348 45.49386872 55.60491955 44.48727679 53.53271484 43.48022461 C47.69271061 40.64468715 41.84730448 37.82044661 36 35 C35.27760132 34.65124817 34.55520264 34.30249634 33.81091309 33.94317627 C27.62896544 30.95891487 21.44016379 27.98998853 15.23388672 25.05664062 C12.9466307 23.97475603 10.66274646 22.88594873 8.37890625 21.796875 C6.98198359 21.13496748 5.58486254 20.4734784 4.1875 19.8125 C3.02605469 19.26207031 1.86460937 18.71164063 0.66796875 18.14453125 C-1.8224847 16.86858531 -1.8224847 16.86858531 -4 17 Z M-18 46 C-22.5530278 59.03575222 -22.61884756 72.2725816 -17 85 C-15.24326087 87.89655059 -13.41616226 90.65228672 -11.390625 93.3671875 C-9.54255695 96.86605792 -9.69049396 99.05752469 -10 103 C-11.03194829 105.67303148 -12.08660438 108.06097244 -13.39453125 110.5859375 C-13.74255295 111.28715729 -14.09057465 111.98837708 -14.44914246 112.71084595 C-15.55730423 114.93900111 -16.68360207 117.15728907 -17.8125 119.375 C-19.28524714 122.29557037 -20.74964937 125.2201706 -22.20703125 128.1484375 C-22.55299347 128.84201355 -22.89895569 129.5355896 -23.25540161 130.25018311 C-25.6243153 135.06428905 -27.5237267 139.83012593 -29 145 C-24.9387898 146.96101632 -20.87581157 148.91834198 -16.8125 150.875 C-15.66201172 151.43058594 -14.51152344 151.98617187 -13.32617188 152.55859375 C-11.65844727 153.36103516 -11.65844727 153.36103516 -9.95703125 154.1796875 C-8.93585205 154.67194824 -7.91467285 155.16420898 -6.86254883 155.67138672 C-4.27009045 156.87464117 -1.66466285 157.96837952 1 159 C1.25420715 158.46573395 1.50841431 157.9314679 1.77032471 157.38101196 C4.41626687 151.82627542 7.07929547 146.27997595 9.75244141 140.73828125 C10.74807163 138.66846112 11.73931151 136.5965232 12.72607422 134.52246094 C14.14445032 131.54315838 15.57839329 128.57180575 17.015625 125.6015625 C17.45432922 124.67131256 17.89303345 123.74106262 18.34503174 122.78262329 C18.76516541 121.92188202 19.18529907 121.06114075 19.61816406 120.17431641 C19.98234436 119.41486725 20.34652466 118.65541809 20.72174072 117.87295532 C22.25482528 115.62662006 23.47510956 114.94986419 26 114 C28.15912483 113.67446185 30.32784765 113.41009669 32.5 113.1875 C47.53194679 111.15826523 57.62348142 104.18922347 67.46875 93.015625 C69.18541326 90.98055639 69.18541326 90.98055639 70 88 C69.14664063 87.57332031 68.29328125 87.14664063 67.4140625 86.70703125 C66.5331897 86.26653442 66.5331897 86.26653442 65.63452148 85.81713867 C64.25655828 85.12824077 62.8784588 84.43961541 61.50024414 83.7512207 C56.982648 81.49410026 52.46840848 79.2304647 47.95703125 76.9609375 C34.64770547 70.27342331 21.28416393 63.72251104 7.82421875 57.34375 C4.86755138 55.93698157 1.91760725 54.51681143 -1.03125 53.09375 C-2.00215576 52.62670654 -2.97306152 52.15966309 -3.97338867 51.6784668 C-5.8264669 50.78690495 -7.67825587 49.89265704 -9.52856445 48.99536133 C-10.3505835 48.6011499 -11.17260254 48.20693848 -12.01953125 47.80078125 C-13.10391479 47.27738159 -13.10391479 47.27738159 -14.21020508 46.7434082 C-15.98482735 45.87213784 -15.98482735 45.87213784 -18 46 Z M-286 47 C-289.56383244 50.64015834 -292.97449016 54.41806279 -296.38232422 58.20410156 C-297.41058452 59.34564741 -298.44300801 60.48346736 -299.48095703 61.61621094 C-308.29296153 71.27463571 -312.86637822 79.57573874 -312.37890625 92.86328125 C-311.28890306 101.8867097 -306.8040611 108.2547398 -301 115 C-300.34902344 115.77214844 -299.69804687 116.54429688 -299.02734375 117.33984375 C-296.56936774 120.22046445 -296.56936774 120.22046445 -294 123 C-293.67 123 -293.34 123 -293 123 C-292.9906543 121.83428467 -292.98130859 120.66856934 -292.97167969 119.4675293 C-292.93182818 115.1453622 -292.86608352 110.82391058 -292.79248047 106.50219727 C-292.76424263 104.63119696 -292.7430421 102.76007674 -292.72900391 100.88891602 C-292.70761283 98.20005779 -292.66098455 95.51264562 -292.609375 92.82421875 C-292.60814636 91.98662521 -292.60691772 91.14903168 -292.60565186 90.28605652 C-292.45998819 84.51980645 -292.45998819 84.51980645 -290.18457031 81.94848633 C-286.7714561 80.46659667 -284.51660803 80.97698675 -281 82 C-277.66394405 86.07073358 -277.53197646 90.08583752 -277.48828125 95.14453125 C-277.47033005 95.91431808 -277.45237885 96.68410492 -277.43388367 97.47721863 C-277.37994613 99.92225764 -277.34593927 102.36710332 -277.3125 104.8125 C-277.27931218 106.47593826 -277.24482116 108.13935107 -277.20898438 109.80273438 C-277.12422963 113.86834971 -277.05734027 117.93390936 -277 122 C-275.83416382 120.83331787 -275.83416382 120.83331787 -274.64477539 119.64306641 C-272.99535037 117.9947072 -271.34224658 116.35001095 -269.68359375 114.7109375 C-262.17185974 106.89873413 -258.91584897 99.93298029 -258.4375 89.0625 C-259.05557972 74.08219939 -267.10972542 65.97340115 -277.18310547 55.88427734 C-279.00941127 53.9902397 -280.71607791 52.03210238 -282.41015625 50.01953125 C-283.26480469 49.02308594 -284.11945313 48.02664062 -285 47 C-285.33 47 -285.66 47 -286 47 Z M-346 174 C-346.09976706 178.39243685 -346.17188558 182.78425272 -346.21972656 187.17749023 C-346.23969458 188.66816718 -346.2668792 190.1587673 -346.30175781 191.64916992 C-346.5748549 203.62929678 -345.3435774 212.16225727 -336.92578125 221.2109375 C-329.99289928 227.65162704 -322.51473825 230.18826799 -313.125 230.625 C-312.09246094 230.68300781 -312.09246094 230.68300781 -311.0390625 230.7421875 C-309.35976754 230.83548166 -307.67992233 230.91878238 -306 231 C-308.9403693 226.85332535 -311.9263051 222.9394279 -315.5625 219.375 C-316.14257812 218.80394531 -316.72265625 218.23289063 -317.3203125 217.64453125 C-318.39280987 216.5944815 -319.47045143 215.54964323 -320.5546875 214.51171875 C-323.21905076 211.71940585 -324.34103418 209.60003341 -324.5 205.8125 C-324 202 -324 202 -322.9375 200 C-319.75721703 198.35856363 -317.52025809 198.52267687 -314 199 C-308.80102031 202.46598646 -305.0147388 207.25688526 -301 212 C-299.71197224 213.50312583 -298.42042326 215.00324306 -297.125 216.5 C-296.55007813 217.1703125 -295.97515625 217.840625 -295.3828125 218.53125 C-294.69832031 219.25828125 -294.69832031 219.25828125 -294 220 C-293.67 220 -293.34 220 -293 220 C-292.57836551 206.39838366 -292.88476672 195.92593425 -302 185 C-309.33494068 178.02952842 -317.59427237 175.67844981 -327.4375 174.8125 C-328.23220703 174.73064453 -329.02691406 174.64878906 -329.84570312 174.56445312 C-335.25055594 174.04111913 -340.5710176 173.92935258 -346 174 Z M-268.11328125 222.8515625 C-274.46513142 229.45327841 -277.48644331 236.7622159 -277.3515625 245.90039062 C-277.31804687 246.77888672 -277.28453125 247.65738281 -277.25 248.5625 C-277.23195313 249.47580078 -277.21390625 250.38910156 -277.1953125 251.33007812 C-277.14872701 253.55453514 -277.08335485 255.77666967 -277 258 C-275.88431641 256.88238281 -275.88431641 256.88238281 -274.74609375 255.7421875 C-273.1603175 254.15866697 -271.5711038 252.57854131 -269.97265625 251.0078125 C-266.7347467 247.81625339 -263.70825751 244.67041152 -260.9375 241.0625 C-258.69598956 238.41288848 -257.92197589 237.97262312 -254.4375 236.75 C-251 237 -251 237 -248 239 C-246 242 -246 242 -245.94921875 245.21484375 C-247.36859724 250.3277722 -250.09099032 252.90831411 -253.8125 256.5625 C-258.05195612 260.82799168 -261.8531233 264.85560962 -265 270 C-252.04911764 269.0547831 -240.8568994 268.08022134 -231.53515625 258.03125 C-226.11392063 250.85811381 -223.86471869 243.92639018 -223.90234375 235.046875 C-223.90446617 234.05654266 -223.90446617 234.05654266 -223.90663147 233.04620361 C-223.91220755 230.94742206 -223.92475553 228.84874905 -223.9375 226.75 C-223.9425181 225.32291821 -223.94708046 223.89583475 -223.95117188 222.46875 C-223.96216912 218.97913168 -223.9794172 215.48957644 -224 212 C-239.02143331 212 -256.36515938 212.55838363 -268.11328125 222.8515625 Z M-90 269 C-91.11081574 271.28248469 -92.22149494 273.5650356 -93.33203125 275.84765625 C-93.85400337 276.92052132 -93.85400337 276.92052132 -94.38652039 278.01506042 C-96.30956907 281.96883575 -98.23065304 285.92355115 -100.1484375 289.87988281 C-100.72783585 291.07516098 -100.72783585 291.07516098 -101.31893921 292.29458618 C-102.09978688 293.90553664 -102.88056872 295.51651901 -103.6612854 297.12753296 C-105.93981192 301.82580726 -108.23448238 306.5155968 -110.54296875 311.19921875 C-111.52878383 313.21607839 -112.51447241 315.23299987 -113.5 317.25 C-113.94964111 318.15113525 -114.39928223 319.05227051 -114.86254883 319.98071289 C-117.73859972 325.90219542 -119.54642999 330.88534906 -118.375 337.5625 C-116.24883866 342.87790336 -113.67470988 346.00161526 -108.75 348.9375 C-102.75168404 350.63702285 -98.20032378 350.16243521 -92.6875 347.25 C-86.96449113 342.45864373 -84.26377512 336.7695249 -81.1875 330.125 C-80.22778183 328.08015645 -79.26676886 326.03592026 -78.3046875 323.9921875 C-77.52303223 322.32881348 -77.52303223 322.32881348 -76.72558594 320.63183594 C-74.83550477 316.63499568 -72.89164197 312.6649897 -70.9453125 308.6953125 C-70.25361443 307.28111056 -69.56196393 305.86688535 -68.87036133 304.45263672 C-67.84430358 302.35497938 -66.81656499 300.25823847 -65.78329468 298.16412354 C-64.81504526 296.20051618 -63.8541066 294.23348235 -62.89453125 292.265625 C-62.33612549 291.12899414 -61.77771973 289.99236328 -61.20239258 288.82128906 C-59.8039679 286.05116869 -59.8039679 286.05116869 -60 283 C-63.87166423 281.03502054 -67.74788881 279.07920714 -71.625 277.125 C-72.71941406 276.56941406 -73.81382812 276.01382812 -74.94140625 275.44140625 C-76.53662109 274.63896484 -76.53662109 274.63896484 -78.1640625 273.8203125 C-79.13811035 273.32805176 -80.1121582 272.83579102 -81.11572266 272.32861328 C-84.02854588 270.98685063 -86.94118619 269.95612727 -90 269 Z M-150 272 C-154.68955946 281.6752515 -159.37354778 291.35318208 -164.05047607 301.0345459 C-164.9150934 302.82424874 -165.78003862 304.61379317 -166.64501953 306.40332031 C-169.36655017 312.03981713 -172.07124691 317.68375462 -174.74462891 323.34326172 C-175.59519623 325.14331493 -176.44914352 326.94177421 -177.30615234 328.73876953 C-184.04019013 342.29606287 -184.04019013 342.29606287 -187 357 C-187.18369141 358.37285156 -187.18369141 358.37285156 -187.37109375 359.7734375 C-186.82194873 364.54810894 -184.33580266 367.46977453 -181.5 371.25 C-180.67894775 372.37607666 -180.67894775 372.37607666 -179.84130859 373.52490234 C-175.71734903 379.14429714 -171.45735592 384.64104254 -167 390 C-166.5153125 390.63035156 -166.030625 391.26070313 -165.53125 391.91015625 C-159.14065019 399.98716434 -151.06216133 404.97311088 -141 407 C-134.91399606 407.50990437 -128.83923887 407.59313259 -122.734375 407.64453125 C-121.43545696 407.65912667 -121.43545696 407.65912667 -120.11029816 407.67401695 C-115.53868994 407.7245467 -110.96735506 407.75749237 -106.39550781 407.77563477 C-101.68457318 407.79778106 -96.97670086 407.88048422 -92.26678085 407.97675037 C-88.62925482 408.04016125 -84.99247046 408.05893092 -81.35443878 408.065588 C-79.61757137 408.0764884 -77.88072289 408.10410287 -76.14440155 408.14899635 C-66.74070222 408.72501455 -66.74070222 408.72501455 -58.66027832 404.87590027 C-57.07241268 402.28422862 -56.0120985 399.8596135 -55 397 C-54.18261419 395.32934232 -53.35126989 393.66536811 -52.5 392.01171875 C-51.66177621 390.23928372 -50.8286598 388.46442655 -50 386.6875 C-49.05021172 384.67543529 -48.09965131 382.66373493 -47.1484375 380.65234375 C-46.64538086 379.58612793 -46.14232422 378.51991211 -45.62402344 377.42138672 C-43.8829075 373.75331715 -42.12127719 370.09573604 -40.3515625 366.44140625 C-39.88722809 365.48236641 -39.88722809 365.48236641 -39.41351318 364.50395203 C-38.1874018 361.97259632 -36.96068553 359.44153652 -35.73242188 356.91122437 C-32.81555446 350.90018135 -29.91392368 344.88156555 -27.0859375 338.828125 C-26.68165527 337.96606445 -26.27737305 337.10400391 -25.86083984 336.21582031 C-24.81893548 333.93012988 -24.81893548 333.93012988 -25 331 C-35.23 326.05 -45.46 321.1 -56 316 C-59.06218427 319.06218427 -60.54508141 321.90144672 -62.29296875 325.7578125 C-62.92982576 327.12003152 -63.56721329 328.48200261 -64.20507812 329.84375 C-65.19407111 331.97336369 -66.1783002 334.10482701 -67.15258789 336.24121094 C-72.45251257 347.82087831 -77.53896982 357.51086156 -89.60546875 363.125 C-98.49548902 366.37355553 -107.35109146 365.59011298 -116 362 C-124.6065012 357.66898649 -129.87854804 351.08933807 -133 342 C-133.484375 339.203125 -133.484375 339.203125 -133.75 336.25 C-133.89695312 334.80367188 -133.89695312 334.80367188 -134.046875 333.328125 C-133.89897374 322.82713528 -128.98003768 314.27176136 -124.375 305.125 C-123.31417977 303.00721007 -122.25633164 300.88810287 -121.20547485 298.76535034 C-120.55500732 297.45233964 -119.89863738 296.1422323 -119.23568726 294.83547974 C-117.83210596 292.01085595 -117 290.20144175 -117 287 C-120.57065622 285.17732193 -124.14537093 283.36288387 -127.72387695 281.55566406 C-128.93820838 280.94100049 -130.15144978 280.32417815 -131.36352539 279.70507812 C-133.11569878 278.81059686 -134.87227572 277.92475856 -136.62890625 277.0390625 C-137.68150635 276.50490723 -138.73410645 275.97075195 -139.81860352 275.42041016 C-143.19899859 273.91115234 -146.42449161 272.93376913 -150 272 Z " fill="#000000" transform="translate(410,5)"/>
<path d="M0 0 C4.47395674 0.78490469 5.93038535 1.95599171 8.5625 5.625 C9.10917869 8.97340698 8.90288506 10.83785954 7.5625 13.9375 C4.96875967 16.1259684 2.92113095 16.59190498 -0.4296875 16.8515625 C-2.4375 16.625 -2.4375 16.625 -5.4375 14.5625 C-7.78404463 11.11601258 -8.20224701 9.7036507 -7.4375 5.625 C-5.35210259 1.78786876 -4.33645599 0.78844654 0 0 Z " fill="#000000" transform="translate(355.4375,454.375)"/>
<path d="M0 0 C4.0743356 0.84881992 5.54405875 2.30225596 8 5.625 C8.625 8.625 8.625 8.625 8 11.625 C5.54405875 14.94774404 4.0743356 16.40118008 0 17.25 C-4.0743356 16.40118008 -5.54405875 14.94774404 -8 11.625 C-8.625 8.625 -8.625 8.625 -8 5.625 C-5.54405875 2.30225596 -4.0743356 0.84881992 0 0 Z " fill="#000000" transform="translate(170,454.375)"/>
<path d="M0 0 C4.0743356 0.84881992 5.54405875 2.30225596 8 5.625 C8.625 8.625 8.625 8.625 8 11.625 C5.54405875 14.94774404 4.0743356 16.40118008 0 17.25 C-4.0743356 16.40118008 -5.54405875 14.94774404 -8 11.625 C-8.625 8.625 -8.625 8.625 -8 5.625 C-5.54405875 2.30225596 -4.0743356 0.84881992 0 0 Z " fill="#000000" transform="translate(152,419.375)"/>
<path d="M0 0 C2.875 1.5 2.875 1.5 5 4 C5.71730941 6.8229596 5.71730941 9.1770404 5 12 C2.41832046 15.03727005 0.87501007 15.87499856 -3.0625 16.4375 C-6.41948631 15.93752331 -7.76774103 15.562964 -10 13 C-11.10373378 9.02655839 -11.41543583 6.91000228 -9.6875 3.125 C-6.84166592 -0.45864292 -4.43603275 -0.43490517 0 0 Z " fill="#000000" transform="translate(106,407)"/>
<path d="M0 0 C2.375 1.0625 2.375 1.0625 4 3 C5.05279075 6.7900467 5.2861499 9.12247365 4.0625 12.875 C1.46848979 15.54761658 -0.32948815 16.02804907 -3.9921875 16.2578125 C-6 16 -6 16 -9 14 C-11.48111179 10.27833231 -11.71869236 8.39200889 -11 4 C-8.09912777 -0.52536068 -5.13093735 -0.64136717 0 0 Z " fill="#000000" transform="translate(72,445)"/>
<path d="M0 0 C3 2.0625 3 2.0625 5 5 C5 8.52133145 4.69441423 10.84264294 2.875 13.875 C-0.15735706 15.69441423 -2.47866855 16 -6 16 C-8.9375 14 -8.9375 14 -11 11 C-11.63007693 7.00951279 -11.63021887 4.98314143 -9.4375 1.5625 C-6.01685857 -0.63021887 -3.99048721 -0.63007693 0 0 Z " fill="#000000" transform="translate(284,455)"/>
<path d="M0 0 C3 2.0625 3 2.0625 5 5 C5 8.54595558 4.72088444 10.86176141 2.8125 13.875 C0.15800608 15.52261692 -1.88327487 15.87533099 -5 16 C-9.56521739 13.86956522 -9.56521739 13.86956522 -11 11 C-11.35519903 7.16385043 -11.54724594 4.85370366 -9.4375 1.5625 C-6.01685857 -0.63021887 -3.99048721 -0.63007693 0 0 Z " fill="#000000" transform="translate(218,445)"/>
<path d="M0 0 C2.4375 1.5 2.4375 1.5 4 4 C4.62303037 7.51870564 4.72132966 10.75771003 2.875 13.9375 C0.17323836 15.46849826 -1.89435505 15.8757742 -5 16 C-7.86332091 14.76356597 -9.49288133 13.66847461 -11.375 11.1875 C-12.25861973 8.09483095 -11.91373769 6.06754797 -11 3 C-7.85840526 -0.62491701 -4.58722309 -0.57340289 0 0 Z " fill="#000000" transform="translate(425,455)"/>
</svg>
