<?xml version="1.0" encoding="UTF-8"?>
<svg version="1.1" xmlns="http://www.w3.org/2000/svg" width="512" height="512">
<path d="M0 0 C1.51888321 -0.01336143 1.51888321 -0.01336143 3.06845093 -0.0269928 C6.39062396 -0.04817308 9.71083547 -0.02602424 13.03295898 -0.0012207 C15.35505877 -0.00272436 17.67715803 -0.00615743 19.99925232 -0.01142883 C24.85539115 -0.01575212 29.71086403 0.0010185 34.56689453 0.03320312 C40.77996909 0.07300443 46.99179692 0.06366897 53.20491123 0.03896809 C57.99633439 0.0247625 62.78746806 0.03488944 67.57887077 0.0524807 C69.86931606 0.05831515 72.15979115 0.05705092 74.45022774 0.04845619 C77.65498481 0.04043362 80.8579351 0.06478785 84.0625 0.09765625 C85.00142593 0.08910614 85.94035187 0.08055603 86.9077301 0.07174683 C93.23313278 0.18329124 97.615654 1.60608373 102.46655273 5.76049805 C107.40407418 11.58738998 109.01735698 18.32664235 110.76342773 25.62768555 C111.04252991 26.74362091 111.32163208 27.85955627 111.60919189 29.00930786 C112.49157743 32.5482384 113.35464951 36.0915293 114.21655273 39.63549805 C115.09681595 43.19977167 115.98097891 46.76305231 116.86676025 50.32595825 C117.41509407 52.53740816 117.95944425 54.74985032 118.49945068 56.96334839 C118.74350647 57.95843414 118.98756226 58.9535199 119.23901367 59.97875977 C119.45265564 60.85619843 119.66629761 61.73363708 119.88641357 62.63766479 C120.40076868 64.79193565 120.40076868 64.79193565 121.46655273 66.76049805 C124.17960731 67.24595368 124.17960731 67.24595368 127.50952148 67.4362793 C128.79689209 67.53932373 130.0842627 67.64236816 131.41064453 67.74853516 C132.10185394 67.80089325 132.79306335 67.85325134 133.50521851 67.90719604 C145.63876513 68.84340894 157.64850217 70.20584058 169.65405273 72.19799805 C171.44782349 72.48767456 171.44782349 72.48767456 173.27783203 72.78320312 C183.03007915 74.4592958 193.05166456 76.33044803 201.46655273 81.76049805 C201.34155273 84.01049805 201.34155273 84.01049805 200.46655273 86.76049805 C196.02984369 90.26638146 191.77104733 91.86456882 186.40405273 93.26049805 C185.61587158 93.46989014 184.82769043 93.67928223 184.015625 93.89501953 C168.98495386 97.78070997 153.79108289 100.09806932 138.40405273 102.01049805 C137.70158417 102.099534 136.9991156 102.18856995 136.27536011 102.28030396 C127.6487132 103.36230985 119.16943749 104.01982487 110.46655273 103.76049805 C108.67464693 127.13884659 113.740623 143.09446378 125.78712463 163.06781006 C127.50095596 165.92283841 128.91849638 168.45033914 129.46655273 171.76049805 C125.85518193 174.42150811 122.42946156 176.26921769 118.23999023 177.90112305 C116.89686768 178.42754395 116.89686768 178.42754395 115.52661133 178.96459961 C114.84679199 179.22724609 114.16697266 179.48989258 113.46655273 179.76049805 C113.46244385 180.5469873 113.45833496 181.33347656 113.45410156 182.14379883 C113.42110254 185.72511683 113.35044805 189.30474817 113.27905273 192.88549805 C113.27035156 194.74174805 113.27035156 194.74174805 113.26147461 196.63549805 C113.01230922 206.93433432 113.01230922 206.93433432 110.60327148 210.62768555 C105.90185029 213.82441777 101.98312842 213.31341429 96.46655273 212.76049805 C95.5087793 212.66526855 94.55100586 212.57003906 93.56420898 212.47192383 C90.68887969 212.13981744 87.83019556 211.74354669 84.96655273 211.32299805 C83.99202148 211.18829102 83.01749023 211.05358398 82.01342773 210.91479492 C74.91425682 209.90973274 74.91425682 209.90973274 71.46655273 208.76049805 C71.46655273 214.37049805 71.46655273 219.98049805 71.46655273 225.76049805 C72.98506836 226.10725586 74.50358398 226.45401367 76.06811523 226.8112793 C85.12489821 229.08145268 93.96785256 232.02574032 102.82885742 234.95605469 C105.82349424 235.94205221 108.82442914 236.90695347 111.82592773 237.87182617 C135.58469111 245.64076963 154.27275575 257.00511967 166.34155273 279.57299805 C173.07375188 294.2519409 174.09613245 308.33981564 174.21655273 324.26049805 C174.24479129 326.16286794 174.27472931 328.06521339 174.30639648 329.9675293 C174.37931113 334.56514021 174.42945118 339.16246445 174.46655273 343.76049805 C175.06173706 342.72046631 175.06173706 342.72046631 175.66894531 341.65942383 C188.9963107 318.39662388 188.9963107 318.39662388 195.59155273 307.38549805 C196.0154126 306.66249512 196.43927246 305.93949219 196.87597656 305.19458008 C199.87140617 300.24862426 202.78855126 296.65316521 208.46655273 294.76049805 C211.42100558 294.64623101 214.34354576 294.60463451 217.29858398 294.6159668 C218.27898148 294.61831833 219.25937897 294.62066986 220.26948547 294.62309265 C237.18668801 294.73368804 254.09942749 295.32892598 271.00683594 295.87744141 C276.1766432 296.04433567 281.34680943 296.19418631 286.51723003 296.3406496 C290.52462493 296.45729513 294.53154072 296.58656121 298.53843117 296.7193203 C300.44687045 296.78031349 302.35546989 296.8364972 304.2641964 296.88772011 C306.91260518 296.95990611 309.55982787 297.04998686 312.20751953 297.14453125 C313.38007042 297.17043083 313.38007042 297.17043083 314.5763092 297.19685364 C317.74746852 297.32599407 320.12119209 297.57521974 322.93977356 299.08732605 C324.46655273 300.76049805 324.46655273 300.76049805 325.15405273 304.1472168 C324.79669027 310.69141696 320.76029818 316.10906799 317.46655273 321.57299805 C316.73658541 322.81281935 316.00817789 324.0535602 315.28125 325.29516602 C313.39771033 328.50278118 311.49402661 331.69790722 309.58404541 334.88983154 C307.8358857 337.8162255 306.10297709 340.75151943 304.36889648 343.6862793 C302.38455662 347.04158218 300.3980886 350.39551983 298.40454102 353.74536133 C293.18320468 362.51909622 288.06245648 371.34759696 282.97241211 380.19799805 C277.09800984 390.41165848 271.1631062 400.58933032 265.21801758 410.76196289 C262.8136204 414.8783284 260.41338674 418.9971144 258.01367188 423.11621094 C256.82831643 425.14891597 255.64133984 427.18067662 254.45263672 429.21142578 C251.79749679 433.74818467 249.15800947 438.29107721 246.57592773 442.86987305 C246.13152344 443.64919189 245.68711914 444.42851074 245.22924805 445.23144531 C244.42208003 446.64835917 243.62364826 448.07030892 242.83666992 449.49853516 C239.82210259 454.75510245 236.40294792 458.78169965 230.46655273 460.76049805 C228.74980109 460.79922504 227.03132301 460.77540039 225.31518555 460.71533203 C224.26268616 460.68297958 223.21018677 460.65062714 222.12579346 460.61729431 C220.98527527 460.58076248 219.84475708 460.54423065 218.66967773 460.5065918 C216.24135126 460.45491536 213.81296064 460.40618526 211.38452148 460.36010742 C207.56521191 460.28661221 203.74944024 460.19918821 199.93188477 460.06103516 C184.83950396 459.5343278 173.62515628 459.23578893 161.96057129 469.50765991 C159.6999966 471.40330851 157.21779904 472.80989374 154.65405273 474.2565918 C153.78651367 474.75223633 152.91897461 475.24788086 152.02514648 475.75854492 C151.18081055 476.23356445 150.33647461 476.70858398 149.46655273 477.19799805 C148.5912793 477.70008789 147.71600586 478.20217773 146.81420898 478.71948242 C138.28167835 483.56313703 131.70946045 486.19969091 121.89941406 486.84448242 C120.33309974 486.96069065 120.33309974 486.96069065 118.73514271 487.07924652 C106.03163749 487.99178594 93.31156371 488.65770572 80.59258628 489.31092644 C77.06393391 489.49291541 73.53550025 489.67906218 70.0070343 489.86462402 C64.06959512 490.17630117 58.13201906 490.48524312 52.19433594 490.79223633 C46.20137488 491.1020978 40.20853301 491.41413082 34.21582031 491.72875977 C33.4820754 491.76728213 32.74833048 491.8058045 31.99235088 491.84549421 C31.26009341 491.88394014 30.52783595 491.92238607 29.77338886 491.96199703 C3.43160573 493.34499036 -22.91086086 494.71570991 -49.26000977 495.9519043 C-50.1058494 495.99198608 -50.95168903 496.03206787 -51.82316017 496.07336426 C-62.41225059 496.5728125 -72.99755484 496.95786139 -83.59594727 497.19799805 C-84.7348793 497.22427277 -85.87381134 497.25054749 -87.04725647 497.27761841 C-94.14586156 497.37926479 -99.66614806 495.84608297 -105.53344727 491.76049805 C-111.38053905 485.60230488 -113.77883786 479.98796808 -113.8008728 471.45117188 C-113.80540392 470.72511623 -113.80993503 469.99906059 -113.81460345 469.25100327 C-113.82724239 466.82311352 -113.82562738 464.39544826 -113.82397461 461.9675293 C-113.82996047 460.22435722 -113.83676615 458.48118779 -113.84432983 456.73802185 C-113.86199833 452.00411078 -113.86668578 447.27027203 -113.86796141 442.53633118 C-113.8693839 439.57479096 -113.87365554 436.61326906 -113.87895584 433.6517334 C-113.89746399 423.30793087 -113.9056261 412.96417987 -113.90405273 402.62036133 C-113.90285344 392.99957507 -113.92391202 383.37901392 -113.95554006 373.75828457 C-113.981764 365.48457764 -113.99241736 357.21094391 -113.99114192 348.93719578 C-113.99063377 344.00212762 -113.99623422 339.0672592 -114.01749802 334.13223267 C-114.0369818 329.48312701 -114.03693609 324.8344094 -114.02246475 320.18528938 C-114.02038756 318.48787934 -114.02501181 316.79044437 -114.03718567 315.09307671 C-114.14982908 298.285608 -110.62403938 282.38980193 -98.63647461 269.77392578 C-90.36660694 261.85639634 -80.28786855 256.71467017 -70.22094727 251.51049805 C-68.07153249 250.38642693 -65.92379454 249.25919356 -63.77606201 248.13191223 C-62.35199188 247.38479511 -60.92739433 246.63868237 -59.5022583 245.89360046 C-53.68532832 242.85112274 -47.91219228 239.73339156 -42.15844727 236.57299805 C-34.48760954 232.37139445 -26.80875879 228.18505649 -19.11346436 224.02841187 C-17.38160009 223.09226983 -15.65111206 222.15358317 -13.9206543 221.21484375 C-12.87119629 220.64854248 -11.82173828 220.08224121 -10.74047852 219.4987793 C-9.80695557 218.99386963 -8.87343262 218.48895996 -7.91162109 217.96875 C-5.53344727 216.76049805 -5.53344727 216.76049805 -2.53344727 215.76049805 C-1.65093847 206.73471911 -0.93195169 197.41658154 -6.81079102 189.9675293 C-10.1732241 186.27681495 -13.80295535 182.8848389 -17.52758789 179.56323242 C-26.4846314 171.51323129 -33.45628728 162.88761803 -35.53344727 150.76049805 C-35.61563451 149.10414505 -35.65134834 147.44500611 -35.64697266 145.78662109 C-35.64685936 144.34569344 -35.64685936 144.34569344 -35.64674377 142.87565613 C-35.64158249 141.85152115 -35.6364212 140.82738617 -35.63110352 139.7722168 C-35.62968857 138.71388138 -35.62827362 137.65554596 -35.6268158 136.56513977 C-35.62122886 133.19273016 -35.6086787 129.82038751 -35.59594727 126.44799805 C-35.59093058 124.15828547 -35.58636797 121.86857184 -35.58227539 119.57885742 C-35.5712637 113.97271487 -35.55453852 108.36661125 -35.53344727 102.76049805 C-36.16627121 102.77114792 -36.79909515 102.78179779 -37.45109558 102.79277039 C-42.79393535 102.84429896 -47.90803385 102.60299604 -53.20922852 101.8425293 C-53.89341354 101.74517487 -54.57759857 101.64782043 -55.28251648 101.54751587 C-57.47180023 101.23190685 -59.65892805 100.9039128 -61.84594727 100.57299805 C-62.97021118 100.40551559 -62.97021118 100.40551559 -64.1171875 100.23464966 C-73.32295256 98.85518388 -82.46989562 97.34491889 -91.53344727 95.19799805 C-92.31888916 95.01277588 -93.10433105 94.82755371 -93.91357422 94.63671875 C-109.67200814 90.6521229 -109.67200814 90.6521229 -113.53344727 85.76049805 C-113.47094727 83.26049805 -113.47094727 83.26049805 -112.53344727 80.76049805 C-100.24422946 69.50254327 -71.71213349 70.04325874 -56.03344727 68.51049805 C-55.21666504 68.43041504 -54.39988281 68.35033203 -53.55834961 68.26782227 C-47.8745919 67.76283369 -42.23751268 67.67935486 -36.53344727 67.76049805 C-36.34911133 66.86717773 -36.16477539 65.97385742 -35.97485352 65.0534668 C-33.76827189 54.64381188 -31.23818318 44.31322035 -28.62936401 33.99819946 C-28.23448608 32.43258033 -27.84278249 30.86615688 -27.45437622 29.29891968 C-22.12086642 7.82379742 -22.12086642 7.82379742 -13.10573006 2.03020287 C-8.78095782 -0.10454848 -4.75003775 -0.06954151 0 0 Z " fill="#BDC3D2" transform="translate(150.533447265625,7.239501953125)"/>
<path d="M0 0 C1.51888321 -0.01336143 1.51888321 -0.01336143 3.06845093 -0.0269928 C6.39062396 -0.04817308 9.71083547 -0.02602424 13.03295898 -0.0012207 C15.35505877 -0.00272436 17.67715803 -0.00615743 19.99925232 -0.01142883 C24.85539115 -0.01575212 29.71086403 0.0010185 34.56689453 0.03320312 C40.77996909 0.07300443 46.99179692 0.06366897 53.20491123 0.03896809 C57.99633439 0.0247625 62.78746806 0.03488944 67.57887077 0.0524807 C69.86931606 0.05831515 72.15979115 0.05705092 74.45022774 0.04845619 C77.65498481 0.04043362 80.8579351 0.06478785 84.0625 0.09765625 C85.00142593 0.08910614 85.94035187 0.08055603 86.9077301 0.07174683 C93.23313278 0.18329124 97.615654 1.60608373 102.46655273 5.76049805 C107.40407418 11.58738998 109.01735698 18.32664235 110.76342773 25.62768555 C111.04252991 26.74362091 111.32163208 27.85955627 111.60919189 29.00930786 C112.49157743 32.5482384 113.35464951 36.0915293 114.21655273 39.63549805 C115.09681595 43.19977167 115.98097891 46.76305231 116.86676025 50.32595825 C117.41509407 52.53740816 117.95944425 54.74985032 118.49945068 56.96334839 C118.74350647 57.95843414 118.98756226 58.9535199 119.23901367 59.97875977 C119.45265564 60.85619843 119.66629761 61.73363708 119.88641357 62.63766479 C120.40076868 64.79193565 120.40076868 64.79193565 121.46655273 66.76049805 C124.17960731 67.24595368 124.17960731 67.24595368 127.50952148 67.4362793 C128.79689209 67.53932373 130.0842627 67.64236816 131.41064453 67.74853516 C132.10185394 67.80089325 132.79306335 67.85325134 133.50521851 67.90719604 C145.63876513 68.84340894 157.64850217 70.20584058 169.65405273 72.19799805 C171.44782349 72.48767456 171.44782349 72.48767456 173.27783203 72.78320312 C183.03007915 74.4592958 193.05166456 76.33044803 201.46655273 81.76049805 C201.34155273 84.01049805 201.34155273 84.01049805 200.46655273 86.76049805 C196.02984369 90.26638146 191.77104733 91.86456882 186.40405273 93.26049805 C185.61587158 93.46989014 184.82769043 93.67928223 184.015625 93.89501953 C168.98495386 97.78070997 153.79108289 100.09806932 138.40405273 102.01049805 C137.70158417 102.099534 136.9991156 102.18856995 136.27536011 102.28030396 C127.6487132 103.36230985 119.16943749 104.01982487 110.46655273 103.76049805 C108.67464693 127.13884659 113.740623 143.09446378 125.78712463 163.06781006 C127.50095596 165.92283841 128.91849638 168.45033914 129.46655273 171.76049805 C125.85518193 174.42150811 122.42946156 176.26921769 118.23999023 177.90112305 C116.89686768 178.42754395 116.89686768 178.42754395 115.52661133 178.96459961 C114.84679199 179.22724609 114.16697266 179.48989258 113.46655273 179.76049805 C113.46244385 180.5469873 113.45833496 181.33347656 113.45410156 182.14379883 C113.42110254 185.72511683 113.35044805 189.30474817 113.27905273 192.88549805 C113.27035156 194.74174805 113.27035156 194.74174805 113.26147461 196.63549805 C113.01230922 206.93433432 113.01230922 206.93433432 110.60327148 210.62768555 C105.90185029 213.82441777 101.98312842 213.31341429 96.46655273 212.76049805 C95.5087793 212.66526855 94.55100586 212.57003906 93.56420898 212.47192383 C90.68887969 212.13981744 87.83019556 211.74354669 84.96655273 211.32299805 C83.99202148 211.18829102 83.01749023 211.05358398 82.01342773 210.91479492 C74.91425682 209.90973274 74.91425682 209.90973274 71.46655273 208.76049805 C71.46655273 214.37049805 71.46655273 219.98049805 71.46655273 225.76049805 C73.44655273 226.09049805 75.42655273 226.42049805 77.46655273 226.76049805 C77.13655273 227.42049805 76.80655273 228.08049805 76.46655273 228.76049805 C77.08401367 229.62288086 77.70147461 230.48526367 78.33764648 231.3737793 C87.86432732 244.98386449 95.35454954 259.59542128 99.46655273 275.76049805 C99.8177417 276.99159302 99.8177417 276.99159302 100.17602539 278.24755859 C102.47130062 286.6552978 103.37456624 295.04425625 104.09155273 303.69799805 C104.21308877 305.07502733 104.33548169 306.45198125 104.45874023 307.82885742 C104.69994293 310.54342007 104.93008391 313.25857669 105.15112305 315.97485352 C105.34124888 318.25665786 105.54478502 320.53748124 105.77416992 322.81567383 C106.84985419 334.21226558 106.46655273 345.13701539 106.46655273 356.76049805 C68.18655273 356.76049805 29.90655273 356.76049805 -9.53344727 356.76049805 C-9.86344727 344.22049805 -10.19344727 331.68049805 -10.53344727 318.76049805 C-11.36332929 310.34851212 -12.21444013 302.08611074 -13.53344727 293.76049805 C-13.63882813 293.05070801 -13.74420898 292.34091797 -13.8527832 291.60961914 C-16.91259112 271.44999941 -24.46846131 249.6552275 -37.53344727 233.76049805 C-33.03266361 231.35478222 -28.53027396 228.95210984 -24.02636719 226.55224609 C-22.49434576 225.7353735 -20.9627669 224.91767031 -19.43164062 224.09912109 C-17.23105783 222.92286144 -15.02890192 221.74959574 -12.82641602 220.5769043 C-12.14193893 220.21021133 -11.45746185 219.84351837 -10.75224304 219.4657135 C-8.03543821 218.02222069 -5.45828402 216.73544363 -2.53344727 215.76049805 C-1.65093847 206.73471911 -0.93195169 197.41658154 -6.81079102 189.9675293 C-10.1732241 186.27681495 -13.80295535 182.8848389 -17.52758789 179.56323242 C-26.4846314 171.51323129 -33.45628728 162.88761803 -35.53344727 150.76049805 C-35.61563451 149.10414505 -35.65134834 147.44500611 -35.64697266 145.78662109 C-35.64685936 144.34569344 -35.64685936 144.34569344 -35.64674377 142.87565613 C-35.64158249 141.85152115 -35.6364212 140.82738617 -35.63110352 139.7722168 C-35.62968857 138.71388138 -35.62827362 137.65554596 -35.6268158 136.56513977 C-35.62122886 133.19273016 -35.6086787 129.82038751 -35.59594727 126.44799805 C-35.59093058 124.15828547 -35.58636797 121.86857184 -35.58227539 119.57885742 C-35.5712637 113.97271487 -35.55453852 108.36661125 -35.53344727 102.76049805 C-36.16627121 102.77114792 -36.79909515 102.78179779 -37.45109558 102.79277039 C-42.79393535 102.84429896 -47.90803385 102.60299604 -53.20922852 101.8425293 C-53.89341354 101.74517487 -54.57759857 101.64782043 -55.28251648 101.54751587 C-57.47180023 101.23190685 -59.65892805 100.9039128 -61.84594727 100.57299805 C-62.97021118 100.40551559 -62.97021118 100.40551559 -64.1171875 100.23464966 C-73.32295256 98.85518388 -82.46989562 97.34491889 -91.53344727 95.19799805 C-92.31888916 95.01277588 -93.10433105 94.82755371 -93.91357422 94.63671875 C-109.67200814 90.6521229 -109.67200814 90.6521229 -113.53344727 85.76049805 C-113.47094727 83.26049805 -113.47094727 83.26049805 -112.53344727 80.76049805 C-100.24422946 69.50254327 -71.71213349 70.04325874 -56.03344727 68.51049805 C-55.21666504 68.43041504 -54.39988281 68.35033203 -53.55834961 68.26782227 C-47.8745919 67.76283369 -42.23751268 67.67935486 -36.53344727 67.76049805 C-36.34911133 66.86717773 -36.16477539 65.97385742 -35.97485352 65.0534668 C-33.76827189 54.64381188 -31.23818318 44.31322035 -28.62936401 33.99819946 C-28.23448608 32.43258033 -27.84278249 30.86615688 -27.45437622 29.29891968 C-22.12086642 7.82379742 -22.12086642 7.82379742 -13.10573006 2.03020287 C-8.78095782 -0.10454848 -4.75003775 -0.06954151 0 0 Z " fill="#FCD1C2" transform="translate(150.533447265625,7.239501953125)"/>
<path d="M0 0 C8.71138541 3.52559281 12.65513828 16.77481832 16.18603516 25.00146484 C20.63816937 35.93282977 23.28408359 47.34645004 25 59 C25.17208984 60.09699219 25.34417969 61.19398438 25.52148438 62.32421875 C27.13177204 73.57916224 27.23369409 84.64659437 27.125 96 C27.11493715 97.85416176 27.10581721 99.70832889 27.09765625 101.5625 C27.07765887 106.04191335 27.03846849 110.52055782 27 115 C21.39 115 15.78 115 10 115 C10 142.72 10 170.44 10 199 C14.95 198.67 19.9 198.34 25 198 C28.15889657 197.87636437 31.30772915 197.76758506 34.46704102 197.70288086 C35.29530396 197.68322769 36.12356689 197.66357452 36.97692871 197.64332581 C39.65252602 197.5806557 42.32819925 197.52262312 45.00390625 197.46484375 C46.89949586 197.42167348 48.79507988 197.37825729 50.69065857 197.33460999 C54.63804952 197.24439968 58.58548049 197.1563613 62.53295898 197.07006836 C67.55444209 196.96023296 72.57581596 196.84610811 77.59716892 196.73049068 C81.50340411 196.64082529 85.40967593 196.55285078 89.31596184 196.46542549 C91.166054 196.42393621 93.01613798 196.38208032 94.86621284 196.33982658 C105.24657528 196.10425249 115.61636149 195.93786748 126 196 C126.2897168 195.24460937 126.57943359 194.48921875 126.87792969 193.7109375 C128.31443722 190.24031531 130.23489985 187.15406981 132.25 184 C132.61996094 183.39671875 132.98992187 182.7934375 133.37109375 182.171875 C133.74878906 181.57890625 134.12648437 180.9859375 134.515625 180.375 C134.84852539 179.84648437 135.18142578 179.31796875 135.52441406 178.7734375 C139.59262788 173.8840422 144.19251339 171.17861467 149.97265625 168.66796875 C150.94095619 168.24575798 150.94095619 168.24575798 151.92881775 167.8150177 C153.28220239 167.227945 154.6377589 166.64585562 155.99536133 166.06860352 C158.06659637 165.18575395 160.12809159 164.28258041 162.18945312 163.37695312 C163.5124902 162.80606035 164.83604123 162.23635688 166.16015625 161.66796875 C167.35261963 161.15516357 168.54508301 160.6423584 169.77368164 160.11401367 C172.84307152 159.05418575 174.80574469 158.49931247 178 159 C180.16901418 160.50519413 180.87185863 161.40936305 181.43237305 163.99291992 C181.45855713 164.73131104 181.48474121 165.46970215 181.51171875 166.23046875 C181.54716797 167.03291016 181.58261719 167.83535156 181.61914062 168.66210938 C181.64169922 169.49548828 181.66425781 170.32886719 181.6875 171.1875 C181.72166016 172.03248047 181.75582031 172.87746094 181.79101562 173.74804688 C181.87341471 175.83156649 181.93838645 177.91576216 182 180 C182.58676514 179.71914551 183.17353027 179.43829102 183.77807617 179.14892578 C185.55691567 178.29758332 187.33581113 177.4463578 189.11474609 176.59521484 C191.1763787 175.60878933 193.23790078 174.62213278 195.29931641 173.63525391 C200.58429274 171.1064603 205.87213891 168.58411884 211.16796875 166.078125 C212.12872314 165.6229248 213.08947754 165.16772461 214.0793457 164.69873047 C215.92209737 163.82619536 217.76566708 162.95538553 219.61010742 162.08642578 C220.43744385 161.69438965 221.26478027 161.30235352 222.1171875 160.8984375 C222.84534668 160.55474121 223.57350586 160.21104492 224.32373047 159.85693359 C225.98800112 159.1145796 225.98800112 159.1145796 227 158 C230.07566051 157.49798103 232.92990392 157.45176856 236 158 C241.40630737 162.73051894 241.78261942 167.02900782 242.28466797 173.890625 C242.48387554 177.76024466 242.63664943 181.63175379 242.77734375 185.50390625 C242.84246569 187.16842294 242.91832148 188.83255421 243.00488281 190.49609375 C243.1299663 192.91373795 243.22085893 195.33061521 243.3046875 197.75 C243.37150223 198.85649902 243.37150223 198.85649902 243.43966675 199.98535156 C243.53645396 203.93631358 243.08246987 206.38590586 240.61523438 209.40527344 C238.35560894 211.64717962 236.26419414 213.49053724 233.625 215.25 C232.74714844 215.83910156 231.86929687 216.42820312 230.96484375 217.03515625 C229.98644531 217.68355469 229.00804687 218.33195313 228 219 C226.92878906 219.74121094 225.85757812 220.48242188 224.75390625 221.24609375 C217.36739407 226.32909619 209.77870532 230.97769085 202 235.4375 C200.67391724 236.19969849 200.67391724 236.19969849 199.32104492 236.97729492 C190.79353818 241.80747037 184.2329087 244.43985007 174.43286133 245.08398438 C172.86654701 245.2001926 172.86654701 245.2001926 171.26858997 245.31874847 C158.56508475 246.23128789 145.84501097 246.89720768 133.12603354 247.55042839 C129.59738118 247.73241737 126.06894752 247.91856413 122.54048157 248.10412598 C116.60304239 248.41580313 110.66546633 248.72474508 104.7277832 249.03173828 C98.73482214 249.34159975 92.74198028 249.65363278 86.74926758 249.96826172 C86.01552266 250.00678409 85.28177775 250.04530645 84.52579814 250.08499616 C83.79354068 250.12344209 83.06128321 250.16188803 82.30683613 250.20149899 C55.96505299 251.58449231 29.6225864 252.95521186 3.2734375 254.19140625 C2.42759787 254.23148804 1.58175823 254.27156982 0.71028709 254.31286621 C-9.87880332 254.81231445 -20.46410757 255.19736334 -31.0625 255.4375 C-32.20143204 255.46377472 -33.34036407 255.49004944 -34.5138092 255.51712036 C-41.6124143 255.61876675 -47.1327008 254.08558492 -53 250 C-58.84709178 243.84180683 -61.24539059 238.22747003 -61.26742554 229.69067383 C-61.27195665 228.96461819 -61.27648776 228.23856255 -61.28115618 227.49050522 C-61.29379512 225.06261548 -61.29218012 222.63495021 -61.29052734 220.20703125 C-61.2965132 218.46385917 -61.30331888 216.72068975 -61.31088257 214.9775238 C-61.32855106 210.24361274 -61.33323851 205.50977398 -61.33451414 200.77583313 C-61.33593664 197.81429291 -61.34020827 194.85277102 -61.34550858 191.89123535 C-61.36401672 181.54743282 -61.37217884 171.20368182 -61.37060547 160.85986328 C-61.36940618 151.23907702 -61.39046475 141.61851587 -61.4220928 131.99778652 C-61.44831673 123.72407959 -61.4589701 115.45044586 -61.45769465 107.17669773 C-61.4571865 102.24162957 -61.46278696 97.30676116 -61.48405075 92.37173462 C-61.50353454 87.72262896 -61.50348882 83.07391135 -61.48901749 78.42479134 C-61.4869403 76.72738129 -61.49156454 75.02994632 -61.5037384 73.33257866 C-61.61635798 56.52866664 -58.09443966 40.61710126 -46.09790039 28.01074219 C-37.4743402 19.74545164 -26.87796613 14.49056286 -16.375 9.0625 C-14.17551528 7.91608295 -11.97733256 6.76722339 -9.77993774 5.61680603 C-8.42479793 4.90835436 -7.06821728 4.20265036 -5.71005249 3.50001526 C-2.65786925 2.03679068 -2.65786925 2.03679068 0 0 Z " fill="#FECCBD" transform="translate(98,249)"/>
<path d="M0 0 C1.51888321 -0.01336143 1.51888321 -0.01336143 3.06845093 -0.0269928 C6.39062396 -0.04817308 9.71083547 -0.02602424 13.03295898 -0.0012207 C15.35505877 -0.00272436 17.67715803 -0.00615743 19.99925232 -0.01142883 C24.85539115 -0.01575212 29.71086403 0.0010185 34.56689453 0.03320312 C40.77996909 0.07300443 46.99179692 0.06366897 53.20491123 0.03896809 C57.99633439 0.0247625 62.78746806 0.03488944 67.57887077 0.0524807 C69.86931606 0.05831515 72.15979115 0.05705092 74.45022774 0.04845619 C77.65498481 0.04043362 80.8579351 0.06478785 84.0625 0.09765625 C85.00142593 0.08910614 85.94035187 0.08055603 86.9077301 0.07174683 C93.23313278 0.18329124 97.615654 1.60608373 102.46655273 5.76049805 C107.40407418 11.58738998 109.01735698 18.32664235 110.76342773 25.62768555 C111.04252991 26.74362091 111.32163208 27.85955627 111.60919189 29.00930786 C112.49157743 32.5482384 113.35464951 36.0915293 114.21655273 39.63549805 C115.09681595 43.19977167 115.98097891 46.76305231 116.86676025 50.32595825 C117.41509407 52.53740816 117.95944425 54.74985032 118.49945068 56.96334839 C118.74350647 57.95843414 118.98756226 58.9535199 119.23901367 59.97875977 C119.45265564 60.85619843 119.66629761 61.73363708 119.88641357 62.63766479 C120.40076868 64.79193565 120.40076868 64.79193565 121.46655273 66.76049805 C124.17960731 67.24595368 124.17960731 67.24595368 127.50952148 67.4362793 C128.79689209 67.53932373 130.0842627 67.64236816 131.41064453 67.74853516 C132.10185394 67.80089325 132.79306335 67.85325134 133.50521851 67.90719604 C145.63876513 68.84340894 157.64850217 70.20584058 169.65405273 72.19799805 C171.44782349 72.48767456 171.44782349 72.48767456 173.27783203 72.78320312 C183.03007915 74.4592958 193.05166456 76.33044803 201.46655273 81.76049805 C201.34155273 84.01049805 201.34155273 84.01049805 200.46655273 86.76049805 C196.02984369 90.26638146 191.77104733 91.86456882 186.40405273 93.26049805 C185.61587158 93.46989014 184.82769043 93.67928223 184.015625 93.89501953 C156.87072624 100.91244893 128.90368832 103.67277659 100.96655273 105.01049805 C100.11508667 105.05160706 99.26362061 105.09271606 98.38635254 105.1350708 C87.07420299 105.66473758 75.79031113 105.85893381 64.46655273 105.76049805 C64.19472168 106.61208496 63.92289063 107.46367188 63.64282227 108.34106445 C62.45396204 111.79709939 61.09320307 115.11571323 59.64624023 118.47143555 C59.38271759 119.08443512 59.11919495 119.69743469 58.84768677 120.32901001 C58.01459248 122.26549909 57.1781336 124.20051303 56.34155273 126.13549805 C55.77231829 127.45701615 55.20330571 128.77862985 54.63452148 130.1003418 C53.24776101 133.32150265 51.85798147 136.5413505 50.46655273 139.76049805 C49.80655273 139.76049805 49.14655273 139.76049805 48.46655273 139.76049805 C47.87487305 138.66350586 47.28319336 137.56651367 46.67358398 136.4362793 C45.87585895 134.98160423 45.07765647 133.52719091 44.27905273 132.07299805 C43.89168945 131.35176758 43.50432617 130.63053711 43.10522461 129.88745117 C39.56598538 123.48172067 35.61059312 118.22843927 28.46655273 115.76049805 C21.53460014 114.8707834 15.88136184 115.03430877 10.15014648 119.27612305 C3.28147023 125.33203251 1.5288758 131.21124147 0.96411133 140.15478516 C0.83925964 142.69873545 0.7233881 145.24313731 0.61499023 147.7878418 C0.55131259 149.14550639 0.48689859 150.50313663 0.42178345 151.86073303 C0.25336732 155.41299174 0.09488194 158.96562487 -0.0614624 162.51843262 C-0.22315261 166.15213756 -0.39433725 169.78539421 -0.56469727 173.41870117 C-0.89684998 180.53222552 -1.21850198 187.64618937 -1.53344727 194.76049805 C-4.46139782 193.35804362 -6.43520608 192.07207723 -8.63500977 189.6706543 C-9.48687866 188.74978027 -9.48687866 188.74978027 -10.35595703 187.81030273 C-10.95077881 187.15449219 -11.54560059 186.49868164 -12.15844727 185.82299805 C-12.77582764 185.14785156 -13.39320801 184.47270508 -14.02929688 183.77709961 C-15.27863611 182.41065 -16.52629453 181.04266161 -17.7722168 179.6730957 C-19.32177902 177.99035791 -20.89699407 176.34298456 -22.49829102 174.7097168 C-30.51179131 166.38290672 -35.67806638 157.5711424 -35.64697266 145.78662109 C-35.64685936 144.34569344 -35.64685936 144.34569344 -35.64674377 142.87565613 C-35.64158249 141.85152115 -35.6364212 140.82738617 -35.63110352 139.7722168 C-35.62968857 138.71388138 -35.62827362 137.65554596 -35.6268158 136.56513977 C-35.62122886 133.19273016 -35.6086787 129.82038751 -35.59594727 126.44799805 C-35.59093058 124.15828547 -35.58636797 121.86857184 -35.58227539 119.57885742 C-35.5712637 113.97271487 -35.55453852 108.36661125 -35.53344727 102.76049805 C-36.16627121 102.77114792 -36.79909515 102.78179779 -37.45109558 102.79277039 C-42.79393535 102.84429896 -47.90803385 102.60299604 -53.20922852 101.8425293 C-53.89341354 101.74517487 -54.57759857 101.64782043 -55.28251648 101.54751587 C-57.47180023 101.23190685 -59.65892805 100.9039128 -61.84594727 100.57299805 C-62.97021118 100.40551559 -62.97021118 100.40551559 -64.1171875 100.23464966 C-73.32295256 98.85518388 -82.46989562 97.34491889 -91.53344727 95.19799805 C-92.31888916 95.01277588 -93.10433105 94.82755371 -93.91357422 94.63671875 C-109.67200814 90.6521229 -109.67200814 90.6521229 -113.53344727 85.76049805 C-113.47094727 83.26049805 -113.47094727 83.26049805 -112.53344727 80.76049805 C-100.24422946 69.50254327 -71.71213349 70.04325874 -56.03344727 68.51049805 C-55.21666504 68.43041504 -54.39988281 68.35033203 -53.55834961 68.26782227 C-47.8745919 67.76283369 -42.23751268 67.67935486 -36.53344727 67.76049805 C-36.34911133 66.86717773 -36.16477539 65.97385742 -35.97485352 65.0534668 C-33.76827189 54.64381188 -31.23818318 44.31322035 -28.62936401 33.99819946 C-28.23448608 32.43258033 -27.84278249 30.86615688 -27.45437622 29.29891968 C-22.12086642 7.82379742 -22.12086642 7.82379742 -13.10573006 2.03020287 C-8.78095782 -0.10454848 -4.75003775 -0.06954151 0 0 Z " fill="#B4821E" transform="translate(150.533447265625,7.239501953125)"/>
<path d="M0 0 C7.96084255 0.48739852 18.54800266 2.24095747 24.83203125 7.546875 C26.2104472 9.63063423 27.07925093 11.67371352 28 14 C28.81984375 15.73830078 28.81984375 15.73830078 29.65625 17.51171875 C37.82687517 34.96714524 42.68423039 53.33490012 44.625 72.5 C44.74617187 73.62019531 44.86734375 74.74039063 44.9921875 75.89453125 C45.34944642 79.26130824 45.68123353 82.62937176 46 86 C46.10078857 87.05018311 46.20157715 88.10036621 46.30541992 89.18237305 C47.05069804 97.73169312 47.11759149 106.23589798 47.0625 114.8125 C47.05746684 116.19856606 47.0529072 117.58463393 47.04882812 118.97070312 C47.03717963 122.31382141 47.01925 125.65691684 47 129 C52.28 129 57.56 129 63 129 C63.19923282 136.16740059 63.34362301 143.33315539 63.43945312 150.50268555 C63.47943997 152.93623975 63.53384969 155.36960478 63.60351562 157.80249023 C64.28414582 182.20008009 64.28414582 182.20008009 56.83007812 192.09887695 C56.22615234 192.72624756 55.62222656 193.35361816 55 194 C54.67 194 54.34 194 54 194 C53.87882813 192.72382813 53.75765625 191.44765625 53.6328125 190.1328125 C53.46400509 188.46349474 53.2947089 186.79422635 53.125 185.125 C53.04636719 184.28324219 52.96773437 183.44148437 52.88671875 182.57421875 C52.80292969 181.76855469 52.71914063 180.96289062 52.6328125 180.1328125 C52.55949707 179.38918457 52.48618164 178.64555664 52.41064453 177.87939453 C52.12608718 175.76617496 52.12608718 175.76617496 50 174 C43.02177789 174.4687855 37.17927154 177.17642645 30.83862305 179.92773438 C28.94427613 180.74706922 27.04222575 181.54607964 25.13867188 182.34375 C13.23818341 187.45570889 8.24650279 192.00845833 2.84765625 203.7578125 C1.44080682 206.36625673 0.22982391 208.03857034 -2 210 C-4.71180725 210.576828 -4.71180725 210.576828 -7.98071289 210.70776367 C-9.23465851 210.76445221 -10.48860413 210.82114075 -11.7805481 210.87954712 C-13.18698227 210.92140588 -14.59347024 210.96148647 -16 211 C-17.50390219 211.05046728 -19.00779808 211.1011223 -20.51168823 211.15194702 C-25.63081885 211.31259276 -30.75067536 211.42472633 -35.87109375 211.53515625 C-37.76571712 211.5783199 -39.66033476 211.62173616 -41.5549469 211.66539001 C-45.5041166 211.75567444 -49.4533276 211.84370256 -53.40258789 211.92993164 C-58.42288398 212.03961656 -63.44306532 212.15378154 -68.46322536 212.26950932 C-72.3695013 212.35925926 -76.27581621 212.44720594 -80.18214607 212.53457451 C-82.03141247 212.57603048 -83.88066998 212.61788477 -85.72991753 212.66017342 C-88.33089659 212.71925929 -90.93191647 212.77606031 -93.53295898 212.83227539 C-94.63934471 212.85797104 -94.63934471 212.85797104 -95.76808167 212.88418579 C-103.18272529 213.03991706 -110.57739867 213 -118 213 C-118 185.28 -118 157.56 -118 129 C-112.39 129 -106.78 129 -101 129 C-101.56445798 89.42954896 -103.57302508 53.92458132 -123.08789062 18.66601562 C-124.10887331 16.80113718 -125.07294647 14.91328068 -126 13 C-124.28133783 11.9615789 -122.54955402 10.94485365 -120.8125 9.9375 C-119.84957031 9.36902344 -118.88664062 8.80054688 -117.89453125 8.21484375 C-115 7 -115 7 -112.37890625 6.9375 C-106.96470603 9.35566496 -104.5683221 16.85342031 -102 22 C-101.68740234 22.62390625 -101.37480469 23.2478125 -101.05273438 23.890625 C-91.98363725 42.3783776 -88.13470025 61.65025568 -86 82 C-85.505 86.455 -85.505 86.455 -85 91 C-85 103.54 -85 116.08 -85 129 C-46.72 129 -8.44 129 31 129 C28.76716173 61.93593741 28.76716173 61.93593741 1.3203125 2.8984375 C0 1 0 1 0 0 Z " fill="#C79633" transform="translate(226,235)"/>
<path d="M0 0 C0.99 0 1.98 0 3 0 C3.43699219 1.41539062 3.43699219 1.41539062 3.8828125 2.859375 C9.05257276 19.22135557 15.92555985 34.52119204 31 44 C41.0907556 49.21468578 50.56389497 52.17562709 61.96875 49.234375 C68.00147259 46.65411413 70.57899964 43.3638051 73.16015625 37.40234375 C74.5065878 33.55092327 75.14217532 30.09760674 75.31640625 26.015625 C75.35830078 25.08105469 75.40019531 24.14648438 75.44335938 23.18359375 C75.48267578 22.21550781 75.52199219 21.24742187 75.5625 20.25 C75.62727539 18.77466797 75.62727539 18.77466797 75.69335938 17.26953125 C75.79922052 14.84648725 75.90130171 12.4233446 76 10 C78.97 10.495 78.97 10.495 82 11 C81.67 11.66 81.34 12.32 81 13 C81.92619141 14.29357422 81.92619141 14.29357422 82.87109375 15.61328125 C92.39777459 29.22336644 99.88799681 43.83492324 104 60 C104.35118896 61.23109497 104.35118896 61.23109497 104.70947266 62.48706055 C107.00474789 70.89479975 107.90801351 79.2837582 108.625 87.9375 C108.74653604 89.31452928 108.86892896 90.69148321 108.9921875 92.06835938 C109.23339019 94.78292202 109.46353118 97.49807864 109.68457031 100.21435547 C109.87469615 102.49615981 110.07823229 104.7769832 110.30761719 107.05517578 C111.38330146 118.45176754 111 129.37651735 111 141 C72.72 141 34.44 141 -5 141 C-5.33 128.46 -5.66 115.92 -6 103 C-6.82988202 94.58801407 -7.68099287 86.3256127 -9 78 C-9.10538086 77.29020996 -9.21076172 76.58041992 -9.31933594 75.84912109 C-12.37914386 55.68950137 -19.93501405 33.89472946 -33 18 C-32.03586182 17.49025635 -31.07172363 16.9805127 -30.07836914 16.45532227 C-26.51228814 14.56930597 -22.9474795 12.68089596 -19.38305664 10.79174805 C-17.83815739 9.97338216 -16.29291067 9.15567186 -14.74731445 8.33862305 C-12.52985108 7.16626104 -10.31363498 5.99157153 -8.09765625 4.81640625 C-7.4028566 4.44971329 -6.70805695 4.08302032 -5.99220276 3.70521545 C-2.79423594 2.14303931 -2.79423594 2.14303931 0 0 Z " fill="#A9CBF9" transform="translate(146,223)"/>
<path d="M0 0 C8.71138541 3.52559281 12.65513828 16.77481832 16.18603516 25.00146484 C20.63816937 35.93282977 23.28408359 47.34645004 25 59 C25.17208984 60.09699219 25.34417969 61.19398438 25.52148438 62.32421875 C27.13177204 73.57916224 27.23369409 84.64659437 27.125 96 C27.11493715 97.85416176 27.10581721 99.70832889 27.09765625 101.5625 C27.07765887 106.04191335 27.03846849 110.52055782 27 115 C21.39 115 15.78 115 10 115 C10 131.17 10 147.34 10 164 C-13.43 164 -36.86 164 -61 164 C-61.16043524 138.0674265 -61.16043524 138.0674265 -61.1953125 126.95507812 C-61.21916034 119.39286984 -61.24727595 111.83085656 -61.30175781 104.26879883 C-61.34543757 98.16740986 -61.36918383 92.06623022 -61.37950897 85.96469688 C-61.38686072 83.64485063 -61.40121629 81.32501494 -61.42292023 79.00525856 C-61.59411193 59.93780609 -59.97974856 42.59824603 -46.09790039 28.01074219 C-37.4743402 19.74545164 -26.87796613 14.49056286 -16.375 9.0625 C-14.17551528 7.91608295 -11.97733256 6.76722339 -9.77993774 5.61680603 C-8.42479793 4.90835436 -7.06821728 4.20265036 -5.71005249 3.50001526 C-2.65786925 2.03679068 -2.65786925 2.03679068 0 0 Z " fill="#A9CBF9" transform="translate(98,249)"/>
<path d="M0 0 C21.74971025 1.49892946 43.60110456 3.57065947 64.875 8.5 C66.12156372 8.78387573 66.12156372 8.78387573 67.39331055 9.07348633 C72.50734793 10.3422949 76.53833359 12.19212461 81 15 C80.875 17.25 80.875 17.25 80 20 C75.56329096 23.50588341 71.30449459 25.10407077 65.9375 26.5 C65.14931885 26.70939209 64.3611377 26.91878418 63.54907227 27.13452148 C36.4041735 34.15195088 8.43713558 36.91227855 -19.5 38.25 C-20.35146606 38.29110901 -21.20293213 38.33221802 -22.0802002 38.37457275 C-33.39234975 38.90423953 -44.67624161 39.09843576 -56 39 C-56.27183105 39.85158691 -56.54366211 40.70317383 -56.82373047 41.58056641 C-58.0125907 45.03660135 -59.37334967 48.35521519 -60.8203125 51.7109375 C-61.08383514 52.32393707 -61.34735779 52.93693665 -61.61886597 53.56851196 C-62.45196026 55.50500105 -63.28841913 57.44001498 -64.125 59.375 C-64.69423445 60.69651811 -65.26324702 62.01813181 -65.83203125 63.33984375 C-67.21879172 66.5610046 -68.60857126 69.78085246 -70 73 C-70.66 73 -71.32 73 -72 73 C-72.88751953 71.35451172 -72.88751953 71.35451172 -73.79296875 69.67578125 C-74.59069379 68.22110618 -75.38889626 66.76669286 -76.1875 65.3125 C-76.57486328 64.59126953 -76.96222656 63.87003906 -77.36132812 63.12695312 C-80.90056735 56.72122262 -84.85595961 51.46794122 -92 49 C-98.9319526 48.11028535 -104.5851909 48.27381073 -110.31640625 52.515625 C-117.1850825 58.57153446 -118.93767693 64.45074343 -119.50244141 73.39428711 C-119.6272931 75.9382374 -119.74316464 78.48263926 -119.8515625 81.02734375 C-119.91524015 82.38500834 -119.97965414 83.74263858 -120.04476929 85.10023499 C-120.21318541 88.6524937 -120.37167079 92.20512682 -120.52801514 95.75793457 C-120.68970534 99.39163952 -120.86088999 103.02489616 -121.03125 106.65820312 C-121.36340272 113.77172747 -121.68505472 120.88569133 -122 128 C-124.92795055 126.59754557 -126.90175881 125.31157918 -129.1015625 122.91015625 C-129.9534314 121.98928223 -129.9534314 121.98928223 -130.82250977 121.04980469 C-131.41733154 120.39399414 -132.01215332 119.73818359 -132.625 119.0625 C-133.24238037 118.38735352 -133.85976074 117.71220703 -134.49584961 117.01660156 C-135.74518885 115.65015195 -136.99284726 114.28216356 -138.23876953 112.91259766 C-139.78833175 111.22985986 -141.36354681 109.58248651 -142.96484375 107.94921875 C-150.97834404 99.62240867 -156.14461911 90.81064435 -156.11352539 79.02612305 C-156.11341209 77.58519539 -156.11341209 77.58519539 -156.11329651 76.11515808 C-156.10813522 75.0910231 -156.10297394 74.06688812 -156.09765625 73.01171875 C-156.0962413 71.95338333 -156.09482635 70.89504791 -156.09336853 69.80464172 C-156.08778159 66.43223211 -156.07523144 63.05988946 -156.0625 59.6875 C-156.05748331 57.39778742 -156.0529207 55.10807379 -156.04882812 52.81835938 C-156.03781643 47.21221683 -156.02109126 41.6061132 -156 36 C-156.63282394 36.01064987 -157.26564789 36.02129974 -157.91764832 36.03227234 C-163.26048808 36.08380091 -168.37458659 35.84249799 -173.67578125 35.08203125 C-174.35996628 34.98467682 -175.04415131 34.88732239 -175.74906921 34.78701782 C-177.93835297 34.4714088 -180.12548078 34.14341475 -182.3125 33.8125 C-183.43676392 33.64501755 -183.43676392 33.64501755 -184.58374023 33.47415161 C-193.78950529 32.09468583 -202.93644836 30.58442084 -212 28.4375 C-212.78544189 28.25227783 -213.57088379 28.06705566 -214.38012695 27.8762207 C-230.13856087 23.89162485 -230.13856087 23.89162485 -234 19 C-233.9375 16.5 -233.9375 16.5 -233 14 C-220.71078219 2.74204523 -192.17868623 3.2827607 -176.5 1.75 C-175.68321777 1.66991699 -174.86643555 1.58983398 -174.02490234 1.50732422 C-168.33451286 1.00174643 -162.71227968 0.93923107 -157 1 C-157.66 4.63 -158.32 8.26 -159 12 C-157.07414062 12.09087891 -157.07414062 12.09087891 -155.109375 12.18359375 C-153.32291602 12.26821549 -151.53645772 12.35285172 -149.75 12.4375 C-148.91597656 12.47681641 -148.08195312 12.51613281 -147.22265625 12.55664062 C-146.33964844 12.59853516 -145.45664063 12.64042969 -144.546875 12.68359375 C-143.02380737 12.75332397 -143.02380737 12.75332397 -141.4699707 12.82446289 C-139.02737513 12.94802767 -136.58578511 13.09234629 -134.14526367 13.25170898 C-116.93225101 14.32996166 -99.68467542 14.19652743 -82.44548416 14.18847656 C-79.79567519 14.18749376 -77.14587202 14.18848292 -74.49606323 14.18969727 C-48.95174987 14.1940618 -23.48824538 13.86432842 2 12 C1.67 10.7625 1.34 9.525 1 8.25 C0.20108841 5.25408155 0 3.19892281 0 0 Z " fill="#C79531" transform="translate(271,74)"/>
<path d="M0 0 C14.90098764 3.5885406 30.30703732 8.22579839 43 17 C43.8559375 17.58136719 44.711875 18.16273438 45.59375 18.76171875 C61.45680053 30.4386865 70.79521484 48.85554836 74 68 C74.88451123 75.28998723 75.07727595 82.60038625 75.125 89.9375 C75.13225098 90.93166931 75.13950195 91.92583862 75.14697266 92.95013428 C75.13329661 109.96621841 72.38807335 121.12144556 62.11865234 135.01464844 C58.50911623 140.10077514 55.48257829 145.52870557 52.36938477 150.9274292 C50.70613638 153.79565859 49.00330644 156.63927575 47.30078125 159.484375 C46.73528564 160.43022461 46.16979004 161.37607422 45.5871582 162.35058594 C45.063396 163.22489258 44.53963379 164.09919922 44 165 C43.45754639 165.93875977 42.91509277 166.87751953 42.35620117 167.84472656 C41.90865479 168.5559668 41.4611084 169.26720703 41 170 C40.67 170 40.34 170 40 170 C40 154.16 40 138.32 40 122 C34.39 122 28.78 122 23 122 C22.95101563 120.12441406 22.90203125 118.24882812 22.8515625 116.31640625 C21.68498445 75.05209902 17.74084652 37.75817335 0 0 Z " fill="#A9CBF9" transform="translate(250,242)"/>
<path d="M0 0 C2.20836398 0.1453685 4.41668901 0.2913287 6.625 0.4375 C7.85476562 0.51871094 9.08453125 0.59992188 10.3515625 0.68359375 C12.92293161 0.85353186 15.49189006 1.0384837 18.06106567 1.23948669 C27.26467971 1.94517951 36.45557003 2.29159626 45.6796875 2.53515625 C47.22910286 2.57830265 48.77851072 2.62171905 50.32791138 2.66539001 C54.35541889 2.7781988 58.38301587 2.88740342 62.41064453 2.99578857 C66.54075196 3.1075928 70.67076151 3.22290084 74.80078125 3.33789062 C82.86709711 3.56197147 90.93351118 3.78223467 99 4 C98.23181386 8.17351378 96.97014352 11.71093231 95.27734375 15.61328125 C94.87993736 16.53490303 94.87993736 16.53490303 94.47450256 17.47514343 C93.63337662 19.42293164 92.78555741 21.36772118 91.9375 23.3125 C91.36348661 24.63847903 90.7899142 25.96464905 90.21679688 27.29101562 C88.81629428 30.52956966 87.40977678 33.76547053 86 37 C85.34 37 84.68 37 84 37 C83.40832031 35.90300781 82.81664062 34.80601562 82.20703125 33.67578125 C81.40930621 32.22110618 80.61110374 30.76669286 79.8125 29.3125 C79.42513672 28.59126953 79.03777344 27.87003906 78.63867188 27.12695312 C75.09943265 20.72122262 71.14404039 15.46794122 64 13 C57.0680474 12.11028535 51.4148091 12.27381073 45.68359375 16.515625 C38.8149175 22.57153446 37.06232307 28.45074343 36.49755859 37.39428711 C36.3727069 39.9382374 36.25683536 42.48263926 36.1484375 45.02734375 C36.08475985 46.38500834 36.02034586 47.74263858 35.95523071 49.10023499 C35.78681459 52.6524937 35.62832921 56.20512682 35.47198486 59.75793457 C35.31029466 63.39163952 35.13911001 67.02489616 34.96875 70.65820312 C34.63659728 77.77172747 34.31494528 84.88569133 34 92 C31.07204945 90.59754557 29.09824119 89.31157918 26.8984375 86.91015625 C26.3305249 86.29624023 25.7626123 85.68232422 25.17749023 85.04980469 C24.28525757 84.06608887 24.28525757 84.06608887 23.375 83.0625 C22.75761963 82.38735352 22.14023926 81.71220703 21.50415039 81.01660156 C20.25481115 79.65015195 19.00715274 78.28216356 17.76123047 76.91259766 C16.21166825 75.22985986 14.63645319 73.58248651 13.03515625 71.94921875 C5.02165596 63.62240867 -0.14461911 54.81064435 -0.11352539 43.02612305 C-0.11344986 42.06550461 -0.11337433 41.10488617 -0.11329651 40.11515808 C-0.10813522 39.0910231 -0.10297394 38.06688812 -0.09765625 37.01171875 C-0.0962413 35.95338333 -0.09482635 34.89504791 -0.09336853 33.80464172 C-0.08778159 30.43223211 -0.07523144 27.05988946 -0.0625 23.6875 C-0.05748331 21.39778742 -0.0529207 19.10807379 -0.04882812 16.81835938 C-0.03781643 11.21221683 -0.02109126 5.6061132 0 0 Z " fill="#323232" transform="translate(115,110)"/>
<path d="M0 0 C7.96084255 0.48739852 18.54800266 2.24095747 24.83203125 7.546875 C26.2104472 9.63063423 27.07925093 11.67371352 28 14 C28.5465625 15.15886719 29.093125 16.31773437 29.65625 17.51171875 C37.82687517 34.96714524 42.68423039 53.33490012 44.625 72.5 C44.74617188 73.62019531 44.86734375 74.74039063 44.9921875 75.89453125 C45.34944147 79.26126161 45.67897753 82.6296382 46 86 C46.09788818 86.94939453 46.19577637 87.89878906 46.29663086 88.87695312 C47.25440296 99.29890037 47.25670644 109.75600097 47.29516602 120.21386719 C47.3067979 122.41901 47.32742125 124.62412232 47.35668945 126.82910156 C47.3991961 130.04250888 47.41549723 133.25509725 47.42578125 136.46875 C47.44328934 137.45210327 47.46079742 138.43545654 47.47883606 139.4486084 C47.46509292 143.76409652 47.40469705 146.30938103 45.18823242 150.09179688 C42.11987409 152.76749572 40.03881931 153.07085648 36 153 C33.31494141 151.54516602 33.31494141 151.54516602 31 149 C30.51704089 145.89160114 30.3480778 143.3208044 30.3984375 140.21484375 C30.38812752 138.89983383 30.38812752 138.89983383 30.37760925 137.55825806 C30.36405946 135.66902124 30.3609675 133.77968644 30.36721802 131.89041138 C30.380362 126.90286277 30.30894185 121.91664782 30.23828125 116.9296875 C30.2187867 115.42019279 30.2187867 115.42019279 30.19889832 113.88020325 C30.04848174 104.40242966 29.42078517 94.99984377 28.5625 85.5625 C28.50060486 84.85850067 28.43870972 84.15450134 28.37493896 83.4291687 C27.30523511 71.38479997 25.91550845 59.39599691 22.8125 47.6875 C22.60036865 46.88699219 22.3882373 46.08648437 22.16967773 45.26171875 C17.92874728 29.9840954 10.64005905 15.68787324 1.3203125 2.8984375 C0 1 0 1 0 0 Z " fill="#5B5C5D" transform="translate(226,235)"/>
<path d="M0 0 C5.41420022 2.41816496 7.81058415 9.91592031 10.37890625 15.0625 C10.69150391 15.68640625 11.00410156 16.3103125 11.32617188 16.953125 C20.395269 35.4408776 24.244206 54.71275568 26.37890625 75.0625 C26.46068619 75.67965881 26.54246613 76.29681763 26.62672424 76.93267822 C27.47367062 83.62610375 27.57436313 90.27453818 27.6171875 97.015625 C27.62525925 98.23401062 27.63333099 99.45239624 27.64164734 100.70770264 C27.65541227 103.26931362 27.66616797 105.83094236 27.67407227 108.39257812 C27.68566016 111.01307546 27.70621731 113.63354798 27.7355957 116.25390625 C27.778103 120.04964147 27.79441093 123.84468191 27.8046875 127.640625 C27.82219559 128.81151672 27.83970367 129.98240845 27.85774231 131.18878174 C27.8361312 139.25340715 27.8361312 139.25340715 25.56713867 143.26855469 C22.45051936 145.8236053 20.38740948 146.20314924 16.37890625 146.0625 C13.79563484 144.40655679 12.80566223 143.67617191 11.37890625 141.0625 C10.64542949 136.87067982 10.729837 132.72244661 10.77734375 128.4765625 C10.76933746 127.22861908 10.76133118 125.98067566 10.75308228 124.69491577 C10.733886 121.36603284 10.73438598 118.03848207 10.74688721 114.70965576 C10.87615564 77.46798306 7.51947385 44.66285946 -10.70898438 11.72851562 C-11.72996706 9.86363718 -12.69404022 7.97578068 -13.62109375 6.0625 C-11.90243158 5.0240789 -10.17064777 4.00735365 -8.43359375 3 C-7.47066406 2.43152344 -6.50773437 1.86304688 -5.515625 1.27734375 C-2.62109375 0.0625 -2.62109375 0.0625 0 0 Z " fill="#5B5C5C" transform="translate(113.62109375,241.9375)"/>
<path d="M0 0 C2.31 0 4.62 0 7 0 C7 24.75 7 49.5 7 75 C11.95 74.505 11.95 74.505 17 74 C20.52745356 73.75199723 24.05660323 73.6068139 27.58984375 73.46484375 C28.61013168 73.42310532 29.63041962 73.38136688 30.68162537 73.33836365 C39.41222557 73.00855712 48.14327014 72.85965805 56.87890625 72.75390625 C57.55856823 72.74551098 58.23823021 72.73711571 58.93848801 72.72846603 C65.2501655 72.65132822 71.56188338 72.57991267 77.8737793 72.52319336 C81.37695346 72.49130499 84.87991606 72.45008408 88.3829174 72.40299797 C90.32759965 72.37952552 92.27239736 72.36632789 94.21717834 72.35340881 C104.12735735 72.67587847 104.12735735 72.67587847 112.56982422 68.39941406 C112.8948291 67.77776367 113.21983398 67.15611328 113.5546875 66.515625 C113.94269531 65.82726562 114.33070313 65.13890625 114.73046875 64.4296875 C115.10816406 63.71039063 115.48585938 62.99109375 115.875 62.25 C122.11067317 50.38701202 132.51875461 46.61534002 144.4375 41.6875 C145.72888275 41.14605708 147.01990127 40.60374459 148.31054688 40.06054688 C150.65365213 39.07587148 152.99844197 38.09518787 155.34545898 37.11987305 C156.91624886 36.45720284 158.47513603 35.76243198 160 35 C165.45226084 34.5723717 169.25692887 35.22575085 174 38 C177.40595099 42.36660383 178.75542992 46.02339762 178.53515625 51.578125 C177.50236914 56.25205205 174.85526455 60.21143568 172 64 C171.67 64 171.34 64 171 64 C170.87882813 62.72382813 170.75765625 61.44765625 170.6328125 60.1328125 C170.46400509 58.46349474 170.2947089 56.79422635 170.125 55.125 C170.04636719 54.28324219 169.96773437 53.44148438 169.88671875 52.57421875 C169.80292969 51.76855469 169.71914063 50.96289062 169.6328125 50.1328125 C169.55949707 49.38918457 169.48618164 48.64555664 169.41064453 47.87939453 C169.12608718 45.76617496 169.12608718 45.76617496 167 44 C160.02177789 44.4687855 154.17927154 47.17642645 147.83862305 49.92773438 C145.94427613 50.74706922 144.04222575 51.54607964 142.13867188 52.34375 C130.23818341 57.45570889 125.24650279 62.00845833 119.84765625 73.7578125 C118.44624262 76.3561782 117.2665427 78.09740355 115 80 C111.03897578 81.06641621 107.22018632 81.08090524 103.13299561 81.01812744 C100.89751809 80.99912905 98.67589182 81.06048183 96.44189453 81.14208984 C91.14962188 81.33454279 85.85704698 81.45218045 80.5625 81.5625 C79.59697205 81.58367889 78.63144409 81.60485779 77.63665771 81.62667847 C51.75806489 82.1828479 25.88389365 82.06569516 0 82 C0 54.94 0 27.88 0 0 Z " fill="#B58320" transform="translate(109,365)"/>
<path d="M0 0 C1.54586876 3.09173752 1.29359521 5.59429552 1 9 C-1.09159584 12.17922568 -2.51874315 12.87040819 -6.19140625 13.859375 C-10.94785034 14.03499755 -13.54113472 12.38253944 -17.375 9.875 C-34.25053991 -0.33194783 -52.63986402 -2.99178062 -72 1 C-81.67535303 3.47369851 -89.49290429 7.09654448 -97.78125 12.5234375 C-101.73441526 14.33690409 -103.83918149 14.09521545 -108 13 C-111.44856798 10.15493142 -111.94350392 8.58379283 -112.375 4.125 C-111.63105816 0.24483273 -109.88311615 -1.31853665 -106.75 -3.625 C-75.052044 -23.391197 -29.43022212 -25.75144435 0 0 Z " fill="#595959" transform="translate(481,215)"/>
<path d="M0 0 C3.84547338 3.9453558 3.84547338 3.9453558 4.3125 7.1328125 C3.81482195 10.30551009 3.44319622 12.43270883 1.4375 15 C-2.19169937 16.48890231 -5.20460504 16.80469977 -9 16 C-11.81899765 14.65820636 -14.44499811 13.15929335 -17.09375 11.5078125 C-23.19363821 8.34308555 -29.44948297 7.60926899 -36.25 7.625 C-36.98653809 7.62661133 -37.72307617 7.62822266 -38.48193359 7.62988281 C-46.62280731 7.81051564 -53.83349833 9.90780164 -60.75 14.25 C-65.03236203 16.55588724 -67.19109276 16.63067636 -72 16 C-75.06458538 13.95694308 -75.82153128 12.55920198 -76.9375 9.0625 C-77.01391412 5.31820828 -76.15178231 4.02004535 -74 1 C-53.50735506 -15.52632657 -21.26564254 -13.42804748 0 0 Z " fill="#595959" transform="translate(462,233)"/>
<path d="M0 0 C5.0549762 1.90721973 8.92294016 4.98131848 11.25195312 9.91162109 C14.63420605 19.3541118 13.53319859 31.48814922 13.90039062 41.42138672 C13.98559811 43.62717454 14.09150235 45.83060888 14.203125 48.03515625 C14.42656365 54.85801506 13.85699968 59.26960048 10 65 C9.01 65.33 8.02 65.66 7 66 C7 66.66 7 67.32 7 68 C2.05 68 -2.9 68 -8 68 C-4.66608945 64.66608945 -1.49809621 62.08212456 2.29296875 59.3671875 C4.12787013 58.09305272 4.12787013 58.09305272 5 56 C5.04095452 53.39200145 5.0211442 50.8163381 4.94921875 48.2109375 C4.9303511 47.43368317 4.91148346 46.65642883 4.89204407 45.85562134 C4.85011643 44.20624738 4.80537451 42.55694296 4.75805664 40.90771484 C4.68836532 38.40606178 4.63369685 35.90438616 4.58007812 33.40234375 C4.53738192 31.79685017 4.49378971 30.19138013 4.44921875 28.5859375 C4.43453049 27.84604584 4.41984222 27.10615417 4.40470886 26.34384155 C4.22625496 20.82978323 3.88946049 14.65159582 0.60546875 10.04296875 C-2.81584108 7.82036601 -6.20423641 8.22217959 -10 9 C-14.6135112 10.90558071 -18.95713027 13.24003521 -23.35205078 15.59912109 C-28.81395522 18.48870321 -34.35079812 21.23204034 -39.875 24 C-41.61511353 24.8820813 -41.61511353 24.8820813 -43.39038086 25.78198242 C-45.01858765 26.60146362 -45.01858765 26.60146362 -46.6796875 27.4375 C-47.65663574 27.93121094 -48.63358398 28.42492187 -49.64013672 28.93359375 C-52 30 -52 30 -54 30 C-53.41646396 28.3024406 -52.71949183 26.64455275 -52 25 C-51.75701172 24.40413086 -51.51402344 23.80826172 -51.26367188 23.19433594 C-47.50686904 15.69940224 -40.49708107 13.35454178 -33.1875 10.25 C-31.92804444 9.69626126 -30.66956991 9.14028558 -29.41210938 8.58203125 C-27.00713184 7.5154053 -24.59769705 6.46282898 -22.18310547 5.41772461 C-19.54678613 4.24353329 -17.00483188 2.99547349 -14.45703125 1.64453125 C-9.46677562 -0.72936437 -5.40608395 -0.89707943 0 0 Z " fill="#B0B4C7" transform="translate(335,399)"/>
<path d="M0 0 C2.23605352 2.45965887 2.79412505 3.746627 2.875 7.0625 C2.09862448 10.02684289 1.25283439 11.67117152 -0.875 13.875 C-3.90691945 15.47517971 -5.72077719 15.4629968 -9.125 15.0625 C-10.176875 14.5675 -11.22875 14.0725 -12.3125 13.5625 C-17.47049286 11.16077383 -23.77596527 10.9525342 -29.17578125 12.7421875 C-30.82754165 13.51129988 -32.47638004 14.28667884 -34.125 15.0625 C-37.92831361 15.59496391 -39.58789936 15.34272642 -43 13.5625 C-45.43476324 10.69807266 -45.87530673 8.772325 -45.58984375 5.01953125 C-44.73318057 1.41290726 -43.12308553 0.17879567 -40.125 -1.9375 C-27.16346805 -8.78891637 -12.28580409 -7.61719854 0 0 Z " fill="#595959" transform="translate(447.125,254.9375)"/>
</svg>
