<?xml version="1.0" encoding="UTF-8"?>
<svg version="1.1" xmlns="http://www.w3.org/2000/svg" width="512" height="512">
<path d="M0 0 C1.02417526 -0.0038269 2.04835052 -0.00765381 3.1035614 -0.01159668 C5.27648905 -0.01431948 7.44944926 -0.00693267 9.62231445 0.00976562 C12.89937609 0.03092813 16.17418402 0.01010209 19.45117188 -0.015625 C41.82730846 -0.04730701 60.76669391 4.63452033 77.03515625 20.78515625 C81.94338058 25.96605971 86.16570721 30.7771518 88.63671875 37.53125 C89.29671875 37.53125 89.95671875 37.53125 90.63671875 37.53125 C90.90226562 36.79519531 91.1678125 36.05914062 91.44140625 35.30078125 C97.68280907 20.83949171 112.68884018 10.53346275 126.72387695 4.67529297 C138.6493806 -0.00854829 150.15456137 0.03507057 162.83007812 0.08520508 C166.15686218 0.09380205 169.48197487 0.06473853 172.80859375 0.03320312 C174.92838491 0.03159298 177.04817909 0.03216506 179.16796875 0.03515625 C180.15962036 0.02392227 181.15127197 0.01268829 182.17297363 0.00111389 C188.97317679 0.07030589 188.97317679 0.07030589 192.2578125 2.35205078 C195.97665762 8.22924828 194.08497213 17.76328538 193.01171875 24.390625 C188.50106445 43.48035839 177.15857455 59.79435772 160.63671875 70.53125 C140.20120598 82.10161483 122.19482551 80.53125 97.63671875 80.53125 C97.63671875 106.93125 97.63671875 133.33125 97.63671875 160.53125 C102.58671875 160.53125 107.53671875 160.53125 112.63671875 160.53125 C115.67589976 160.98084785 118.34432297 161.42895368 121.26171875 162.21875 C121.97062256 162.40026611 122.67952637 162.58178223 123.40991211 162.76879883 C143.7941817 168.17415351 159.70918892 178.28411648 174.86328125 192.640625 C184.67562993 201.76651307 196.68182177 205.3721005 209.63671875 207.53125 C209.63671875 194.66125 209.63671875 181.79125 209.63671875 168.53125 C198.46430869 168.68818872 198.46430869 168.68818872 187.29272461 168.89160156 C167.68277367 169.13047748 150.06479702 163.49545151 135.71337891 149.73120117 C121.96876609 136.0030349 113.62305468 119.68081628 113.19921875 100.03125 C113.17674072 99.34812744 113.1542627 98.66500488 113.13110352 97.96118164 C113.14566278 94.96234559 113.40395741 92.89867277 115.02001953 90.34765625 C119.11445919 87.50546264 123.12891665 87.95984609 128 88 C129.53626289 87.99425964 129.53626289 87.99425964 131.1035614 87.98840332 C133.27648905 87.98568052 135.44944926 87.99306733 137.62231445 88.00976562 C140.89937609 88.03092813 144.17418402 88.01010209 147.45117188 87.984375 C169.82730846 87.95269299 188.76669391 92.63452033 205.03515625 108.78515625 C209.94338058 113.96605971 214.16570721 118.7771518 216.63671875 125.53125 C217.29671875 125.53125 217.95671875 125.53125 218.63671875 125.53125 C218.90226563 124.79519531 219.1678125 124.05914062 219.44140625 123.30078125 C225.68280907 108.83949171 240.68884018 98.53346275 254.72387695 92.67529297 C266.6493806 87.99145171 278.15456137 88.03507057 290.83007812 88.08520508 C294.15686218 88.09380205 297.48197487 88.06473853 300.80859375 88.03320312 C302.92838491 88.03159298 305.04817909 88.03216506 307.16796875 88.03515625 C308.15962036 88.02392227 309.15127197 88.01268829 310.17297363 88.00111389 C316.97317679 88.07030589 316.97317679 88.07030589 320.2578125 90.35205078 C323.97665762 96.22924828 322.08497213 105.76328538 321.01171875 112.390625 C316.50106445 131.48035839 305.15857455 147.79435772 288.63671875 158.53125 C273.66432933 167.00845387 259.8129529 168.97990025 242.88671875 168.71875 C237.19421875 168.656875 231.50171875 168.595 225.63671875 168.53125 C225.63671875 181.40125 225.63671875 194.27125 225.63671875 207.53125 C243.47218394 203.7093646 253.46568502 199.41986251 266.44921875 187.09375 C289.51598204 165.33165939 318.30651971 159.58802956 349.04101562 160.34765625 C356.26577636 160.7165468 362.80560514 162.23406135 369.63671875 164.53125 C370.74015625 164.881875 371.84359375 165.2325 372.98046875 165.59375 C387.67288974 170.7289651 399.7573634 178.83242735 411.18432617 189.22949219 C418.47321791 195.76241718 424.69799779 198.49766565 434.44921875 199.40625 C444.8279627 200.44363963 453.2702487 204.01299237 460.13671875 212.11328125 C465.55060707 220.84035644 466.25965802 228.09368846 466.13671875 238.34375 C466.1521875 239.65279297 466.16765625 240.96183594 466.18359375 242.31054688 C466.1784375 243.56544922 466.17328125 244.82035156 466.16796875 246.11328125 C466.16345703 247.24999268 466.15894531 248.3867041 466.15429688 249.55786133 C465.50024787 253.31524946 464.68189595 254.25956495 461.63671875 256.53125 C458.80572954 256.92322625 456.3643716 257.06897548 453.53442383 257.03461456 C452.70708048 257.04042833 451.87973713 257.04624209 451.02732277 257.05223203 C448.2366736 257.06690664 445.44689372 257.05291221 442.65625 257.03918457 C440.64274137 257.04379054 438.62923611 257.05014139 436.61573792 257.05809355 C431.06843888 257.07485177 425.52141372 257.06651104 419.97411346 257.05414867 C413.99720873 257.04512701 408.02035228 257.05905355 402.04345703 257.07006836 C391.00671807 257.08685817 379.97005479 257.08535934 368.93331528 257.07442249 C358.73824895 257.06436901 348.54321479 257.06172936 338.34814453 257.06651306 C337.67246276 257.0668186 336.99678099 257.06712414 336.30062401 257.06743894 C333.55796393 257.06868425 330.81530386 257.06995785 328.07264382 257.071278 C302.3327585 257.08352009 276.59292907 257.07241051 250.85305238 257.05089041 C227.97361956 257.0319073 205.09427579 257.03360578 182.21484375 257.05273438 C156.52270643 257.07414265 130.83061851 257.08265197 105.13847351 257.07028532 C102.40074667 257.06900241 99.66301983 257.06775105 96.92529297 257.06651306 C96.25117123 257.06619675 95.57704949 257.06588044 94.88249981 257.06555455 C84.69264911 257.06100041 74.50283405 257.06633365 64.31298828 257.07643127 C52.72923192 257.08785281 41.14556032 257.08465597 29.56181335 257.0633083 C23.64745104 257.05276929 17.73326981 257.04872454 11.81890869 257.06190491 C6.41056238 257.07377565 1.00256595 257.06735441 -4.40574837 257.0459947 C-6.3679984 257.04150599 -8.33027766 257.04384531 -10.29250908 257.05349785 C-12.94909521 257.06556916 -15.60446496 257.05328201 -18.26098633 257.03461456 C-19.41789002 257.04866156 -19.41789002 257.04866156 -20.59816551 257.06299233 C-24.07712103 257.01374866 -26.01270852 256.7934071 -28.83534241 254.68265104 C-32.08223262 250.11089543 -31.01512131 243.92610204 -30.98828125 238.53125 C-31.02050781 237.26667969 -31.05273438 236.00210938 -31.0859375 234.69921875 C-31.09604597 224.88389517 -29.01442294 216.78404049 -22.38720703 209.29956055 C-15.65747762 202.81944487 -8.69943895 200.53766076 0.44921875 199.65625 C11.99304649 198.46862443 19.71119987 193.76480502 28.00585938 185.78051758 C41.28951251 173.13747933 62.96034677 161.53125 81.63671875 161.53125 C81.63671875 134.80125 81.63671875 108.07125 81.63671875 80.53125 C69.75671875 80.53125 57.87671875 80.53125 45.63671875 80.53125 C24.31268178 74.84484014 7.90836921 66.41478109 -4.36328125 47.53125 C-10.70475385 36.33097704 -14.52189846 24.96060668 -14.80078125 12.03125 C-14.82325928 11.34812744 -14.8457373 10.66500488 -14.86889648 9.96118164 C-14.85433722 6.96234559 -14.59604259 4.89867277 -12.97998047 2.34765625 C-8.88554081 -0.49453736 -4.87108335 -0.04015391 0 0 Z M2.63671875 16.53125 C6.29230871 33.82843178 14.04347627 46.75855491 29.1015625 56.5859375 C41.78096002 63.93207902 55.44869471 64.7121147 69.76171875 64.59375 C70.81359375 64.58923828 71.86546875 64.58472656 72.94921875 64.58007812 C75.51178096 64.56843011 78.07421752 64.55207553 80.63671875 64.53125 C77.14800486 48.02367698 69.83125634 34.97586606 55.57397461 25.46826172 C39.42199427 15.27810733 21.01930185 16.2224188 2.63671875 16.53125 Z M112.3203125 34.9140625 C104.78240146 43.81080001 100.62633332 53.13951055 98.63671875 64.53125 C121.77025562 64.9198982 142.41357295 64.89809257 160.63671875 48.53125 C169.55039503 39.36203831 174.45763543 29.0078119 176.63671875 16.53125 C152.41635253 16.12434284 130.40301563 16.31296821 112.3203125 34.9140625 Z M130.63671875 104.53125 C134.29230871 121.82843178 142.04347627 134.75855491 157.1015625 144.5859375 C169.78096002 151.93207902 183.44869471 152.7121147 197.76171875 152.59375 C198.81359375 152.58923828 199.86546875 152.58472656 200.94921875 152.58007812 C203.51178096 152.56843011 206.07421752 152.55207553 208.63671875 152.53125 C205.14800486 136.02367698 197.83125634 122.97586606 183.57397461 113.46826172 C167.42199427 103.27810733 149.01930185 104.2224188 130.63671875 104.53125 Z M240.3203125 122.9140625 C232.78240146 131.81080001 228.62633332 141.13951055 226.63671875 152.53125 C249.77025562 152.9198982 270.41357295 152.89809257 288.63671875 136.53125 C297.55039503 127.36203831 302.45763543 117.0078119 304.63671875 104.53125 C280.41635253 104.12434284 258.40301563 104.31296821 240.3203125 122.9140625 Z M34.76171875 203.15625 C25.84325086 211.2280279 16.96441909 214.66235615 5.26171875 216.03125 C-3.91442192 217.09058873 -3.91442192 217.09058873 -11.15234375 222.578125 C-14.82635582 228.50395091 -14.36328125 233.52180424 -14.36328125 240.53125 C138.75671875 240.53125 291.87671875 240.53125 449.63671875 240.53125 C449.90988958 229.58030981 449.90988958 229.58030981 444.51171875 220.65625 C440.02225791 217.03860824 435.37640209 216.70388533 429.84643555 216.22363281 C415.54012072 214.91808839 405.02577406 207.61764626 394.76171875 198.03125 C379.0090476 183.59752288 357.84988387 176.53125 336.63671875 176.53125 C314.089363 177.60595714 291.99283067 185.30860209 276.19921875 202.03125 C263.46831007 215.31701668 244.8408681 223.54356956 226.5546875 223.96484375 C224.37898046 223.98740355 222.20483768 223.99009508 220.02905273 223.97729492 C217.83676581 223.96879863 215.64710893 223.99763503 213.45507812 224.02929688 C191.04833446 224.1432849 173.40185738 215.43744398 157.1953125 200.2421875 C121.79143122 167.16825667 68.95356555 170.41226642 34.76171875 203.15625 Z " fill="#000000" transform="translate(38.36328125,247.46875)"/>
<path d="M0 0 C4.19717012 2.77505857 5.55325783 7.15453076 7.2578125 11.70703125 C7.55852661 12.48403381 7.85924072 13.26103638 8.16906738 14.06158447 C9.16458662 16.6414261 10.14478216 19.22680997 11.125 21.8125 C11.82247652 23.62918159 12.5208999 25.44549991 13.22021484 27.26147461 C14.70901696 31.1335562 16.19107317 35.00812723 17.66796875 38.88476562 C20.04789056 45.1309302 22.44497311 51.37043217 24.84375 57.609375 C32.43825281 77.37665206 32.43825281 77.37665206 36.07519531 86.96533203 C37.30531668 90.20286282 38.56419285 93.42614193 39.85449219 96.64013672 C40.13803558 97.35930771 40.42157898 98.0784787 40.7137146 98.81944275 C41.46107687 100.7130863 42.22094351 102.601782 42.98193359 104.48999023 C44.21683294 108.74757967 44.46998521 111.58276265 44 116 C41.2896203 119.93200721 37.07382323 121.78479469 32.890625 123.890625 C32.20498474 124.24010193 31.51934448 124.58957886 30.81292725 124.949646 C29.36601189 125.68319308 27.91692279 126.4124664 26.46582031 127.13769531 C24.26224682 128.2438523 22.07275033 129.37495028 19.8828125 130.5078125 C18.46953975 131.22031865 17.05550039 131.93130665 15.640625 132.640625 C14.67144135 133.14677338 14.67144135 133.14677338 13.68267822 133.66314697 C8.91242155 136.00147204 5.31214959 136.4525793 0 136 C-3.60684812 133.45826139 -5.0374472 130.24595652 -6.75 126.25 C-7.39195312 124.77273437 -7.39195312 124.77273437 -8.046875 123.265625 C-8.36140625 122.51796875 -8.6759375 121.7703125 -9 121 C-13.69673613 125.04748143 -18.31132501 129.17825732 -22.875 133.375 C-29.47782105 139.44664322 -36.10150235 145.49348558 -42.875 151.375 C-46.841749 154.82783819 -50.70682669 158.38877381 -54.57543945 161.95043945 C-57.98074444 165.08035095 -61.4264856 168.1523788 -64.9296875 171.171875 C-66.56291948 172.61404966 -68.16616499 174.09018257 -69.7578125 175.578125 C-70.24241943 176.02986084 -70.72702637 176.48159668 -71.22631836 176.94702148 C-72.61784239 178.24740476 -74.00247001 179.55515618 -75.38671875 180.86328125 C-80.39018661 184.95430803 -85.85561127 185.62982804 -92.06616211 186.60400391 C-92.97099335 186.75059952 -93.87582458 186.89719513 -94.80807495 187.04823303 C-97.79687056 187.53056316 -100.78698348 188.00403667 -103.77734375 188.4765625 C-105.86661458 188.80980501 -107.95585258 189.14325342 -110.0450592 189.47689819 C-114.42823611 190.17527665 -118.81213953 190.86887395 -123.1965332 191.55957031 C-128.78284871 192.44032582 -134.36660751 193.33626255 -139.94983578 194.23635292 C-144.26841001 194.93018694 -148.58852606 195.61401766 -152.90912056 196.29514694 C-154.96630177 196.62099719 -157.02294385 196.95027208 -159.07899284 197.28319168 C-191.38705939 202.50133778 -191.38705939 202.50133778 -201 196 C-203.3755303 194.04699992 -205.69737731 192.038228 -208 190 C-208.61875 190.58116577 -208.61875 190.58116577 -209.25 191.17407227 C-223.58031088 204.62273316 -223.58031088 204.62273316 -229.11328125 209.3515625 C-230.57505812 210.62872573 -232.00377638 211.94377683 -233.41796875 213.2734375 C-242.39990781 221.67107493 -247.78170491 224.7664644 -260.37109375 224.37890625 C-269.19175236 223.45791176 -274.24287864 219.47476806 -280 213 C-280.99 212.01 -280.99 212.01 -282 211 C-283.11375 211.639375 -284.2275 212.27875 -285.375 212.9375 C-292.07856832 216.78584478 -298.39504796 216.56565759 -306 216 C-313.936432 213.80074776 -318.83375561 207.84454435 -323 201 C-324.11355703 197.6593289 -324.27455049 194.95709643 -324.375 191.4375 C-324.44847656 189.70306641 -324.44847656 189.70306641 -324.5234375 187.93359375 C-323.13299446 177.48451803 -316.4313872 170.74731143 -309.1328125 163.6796875 C-308.16906059 162.72784394 -307.20650804 161.77478466 -306.24508667 160.82058716 C-303.73017283 158.3302121 -301.20105768 155.85480384 -298.66796875 153.38293457 C-295.10823681 149.90402882 -291.56822596 146.40504181 -288.02633667 142.9079895 C-286.14715775 141.05264865 -284.26215142 139.20395794 -282.37332153 137.35836792 C-278.01137467 133.0782549 -273.83813911 128.74398293 -269.86206055 124.10522461 C-265.85882871 119.57921594 -261.55877921 115.3277953 -257.30859375 111.03515625 C-256.80292437 110.52416319 -256.29725498 110.01317013 -255.77626228 109.48669243 C-253.09841072 106.78230381 -250.41701895 104.08147703 -247.7331543 101.38305664 C-245.54145862 99.17805485 -243.35725429 96.96602939 -241.17944336 94.74731445 C-238.51784887 92.03578041 -235.84360634 89.33731559 -233.16044807 86.64712334 C-232.15448708 85.6345537 -231.1526945 84.61782113 -230.15566826 83.59645271 C-219.0151576 72.19962667 -206.34764036 63.70306373 -191 59 C-190.18459747 58.74049057 -189.36919495 58.48098114 -188.52908325 58.21360779 C-178.71500134 55.51462996 -169.30514329 55.78352198 -159.2062664 56.04778862 C-153.82772201 56.17558532 -148.44807844 56.2084836 -143.06835938 56.25976562 C-136.28577242 56.33049237 -129.50660744 56.42631703 -122.72631836 56.62036133 C-91.44311569 57.47993414 -68.49531583 54.35036125 -42 37 C-41.82563314 33.99069135 -41.82563314 33.99069135 -43 31.3125 C-44.25730929 27.14766298 -44.42064948 24.3467113 -44 20 C-41.01346001 16.2192657 -37.11837692 14.23763373 -32.890625 12.109375 C-32.20498474 11.75989807 -31.51934448 11.41042114 -30.81292725 11.050354 C-29.36601189 10.31680692 -27.91692279 9.5875336 -26.46582031 8.86230469 C-24.26224682 7.7561477 -22.07275033 6.62504972 -19.8828125 5.4921875 C-18.46953975 4.77968135 -17.05550039 4.06869335 -15.640625 3.359375 C-14.99450256 3.02194275 -14.34838013 2.6845105 -13.68267822 2.33685303 C-8.9133287 -0.00102737 -5.3148037 -0.64801257 0 0 Z M-17.625 24 C-18.33140625 24.3815625 -19.0378125 24.763125 -19.765625 25.15625 C-21.51242267 26.10046495 -23.25647411 27.04975718 -25 28 C-23.11116324 34.60143513 -20.9532316 41.01589885 -18.4453125 47.40625 C-17.93784233 48.71351044 -17.93784233 48.71351044 -17.42012024 50.04718018 C-16.32512522 52.86611396 -15.22503374 55.68302917 -14.125 58.5 C-12.98146643 61.44092833 -11.83933998 64.38240054 -10.6973114 67.32391357 C-9.92699093 69.30784186 -9.15624829 71.29160628 -8.38508606 73.27520752 C-4.70150837 82.75370628 -1.06298561 92.24915688 2.5625 101.75 C3.12156959 103.21419746 3.68065123 104.67839032 4.23974609 106.14257812 C5.49401678 109.42806048 6.74734822 112.71390001 8 116 C12.24578728 114.63288745 15.98054804 113.05969256 19.875 110.875 C20.84179688 110.33617188 21.80859375 109.79734375 22.8046875 109.2421875 C23.52914062 108.83226563 24.25359375 108.42234375 25 108 C23.00274861 100.9505597 20.61935014 94.14007179 17.9375 87.32421875 C17.54923538 86.32783386 17.16097076 85.33144897 16.76094055 84.30487061 C15.93535367 82.18720883 15.10807151 80.07020729 14.27920532 77.9538269 C12.13036465 72.46697036 9.99366477 66.97538637 7.85546875 61.484375 C7.43524948 60.40623032 7.01503021 59.32808563 6.58207703 58.2172699 C3.11223266 49.30821234 -0.30860098 40.38141033 -3.6875 31.4375 C-4.13802734 30.24535889 -4.58855469 29.05321777 -5.05273438 27.82495117 C-6.03676352 25.21723419 -7.01945895 22.60903011 -8 20 C-11.55164206 20 -14.56204284 22.32724111 -17.625 24 Z M-36 53 C-38.25045439 54.18442582 -40.33107914 55.42396442 -42.46948242 56.78710938 C-67.31118598 71.70394096 -88.64081403 73.42757935 -117.17242432 72.58294678 C-123.49818895 72.41584832 -129.82589686 72.37694351 -136.15342236 72.31902313 C-141.06766753 72.27188676 -145.97922862 72.20762064 -150.89216614 72.0826416 C-174.7850592 71.52708262 -195.70787129 75.40833478 -214 92 C-220.89563318 98.58629001 -227.79246015 105.23887509 -233.98754883 112.49414062 C-238.58628714 117.7731977 -243.56082014 122.67287839 -248.5267334 127.60189819 C-250.287525 129.34974922 -252.04501864 131.10085972 -253.80175781 132.8527832 C-258.1625859 137.2003495 -262.52888113 141.54241148 -266.89501953 145.88464355 C-270.59587072 149.5656568 -274.29459256 153.24878557 -277.99060059 156.93466187 C-279.70944044 158.6470917 -281.43129812 160.35644512 -283.15332031 162.06567383 C-288.16364966 167.05301387 -293.0977506 172.05604609 -297.66175842 177.46313477 C-299.42985171 179.49365089 -301.41184975 181.23101109 -303.4375 183 C-306.15870827 185.68422097 -307.55634022 187.37680439 -307.75 191.25 C-307.23263267 194.92992992 -307.23263267 194.92992992 -305.5 197.5 C-302.67795393 199.19322764 -300.42680044 199.75672356 -297.125 199.5625 C-292.79408369 198.41608098 -290.08923452 195.08388982 -287 192 C-285.04737482 190.20152944 -283.08911932 188.41076041 -281.125 186.625 C-280.0854487 185.66980253 -279.04638454 184.71407461 -278.0078125 183.7578125 C-275.3547174 181.32033402 -272.68182198 178.90587888 -270 176.5 C-266.31169568 173.18998331 -262.64929525 169.85290579 -259 166.5 C-254.54664513 162.40833893 -250.06340146 158.35177054 -245.5625 154.3125 C-242.69399573 151.72384981 -239.84525184 149.11412873 -237 146.5 C-232.53423777 142.39745782 -228.04315818 138.32474307 -223.52734375 134.27734375 C-221.6780661 132.6109931 -219.83742538 130.9374155 -218.00390625 129.25390625 C-217.50318604 128.79508057 -217.00246582 128.33625488 -216.48657227 127.86352539 C-215.07290717 126.56687248 -213.66139429 125.26787429 -212.25 123.96875 C-208.25090696 120.46954359 -204.83926768 120.84589285 -199.74243164 120.83886719 C-198.88864426 120.83390228 -198.03485687 120.82893738 -197.15519714 120.82382202 C-194.32350873 120.80918559 -191.49187631 120.80239649 -188.66015625 120.796875 C-186.69721982 120.79112545 -184.73428342 120.7853677 -182.77134705 120.77960205 C-178.65298195 120.76908832 -174.5346364 120.76324786 -170.41625977 120.75976562 C-165.13209245 120.75427537 -159.84818211 120.73023756 -154.5640955 120.70179367 C-150.50897967 120.68319705 -146.45392616 120.67796332 -142.39877129 120.67642975 C-140.45026683 120.67339673 -138.50176363 120.66534649 -136.55330086 120.65224457 C-133.83098744 120.63524361 -131.10930743 120.63704945 -128.38696289 120.64355469 C-127.57802582 120.6343399 -126.76908875 120.62512512 -125.93563843 120.6156311 C-120.48097203 120.65658934 -120.48097203 120.65658934 -118.02659607 122.40899658 C-116.06405115 125.4505197 -115.89041021 127.27335057 -116.43359375 130.875 C-118.77392234 135.54398472 -122.14868766 136.3734959 -126.875 138.1875 C-128.25884888 138.74932983 -128.25884888 138.74932983 -129.6706543 139.32250977 C-132.7712048 140.57301652 -135.88409833 141.78828647 -139 143 C-141.25939449 143.88991468 -143.51850245 144.78055712 -145.77734375 145.671875 C-150.49169513 147.52673955 -155.20827058 149.3758437 -159.92578125 151.22265625 C-162.28403909 152.14796634 -164.64211294 153.07374549 -167 154 C-168.16321777 154.45616699 -169.32643555 154.91233398 -170.52490234 155.38232422 C-173.85660763 156.69721087 -177.1792173 158.03280477 -180.5 159.375 C-181.50264893 159.76743896 -182.50529785 160.15987793 -183.53833008 160.56420898 C-190.38688624 163.3529103 -190.38688624 163.3529103 -195 169 C-195.7102782 171.75755067 -195.57362511 174.21623106 -195 177 C-193.20636089 179.8100346 -191.98119065 181.50940468 -189 183 C-182.53817068 183.44232059 -176.25063013 182.79619848 -169.88183594 181.76245117 C-169.03169922 181.63072006 -168.1815625 181.49898895 -167.30566406 181.36326599 C-164.53060511 180.93100503 -161.75749059 180.48751361 -158.984375 180.04296875 C-157.04012056 179.73588475 -155.09580386 179.42919471 -153.15142822 179.12287903 C-149.09262395 178.48153941 -145.03479315 177.83442134 -140.97753906 177.18334961 C-135.78557321 176.35082013 -130.59121665 175.53442813 -125.39599228 174.72251415 C-121.38681509 174.09385798 -117.37916282 173.45588283 -113.37189484 172.81517982 C-111.45707747 172.51032902 -109.54176899 172.2085461 -107.62596893 171.90993309 C-104.94920646 171.49144222 -102.27479084 171.06022683 -99.60058594 170.62573242 C-98.81500305 170.50560791 -98.02942017 170.3854834 -97.22003174 170.26171875 C-90.75147518 169.1876037 -85.74996718 167.07633045 -80.9765625 162.453125 C-80.265 161.7725 -79.5534375 161.091875 -78.8203125 160.390625 C-78.09585938 159.68421875 -77.37140625 158.9778125 -76.625 158.25 C-75.18103484 156.85797603 -73.73572837 155.46734204 -72.2890625 154.078125 C-71.22461914 153.0557373 -71.22461914 153.0557373 -70.13867188 152.01269531 C-66.8429149 148.91107197 -63.42357496 145.95873815 -60 143 C-54.57776509 138.1765395 -49.21687206 133.28703731 -43.875 128.375 C-39.98863014 124.80174129 -36.06549158 121.27997489 -32.07421875 117.82421875 C-28.50376285 114.68410029 -25.01472842 111.45355014 -21.515625 108.234375 C-19.40577899 106.36041239 -17.26688874 104.67343721 -15 103 C-16.90120759 96.40120905 -19.03073079 89.94641642 -21.46875 83.52734375 C-21.79033081 82.67821915 -22.11191162 81.82909454 -22.4432373 80.95423889 C-23.11685901 79.18136358 -23.79253695 77.40926826 -24.47021484 75.63793945 C-25.5078632 72.91688008 -26.52928767 70.19004887 -27.55078125 67.46289062 C-28.20994808 65.73399745 -28.87006946 64.00546783 -29.53125 62.27734375 C-29.83446167 61.46079819 -30.13767334 60.64425262 -30.45007324 59.80296326 C-31.21434075 57.83320395 -32.09751699 55.91038765 -33 54 C-33.99 53.67 -34.98 53.34 -36 53 Z M-208 143 C-209.07655598 144.0131263 -210.16723971 145.01151216 -211.2734375 145.9921875 C-212.30812276 146.95223007 -213.3419683 147.91317838 -214.375 148.875 C-219.03833223 153.1986416 -223.73696176 157.47818453 -228.47265625 161.72265625 C-231.33082203 164.29809775 -234.16710261 166.89685764 -237 169.5 C-240.64927171 172.85293117 -244.31169598 176.18998357 -248 179.5 C-251.85250531 182.95849909 -255.68253089 186.44044196 -259.5 189.9375 C-260.01691406 190.41058594 -260.53382813 190.88367188 -261.06640625 191.37109375 C-263.07856685 193.21691574 -265.06895283 195.06895283 -267 197 C-266.91833325 200.75667063 -266.41719597 202.51959251 -263.9375 205.375 C-260.99884285 207.00064013 -258.701969 207.93759288 -255.3046875 207.77734375 C-249.87209933 205.94499621 -245.96671794 200.96087594 -242 197 C-240.69970041 195.84034003 -239.38845706 194.69273367 -238.0625 193.5625 C-234.12077235 190.13878174 -230.28393868 186.60367488 -226.4440918 183.06689453 C-222.85332978 179.76547906 -219.21632657 176.52632399 -215.5234375 173.33984375 C-212.54980333 170.72457062 -211.67196668 169.19288767 -210.75 165.375 C-208.86511262 158.99396662 -206.37718673 154.26904734 -200.75 150.48828125 C-190.36260082 144.97752442 -178.97069741 141.17466549 -168 137 C-168 136.67 -168 136.34 -168 136 C-172.41062169 135.8256747 -176.81936984 135.69934951 -181.23242188 135.61547852 C-182.73017338 135.58048583 -184.2276894 135.53287173 -185.72460938 135.47192383 C-195.24244905 135.09438285 -201.52586546 135.26722568 -208 143 Z " fill="#000000" transform="translate(460,8)"/>
<path d="M0 0 C4.48683992 3.731773 7.45544957 8.38042027 10.5625 13.25 C11.03107422 13.96285156 11.49964844 14.67570312 11.98242188 15.41015625 C18.86265814 26.09136219 21.27153186 34.28468143 20 47 C18.37064379 53.68036048 13.54207061 58.18144111 8 62 C1.56912546 65.23701739 -6.54711876 65.12389015 -13.4453125 63.3828125 C-19.47323087 60.7116173 -24.20432827 55.5429752 -27.16015625 49.7109375 C-29.81254016 41.14928898 -29.02345004 31.99309208 -25.1875 24 C-10.28160202 -2.48240481 -10.28160202 -2.48240481 0 0 Z M-5 24 C-6.33169242 25.68506682 -6.33169242 25.68506682 -7.5625 27.8125 C-7.99691406 28.52019531 -8.43132812 29.22789062 -8.87890625 29.95703125 C-11.17616474 34.1433246 -11.67032984 38.30769111 -11 43 C-9.54002013 45.62716577 -9.54002013 45.62716577 -7 47 C-3.39853135 47.60024477 -1.72140596 47.45562482 1.375 45.5 C3.64644617 42.00546743 3.7353082 38.98652387 3 35 C1.47536015 31.00316376 -0.63305367 27.55041949 -3 24 C-3.66 24 -4.32 24 -5 24 Z " fill="#000000" transform="translate(412,296)"/>
<path d="M0 0 C4.48683992 3.731773 7.45544957 8.38042027 10.5625 13.25 C11.03107422 13.96285156 11.49964844 14.67570312 11.98242188 15.41015625 C18.86265814 26.09136219 21.27153186 34.28468143 20 47 C18.37064379 53.68036048 13.54207061 58.18144111 8 62 C1.56912546 65.23701739 -6.54711876 65.12389015 -13.4453125 63.3828125 C-19.47323087 60.7116173 -24.20432827 55.5429752 -27.16015625 49.7109375 C-29.81254016 41.14928898 -29.02345004 31.99309208 -25.1875 24 C-10.28160202 -2.48240481 -10.28160202 -2.48240481 0 0 Z M-5 24 C-6.33169242 25.68506682 -6.33169242 25.68506682 -7.5625 27.8125 C-7.99691406 28.52019531 -8.43132812 29.22789062 -8.87890625 29.95703125 C-11.17616474 34.1433246 -11.67032984 38.30769111 -11 43 C-9.54002013 45.62716577 -9.54002013 45.62716577 -7 47 C-3.39853135 47.60024477 -1.72140596 47.45562482 1.375 45.5 C3.64644617 42.00546743 3.7353082 38.98652387 3 35 C1.47536015 31.00316376 -0.63305367 27.55041949 -3 24 C-3.66 24 -4.32 24 -5 24 Z " fill="#000000" transform="translate(260,280)"/>
<path d="M0 0 C4.48683992 3.731773 7.45544957 8.38042027 10.5625 13.25 C11.03107422 13.96285156 11.49964844 14.67570312 11.98242188 15.41015625 C18.86265814 26.09136219 21.27153186 34.28468143 20 47 C18.37064379 53.68036048 13.54207061 58.18144111 8 62 C1.56912546 65.23701739 -6.54711876 65.12389015 -13.4453125 63.3828125 C-19.47323087 60.7116173 -24.20432827 55.5429752 -27.16015625 49.7109375 C-29.81254016 41.14928898 -29.02345004 31.99309208 -25.1875 24 C-10.28160202 -2.48240481 -10.28160202 -2.48240481 0 0 Z M-5 24 C-6.33169242 25.68506682 -6.33169242 25.68506682 -7.5625 27.8125 C-7.99691406 28.52019531 -8.43132812 29.22789062 -8.87890625 29.95703125 C-11.17616474 34.1433246 -11.67032984 38.30769111 -11 43 C-9.54002013 45.62716577 -9.54002013 45.62716577 -7 47 C-3.39853135 47.60024477 -1.72140596 47.45562482 1.375 45.5 C3.64644617 42.00546743 3.7353082 38.98652387 3 35 C1.47536015 31.00316376 -0.63305367 27.55041949 -3 24 C-3.66 24 -4.32 24 -5 24 Z " fill="#000000" transform="translate(356,256)"/>
<path d="M0 0 C4.48683992 3.731773 7.45544957 8.38042027 10.5625 13.25 C11.03107422 13.96285156 11.49964844 14.67570313 11.98242188 15.41015625 C18.86265814 26.09136219 21.27153186 34.28468143 20 47 C18.37064379 53.68036048 13.54207061 58.18144111 8 62 C1.56912546 65.23701739 -6.54711876 65.12389015 -13.4453125 63.3828125 C-19.47323087 60.7116173 -24.20432827 55.5429752 -27.16015625 49.7109375 C-29.81254016 41.14928898 -29.02345004 31.99309208 -25.1875 24 C-10.28160202 -2.48240481 -10.28160202 -2.48240481 0 0 Z M-5 24 C-6.33169242 25.68506682 -6.33169242 25.68506682 -7.5625 27.8125 C-7.99691406 28.52019531 -8.43132812 29.22789062 -8.87890625 29.95703125 C-11.17616474 34.1433246 -11.67032984 38.30769111 -11 43 C-9.54002013 45.62716577 -9.54002013 45.62716577 -7 47 C-3.39853135 47.60024477 -1.72140596 47.45562482 1.375 45.5 C3.64644617 42.00546743 3.7353082 38.98652387 3 35 C1.47536015 31.00316376 -0.63305367 27.55041949 -3 24 C-3.66 24 -4.32 24 -5 24 Z " fill="#000000" transform="translate(300,224)"/>
<path d="M0 0 C4.48683992 3.731773 7.45544957 8.38042027 10.5625 13.25 C11.03107422 13.96285156 11.49964844 14.67570313 11.98242188 15.41015625 C18.86265814 26.09136219 21.27153186 34.28468143 20 47 C18.37064379 53.68036048 13.54207061 58.18144111 8 62 C1.56912546 65.23701739 -6.54711876 65.12389015 -13.4453125 63.3828125 C-19.47323087 60.7116173 -24.20432827 55.5429752 -27.16015625 49.7109375 C-29.81254016 41.14928898 -29.02345004 31.99309208 -25.1875 24 C-10.28160202 -2.48240481 -10.28160202 -2.48240481 0 0 Z M-5 24 C-6.33169242 25.68506682 -6.33169242 25.68506682 -7.5625 27.8125 C-7.99691406 28.52019531 -8.43132812 29.22789062 -8.87890625 29.95703125 C-11.17616474 34.1433246 -11.67032984 38.30769111 -11 43 C-9.54002013 45.62716577 -9.54002013 45.62716577 -7 47 C-3.39853135 47.60024477 -1.72140596 47.45562482 1.375 45.5 C3.64644617 42.00546743 3.7353082 38.98652387 3 35 C1.47536015 31.00316376 -0.63305367 27.55041949 -3 24 C-3.66 24 -4.32 24 -5 24 Z " fill="#000000" transform="translate(404,200)"/>
</svg>
