<?xml version="1.0" encoding="UTF-8"?>
<svg version="1.1" xmlns="http://www.w3.org/2000/svg" width="512" height="512">
<path d="M0 0 C1.20960661 0.00436926 1.20960661 0.00436926 2.44364971 0.00882679 C3.29388303 0.00797237 4.14411634 0.00711794 5.0201143 0.00623763 C7.89149251 0.00458021 10.76281331 0.01010845 13.63418621 0.01555592 C15.68356872 0.01583776 17.73295134 0.01568012 19.78233379 0.01511341 C25.36474994 0.01482532 30.9471448 0.02072395 36.52955598 0.02768737 C42.35654081 0.03391895 48.18352607 0.03452455 54.01051372 0.03571278 C65.05318376 0.03882667 76.09584394 0.04704084 87.13850963 0.05706227 C99.70661161 0.0682216 112.27471405 0.0737334 124.84281975 0.0787577 C150.70418909 0.08922341 176.56554899 0.10702431 202.42691082 0.12908131 C202.42691082 8.37908131 202.42691082 16.62908131 202.42691082 25.12908131 C199.70441082 25.23220631 196.98191082 25.33533131 194.17691082 25.44158131 C183.0922532 26.02924506 173.53606298 26.72240028 165.27066082 34.88298756 C158.76616512 42.80689652 158.32372309 52.04190441 158.11050457 61.90642506 C158.07933292 63.1234486 158.07933292 63.1234486 158.04753155 64.36505848 C157.98265439 66.9321547 157.9234416 69.49934468 157.86441082 72.06658131 C157.82116664 73.81724167 157.77755056 75.56789288 157.73355144 77.31853443 C157.62703732 81.58862302 157.52559967 85.85880499 157.42691082 90.12908131 C156.78957012 90.13494755 156.15222942 90.14081379 155.49557537 90.1468578 C148.8107858 90.21121613 142.12645893 90.29574096 135.44204754 90.39153248 C132.95350316 90.42461195 130.46488682 90.45269566 127.97622722 90.47551686 C124.3813539 90.50937638 120.78713013 90.56170733 117.19253582 90.61736256 C115.5464735 90.62694744 115.5464735 90.62694744 113.8671574 90.63672596 C103.02049766 90.83923665 93.25290492 92.00196757 85.27066082 99.88298756 C78.64849552 107.95024401 78.29553669 117.26051627 78.32144207 127.28923756 C78.30797683 129.07115064 78.29295202 130.85305249 78.27652019 132.63494068 C78.25382652 135.40381278 78.23931944 138.17140926 78.25186199 140.94036061 C78.28754214 151.70708621 77.82824868 160.49067449 72.88784832 170.18621022 C70.97376101 174.04189343 69.97372702 177.94987467 68.96987957 182.11736256 C68.42691082 184.12908131 68.42691082 184.12908131 67.42691082 185.12908131 C66.01466036 185.22195391 64.59782147 185.24654903 63.18252605 185.2426067 C61.83123859 185.2424934 61.83123859 185.2424934 60.45265239 185.24237782 C59.47349361 185.23721653 58.49433483 185.23205525 57.48550457 185.22673756 C56.48809749 185.22532261 55.49069042 185.22390766 54.46305889 185.22244984 C51.26347958 185.21683245 48.06396913 185.20427702 44.86441082 185.19158131 C42.70100037 185.18656855 40.53758882 185.18200525 38.37417644 185.17790943 C33.05839756 185.16685738 27.74265911 185.15010235 22.42691082 185.12908131 C22.41660335 184.31634754 22.40629589 183.50361378 22.39567608 182.66625172 C22.29717391 174.95866717 22.19459115 167.25115229 22.08757156 159.54368168 C22.03270884 155.58242725 21.97935319 151.62116514 21.92959636 147.65984303 C21.88140499 143.82777314 21.82905299 139.99577948 21.77397007 136.16380268 C21.75379135 134.71121104 21.73504243 133.25859872 21.7178368 131.80596882 C21.62461768 124.0186362 21.39034695 116.36020336 20.32363933 108.63249928 C20.49256177 104.53762761 22.79075383 102.44520108 25.67105144 99.74236256 C26.75676433 98.82003834 26.75676433 98.82003834 27.86441082 97.87908131 C28.58435222 97.21779225 29.30429363 96.55650318 30.04605144 95.87517506 C31.81387248 94.25955054 33.60404284 92.68195394 35.42691082 91.12908131 C36.5305658 92.06825744 37.63323667 93.0085901 38.73550457 93.94939381 C39.34966228 94.47291432 39.96382 94.99643482 40.59658855 95.53581959 C41.75445291 96.54371913 42.89373429 97.57373699 44.00527996 98.63249928 C46.54129472 100.97619577 48.18222691 102.0859018 51.61441082 102.69158131 C54.48634413 102.35906238 54.48634413 102.35906238 56.36441082 100.44158131 C57.7227436 97.48520996 57.31569532 96.21947433 56.42691082 93.12908131 C55.25759874 91.26581723 55.25759874 91.26581723 53.63394207 89.59392506 C53.00310711 88.90798268 52.37227215 88.22204029 51.72232097 87.51531178 C47.44718028 83.07102066 43.12385421 78.67856899 38.75479168 74.32659107 C37.09678127 72.67400949 35.44427105 71.01605932 33.79214519 69.35759693 C32.73712771 68.30323912 31.68180068 67.24919093 30.62612957 66.19548756 C30.13344082 65.70077458 29.64075207 65.20606159 29.13313335 64.69635731 C26.20145505 61.78486701 24.66536172 60.2608314 20.48941082 59.81658131 C17.38779232 59.83557943 17.38779232 59.83557943 15.48941082 61.81658131 C14.12285168 64.79085709 14.50246686 66.02127726 15.42691082 69.12908131 C16.91642926 71.3107767 16.91642926 71.3107767 18.80191082 73.25408131 C19.40777019 73.91665943 20.01362957 74.57923756 20.63784832 75.26189381 C22.21367084 76.90652954 23.8064577 78.52851105 25.42691082 80.12908131 C23.76827577 84.45412967 20.55586982 87.22326956 17.30191082 90.37908131 C16.73859051 90.93337818 16.17527019 91.48767506 15.59487957 92.05876881 C14.21005054 93.42012616 12.81907878 94.7752299 11.42691082 96.12908131 C10.92546551 95.86353443 10.42402019 95.59798756 9.90737957 95.32439381 C3.8429177 92.49362285 -1.86977066 91.59471342 -8.45980793 90.99626881 C-9.77724995 90.86756397 -9.77724995 90.86756397 -11.12130696 90.73625904 C-13.27126175 90.52718489 -15.42209788 90.3272077 -17.57308918 90.12908131 C-18.91418313 58.87310517 -18.80654198 30.36865542 -6.57308918 1.12908131 C-4.78688395 -0.65712392 -2.3784233 0.00651798 0 0 Z " fill="#000000" transform="translate(236.57308918237686,231.8709186911583)"/>
<path d="M0 0 C0.61810547 0.19335938 1.23621094 0.38671875 1.87304688 0.5859375 C18.01136359 5.72734813 31.12731816 13.99025978 43 26 C43.80050781 26.79019531 44.60101563 27.58039062 45.42578125 28.39453125 C55.95970913 39.36509863 62.49765337 52.6074986 67 67 C67.3403125 68.04671875 67.680625 69.0934375 68.03125 70.171875 C74.3522178 93.6999218 70.5765407 120.71907155 59 142 C56.83115027 145.47691085 54.54161635 148.7862845 52 152 C50.86046875 151.41992188 49.7209375 150.83984375 48.546875 150.2421875 C26.50813036 139.26871452 4.31001976 134.63358547 -20 132 C-20 123.09 -20 114.18 -20 105 C-14.92625 105.12375 -14.92625 105.12375 -9.75 105.25 C4.79969303 105.35753889 16.24072604 101.89397307 27.25390625 91.96875 C35.01040856 83.84429218 40.18521017 74.03933534 40.0625 62.75 C40.05347656 61.67234375 40.04445312 60.5946875 40.03515625 59.484375 C40.02355469 58.66453125 40.01195312 57.8446875 40 57 C26.6888384 49.71915587 13.77683973 47.7761336 -1.08203125 51.95703125 C-10.01685991 55.15060455 -19.10079783 60.159419 -24.25 68.375 C-24.8275 69.24125 -25.405 70.1075 -26 71 C-26.99 71 -27.98 71 -29 71 C-30.25390625 69.49609375 -30.25390625 69.49609375 -31.5625 67.4375 C-38.43172857 57.90812899 -49.33357265 53.13285907 -60.5078125 50.3828125 C-71.24830535 48.73301893 -82.41861936 49.98061174 -92.1875 54.875 C-95.12244567 56.67778225 -95.12244567 56.67778225 -95.74609375 59.2109375 C-96.81718748 70.97649021 -91.17413999 81.40962526 -83.9375 90.125 C-76.1689068 98.42268344 -65.58842696 104.29351019 -54.13598633 105.2355957 C-51.20780912 105.29303011 -48.30290299 105.26311779 -45.375 105.1875 C-41.95125 105.125625 -38.5275 105.06375 -35 105 C-35 113.91 -35 122.82 -35 132 C-40.32125 132.5878125 -40.32125 132.5878125 -45.75 133.1875 C-67.48166157 135.80537956 -87.66468002 141.67318138 -107 152 C-124.0550065 130.43500698 -127.64251269 104.07767311 -124.70263672 77.29052734 C-121.61663427 57.10898511 -110.89979766 39.56290727 -97 25 C-96.47277344 24.39800781 -95.94554688 23.79601562 -95.40234375 23.17578125 C-72.90922351 -1.50337113 -31.06819455 -10.10098936 0 0 Z " fill="#000000" transform="translate(125,3)"/>
<path d="M0 0 C1.63956665 0.01353516 1.63956665 0.01353516 3.31225586 0.02734375 C22.28891252 0.43202921 39.65288076 7.63352834 53.6875 20.4375 C54.2959375 20.95441406 54.904375 21.47132813 55.53125 22.00390625 C68.06601784 33.37066163 76.34520125 51.87208205 77.99121094 68.50683594 C78.12296224 71.5945714 78.15584789 74.65966792 78.125 77.75 C78.11597656 78.84304443 78.10695313 79.93608887 78.09765625 81.06225586 C77.69297079 100.03891252 70.49147166 117.40288076 57.6875 131.4375 C57.17058594 132.0459375 56.65367187 132.654375 56.12109375 133.28125 C44.75433837 145.81601784 26.25291795 154.09520125 9.61816406 155.74121094 C6.5304286 155.87296224 3.46533208 155.90584789 0.375 155.875 C-0.71804443 155.86597656 -1.81108887 155.85695313 -2.93725586 155.84765625 C-21.91391252 155.44297079 -39.27788076 148.24147166 -53.3125 135.4375 C-54.22515625 134.66212891 -54.22515625 134.66212891 -55.15625 133.87109375 C-67.69101784 122.50433837 -75.97020125 104.00291795 -77.61621094 87.36816406 C-77.74796224 84.2804286 -77.78084789 81.21533208 -77.75 78.125 C-77.74097656 77.03195557 -77.73195313 75.93891113 -77.72265625 74.81274414 C-77.31797079 55.83608748 -70.11647166 38.47211924 -57.3125 24.4375 C-56.79558594 23.8290625 -56.27867187 23.220625 -55.74609375 22.59375 C-41.94705446 7.37676432 -20.0660759 -0.20030084 0 0 Z M-25.87109375 50.79296875 C-34.8601769 61.04880616 -37.21319537 71.17853568 -36.50341797 84.43164062 C-35.72678745 92.59122676 -31.02520796 99.76679725 -25.3125 105.4375 C-16.65945682 112.02789916 -7.65233948 116.09590838 3.359375 115.2265625 C12.87455116 113.80197398 22.3247994 109.91283565 28.43359375 102.24609375 C36.21299302 91.6525251 38.05660876 82.48923966 36.6875 69.4375 C34.54745532 59.62896188 28.39717143 51.93985186 20.125 46.5 C5.41004093 37.46599755 -12.86346806 39.11945851 -25.87109375 50.79296875 Z " fill="#000000" transform="translate(394.3125,356.5625)"/>
<path d="M0 0 C1.44928978 0.0008471 2.89858084 0.0003695 4.34786987 -0.00132751 C8.26686573 -0.00218565 12.1855842 0.01541042 16.10451579 0.03639436 C20.20577624 0.05519163 24.30704357 0.056914 28.40834045 0.06047058 C36.16780687 0.06978211 43.92714596 0.09438375 51.6865564 0.12451905 C62.17672158 0.16437248 72.66692176 0.18052515 83.15714359 0.1980257 C99.67525158 0.22620553 116.19309093 0.28598094 132.71118164 0.34057617 C132.71118164 33.34057617 132.71118164 66.34057617 132.71118164 100.34057617 C126.44118164 100.34057617 120.17118164 100.34057617 113.71118164 100.34057617 C109.14868164 95.40307617 109.14868164 95.40307617 107.43383789 92.35620117 C100.79078819 80.72709829 85.45636492 72.80876482 72.95727539 69.09057617 C53.12405263 64.50817091 34.26997219 66.37355109 16.37133789 76.64916992 C8.13199056 81.88799135 -1.27213937 88.88887314 -5.50708008 97.94604492 C-7.28881836 100.34057617 -7.28881836 100.34057617 -10.10791016 100.90820312 C-11.22335205 100.88201904 -12.33879395 100.85583496 -13.48803711 100.82885742 C-15.30078125 100.8046875 -15.30078125 100.8046875 -17.15014648 100.7800293 C-18.4127832 100.73813477 -19.67541992 100.69624023 -20.97631836 100.65307617 C-22.25055664 100.63051758 -23.52479492 100.60795898 -24.83764648 100.5847168 C-27.98920796 100.52569879 -31.13843115 100.44340592 -34.28881836 100.34057617 C-34.40503176 90.08270118 -34.49369515 79.82498463 -34.54787922 69.56658363 C-34.57389435 64.80237074 -34.60914332 60.03861059 -34.66601562 55.2746582 C-34.7206256 50.67103037 -34.7502996 46.06783607 -34.76320457 41.46390915 C-34.77239273 39.71372027 -34.79033458 37.96355322 -34.81746864 36.21355057 C-34.97643013 25.52959147 -35.04012436 16.48144624 -27.29853821 8.21548462 C-18.95122545 0.18843478 -11.13457193 -0.09121066 0 0 Z " fill="#000000" transform="translate(71.288818359375,316.659423828125)"/>
<path d="M0 0 C11.04108583 9.25063948 19.44399997 23.04590407 20.78344727 37.5859375 C21.59862881 55.44724021 18.58879142 70.88192637 6.8125 84.9375 C-3.05090558 95.41853819 -16.83365365 102.86066861 -31.35546875 103.5234375 C-49.94438461 103.84206461 -65.33225811 99.76138613 -79.15234375 86.6640625 C-92.22863744 72.49248951 -95.27250192 56.26096213 -94.61669922 37.73535156 C-93.62910469 23.69374865 -85.59155817 10.55678081 -75.4375 1.1875 C-53.02612099 -16.07531897 -22.87950825 -17.01296767 0 0 Z M-57.9296875 28.22265625 C-63.57951375 35.58499461 -64.53610009 43.05892608 -63.4375 52.1875 C-61.7201598 58.91459591 -57.94828626 64.01922356 -52.4375 68.1875 C-45.1168672 72.45031096 -37.99711023 74.10257423 -29.703125 71.97265625 C-21.38277907 69.08922602 -16.0073717 63.4706195 -11.5625 56.0625 C-8.93112369 49.0085093 -9.33501015 40.69130941 -12.375 33.875 C-15.84819665 27.82650697 -20.83407396 22.67756536 -27.328125 19.9921875 C-39.00413218 16.97050725 -49.77111987 19.24823186 -57.9296875 28.22265625 Z " fill="#000000" transform="translate(161.4375,408.8125)"/>
<path d="M0 0 C1.34150504 -0.00913666 1.34150504 -0.00913666 2.7101112 -0.01845789 C5.70718417 -0.03510827 8.70383324 -0.03030914 11.70094299 -0.0255127 C13.84955792 -0.0328518 15.99816891 -0.04143756 18.14677429 -0.05117798 C23.98350663 -0.07341843 29.8200979 -0.07632341 35.65686679 -0.07443047 C40.52780828 -0.07431089 45.39871975 -0.08286965 50.2696529 -0.09120798 C61.75962799 -0.11045088 73.24953042 -0.1133225 84.73951721 -0.10656738 C96.59740402 -0.09992436 108.45497994 -0.12279967 120.31280369 -0.15988111 C130.49042699 -0.1905548 140.66795017 -0.20194071 150.84561878 -0.1980443 C156.92569245 -0.19597455 163.00552418 -0.20149134 169.08555412 -0.22593689 C174.80251082 -0.24816297 180.51896115 -0.24636031 186.23591995 -0.22600937 C188.3345701 -0.22259211 190.43325406 -0.22771905 192.53185844 -0.24199295 C195.39618145 -0.26013137 198.2587767 -0.24747647 201.12304688 -0.22705078 C202.36989192 -0.24582755 202.36989192 -0.24582755 203.64192575 -0.26498365 C207.77723195 -0.20172459 210.35220098 0.16652981 213.62513828 2.80825043 C217.04119347 6.34220874 217.24894481 7.83923034 217.22267151 12.62097168 C217.21944885 13.65222168 217.2162262 14.68347168 217.21290588 15.74597168 C217.20452698 16.82620605 217.19614807 17.90644043 217.18751526 19.01940918 C217.18300354 20.10737793 217.17849182 21.19534668 217.17384338 22.31628418 C217.16203302 25.00904707 217.14556304 27.70170106 217.12501526 30.39440918 C188.4361147 30.48566155 159.74723127 30.55644888 131.05821415 30.5986705 C127.6711385 30.60367332 124.28406314 30.60885061 120.89698792 30.61413574 C120.22268284 30.61518498 119.54837776 30.61623423 118.8536392 30.61731526 C107.93568466 30.63472003 97.01781438 30.66625808 86.09990983 30.70302036 C74.89694574 30.74042785 63.69402375 30.76234521 52.4909941 30.77076316 C46.19847003 30.77598268 39.90613705 30.78826956 33.61367416 30.81732941 C27.69250736 30.84445331 21.77161061 30.85286018 15.85038757 30.8468399 C13.67594053 30.84794148 11.50148458 30.85591314 9.32709122 30.87123108 C6.35985345 30.89111124 3.39363739 30.88635516 0.42637634 30.87542725 C-0.43550092 30.88707861 -1.29737819 30.89872998 -2.18537295 30.91073442 C-7.55892617 30.85718542 -10.60845905 29.96134939 -14.87498474 26.39440918 C-18.93128872 21.17181061 -18.64896018 15.74100776 -17.87498474 9.39440918 C-13.95458282 1.11800511 -8.41020546 -0.05376252 0 0 Z " fill="#000000" transform="translate(221.87498474121094,186.6055908203125)"/>
<path d="M0 0 C5.94 0 11.88 0 18 0 C18.01981934 2.30637451 18.03963867 4.61274902 18.06005859 6.98901367 C18.12699085 14.61264008 18.20463007 22.23613042 18.28752708 29.85959911 C18.33745481 34.48132009 18.3837852 39.10301861 18.421875 43.72485352 C18.45877227 48.18588605 18.50514436 52.64672902 18.55806351 57.10759926 C18.57658384 58.80878687 18.59170052 60.51001508 18.60334396 62.21126366 C18.62024689 64.59571076 18.64929136 66.97972597 18.68115234 69.36401367 C18.68331253 70.06604416 18.68547272 70.76807465 18.68769836 71.49137878 C18.75774392 75.59970708 18.9295938 79.9295938 22 83 C25.45821402 83.25003964 25.45821402 83.25003964 29 83 C32.77484199 79.22515801 32.16388608 74.55765951 32.20532227 69.47753906 C32.21522186 68.72593002 32.22512146 67.97432098 32.23532104 67.19993591 C32.26684466 64.72186404 32.29165723 62.24377302 32.31640625 59.765625 C32.33698367 58.04497791 32.35798036 56.3243358 32.37937927 54.60369873 C32.43451851 50.07952908 32.48396367 45.55531443 32.53222656 41.03106689 C32.58250113 36.4125977 32.63815609 31.7941937 32.69335938 27.17578125 C32.80084127 18.11724322 32.90230832 9.05864853 33 0 C34.90821533 0.21825439 34.90821533 0.21825439 36.85498047 0.44091797 C37.92835159 0.56368607 37.92835159 0.56368607 39.02340698 0.68893433 C45.165848 1.65559895 49.78091767 6.42995007 53.67578125 10.9609375 C58.043003 17.68568604 58.44219063 23.33210193 58.41992188 31.19262695 C58.42839142 32.29924683 58.43686096 33.4058667 58.44558716 34.54602051 C58.46892943 38.19355864 58.46997983 41.84067416 58.46875 45.48828125 C58.47585382 48.03265043 58.48355314 50.57701801 58.49182129 53.12138367 C58.50526024 58.45166094 58.50701963 63.78178321 58.50097656 69.11206055 C58.49434274 75.25216333 58.51718127 81.39166432 58.55429029 87.53164512 C58.58881768 93.46207783 58.59531361 99.39232685 58.59120178 105.32286644 C58.59289062 107.83497089 58.60251019 110.34708344 58.62034607 112.85912514 C58.64258981 116.37962567 58.63280402 119.89869197 58.61523438 123.41918945 C58.62849762 124.44757431 58.64176086 125.47595917 58.65542603 126.5355072 C58.56307069 134.53822529 56.52710523 141.16726289 51.02339935 147.14787769 C45.2379793 152.60179695 40.05127175 155.19169695 32 155 C31.91363281 154.030625 31.82726562 153.06125 31.73828125 152.0625 C29.65139809 131.20418164 22.54688726 111.46757633 8 96 C7.35200439 95.57029907 6.70400879 95.14059814 6.03637695 94.69787598 C2.86981521 92.31763074 0.47329336 90.04276648 -0.44926453 86.0609436 C-1.15467899 80.05317708 -0.91621524 74.0037335 -0.78125 67.96875 C-0.76631441 66.00722569 -0.75493361 64.04567137 -0.74694824 62.08410645 C-0.71651775 56.94096331 -0.63803401 51.79965043 -0.54931641 46.65722656 C-0.46722802 41.40194454 -0.43088777 36.14636444 -0.390625 30.890625 C-0.30502915 20.59281969 -0.1644056 10.29684894 0 0 Z " fill="#000000" transform="translate(454,277)"/>
<path d="M0 0 C-5.02328784 11.55101214 -20.87770848 19.09726312 -32.04394531 23.61035156 C-35.32825757 24.85448146 -38.64875766 25.95164473 -42 27 C-43.04671875 27.3403125 -44.0934375 27.680625 -45.171875 28.03125 C-68.85838194 34.39478918 -95.54970661 30.4331921 -117 19 C-125.18507732 14.27041523 -132.17945316 8.51875273 -139 2 C-138 -1 -138 -1 -134.859375 -2.68359375 C-133.49549597 -3.28189281 -132.12518268 -3.86566054 -130.75 -4.4375 C-130.02490234 -4.74461914 -129.29980469 -5.05173828 -128.55273438 -5.36816406 C-88.62471984 -21.96686018 -38.05211059 -21.29406188 0 0 Z " fill="#000000" transform="translate(167,165)"/>
<path d="M0 0 C1.00857559 -0.01591187 2.01715118 -0.03182373 3.05628967 -0.04821777 C4.69216286 -0.0485199 4.69216286 -0.0485199 6.36108398 -0.04882812 C7.48731674 -0.05644165 8.6135495 -0.06405518 9.77391052 -0.07189941 C12.16207666 -0.08271638 14.55029016 -0.08554708 16.93847656 -0.08105469 C20.56909901 -0.08008826 24.19756691 -0.12157187 27.82788086 -0.16601562 C30.15144418 -0.17122723 32.47501482 -0.17391074 34.79858398 -0.17382812 C36.41320274 -0.19842102 36.41320274 -0.19842102 38.06044006 -0.22351074 C46.30092613 -0.14910927 53.03628202 1.70908619 59.19410706 7.40979004 C66.07998492 14.66945138 67.49698273 21.23193697 67.33764648 30.94726562 C67.33462524 31.82483521 67.331604 32.70240479 67.32849121 33.60656738 C67.31290005 36.85697337 67.27101667 40.10721054 67.23217773 43.35742188 C67.17030273 50.63804687 67.10842773 57.91867187 67.04467773 65.41992188 C52.19467773 65.41992188 37.34467773 65.41992188 22.04467773 65.41992188 C22.04467773 58.81992187 22.04467773 52.21992188 22.04467773 45.41992188 C19.40854492 45.45472656 16.77241211 45.48953125 14.05639648 45.52539062 C11.50473107 45.54878332 8.95307758 45.56700151 6.40136719 45.5847168 C4.6272243 45.59980829 2.85311875 45.62028379 1.07910156 45.64624023 C-1.47022714 45.68260828 -4.01906285 45.69964426 -6.56860352 45.71289062 C-7.36244949 45.72837448 -8.15629547 45.74385834 -8.97419739 45.7598114 C-14.42556747 45.76147943 -14.42556747 45.76147943 -16.94897461 44.13452148 C-19.54210346 39.71638855 -18.25789843 34.59381901 -17.05444336 29.92480469 C-16.06782026 26.61755393 -14.97537613 23.34991013 -13.84765625 20.08837891 C-13.13897054 18.03375493 -12.45502501 15.97203545 -11.77368164 13.90820312 C-7.10152818 0.06740975 -7.10152818 0.06740975 0 0 Z " fill="#000000" transform="translate(74.955322265625,236.580078125)"/>
<path d="M0 0 C35.97 0 71.94 0 109 0 C110.77759636 3.55519271 110.3516389 7.7163833 110.5234375 11.640625 C111.20030349 17.83228435 112.6949383 23.90971208 114 30 C77.37 30 40.74 30 3 30 C2.67 23.73 2.34 17.46 2 11 C1.34 7.37 0.68 3.74 0 0 Z " fill="#000000" transform="translate(193,432)"/>
<path d="M0 0 C0 27.06 0 54.12 0 82 C-5.94 79.69 -11.88 77.38 -18 75 C-23.98102023 73.3707861 -23.98102023 73.3707861 -30 72 C-30.11603763 63.62876618 -30.20478693 55.25787038 -30.25906086 46.8860302 C-30.2851147 42.99827468 -30.32043365 39.11107085 -30.37719727 35.22363281 C-30.43167052 31.46939832 -30.46145222 27.7156932 -30.47438622 23.9610939 C-30.48359892 22.53134964 -30.50158988 21.10163317 -30.52865028 19.67211533 C-30.75778348 7.06201529 -30.75778348 7.06201529 -27.59448242 3.13720703 C-18.80723993 -4.1012912 -17.26798698 0 0 0 Z " fill="#000000" transform="translate(439,272)"/>
<path d="M0 0 C18 0 18 0 24 5 C25.48203779 7.96407559 25.11920826 10.62079165 25.11352539 13.92822266 C25.11367142 14.64052536 25.11381744 15.35282806 25.1139679 16.0867157 C25.11327011 18.44586206 25.10548397 20.80492989 25.09765625 23.1640625 C25.0957916 24.79788164 25.09436792 26.43170134 25.09336853 28.06552124 C25.08954709 32.3694818 25.07971998 36.67340871 25.06866455 40.97735596 C25.05844242 45.36771184 25.05386919 49.75807315 25.04882812 54.1484375 C25.03809739 62.76564218 25.02050359 71.38281303 25 80 C16.75 80 8.5 80 0 80 C0 53.6 0 27.2 0 0 Z " fill="#000000" transform="translate(219,337)"/>
<path d="M0 0 C5.44296262 3.24283788 10.0567259 8.16548467 12.4140625 14.08984375 C13.24369895 21.92315535 13.50139964 29.69348418 8.4140625 36.08984375 C4.04706844 40.70519766 -0.18211047 43.71503053 -6.63671875 44.42578125 C-14.59903886 44.52113838 -20.44982994 44.07790272 -26.33203125 38.40625 C-32.22075431 31.83968831 -33.21540123 26.61740642 -32.96484375 17.80078125 C-32.29140294 11.20522695 -29.35856672 7.49633222 -24.5234375 3.21484375 C-17.4405917 -1.90891704 -8.36285441 -2.94342157 0 0 Z " fill="#000000" transform="translate(404.5859375,412.91015625)"/>
<path d="M0 0 C1.55420906 0.00636726 1.55420906 0.00636726 3.13981628 0.01286316 C6.44113417 0.0296227 9.74183612 0.06727065 13.04296875 0.10546875 C15.28449638 0.12051908 17.5260336 0.13420687 19.76757812 0.14648438 C25.25541761 0.17951727 30.74289917 0.22968982 36.23046875 0.29296875 C36.02478271 1.30677612 36.02478271 1.30677612 35.81494141 2.34106445 C34.57455739 8.74342262 33.85294894 14.96864634 33.60546875 21.48046875 C33.56679688 22.33705078 33.528125 23.19363281 33.48828125 24.07617188 C33.39567886 26.14815037 33.31207781 28.22052815 33.23046875 30.29296875 C27.07410345 30.39205597 20.91820525 30.46454128 14.76123047 30.51269531 C12.66804922 30.53277534 10.57492383 30.56004515 8.48193359 30.59472656 C5.46828406 30.64340309 2.45537802 30.66597387 -0.55859375 30.68359375 C-1.49007233 30.70423889 -2.4215509 30.72488403 -3.3812561 30.74615479 C-9.02984525 30.74809306 -12.31177637 30.1154705 -16.76953125 26.29296875 C-20.82583523 21.07037018 -20.54350669 15.63956733 -19.76953125 9.29296875 C-15.44539574 0.16423824 -9.1296495 -0.14104325 0 0 Z " fill="#000000" transform="translate(19.76953125,431.70703125)"/>
<path d="M0 0 C-0.37180763 7.06434491 -4.14822695 13.1319 -9.046875 18.05859375 C-19.67298836 26.81948508 -29.71214445 27.84257712 -43 27 C-45.5078125 26.48046875 -45.5078125 26.48046875 -47 26 C-45.72993781 16.54022645 -41.26263112 10.2867475 -33.92578125 4.31640625 C-24.35775988 -2.22400593 -10.8426856 -4.81897138 0 0 Z " fill="#000000" transform="translate(152,68)"/>
<path d="M0 0 C8.26953072 5.12655029 13.91695306 11.34757791 16.625 20.74609375 C16.625 21.73609375 16.625 22.72609375 16.625 23.74609375 C7.01980413 26.79774452 -4.89225597 25.66073171 -13.79296875 21.27734375 C-22.36603648 16.1931644 -26.77054824 10.08490058 -30.375 0.74609375 C-30.375 -0.24390625 -30.375 -1.23390625 -30.375 -2.25390625 C-20.66434444 -6.56975316 -9.16713694 -4.83988644 0 0 Z " fill="#000000" transform="translate(73.375,70.25390625)"/>
<path d="M0 0 C1.16105255 0.00007553 2.3221051 0.00015106 3.51834106 0.00022888 C4.77669769 0.00539017 6.03505432 0.01055145 7.33154297 0.01586914 C8.61608368 0.01728409 9.90062439 0.01869904 11.22409058 0.02015686 C14.64029889 0.02397628 18.05646473 0.03380166 21.47265625 0.04486084 C24.95816473 0.05508732 28.44368006 0.05965713 31.92919922 0.06469727 C38.76906042 0.07542444 45.60889341 0.09249397 52.44873047 0.11352539 C52.49145147 1.77964444 52.48936879 3.44735424 52.44873047 5.11352539 C50.72727893 6.83497693 48.44218604 6.45084637 46.13012695 6.65698242 C25.37274255 8.5676284 7.05390074 16.28166992 -8.55126953 30.11352539 C-9.87890971 31.12107158 -11.21138171 32.12232491 -12.55126953 33.11352539 C-12.69697475 28.90555853 -12.7854804 24.69824373 -12.86376953 20.48852539 C-12.90566406 19.2987207 -12.94755859 18.10891602 -12.99072266 16.88305664 C-13.12886297 6.99221026 -13.12886297 6.99221026 -10.15673828 3.34008789 C-6.45910509 0.18019146 -4.78039866 -0.01034718 0 0 Z " fill="#000000" transform="translate(341.55126953125,336.886474609375)"/>
<path d="M0 0 C3.17852316 1.64448689 5.37801764 3.75603527 7 7 C8.03037808 16.00844834 8.03037808 16.00844834 5.953125 20.0234375 C3.47535361 23.0113383 1.48573267 24.83006326 -2.390625 25.2734375 C-11.05997149 25.58136511 -11.05997149 25.58136511 -14.625 22.625 C-18.45795689 18.38857397 -18.38863816 15.34807028 -18.359375 9.7734375 C-17.80289254 5.47884463 -16.16828113 3.86654007 -13 1 C-9.03716439 -0.98141781 -4.30789762 -0.55820645 0 0 Z " fill="#000000" transform="translate(130,442)"/>
</svg>
