<?xml version="1.0" encoding="UTF-8"?>
<svg version="1.1" xmlns="http://www.w3.org/2000/svg" width="512" height="512">
<path d="M0 0 C0.66087616 -0.00671722 1.32175232 -0.01343445 2.00265503 -0.02035522 C4.17722188 -0.0392789 6.35147908 -0.04325669 8.52612305 -0.04541016 C10.04681014 -0.05184269 11.56749601 -0.05857139 13.08818054 -0.06558228 C16.27317166 -0.07754144 19.45805443 -0.08126458 22.64306641 -0.08007812 C26.70830086 -0.07987517 30.77283442 -0.1071586 34.83790302 -0.14162254 C37.97878661 -0.16395026 41.11950319 -0.16791386 44.26045799 -0.16685867 C45.75826619 -0.16920652 47.25607956 -0.17798379 48.75380898 -0.19352341 C58.0316748 -0.28076353 65.04719124 -0.07194994 72.43237305 6.14990234 C72.96217773 6.77380859 73.49198242 7.39771484 74.0378418 8.04052734 C74.58053711 8.65412109 75.12323242 9.26771484 75.68237305 9.89990234 C80.12579937 16.78440084 81.1653092 24.53168161 82.4128418 32.47802734 C82.59008789 33.54472656 82.76733398 34.61142578 82.94995117 35.71044922 C83.6921703 40.29272099 84.32897897 44.63842825 84.2253418 49.29052734 C85.0709668 49.24412109 85.9165918 49.19771484 86.7878418 49.14990234 C93.82585811 48.92596546 99.47554307 48.90028694 105.2253418 53.29052734 C111.30322813 59.68010016 110.47213458 66.17380795 110.5378418 74.54052734 C110.5668457 75.75611328 110.59584961 76.97169922 110.62573242 78.22412109 C110.67471021 85.1337569 110.52284192 89.75187195 106.2253418 95.29052734 C99.88857431 100.41387127 94.19668363 100.43784708 86.4128418 100.35302734 C85.23044922 100.34625977 85.23044922 100.34625977 84.02416992 100.33935547 C82.09119419 100.32764046 80.15825787 100.30970733 78.2253418 100.29052734 C79.55369462 117.19206913 82.22376341 132.76229006 88.2722168 148.63037109 C89.2253418 151.29052734 89.2253418 151.29052734 89.2253418 153.29052734 C90.2153418 153.29052734 91.2053418 153.29052734 92.2253418 153.29052734 C92.39549805 152.63826172 92.5656543 151.98599609 92.7409668 151.31396484 C95.20223012 142.4377067 98.88022558 136.84459305 106.2253418 131.29052734 C106.8853418 130.96052734 107.5453418 130.63052734 108.2253418 130.29052734 C108.70398839 126.6398974 109.01389768 123.01520129 109.26049805 119.34326172 C109.88591798 112.1863336 112.02058266 105.63598543 117.4753418 100.66552734 C125.72082661 93.94584252 138.626932 89.61682998 149.2253418 90.29052734 C156.77452648 91.3851027 162.24256756 94.52523891 167.2253418 100.29052734 C170.45676428 105.05804631 171.75078113 109.59579933 172.2253418 115.29052734 C173.5247168 115.49677734 174.8240918 115.70302734 176.1628418 115.91552734 C182.51015486 117.37261493 187.82386827 120.15230181 191.8382206 125.39822388 C195.75836454 131.8183571 197.89785028 137.99684968 199.66040039 145.28271484 C199.95388367 146.43854065 200.24736694 147.59436646 200.54974365 148.78521729 C201.34261595 151.92280769 202.12080484 155.06356394 202.8915782 158.20664215 C203.70582309 161.51441618 204.53710781 164.81791137 205.36587524 168.12207031 C206.75388009 173.66694725 208.1286932 179.2149649 209.49536133 184.76513672 C211.07014831 191.15988241 212.66491383 197.54938539 214.2706579 203.93642235 C215.82264986 210.11132028 217.36121532 216.28948706 218.89351273 222.46929932 C219.54244911 225.08571965 220.19581096 227.70097314 220.85285568 230.31536865 C221.76906219 233.97360394 222.66986523 237.63530216 223.56665039 241.29833984 C223.97329422 242.90397797 223.97329422 242.90397797 224.38815308 244.54205322 C226.662611 253.95694081 227.857378 263.39950484 223.2253418 272.29052734 C216.28701293 282.38856467 207.32744592 285.29699977 195.8269043 288.08740234 C194.87012787 288.32589905 193.91335144 288.56439575 192.92758179 288.81011963 C190.923471 289.30797915 188.91837547 289.80189007 186.91235352 290.29199219 C183.83595234 291.04404497 180.7629305 291.80884312 177.69018555 292.57568359 C175.73594202 293.05949854 173.78152101 293.54259728 171.8269043 294.02490234 C170.44881088 294.36699738 170.44881088 294.36699738 169.0428772 294.71600342 C168.19123993 294.92332092 167.33960266 295.13063843 166.4621582 295.34423828 C165.34038681 295.61926178 165.34038681 295.61926178 164.19595337 295.89984131 C162.2253418 296.29052734 162.2253418 296.29052734 159.2253418 296.29052734 C159.15057617 297.20189453 159.07581055 298.11326172 158.9987793 299.05224609 C157.61562492 312.68038478 154.86689881 326.72019451 148.35327148 338.88427734 C141.74260882 351.40540788 143.12258678 366.48233463 143.2253418 380.29052734 C143.9570459 380.2023877 144.68875 380.11424805 145.44262695 380.0234375 C155.07324156 378.98138425 155.07324156 378.98138425 159.6003418 380.66552734 C166.00713242 383.21696102 166.00713242 383.21696102 172.5378418 381.87646484 C173.13338867 381.59383789 173.72893555 381.31121094 174.3425293 381.02001953 C177.55822606 379.77410382 180.83171837 379.85701659 184.2253418 379.91552734 C184.89823242 379.90392578 185.57112305 379.89232422 186.2644043 379.88037109 C189.8722515 379.90126596 192.68852007 380.34630783 195.9128418 381.87646484 C199.49925977 383.40745931 200.62052722 383.48618366 204.2253418 382.29052734 C205.02713867 382.04173828 205.82893555 381.79294922 206.6550293 381.53662109 C207.86545898 381.13636719 207.86545898 381.13636719 209.1003418 380.72802734 C218.23616677 377.99266972 226.07512219 379.56394049 234.4128418 383.97802734 C242.59501365 390.70559087 245.69405613 397.00207592 248.2253418 407.29052734 C248.5553418 408.61052734 248.8853418 409.93052734 249.2253418 411.29052734 C257.8053418 411.62052734 266.3853418 411.95052734 275.2253418 412.29052734 C275.34116017 418.54986672 275.44038056 424.80537753 275.5 431.06494141 C275.52489332 433.18681547 275.55882087 435.3086061 275.60253906 437.43017578 C276.04132783 459.29734297 272.42069646 477.41137098 256.79956055 493.90771484 C241.64917937 507.93158817 225.11474753 512.61191562 204.8972168 512.59130859 C203.3007191 512.5952033 201.70422242 512.59953954 200.10772705 512.60429382 C196.76913082 512.6117306 193.43064037 512.61148407 190.09204102 512.60620117 C185.84468228 512.60042135 181.59776174 512.61731375 177.35047531 512.64054585 C174.0541741 512.65538745 170.75797575 512.65614064 167.46164703 512.65303612 C165.89738348 512.65354449 164.33311341 512.65868964 162.76888275 512.66884804 C141.95847791 512.78738965 126.04424713 506.85338735 110.9753418 492.29052734 C107.62709114 488.86191868 104.88135273 485.27454375 102.2253418 481.29052734 C99.68272992 483.73143475 97.37104295 486.28861534 95.1003418 488.97802734 C83.43515131 502.24625669 69.39184009 511.2275956 51.45535278 512.57339478 C47.21225832 512.72060375 42.97037593 512.70855658 38.7253418 512.68896484 C37.15698105 512.69099221 35.58862124 512.69390911 34.02026367 512.69766235 C30.75259316 512.70205463 27.48517069 512.69575569 24.2175293 512.68164062 C20.06217697 512.66455046 15.90740627 512.67440844 11.7520752 512.69235802 C8.5192438 512.70328035 5.28654673 512.69971115 2.05371094 512.69197464 C0.52294849 512.68999588 -1.00782679 512.69234857 -2.53857422 512.6994133 C-22.02888367 512.76965976 -38.10026147 507.86093013 -52.13793945 494.01708984 C-55.0168301 491.04010367 -57.81409382 488.02692403 -60.4699707 484.84912109 C-61.83770219 483.16859665 -61.83770219 483.16859665 -63.7746582 481.29052734 C-64.2593457 481.91958984 -64.7440332 482.54865234 -65.2434082 483.19677734 C-76.87631745 498.05110761 -90.60634236 509.06743314 -109.7746582 512.29052734 C-112.11124501 512.40066654 -114.45049592 512.45908989 -116.78955078 512.48339844 C-117.47659088 512.49157593 -118.16363098 512.49975342 -118.87149048 512.50817871 C-121.13738169 512.53291045 -123.40321022 512.54952744 -125.66918945 512.56396484 C-126.84042138 512.57195036 -126.84042138 512.57195036 -128.03531456 512.5800972 C-132.17750437 512.60679045 -136.31966462 512.62616768 -140.46191406 512.640625 C-143.85932782 512.65389109 -147.2561305 512.68161152 -150.65332031 512.72265625 C-154.78297631 512.77252985 -158.91208428 512.79681285 -163.04202843 512.80385208 C-164.60024702 512.81048095 -166.15845748 512.82547811 -167.71650124 512.84974289 C-187.0667686 513.13363338 -204.07329814 507.42362795 -218.3918457 493.86474609 C-230.51225483 480.77073033 -237.16088432 465.29245067 -236.9699707 447.44677734 C-236.96714081 446.43707886 -236.96431091 445.42738037 -236.96139526 444.38708496 C-236.9502735 441.18810768 -236.92518384 437.98941884 -236.8996582 434.79052734 C-236.88961806 432.61084391 -236.88049402 430.43115605 -236.87231445 428.25146484 C-236.85206898 422.93095402 -236.81290485 417.61106045 -236.7746582 412.29052734 C-228.1946582 411.96052734 -219.6146582 411.63052734 -210.7746582 411.29052734 C-210.2384082 408.98052734 -209.7021582 406.67052734 -209.1496582 404.29052734 C-207.52725729 397.90661307 -205.50277574 393.04222652 -200.7746582 388.29052734 C-200.28868164 387.80197266 -199.80270508 387.31341797 -199.30200195 386.81005859 C-193.62849081 381.6509458 -187.05683988 379.62638473 -179.5871582 379.04052734 C-175.48217896 379.30970631 -172.089838 380.25180176 -168.2043457 381.53662109 C-167.40254883 381.78541016 -166.60075195 382.03419922 -165.7746582 382.29052734 C-164.60290039 382.67917969 -164.60290039 382.67917969 -163.4074707 383.07568359 C-160.27642344 383.33118448 -158.44632545 382.34351824 -155.6574707 381.02001953 C-152.44177394 379.77410382 -149.16828163 379.85701659 -145.7746582 379.91552734 C-145.10176758 379.90392578 -144.42887695 379.89232422 -143.7355957 379.88037109 C-140.1277485 379.90126596 -137.31147993 380.34630783 -134.0871582 381.87646484 C-130.50074023 383.40745931 -129.37947278 383.48618366 -125.7746582 382.29052734 C-124.97286133 382.04173828 -124.17106445 381.79294922 -123.3449707 381.53662109 C-122.53801758 381.26978516 -121.73106445 381.00294922 -120.8996582 380.72802734 C-112.94661125 378.34680532 -106.38715518 379.13558354 -98.7746582 382.29052734 C-91.4850229 386.31595427 -86.5481859 392.35142003 -83.73950195 400.17333984 C-82.53370588 404.37960521 -81.7746582 407.89207341 -81.7746582 412.29052734 C-69.5646582 412.29052734 -57.3546582 412.29052734 -44.7746582 412.29052734 C-44.4446582 409.65052734 -44.1146582 407.01052734 -43.7746582 404.29052734 C-41.61276717 395.6429632 -37.97676901 388.5499749 -30.2746582 383.72412109 C-22.06592857 379.4365257 -14.68314015 377.97637237 -5.6496582 380.72802734 C-4.84270508 380.99486328 -4.03575195 381.26169922 -3.2043457 381.53662109 C2.57709543 383.33054093 3.98062235 383.37210049 10.2253418 381.29052734 C9.8953418 374.69052734 9.5653418 368.09052734 9.2253418 361.29052734 C7.2247168 360.63052734 5.2240918 359.97052734 3.1628418 359.29052734 C-9.03185329 355.03447594 -20.19387539 349.01833108 -29.7746582 340.29052734 C-31.22291992 338.98148437 -31.22291992 338.98148437 -32.70043945 337.64599609 C-48.46607156 322.91446466 -57.62024866 304.10025532 -62.7746582 283.29052734 C-62.7746582 282.30052734 -62.7746582 281.31052734 -62.7746582 280.29052734 C-63.5790332 280.24927734 -64.3834082 280.20802734 -65.2121582 280.16552734 C-72.94969673 278.26507929 -79.40140688 272.87707049 -83.7746582 266.29052734 C-88.67029838 257.03274624 -90.37793505 248.30612123 -87.5246582 238.04052734 C-86.48370171 234.8325797 -85.51090994 232.91688397 -83.5246582 230.10302734 C-81.48849468 227.38270502 -81.48849468 227.38270502 -81.7746582 224.04052734 C-83.93473686 214.96318035 -83.93473686 214.96318035 -89.7746582 208.29052734 C-95.5100722 208.40757661 -99.5033614 210.51381956 -104.44262695 213.32958984 C-106.7746582 214.29052734 -106.7746582 214.29052734 -108.87231445 214.30615234 C-111.83963293 212.72195768 -112.60490478 210.40561409 -114.0246582 207.41552734 C-114.80583008 205.81064453 -114.80583008 205.81064453 -115.6027832 204.17333984 C-116.7746582 201.29052734 -116.7746582 201.29052734 -116.7746582 198.29052734 C-114.13634377 196.9607684 -111.49059501 195.65199013 -108.8371582 194.35302734 C-108.10174805 193.97984375 -107.36633789 193.60666016 -106.60864258 193.22216797 C-99.03092035 189.54912357 -92.03431383 188.40105194 -83.83325195 190.57568359 C-77.38679302 192.81420728 -72.48460438 197.68518493 -68.7746582 203.29052734 C-67.1338823 207.21684152 -65.87687165 211.18289959 -64.7746582 215.29052734 C-63.90000916 215.12125229 -63.02536011 214.95197723 -62.12420654 214.77757263 C-58.99169309 214.32208557 -56.32869436 214.2870014 -53.18188477 214.49780273 C-19.41311004 217.93467442 -19.41311004 217.93467442 10.91079712 206.42799377 C12.70592335 204.78084818 14.3793729 203.0745093 16.0378418 201.29052734 C16.57026489 200.74292755 17.10268799 200.19532776 17.65124512 199.63113403 C21.55829212 195.43679503 25.11157312 191.03252975 25.29217529 185.09228516 C24.97624938 181.28537281 24.20372642 177.6864954 23.20458984 174.00537109 C22.37522278 170.85911102 22.01757888 168.502049 22.2253418 165.29052734 C21.35135742 165.45101562 21.35135742 165.45101562 20.4597168 165.61474609 C10.19237103 167.11610326 1.13334128 164.670277 -7.5246582 159.00927734 C-15.81983629 152.67268297 -21.1351749 143.62706217 -22.7746582 133.29052734 C-22.85605674 130.71150654 -22.89143006 128.16134322 -22.87231445 125.58349609 C-22.87089951 124.85810135 -22.86948456 124.1327066 -22.86802673 123.3853302 C-22.86245751 121.08285285 -22.84991081 118.780475 -22.8371582 116.47802734 C-22.83213922 114.91097146 -22.82757701 113.34391405 -22.82348633 111.77685547 C-22.81249818 107.94804146 -22.79525493 104.11930124 -22.7746582 100.29052734 C-23.98742432 100.32170654 -25.20019043 100.35288574 -26.44970703 100.38500977 C-44.6977795 100.81100821 -44.6977795 100.81100821 -50.34887695 95.93115234 C-56.26924038 89.34920103 -56.1122344 82.72346345 -56.0871582 74.35302734 C-56.10327148 73.28117187 -56.11938477 72.20931641 -56.13598633 71.10498047 C-56.14013789 64.40021298 -55.78962087 59.55902097 -51.0559082 54.42724609 C-50.4680957 53.94900391 -49.8802832 53.47076172 -49.2746582 52.97802734 C-48.6868457 52.48689453 -48.0990332 51.99576172 -47.4934082 51.48974609 C-43.94717681 49.01544373 -40.28116457 49.01870105 -36.0871582 48.72802734 C-34.90766602 48.64423828 -33.72817383 48.56044922 -32.51293945 48.47412109 C-31.60930664 48.41353516 -30.70567383 48.35294922 -29.7746582 48.29052734 C-29.58673706 47.005896 -29.58673706 47.005896 -29.39501953 45.6953125 C-28.91462079 42.46868878 -28.41886633 39.24516576 -27.91308594 36.02246094 C-27.6987128 34.63666304 -27.49020912 33.24994221 -27.28808594 31.86230469 C-25.79037514 21.61870243 -24.26001913 11.58177524 -15.7746582 4.79052734 C-10.63549765 1.22627083 -6.25640837 0.04006261 0 0 Z M-44.7746582 281.29052734 C-43.85852896 284.13932058 -42.93420188 286.9850182 -42.00512695 289.82958984 C-41.74985229 290.62631104 -41.49457764 291.42303223 -41.23156738 292.24389648 C-36.89942378 305.43923504 -29.56667163 315.62830496 -19.7746582 325.29052734 C-18.7556543 326.30759766 -18.7556543 326.30759766 -17.71606445 327.34521484 C-9.11340133 335.39344438 1.04120828 339.99762212 12.2253418 343.29052734 C12.37044189 342.66299561 12.51554199 342.03546387 12.66503906 341.38891602 C15.45712428 329.44723169 18.42919144 317.77435826 22.95214844 306.35766602 C25.53703232 299.80284915 26.74982839 294.97476008 24.8503418 287.97802734 C24.57448242 286.93001953 24.29862305 285.88201172 24.0144043 284.80224609 C23.46497135 282.37593237 23.46497135 282.37593237 22.2253418 281.29052734 C20.13915157 281.19634962 18.04973703 281.17309857 15.96142578 281.17700195 C15.30779053 281.17685593 14.65415527 281.1767099 13.98071289 281.17655945 C11.81092051 281.17725852 9.64121301 281.18505057 7.47143555 281.19287109 C5.97070869 281.1947353 4.46998122 281.19615919 2.96925354 281.19715881 C-0.98784047 281.20098382 -4.94489799 281.21081395 -8.90197754 281.22186279 C-12.9370067 281.23207729 -16.97204173 281.23665651 -21.00708008 281.24169922 C-28.9296229 281.25243624 -36.85213602 281.26951244 -44.7746582 281.29052734 Z " fill="#010101" transform="translate(236.774658203125,-0.29052734375)"/>
<path d="M0 0 C1.08925781 -0.01417969 2.17851562 -0.02835938 3.30078125 -0.04296875 C7.21800282 0.22360111 10.06099824 0.62511354 13.6875 2.1875 C15.00809222 5.05768168 15.71260986 7.20305247 16.34838867 10.23144531 C16.54379085 11.03739765 16.73919302 11.84334999 16.94051647 12.67372513 C17.34623569 14.35273484 17.7397496 16.03473764 18.12142563 17.71937561 C18.80776522 20.71186489 19.5787583 23.67755671 20.35835743 26.64683151 C21.30205327 30.25290619 22.20491262 33.86927128 23.11328125 37.484375 C23.30728201 38.25472328 23.50128277 39.02507156 23.70116234 39.81876373 C24.72162497 43.87107099 25.73954639 47.92400561 26.75512695 51.97753906 C27.79888897 56.14148654 28.85142211 60.30316685 29.90583515 64.46442795 C30.72297862 67.69576695 31.53380999 70.92866566 32.34291649 74.16202545 C32.72850276 75.69834426 33.11642766 77.23407819 33.5067997 78.76918793 C34.04939464 80.90538364 34.5830002 83.04363855 35.11450195 85.18261719 C35.419189 86.3940741 35.72387604 87.60553101 36.03779602 88.85369873 C36.6630319 92.06194776 36.81251411 94.92941063 36.6875 98.1875 C26.83118258 100.66894136 16.97392067 103.1465911 7.11542797 105.61937714 C2.53798617 106.76765493 -2.03911739 107.91724636 -6.61547852 109.06982422 C-11.03022739 110.18164821 -15.44582436 111.29004194 -19.86203575 112.39604187 C-21.54847698 112.81904013 -23.23460659 113.24328276 -24.92041969 113.66877747 C-27.27792578 114.26358182 -29.63649152 114.85399023 -31.99536133 115.44335938 C-32.69523163 115.62102341 -33.39510193 115.79868744 -34.11618042 115.98173523 C-36.93636893 116.68226463 -39.39269302 117.1875 -42.3125 117.1875 C-43.61742469 113.02805256 -44.43269705 109.53713091 -44.3125 105.1875 C-43.57386719 104.85878906 -42.83523438 104.53007812 -42.07421875 104.19140625 C-26.78189039 97.02130566 -18.54763184 87.24054987 -9.06884766 73.69042969 C-7.34132828 71.2285825 -5.58746081 68.78791562 -3.82421875 66.3515625 C-2.73624015 64.83907299 -1.64896857 63.32607458 -0.5625 61.8125 C-0.06113525 61.11769531 0.44022949 60.42289063 0.95678711 59.70703125 C1.41964111 59.05347656 1.88249512 58.39992187 2.359375 57.7265625 C2.96410645 56.87892334 2.96410645 56.87892334 3.58105469 56.01416016 C5.02030692 53.75030091 5.02030692 53.75030091 6.6875 49.1875 C3.0575 46.5475 -0.5725 43.9075 -4.3125 41.1875 C-7.12056008 43.99556008 -9.07475574 46.08611009 -11.1953125 49.27734375 C-11.71778564 50.05553467 -12.24025879 50.83372559 -12.77856445 51.63549805 C-13.32601318 52.45703369 -13.87346191 53.27856934 -14.4375 54.125 C-19.79456335 62.04639845 -25.23421709 69.79842217 -31.3125 77.1875 C-31.94027344 77.95449219 -32.56804687 78.72148437 -33.21484375 79.51171875 C-40.68718516 87.80554379 -52.5675461 93.55907829 -63.72167969 94.36062622 C-66.3897122 94.41731165 -69.05029333 94.41271551 -71.71875 94.3828125 C-73.16670959 94.37856766 -73.16670959 94.37856766 -74.6439209 94.37423706 C-77.70024478 94.36312124 -80.75626601 94.33803285 -83.8125 94.3125 C-85.89582907 94.30245908 -87.97916278 94.29333518 -90.0625 94.28515625 C-95.14604123 94.26491922 -100.22893538 94.22575425 -105.3125 94.1875 C-105.3125 83.2975 -105.3125 72.4075 -105.3125 61.1875 C-85.68587662 59.5413961 -85.68587662 59.5413961 -80.0234375 64.08203125 C-76.77171418 67.18856134 -73.98566199 70.5769955 -71.3125 74.1875 C-67.86048361 72.71028578 -65.66288064 70.74955999 -63.0625 68.0625 C-62.00289063 66.97582031 -62.00289063 66.97582031 -60.921875 65.8671875 C-60.39078125 65.31289062 -59.8596875 64.75859375 -59.3125 64.1875 C-60.24840504 63.0819811 -61.18629858 61.97814547 -62.125 60.875 C-62.90810547 59.95267578 -62.90810547 59.95267578 -63.70703125 59.01171875 C-65.18422469 57.33325321 -66.71289131 55.74867966 -68.3125 54.1875 C-66.8515263 50.84166339 -64.99605446 48.59355604 -62.45214844 45.98901367 C-61.6566156 45.17103806 -60.86108276 44.35306244 -60.04144287 43.51029968 C-58.74475677 42.19615837 -58.74475677 42.19615837 -57.421875 40.85546875 C-56.52567444 39.94549637 -55.62947388 39.03552399 -54.70611572 38.09797668 C-52.80356024 36.16991597 -50.89613728 34.24680158 -48.98632812 32.32592773 C-47.04783271 30.37426561 -45.12060522 28.41249554 -43.203125 26.44018555 C-17.58400853 0.1033138 -17.58400853 0.1033138 0 0 Z " fill="#FAD56F" transform="translate(320.3125,169.8125)"/>
<path d="M0 0 C3.16966291 1.55375633 4.14338374 2.14300424 6 5 C7.01287842 8.07696533 7.01287842 8.07696533 7.93261719 11.75488281 C8.10093929 12.41693851 8.2692614 13.07899422 8.44268417 13.76111221 C8.79490949 15.15048056 9.14316551 16.54086068 9.48762512 17.93217468 C10.28150225 21.13607734 11.10587004 24.33219536 11.92285156 27.53027344 C12.58012746 30.1396451 13.23625261 32.74927662 13.890625 35.359375 C14.06347771 36.04795845 14.23633041 36.7365419 14.41442108 37.44599152 C15.32341933 41.06720014 16.23114263 44.68872527 17.13769531 48.31054688 C18.07150142 52.04021537 19.00969737 55.7687657 19.94882584 59.49709702 C20.67521244 62.38406924 21.39846374 65.27182014 22.12084198 68.15979767 C22.4657513 69.53641257 22.81183519 70.91273374 23.15912628 72.28874969 C23.64097758 74.19915299 24.11796984 76.11077988 24.59472656 78.02246094 C24.86690002 79.10750916 25.13907349 80.19255737 25.41949463 81.31048584 C26 84 26 84 26 87 C21.53710467 88.02813946 17.07145854 89.04293419 12.6027832 90.0456543 C11.08405699 90.38838358 9.5661357 90.73470076 8.04907227 91.0847168 C5.864178 91.58815196 3.67668281 92.07847377 1.48828125 92.56640625 C0.81412674 92.72468399 0.13997223 92.88296173 -0.55461121 93.04603577 C-4.33816214 93.87462202 -7.29624797 94.24918469 -11 93 C-12.70884005 91.37660195 -14.37446717 89.70680947 -16 88 C-20.82872062 84.70233714 -24.82422973 83.82397101 -30.625 83.625 C-32.06746094 83.55152344 -32.06746094 83.55152344 -33.5390625 83.4765625 C-37.01580937 84.00239103 -39.12005239 84.93575837 -42.21630859 86.53271484 C-43.56165176 87.22172379 -43.56165176 87.22172379 -44.93417358 87.9246521 C-45.95675766 88.45694931 -45.95675766 88.45694931 -47 89 C-49.09607512 80.90924901 -51.18299363 72.81621416 -53.25842285 64.72014523 C-54.22252195 60.96045836 -55.18969658 57.20162045 -56.1640625 53.44458008 C-57.10512979 49.81545973 -58.03790504 46.18429854 -58.96508789 42.55160713 C-59.31938187 41.16945914 -59.67660369 39.78805808 -60.03686523 38.40745354 C-60.54285494 36.46629486 -61.03726555 34.52212929 -61.53125 32.57788086 C-61.81548828 31.47423691 -62.09972656 30.37059296 -62.39257812 29.23350525 C-63.28657024 24.47449289 -63.84183068 20.51997206 -61.453125 16.20703125 C-58.43091518 13.4880049 -55.6105703 12.59931978 -51.75 11.6875 C-51.00363281 11.49510742 -50.25726563 11.30271484 -49.48828125 11.10449219 C-46.66358965 10.38289586 -43.83197278 9.69248026 -41 9 C-38.25446159 8.31678373 -35.51005588 7.62905626 -32.765625 6.94140625 C-28.39349829 5.84592472 -24.02076977 4.7534626 -19.64355469 3.6784668 C-18.9563031 3.50890976 -18.26905151 3.33935272 -17.56097412 3.16465759 C-15.66733657 2.69772554 -13.77313731 2.23307317 -11.87890625 1.76855469 C-3.82233315 -0.38223331 -3.82233315 -0.38223331 0 0 Z " fill="#CBD0D8" transform="translate(410,132)"/>
<path d="M0 0 C3.96 1.98 7.92 3.96 12 6 C10.5956191 16.23007739 8.52742399 26.00674435 5.125 35.75 C4.89272705 36.42208496 4.6604541 37.09416992 4.42114258 37.78662109 C3.04443338 41.59954526 1.42419897 45.02388945 -0.57275391 48.55322266 C-3.4283385 54.24238022 -3.65542841 59.07309433 -3.53125 65.3515625 C-3.53451294 66.40926849 -3.53777588 67.46697449 -3.5411377 68.55673218 C-3.55415778 73.03156063 -3.50994004 77.50535991 -3.47021484 81.97998047 C-3.3841303 95.62738293 -3.83784928 107.24278808 -9 120 C-9.495 121.485 -9.495 121.485 -10 123 C-22.21 123 -34.42 123 -47 123 C-48.32 118.05 -49.64 113.1 -51 108 C-51.66 106.68 -52.32 105.36 -53 104 C-53.24050903 101.96246338 -53.24050903 101.96246338 -53.22705078 99.78222656 C-53.22689972 98.96167786 -53.22674866 98.14112915 -53.22659302 97.29571533 C-53.21627045 96.41953552 -53.20594788 95.54335571 -53.1953125 94.640625 C-53.1924826 93.73624695 -53.18965271 92.8318689 -53.18673706 91.90008545 C-53.17555782 89.01658805 -53.15045733 86.13340325 -53.125 83.25 C-53.11496728 81.29297324 -53.10584194 79.33594161 -53.09765625 77.37890625 C-53.07562585 72.58581738 -53.04111144 67.79296166 -53 63 C-52.28859863 62.6277832 -51.57719727 62.25556641 -50.84423828 61.87207031 C-45.18134675 58.85605835 -39.87018017 55.77995674 -34.875 51.75 C-34.28372314 51.27602783 -33.69244629 50.80205566 -33.08325195 50.3137207 C-17.37247528 37.44815218 -9.20123469 21.30912832 -1.796875 2.8190918 C-1 1 -1 1 0 0 Z " fill="#D19F6B" transform="translate(367,290)"/>
<path d="M0 0 C11.22 0 22.44 0 34 0 C34.495 7.92 34.495 7.92 35 16 C35.68379424 20.32391825 36.41427005 24.53976481 37.3125 28.8125 C37.51294922 29.84052734 37.71339844 30.86855469 37.91992188 31.92773438 C39.17562159 38.08182928 40.88129613 43.74012181 43.31713867 49.53393555 C44.12455369 52.44980936 43.9715551 54.14766897 43 57 C40.41015625 58.3359375 40.41015625 58.3359375 37.0625 59.375 C29.21288379 62.10642518 23.39585518 66.24086767 17 71.4375 C15 73 15 73 13 73 C12.65828994 71.62705778 12.32708883 70.25149882 12 68.875 C11.814375 68.10929687 11.62875 67.34359375 11.4375 66.5546875 C10.91555784 63.50691809 10.61804091 61.08750261 11 58 C13.1875 55.2265625 13.1875 55.2265625 16 52.625 C17.3921875 51.31402344 17.3921875 51.31402344 18.8125 49.9765625 C19.534375 49.32429688 20.25625 48.67203125 21 48 C19.59155282 44.78475695 17.89655214 42.67816132 15.375 40.25 C14.74335938 39.63640625 14.11171875 39.0228125 13.4609375 38.390625 C12.97882813 37.93171875 12.49671875 37.4728125 12 37 C8.87093227 38.37024534 6.96462869 39.91037627 4.6875 42.4375 C-0.61772645 47.79857094 -4.95753939 49.16575211 -12.375 49.5625 C-18.99817774 49.39482461 -23.28341282 47.65559682 -28 43 C-30.47461901 39.81258312 -32 37.13746052 -32 33 C-31.17757812 32.98582031 -30.35515625 32.97164062 -29.5078125 32.95703125 C-20.8198941 32.58583843 -13.71012598 31.28905442 -7.12109375 25.2890625 C-0.07939243 17.51773912 -0.74592332 11.18884983 0 0 Z " fill="#ECCDB1" transform="translate(264,99)"/>
<path d="M0 0 C1.05638672 0.00902344 2.11277344 0.01804687 3.20117188 0.02734375 C5.78019253 0.0506833 8.3587199 0.08342225 10.9375 0.125 C11.65709143 19.63392323 10.26635572 37.27660999 -3.5625 52.375 C-12.2944348 60.68356827 -24.32489602 66.4785397 -36.4375 66.25 C-37.68273437 66.23195313 -38.92796875 66.21390625 -40.2109375 66.1953125 C-41.15195312 66.17210937 -42.09296875 66.14890625 -43.0625 66.125 C-39.09877475 61.37414133 -34.96455218 56.88886888 -30.5703125 52.53515625 C-29.97950897 51.94576767 -29.38870544 51.35637909 -28.77999878 50.74913025 C-26.91819596 48.89286273 -25.05292255 47.04012915 -23.1875 45.1875 C-21.91382989 43.91885328 -20.64039029 42.6499751 -19.3671875 41.38085938 C-16.26827957 38.29289446 -13.16625699 35.20809071 -10.0625 32.125 C-11.57196511 28.94413482 -13.14191825 26.82630094 -15.6875 24.375 C-16.31914062 23.76140625 -16.95078125 23.1478125 -17.6015625 22.515625 C-18.08367187 22.05671875 -18.56578125 21.5978125 -19.0625 21.125 C-22.01420386 22.45304853 -24.06838046 23.89134727 -26.33056641 26.19775391 C-27.25139511 27.12849228 -27.25139511 27.12849228 -28.19082642 28.07803345 C-28.84199432 28.74579803 -29.49316223 29.41356262 -30.1640625 30.1015625 C-30.84173676 30.78681 -31.51941101 31.4720575 -32.21762085 32.17807007 C-34.37911346 34.36397612 -36.5340406 36.55618126 -38.6875 38.75 C-41.52819408 41.64367328 -44.37528034 44.53082606 -47.2265625 47.4140625 C-48.20938705 48.42178207 -48.20938705 48.42178207 -49.21206665 49.44985962 C-49.81964813 50.06404755 -50.42722961 50.67823547 -51.05322266 51.31103516 C-51.58742828 51.85571442 -52.12163391 52.40039368 -52.67202759 52.96157837 C-54.0625 54.125 -54.0625 54.125 -56.0625 54.125 C-56.84510991 40.76266047 -52.66511184 27.73729094 -44.1875 17.25 C-32.100159 4.38383548 -17.17729568 -0.28177267 0 0 Z " fill="#AFD77B" transform="translate(485.0625,428.875)"/>
<path d="M0 0 C1.83726906 -0.0237545 1.83726906 -0.0237545 3.71165466 -0.04798889 C5.03149857 -0.04302902 6.35134247 -0.03806915 7.71118164 -0.03295898 C9.08354616 -0.03819604 10.45590707 -0.04447283 11.82826233 -0.05174255 C14.70241246 -0.06214294 17.5760674 -0.05759187 20.45019531 -0.04296875 C24.12705676 -0.02578953 27.80235421 -0.04926407 31.4790411 -0.08445835 C34.31277247 -0.10645912 37.1461312 -0.10498455 39.97992134 -0.09669304 C41.99234725 -0.0954779 44.00475014 -0.11538995 46.01707458 -0.13563538 C55.06878841 -0.04325239 55.06878841 -0.04325239 59.21801758 2.72290039 C61.01280847 5.6628026 61.79387307 7.73627147 62.29711914 11.13110352 C62.46147461 12.17975586 62.62583008 13.2284082 62.79516602 14.30883789 C62.94405273 15.39358398 63.09293945 16.47833008 63.24633789 17.59594727 C63.41456055 18.68456055 63.5827832 19.77317383 63.75610352 20.89477539 C64.40056924 25.16929292 64.93383789 29.20302408 64.93383789 33.53344727 C38.53383789 33.53344727 12.13383789 33.53344727 -15.06616211 33.53344727 C-14.40616211 29.24344727 -13.74616211 24.95344727 -13.06616211 20.53344727 C-12.83155273 19.0059082 -12.59694336 17.47836914 -12.35522461 15.90454102 C-12.02651367 13.95741211 -12.02651367 13.95741211 -11.69116211 11.97094727 C-11.5403418 10.96451172 -11.5403418 10.96451172 -11.38647461 9.93774414 C-10.13338286 2.75382608 -7.26213348 0.04177873 0 0 Z " fill="#CA9A73" transform="translate(239.066162109375,16.466552734375)"/>
<path d="M0 0 C1.20527344 0.00322266 2.41054688 0.00644531 3.65234375 0.00976562 C4.90660156 0.01814453 6.16085937 0.02652344 7.453125 0.03515625 C9.35771484 0.04192383 9.35771484 0.04192383 11.30078125 0.04882812 C14.43494336 0.06061069 17.56901041 0.07706209 20.703125 0.09765625 C20.76172388 3.9309242 20.79692143 7.76407513 20.828125 11.59765625 C20.84488281 12.6753125 20.86164063 13.75296875 20.87890625 14.86328125 C20.96796849 29.46948808 16.26377896 41.28510014 6.04296875 51.9140625 C-2.90313397 60.2627627 -13.77070967 65.39769295 -26.109375 65.41015625 C-28.17300121 65.33139189 -30.23643014 65.23666677 -32.296875 65.09765625 C-28.33314975 60.34679758 -24.19892718 55.86152513 -19.8046875 51.5078125 C-19.21388397 50.91842392 -18.62308044 50.32903534 -18.01437378 49.7217865 C-16.15257096 47.86551898 -14.28729755 46.0127854 -12.421875 44.16015625 C-11.14820489 42.89150953 -9.87476529 41.62263135 -8.6015625 40.35351562 C-5.50265457 37.26555071 -2.40063199 34.18074696 0.703125 31.09765625 C-0.80634011 27.91679107 -2.37629325 25.79895719 -4.921875 23.34765625 C-5.55351562 22.7340625 -6.18515625 22.12046875 -6.8359375 21.48828125 C-7.31804687 21.029375 -7.80015625 20.57046875 -8.296875 20.09765625 C-11.24857886 21.42570478 -13.30275546 22.86400352 -15.56494141 25.17041016 C-16.48577011 26.10114853 -16.48577011 26.10114853 -17.42520142 27.0506897 C-18.07636932 27.71845428 -18.72753723 28.38621887 -19.3984375 29.07421875 C-20.07611176 29.75946625 -20.75378601 30.44471375 -21.45199585 31.15072632 C-23.61348846 33.33663237 -25.7684156 35.52883751 -27.921875 37.72265625 C-30.76256908 40.61632953 -33.60965534 43.50348231 -36.4609375 46.38671875 C-37.44376205 47.39443832 -37.44376205 47.39443832 -38.44644165 48.42251587 C-39.05402313 49.0367038 -39.66160461 49.65089172 -40.28759766 50.28369141 C-40.82180328 50.82837067 -41.35600891 51.37304993 -41.90640259 51.93423462 C-43.296875 53.09765625 -43.296875 53.09765625 -45.296875 53.09765625 C-46.25973514 39.75134486 -42.14517924 27.87962334 -34.296875 17.09765625 C-25.72609825 7.26962781 -13.20388634 -0.06228248 0 0 Z " fill="#B0D97C" transform="translate(309.296875,429.90234375)"/>
<path d="M0 0 C4.12486211 -0.08813808 8.24947739 -0.14077078 12.375 -0.1875 C14.10943359 -0.22520508 14.10943359 -0.22520508 15.87890625 -0.26367188 C30.26242932 -0.38556614 41.48966065 4.21008775 52.12109375 13.9609375 C60.59032109 23.15207403 66.21372373 35.26093007 66.0625 47.8125 C66.05347656 48.78832031 66.04445313 49.76414062 66.03515625 50.76953125 C66.02355469 51.50558594 66.01195312 52.24164063 66 53 C63.04734888 51.67005617 60.97649784 50.22220684 58.70019531 47.92724609 C58.07985413 47.30675385 57.45951294 46.6862616 56.82037354 46.04696655 C56.16293152 45.37920197 55.5054895 44.71143738 54.828125 44.0234375 C54.1457074 43.33819 53.46328979 42.6529425 52.76019287 41.94692993 C50.58538402 39.76094155 48.41763928 37.56809571 46.25 35.375 C44.7752001 33.89016745 43.29994494 32.40578694 41.82421875 30.921875 C38.21084552 27.2864709 34.60379147 23.64490176 31 20 C27.81913482 21.50946511 25.70130094 23.07941825 23.25 25.625 C22.32960937 26.57246094 22.32960937 26.57246094 21.390625 27.5390625 C20.93171875 28.02117187 20.4728125 28.50328125 20 29 C21.32899116 31.95216751 22.77208542 34.01467471 25.07275391 36.28393555 C25.69324615 36.90104904 26.3137384 37.51816254 26.95303345 38.15397644 C27.62079803 38.8082814 28.28856262 39.46258636 28.9765625 40.13671875 C29.66181 40.81676468 30.3470575 41.49681061 31.05307007 42.19746399 C33.2390171 44.36561441 35.43154295 46.52694961 37.625 48.6875 C39.82470242 50.85963422 42.02295014 53.03319135 44.21835327 55.20967102 C45.58447394 56.56348004 46.95325745 57.91460798 48.32485962 59.26286316 C48.93904755 59.87052017 49.55323547 60.47817719 50.18603516 61.10424805 C50.73071442 61.64067429 51.27539368 62.17710052 51.83657837 62.7297821 C53 64 53 64 53 65 C37.92414108 65.92679461 26.82798966 62.21021358 15.1015625 52.4140625 C6.47910132 44.39404403 0.35222045 32.94867183 -0.11352539 21.11572266 C-0.10828857 20.1416748 -0.10305176 19.16762695 -0.09765625 18.1640625 C-0.09443359 17.10058594 -0.09121094 16.03710938 -0.08789062 14.94140625 C-0.07951172 13.84699219 -0.07113281 12.75257813 -0.0625 11.625 C-0.05798828 10.50738281 -0.05347656 9.38976562 -0.04882812 8.23828125 C-0.03709244 5.49213196 -0.02067363 2.74609414 0 0 Z " fill="#B0D97C" transform="translate(182,430)"/>
<path d="M0 0 C4.12486211 -0.08813808 8.24947739 -0.14077078 12.375 -0.1875 C14.10943359 -0.22520508 14.10943359 -0.22520508 15.87890625 -0.26367188 C30.1081759 -0.38425891 41.64846863 4.11899279 52 14 C62.04764567 25.29038079 66.56028851 38.0901002 66 53 C63.04734888 51.67005617 60.97649784 50.22220684 58.70019531 47.92724609 C58.07985413 47.30675385 57.45951294 46.6862616 56.82037354 46.04696655 C56.16293152 45.37920197 55.5054895 44.71143738 54.828125 44.0234375 C54.1457074 43.33819 53.46328979 42.6529425 52.76019287 41.94692993 C50.58538402 39.76094155 48.41763928 37.56809571 46.25 35.375 C44.7752001 33.89016745 43.29994494 32.40578694 41.82421875 30.921875 C38.21084552 27.2864709 34.60379147 23.64490176 31 20 C27.81913482 21.50946511 25.70130094 23.07941825 23.25 25.625 C22.32960938 26.57246094 22.32960938 26.57246094 21.390625 27.5390625 C20.93171875 28.02117187 20.4728125 28.50328125 20 29 C21.32899116 31.95216751 22.77208542 34.01467471 25.07275391 36.28393555 C25.69324615 36.90104904 26.3137384 37.51816254 26.95303345 38.15397644 C27.62079803 38.8082814 28.28856262 39.46258636 28.9765625 40.13671875 C29.66181 40.81676468 30.3470575 41.49681061 31.05307007 42.19746399 C33.2390171 44.36561441 35.43154295 46.52694961 37.625 48.6875 C39.82470242 50.85963422 42.02295014 53.03319135 44.21835327 55.20967102 C45.58447394 56.56348004 46.95325745 57.91460798 48.32485962 59.26286316 C48.93904755 59.87052017 49.55323547 60.47817719 50.18603516 61.10424805 C50.73071442 61.64067429 51.27539368 62.17710052 51.83657837 62.7297821 C53 64 53 64 53 65 C39.52270967 65.8388355 28.58731889 63.86738606 17.984375 54.79296875 C17.32953125 54.20128906 16.6746875 53.60960937 16 53 C15.38640625 52.50113281 14.7728125 52.00226563 14.140625 51.48828125 C6.68663857 44.94130645 0.50433995 32.81455458 -0.22705078 22.93212891 C-0.21657715 21.87429199 -0.20610352 20.81645508 -0.1953125 19.7265625 C-0.18886719 18.57285156 -0.18242187 17.41914063 -0.17578125 16.23046875 C-0.15902344 15.04066406 -0.14226563 13.85085938 -0.125 12.625 C-0.11597656 11.41199219 -0.10695313 10.19898438 -0.09765625 8.94921875 C-0.07416588 5.96594227 -0.04131682 2.98307406 0 0 Z " fill="#B0D97C" transform="translate(17,430)"/>
<path d="M0 0 C1.57104492 0.02030273 1.57104492 0.02030273 3.17382812 0.04101562 C5.72062124 0.0759032 8.26626325 0.1249113 10.8125 0.1875 C10.87109888 4.02076795 10.90629643 7.85391888 10.9375 11.6875 C10.95425781 12.76515625 10.97101563 13.8428125 10.98828125 14.953125 C11.02573561 21.09564053 10.63918643 26.31740092 8.8125 32.1875 C8.54050781 33.06277344 8.26851562 33.93804687 7.98828125 34.83984375 C2.60919753 49.07859478 -7.62469638 57.26797363 -20.91796875 63.8046875 C-26.09791173 65.99548776 -30.39661157 66.30659988 -36 66.25 C-37.16144531 66.24097656 -38.32289062 66.23195313 -39.51953125 66.22265625 C-40.84017578 66.20525391 -40.84017578 66.20525391 -42.1875 66.1875 C-38.22377475 61.43664133 -34.08955218 56.95136888 -29.6953125 52.59765625 C-29.10450897 52.00826767 -28.51370544 51.41887909 -27.90499878 50.81163025 C-26.04319596 48.95536273 -24.17792255 47.10262915 -22.3125 45.25 C-21.03882989 43.98135328 -19.76539029 42.7124751 -18.4921875 41.44335938 C-15.39327957 38.35539446 -12.29125699 35.27059071 -9.1875 32.1875 C-10.66262158 29.11293087 -12.18573629 26.83998419 -14.5625 24.375 C-15.44035156 23.43720703 -15.44035156 23.43720703 -16.3359375 22.48046875 C-18.07593419 20.95961074 -18.07593419 20.95961074 -20.09223938 21.41600037 C-22.54235328 22.31816116 -23.73742281 23.38096774 -25.56323242 25.23852539 C-26.20036667 25.87911392 -26.83750092 26.51970245 -27.49394226 27.17970276 C-28.170121 27.87450241 -28.84629974 28.56930206 -29.54296875 29.28515625 C-30.24521072 29.99401474 -30.9474527 30.70287323 -31.67097473 31.43321228 C-33.9128462 33.69849975 -36.14431153 35.973704 -38.375 38.25 C-40.61810752 40.5280999 -42.86331355 42.80407569 -45.11116028 45.07749939 C-46.50989976 46.49329876 -47.90555044 47.91215724 -49.29789734 49.33424377 C-49.9255751 49.97168015 -50.55325287 50.60911652 -51.19995117 51.26586914 C-51.7541423 51.8313295 -52.30833344 52.39678986 -52.87931824 52.97938538 C-54.1875 54.1875 -54.1875 54.1875 -55.1875 54.1875 C-55.55521411 46.26121803 -55.12085804 39.59244042 -52.1875 32.1875 C-51.87039062 31.37667969 -51.55328125 30.56585938 -51.2265625 29.73046875 C-45.72003566 17.33102001 -35.66074651 8.26975374 -23.1875 3.1875 C-15.38665601 0.4119246 -8.23290119 -0.20595455 0 0 Z " fill="#B1D97D" transform="translate(154.1875,428.8125)"/>
<path d="M0 0 C18.87495679 -0.66659722 34.72130833 0.25294675 50.08984375 12.69140625 C57.62365938 19.79660217 61.98580611 28.18454809 65 38 C65.29777344 38.95712891 65.29777344 38.95712891 65.6015625 39.93359375 C66.14053197 42.72883738 66.09340999 45.406281 66.0625 48.25 C66.05347656 49.32765625 66.04445313 50.4053125 66.03515625 51.515625 C66.02355469 52.33546875 66.01195312 53.1553125 66 54 C61.24836237 50.0551509 56.83277217 45.91936821 52.55078125 41.47265625 C51.36191964 40.2565829 50.17244923 39.04110447 48.98242188 37.82617188 C47.13313397 35.93337713 45.28805475 34.0371048 43.45288086 32.13061523 C41.66345384 30.27490437 39.8587798 28.435253 38.05078125 26.59765625 C37.50279373 26.02072525 36.95480621 25.44379425 36.39021301 24.84938049 C34.68535521 23.07410159 34.68535521 23.07410159 32 21 C28.95925024 21.04696905 28.17473204 21.84918202 25.859375 23.84765625 C25.16328125 24.57855469 24.4671875 25.30945313 23.75 26.0625 C23.04359375 26.79597656 22.3371875 27.52945312 21.609375 28.28515625 C20.81273437 29.13400391 20.81273437 29.13400391 20 30 C21.32899116 32.95216751 22.77208542 35.01467471 25.07275391 37.28393555 C25.69324615 37.90104904 26.3137384 38.51816254 26.95303345 39.15397644 C27.62079803 39.8082814 28.28856262 40.46258636 28.9765625 41.13671875 C29.66181 41.81676468 30.3470575 42.49681061 31.05307007 43.19746399 C33.2390171 45.36561441 35.43154295 47.52694961 37.625 49.6875 C39.82470242 51.85963422 42.02295014 54.03319135 44.21835327 56.20967102 C45.58447394 57.56348004 46.95325745 58.91460798 48.32485962 60.26286316 C48.93904755 60.87052017 49.55323547 61.47817719 50.18603516 62.10424805 C50.73071442 62.64067429 51.27539368 63.17710052 51.83657837 63.7297821 C53 65 53 65 53 66 C38.51754398 66.76112178 27.09326075 63.52098572 15.80859375 54.1875 C6.45774956 45.38670546 0.54495111 33.93964723 -0.16308594 21.02539062 C-0.33323531 14.01355588 -0.22460579 7.00942834 0 0 Z " fill="#B1D97D" transform="translate(347,429)"/>
<path d="M0 0 C2.8345422 2.18641244 5.32748415 4.51415451 7.8359375 7.06640625 C9.88917275 9.33314161 9.88917275 9.33314161 13 9 C15.05798907 7.26894102 15.05798907 7.26894102 17.0625 5.0625 C20.52662537 1.40484807 22.42823088 -0.19165264 27.5 -0.625 C32.58644628 -0.63976472 34.77643498 1.07010355 38.4375 4.5 C39.24058594 5.3353125 40.04367188 6.170625 40.87109375 7.03125 C42.88380955 9.33947562 42.88380955 9.33947562 46 9 C47.98879251 7.30026647 47.98879251 7.30026647 49.9375 5.125 C55.47025003 -0.82350582 55.47025003 -0.82350582 60.18359375 -1.15234375 C64.21347946 -0.76821253 66.52236658 -0.34265006 69.875 2.0625 C73.33481962 6.84519183 75 11.08423099 75 17 C73.98421875 17.27972656 72.9684375 17.55945313 71.921875 17.84765625 C53.11522086 23.23409488 39.9565534 32.6263797 29 49 C25.18274693 47.72758231 24.58737347 46.24695579 22.375 42.9375 C12.29520088 28.73749102 -2.20100938 20.73310903 -19 17 C-18.73118823 10.95173516 -18.08176177 6.7620554 -14 2 C-9.72659557 -1.78501535 -5.20716638 -1.9434621 0 0 Z " fill="#9DD166" transform="translate(63,397)"/>
<path d="M0 0 C4.44422045 2.4153372 5.87318196 5.32712997 7.51953125 9.90234375 C8.07320137 12.31958646 8.08167583 14.52823141 8 17 C6.98421875 17.27972656 5.9684375 17.55945313 4.921875 17.84765625 C-13.0289511 22.98585025 -28.61074191 32.3217126 -38 49 C-41.57529506 47.80823498 -41.86057578 47.00634913 -43.75 43.875 C-53.38334299 29.05087511 -69.10914426 20.95493207 -86 17 C-85.72987799 10.9222547 -85.0169245 6.84393837 -81 2 C-76.50887677 -0.99408216 -72.2547263 -0.96193077 -67 0 C-63.86506145 1.94117056 -61.54125164 4.3568719 -59 7 C-57.68491093 8.02387427 -56.35622245 9.03126968 -55 10 C-54.06027344 9.04287109 -54.06027344 9.04287109 -53.1015625 8.06640625 C-52.28429687 7.24011719 -51.46703125 6.41382813 -50.625 5.5625 C-49.40683594 4.32693359 -49.40683594 4.32693359 -48.1640625 3.06640625 C-44.5298195 -0.40383662 -41.56241476 -0.50948301 -36.671875 -0.48828125 C-31.89672788 0.38436991 -29.28130308 3.65421717 -26 7 C-24.68404011 8.02275479 -23.35521325 9.02985835 -22 10 C-21.39671875 9.37351562 -20.7934375 8.74703125 -20.171875 8.1015625 C-19.37265625 7.28429687 -18.5734375 6.46703125 -17.75 5.625 C-16.96109375 4.81289063 -16.1721875 4.00078125 -15.359375 3.1640625 C-10.33203536 -1.44710664 -6.47289313 -1.56322106 0 0 Z " fill="#9DD166" transform="translate(295,397)"/>
<path d="M0 0 C3.13058797 1.94688306 5.45905096 4.35718664 8 7 C9.31508907 8.02387427 10.64377755 9.03126968 12 10 C12.81404297 9.16855469 12.81404297 9.16855469 13.64453125 8.3203125 C14.35996094 7.59585937 15.07539063 6.87140625 15.8125 6.125 C16.52019531 5.40570313 17.22789062 4.68640625 17.95703125 3.9453125 C22.06339685 0.03523589 24.87599903 -0.60354381 30.36328125 -0.5234375 C35.09825256 0.41654199 37.73168984 3.6674654 41 7 C42.31595989 8.02275479 43.64478675 9.02985835 45 10 C45.81404297 9.16855469 45.81404297 9.16855469 46.64453125 8.3203125 C47.35996094 7.59585937 48.07539063 6.87140625 48.8125 6.125 C49.52019531 5.40570313 50.22789062 4.68640625 50.95703125 3.9453125 C54.45653675 0.61308738 56.62389715 -0.3099164 61.375 -0.375 C64.88375617 -0.28704965 66.80103856 -0.09533569 70 1.4375 C73.6533725 6.11838351 75 11.11273995 75 17 C74.20078125 17.21914063 73.4015625 17.43828125 72.578125 17.6640625 C54.88768932 22.77186435 41.93668679 31.06523196 31 46 C30.00036354 47.33360591 29.00048798 48.66703279 28 50 C27.43152344 49.21496094 26.86304688 48.42992187 26.27734375 47.62109375 C14.34263774 31.3827208 0.89161875 21.62030264 -19 17 C-18.48346645 11.00821081 -17.90969584 5.66668828 -13.22265625 1.37109375 C-9.0798693 -1.1844743 -4.67091995 -0.92384724 0 0 Z " fill="#9ED166" transform="translate(393,397)"/>
<path d="M0 0 C43.89 0 87.78 0 133 0 C133 5.61 133 11.22 133 17 C89.11 17 45.22 17 0 17 C0 11.39 0 5.78 0 0 Z " fill="#CB9A68" transform="translate(198,66)"/>
<path d="M0 0 C-5.53659115 18.88954628 -17.03083252 36.47911616 -34 47 C-34.99 47 -35.98 47 -37 47 C-37.21914063 46.31035156 -37.43828125 45.62070312 -37.6640625 44.91015625 C-41.12820915 34.64445338 -45.49055518 26.67728049 -55 21 C-55.99 20.67 -56.98 20.34 -58 20 C-58.2475 20.804375 -58.495 21.60875 -58.75 22.4375 C-60.26078647 26.74324143 -62.10188856 30.85364007 -64 35 C-63.39414062 35.27070313 -62.78828125 35.54140625 -62.1640625 35.8203125 C-57.85207054 38.17089295 -54.83968552 42.50113268 -53 47 C-52.8046875 49.359375 -52.8046875 49.359375 -52.875 51.75 C-52.89304687 52.54921875 -52.91109375 53.3484375 -52.9296875 54.171875 C-52.95289063 54.77515625 -52.97609375 55.3784375 -53 56 C-63.59610938 59.11895992 -72.93115479 60.57252648 -84 60 C-83.83427585 53.16011237 -82.60155008 46.76069617 -80.8125 40.1875 C-80.62856689 39.49027832 -80.44463379 38.79305664 -80.25512695 38.07470703 C-79.84508475 36.62636124 -79.39897802 35.18778661 -78.91917419 33.7610321 C-78.24512221 31.73630252 -77.63281966 29.69073971 -77.05657959 27.6360321 C-73.86753644 18.141192 -73.86753644 18.141192 -68.90361023 15.1078949 C-64.93591191 13.74279019 -61.03259621 12.77536839 -56.93359375 11.9140625 C-55.45078183 11.55792405 -53.96918386 11.19669673 -52.48878479 10.83065796 C-48.61038393 9.88678277 -44.71909255 9.01553793 -40.82080078 8.15814209 C-36.85710288 7.27146669 -32.91143125 6.31083092 -28.96289062 5.359375 C-23.19088292 3.98350107 -17.4151318 2.62630221 -11.62280273 1.33837891 C-9.88123146 0.94871445 -9.88123146 0.94871445 -8.10447693 0.55117798 C-5.31570375 0.05605097 -2.82203902 -0.11315982 0 0 Z " fill="#CE9C69" transform="translate(350,287)"/>
<path d="M0 0 C0.27714844 1.20398438 0.55429687 2.40796875 0.83984375 3.6484375 C1.20559679 5.22398907 1.57148945 6.79950823 1.9375 8.375 C2.21110352 9.56609375 2.21110352 9.56609375 2.49023438 10.78125 C2.66748047 11.54179687 2.84472656 12.30234375 3.02734375 13.0859375 C3.27085571 14.1385376 3.27085571 14.1385376 3.51928711 15.21240234 C3.9588074 17.08394574 3.9588074 17.08394574 5 19 C5.37123472 22.86084111 5.17056445 25.54216911 3.8125 29.1875 C-3.63351328 36.63351328 -19.64796355 38.05165943 -29.7409668 40.57421875 C-32.45886604 41.25535457 -35.1737315 41.94780168 -37.88867188 42.640625 C-39.63263944 43.07881434 -41.37677427 43.51633865 -43.12109375 43.953125 C-43.9242955 44.15931458 -44.72749725 44.36550415 -45.55503845 44.57794189 C-55.92606206 47.13914411 -55.92606206 47.13914411 -59.86328125 44.9765625 C-64.91764412 40.26279012 -64.91764412 40.26279012 -65.1875 36.125 C-64.99894041 32.98234024 -64.7843343 31.54294349 -63 29 C-60.71484375 28.3828125 -60.71484375 28.3828125 -57.9375 28.125 C-51.85316179 27.18404075 -47.42715913 25.35604011 -43 21 C-40.09252757 16.59010163 -38.23009641 12.11596019 -37 7 C-32.6968904 5.99469337 -28.39188458 4.99808244 -24.08496094 4.00927734 C-22.62185224 3.67210934 -21.15927565 3.33262321 -19.69726562 2.99072266 C-17.58861718 2.49803436 -15.4781588 2.01387571 -13.3671875 1.53125 C-12.09987793 1.23798828 -10.83256836 0.94472656 -9.52685547 0.64257812 C-6.25339548 0.04616758 -3.3163403 -0.12497649 0 0 Z " fill="#C8CDD5" transform="translate(441,235)"/>
<path d="M0 0 C5.47932789 1.54545146 10.11429181 4.15543212 15 7 C14.39738455 11.1705573 12.9826835 14.21761936 10.9296875 17.8828125 C10.61661652 18.44627884 10.30354553 19.00974518 9.98098755 19.59028625 C8.95198429 21.43880237 7.91356837 23.28184374 6.875 25.125 C6.15300533 26.4176926 5.43166015 27.71074816 4.7109375 29.00415039 C3.22042453 31.67699268 1.72633152 34.34778556 0.22949219 37.01708984 C-1.89794349 40.81344423 -4.01021586 44.61803905 -6.1171875 48.42578125 C-9.20710607 54.0095756 -12.3102519 59.58587271 -15.41992188 65.15869141 C-16.82635153 67.68774399 -18.22035925 70.22307784 -19.609375 72.76171875 C-20.3226058 74.04965137 -21.03611372 75.33743059 -21.75 76.625 C-22.32234375 77.66914063 -22.8946875 78.71328125 -23.484375 79.7890625 C-25 82 -25 82 -28 83 C-30.3317497 81.93430618 -32.47521409 80.83522353 -34.6875 79.5625 C-35.29400391 79.22412109 -35.90050781 78.88574219 -36.52539062 78.53710938 C-38.0220025 77.70042085 -39.51169189 76.85137169 -41 76 C-40.40922459 72.24363907 -39.34024834 69.3982864 -37.515625 66.0703125 C-36.99935547 65.12212646 -36.48308594 64.17394043 -35.95117188 63.19702148 C-35.38978516 62.18325439 -34.82839844 61.1694873 -34.25 60.125 C-33.66798828 59.06289307 -33.08597656 58.00078613 -32.48632812 56.90649414 C-26.9714301 46.87326806 -21.34027538 36.90599658 -15.67773438 26.95556641 C-13.88720149 23.80128947 -12.10661435 20.64155084 -10.328125 17.48046875 C-9.72935547 16.41707275 -9.13058594 15.35367676 -8.51367188 14.25805664 C-7.35765345 12.20445967 -6.20266796 10.15028081 -5.04882812 8.09545898 C-4.53255859 7.17966064 -4.01628906 6.2638623 -3.484375 5.3203125 C-2.79939941 4.10239014 -2.79939941 4.10239014 -2.10058594 2.85986328 C-1 1 -1 1 0 0 Z " fill="#000000" transform="translate(108,227)"/>
<path d="M0 0 C9.21760396 0.67788297 18.13153676 2.51681083 27.1640625 4.37890625 C28.80878014 4.71421396 30.45358765 5.04908118 32.09848022 5.38352966 C36.39663575 6.25867106 40.69355593 7.13973397 44.99023438 8.02209473 C49.38728121 8.9239538 53.7854866 9.82012569 58.18359375 10.71679688 C66.79019738 12.47234454 75.39550253 14.23415843 84 16 C83.52555245 18.64676089 83.04568672 21.29233364 82.5625 23.9375 C82.36043945 25.06961914 82.36043945 25.06961914 82.15429688 26.22460938 C81.11328125 31.88671875 81.11328125 31.88671875 80 33 C71.19988817 32.94241389 62.40448218 30.61637776 53.81640625 28.875 C52.26854158 28.56457541 50.72060217 28.25452327 49.17259216 27.94482422 C45.94885085 27.2988501 42.72576676 26.64972537 39.50317383 25.99804688 C35.37266888 25.16284087 31.24099463 24.33360265 27.10887241 23.50643921 C23.92158002 22.86809588 20.7347105 22.22766353 17.54798698 21.58648682 C16.0238252 21.2798801 14.49958071 20.97368419 12.97525215 20.66790771 C10.85231973 20.24151455 8.72992173 19.81255939 6.60766602 19.3828125 C5.40094742 19.13934082 4.19422882 18.89586914 2.95094299 18.64501953 C0 18 0 18 -3 17 C-2.54775239 11.08507728 -1.8417395 5.64800112 0 0 Z " fill="#000000" transform="translate(26,165)"/>
<path d="M0 0 C0.86772029 2.07772471 1.71873619 4.16243177 2.5625 6.25 C3.03816406 7.41015625 3.51382813 8.5703125 4.00390625 9.765625 C5.35496606 14.15259569 5.35496606 14.15259569 4 17 C1.46351624 18.39215088 1.46351624 18.39215088 -1.95678711 19.65722656 C-2.57794907 19.89189636 -3.19911102 20.12656616 -3.83909607 20.36834717 C-5.8964663 21.14116065 -7.96143946 21.89095568 -10.02734375 22.640625 C-11.45650016 23.17170116 -12.88517021 23.70408785 -14.31336975 24.23773193 C-17.30857715 25.3533005 -20.3073098 26.45855246 -23.30932617 27.55566406 C-27.16245581 28.96383389 -31.00922816 30.38842053 -34.85385799 31.81961441 C-38.51398273 33.18168055 -42.17662341 34.53690996 -45.83984375 35.890625 C-46.54166212 36.15031319 -47.24348049 36.41000137 -47.96656609 36.6775589 C-49.94764535 37.40886855 -51.93038545 38.13545347 -53.91381836 38.86035156 C-55.04331406 39.27464417 -56.17280975 39.68893677 -57.33653259 40.11578369 C-60 41 -60 41 -62 41 C-62.84161854 38.91999989 -63.67300763 36.83585854 -64.5 34.75 C-64.9640625 33.58984375 -65.428125 32.4296875 -65.90625 31.234375 C-67 28 -67 28 -67 24 C-53.84565176 18.67374346 -40.63699279 13.51859669 -27.33935547 8.56054688 C-24.44385753 7.47902984 -21.55206689 6.38794264 -18.66015625 5.296875 C-16.80490571 4.60358245 -14.94944511 3.91085171 -13.09375 3.21875 C-11.80797058 2.73142395 -11.80797058 2.73142395 -10.49621582 2.23425293 C-9.70017944 1.93974243 -8.90414307 1.64523193 -8.08398438 1.34179688 C-7.38930054 1.08168823 -6.6946167 0.82157959 -5.97888184 0.55358887 C-4 0 -4 0 0 0 Z " fill="#000000" transform="translate(97,207)"/>
<path d="M0 0 C1.20692505 0.00374634 1.20692505 0.00374634 2.43823242 0.00756836 C3.96347534 0.02122437 3.96347534 0.02122437 5.51953125 0.03515625 C10.37671875 0.06609375 10.37671875 0.06609375 15.33203125 0.09765625 C15.33203125 10.98765625 15.33203125 21.87765625 15.33203125 33.09765625 C11.86703125 33.22140625 8.40203125 33.34515625 4.83203125 33.47265625 C3.75630859 33.52728027 2.68058594 33.5819043 1.57226562 33.63818359 C-4.69234375 33.74567597 -8.29443646 32.76462355 -13.12695312 28.7265625 C-16.60675036 25.04829774 -17.79530969 20.96950497 -18.10546875 16.03515625 C-17.45913147 10.21812076 -14.89921554 7.03281555 -10.60546875 3.28515625 C-6.90389332 0.52866391 -4.48544795 -0.02856973 0 0 Z " fill="#ECCDB1" transform="translate(182.66796875,230.90234375)"/>
<path d="M0 0 C0 6.93 0 13.86 0 21 C-3.465 20.87625 -3.465 20.87625 -7 20.75 C-13.44448407 20.63002844 -17.46088551 21.76014058 -23 25 C-26.80293483 24.60267845 -29.4704085 22.76479575 -33 21 C-33 15.06 -33 9.12 -33 3 C-31.58847656 2.95101563 -30.17695313 2.90203125 -28.72265625 2.8515625 C-26.83592046 2.77646854 -24.94920258 2.70092365 -23.0625 2.625 C-22.13630859 2.5940625 -21.21011719 2.563125 -20.25585938 2.53125 C-14.95073797 2.30787647 -10.02042614 1.73779832 -4.87280273 0.41552734 C-3 0 -3 0 0 0 Z " fill="#CE9C69" transform="translate(297,360)"/>
<path d="M0 0 C3.125 2.1875 3.125 2.1875 5 5 C5.3125 7.8125 5.3125 7.8125 5 10 C-0.64169365 12.63176134 -6.26922007 14.2327177 -12.3125 15.6875 C-13.21806641 15.91244141 -14.12363281 16.13738281 -15.05664062 16.36914062 C-21.70400361 18 -21.70400361 18 -24 18 C-24.3396415 13.66957091 -24.56165095 10.14883149 -22.625 6.1875 C-16.35756347 0.96463623 -8.10992415 -1.66504637 0 0 Z " fill="#A1A9B3" transform="translate(387,108)"/>
<path d="M0 0 C5.61 0 11.22 0 17 0 C17.61514196 10.21135647 17.61514196 10.21135647 14.5625 14.125 C13.716875 14.74375 12.87125 15.3625 12 16 C11.67 16.33 11.34 16.66 11 17 C7.3308423 17.14310287 3.67284559 17.04221662 0 17 C0 11.39 0 5.78 0 0 Z " fill="#63CBE7" transform="translate(231,99)"/>
<path d="M0 0 C3.71317907 1.14770989 5.2692056 1.85342428 7.4375 5.0625 C8.07674557 8.8180677 7.72758409 10.54034863 5.875 13.875 C2.65216844 16.76728473 0.74942698 17.21379568 -3.5625 17.0625 C-6.5 15.0625 -6.5 15.0625 -8.5625 12.0625 C-9.36035988 7.59448469 -9.07984028 5.81499495 -6.5 2.0625 C-3.5625 0.0625 -3.5625 0.0625 0 0 Z " fill="#A3ABB5" transform="translate(380.5625,230.9375)"/>
</svg>
