<?xml version="1.0" encoding="UTF-8"?>
<svg version="1.1" xmlns="http://www.w3.org/2000/svg" width="512" height="512">
<path d="M0 0 C2.68394376 0.00860632 5.36582091 -0.02049177 8.04956055 -0.05200195 C9.76375262 -0.05361197 11.47794845 -0.05304025 13.19213867 -0.05004883 C14.38902565 -0.0668998 14.38902565 -0.0668998 15.61009216 -0.08409119 C19.18123812 -0.0391239 21.30721192 0.1391999 24.22973633 2.27392578 C27.88944206 7.58210998 26.11269476 16.45264814 25.32495117 22.57104492 C21.98407837 38.6421716 11.85950192 53.34078279 -1.77270508 62.38354492 C-15.12182017 70.18003664 -25.93425634 72.78392353 -41.33520508 72.57104492 C-43.20595703 72.55750977 -43.20595703 72.55750977 -45.11450195 72.54370117 C-48.16732025 72.52030793 -51.22003864 72.48444324 -54.27270508 72.44604492 C-53.94270508 78.71604492 -53.61270508 84.98604492 -53.27270508 91.44604492 C-52.09708008 90.29104492 -50.92145508 89.13604492 -49.71020508 87.94604492 C-45.7147324 84.4091721 -41.6229377 81.6730422 -36.96020508 79.13354492 C-36.09190063 78.6462793 -36.09190063 78.6462793 -35.20605469 78.14916992 C-23.98650263 72.2703015 -12.29837733 71.9390169 0.07543945 72 C2.75051219 72.00861973 5.42351991 71.9794757 8.09838867 71.94799805 C9.80802345 71.94638832 11.517662 71.94695919 13.22729492 71.94995117 C14.02208252 71.93871719 14.81687012 71.92748322 15.63574219 71.91590881 C19.19907868 71.960973 21.31253788 72.14282395 24.22753906 74.27392578 C27.89080129 79.57948398 26.11261924 88.45323465 25.32495117 94.57104492 C21.98407837 110.6421716 11.85950192 125.34078279 -1.77270508 134.38354492 C-15.12182017 142.18003664 -25.93425634 144.78392353 -41.33520508 144.57104492 C-42.58237305 144.56202148 -43.82954102 144.55299805 -45.11450195 144.54370117 C-48.16732025 144.52030793 -51.22003864 144.48444324 -54.27270508 144.44604492 C-54.27270508 149.72604492 -54.27270508 155.00604492 -54.27270508 160.44604492 C-51.16106934 160.43272125 -51.16106934 160.43272125 -47.98657227 160.41912842 C-28.4460562 160.33737363 -8.9055627 160.27785431 10.63508606 160.23879623 C20.68135332 160.2181814 30.72749499 160.19008138 40.77368164 160.14428711 C49.53114978 160.10438637 58.28852694 160.07860427 67.04608345 160.06969094 C71.68208199 160.06448169 76.31782031 160.05226049 80.95373535 160.02312469 C85.3203843 159.99590443 89.68666667 159.98761325 94.05339241 159.9936142 C95.65293433 159.99251691 97.25248896 159.98460234 98.85195732 159.96922302 C108.27139766 159.88312172 115.56176008 159.91945255 122.96948242 166.41088867 C123.50831055 167.06186523 124.04713867 167.7128418 124.60229492 168.38354492 C125.1565918 169.03194336 125.71088867 169.6803418 126.28198242 170.34838867 C128.92631833 174.18624917 129.97821858 177.65955715 129.96780396 182.29927063 C129.97192795 183.72315849 129.97192795 183.72315849 129.97613525 185.17581177 C129.9689447 186.2051181 129.96175415 187.23442444 129.9543457 188.29492188 C129.95463776 189.38805191 129.95492981 190.48118195 129.95523071 191.60743713 C129.95383865 195.21648121 129.93828299 198.82531821 129.92260742 202.43432617 C129.91887686 204.93824653 129.91603009 207.44216836 129.91403198 209.9460907 C129.90717892 215.86042418 129.89141987 221.77469135 129.871333 227.68899077 C129.84675987 235.08520916 129.83603771 242.48143678 129.82495117 249.87768555 C129.80350709 263.06717633 129.76975996 276.25660593 129.72729492 289.44604492 C130.68176514 289.74422119 131.63623535 290.04239746 132.61962891 290.34960938 C136.37055736 291.67299846 137.71376347 293.30176107 140.13745117 296.30151367 C141.71189771 297.71155714 141.71189771 297.71155714 143.98510742 297.14135742 C144.8900293 296.9119043 145.79495117 296.68245117 146.72729492 296.44604492 C162.33086472 295.30886719 162.33086472 295.30886719 168.72729492 300.44604492 C175.2227598 306.63158702 177.89737733 311.67942653 178.13165283 320.64744568 C178.15385895 322.07649986 178.15385895 322.07649986 178.17651367 323.53442383 C178.19929382 324.54826645 178.22207397 325.56210907 178.24554443 326.60667419 C178.46729817 337.23454822 178.56180273 347.86517307 178.6472168 358.49487305 C178.69160354 363.52199515 178.77488203 368.54610861 178.89331055 373.57202148 C179.03660327 379.66661598 179.10903994 385.75840291 179.13345337 391.85459518 C179.15407791 394.16142359 179.19850243 396.46818244 179.26864624 398.77403641 C179.74662577 415.35553578 176.67984218 425.25517392 165.44061279 437.65134811 C163.94309885 439.21999077 162.41104666 440.73272997 160.84887695 442.23623657 C150.0846269 453.66704418 154.34469138 462.54154754 153.72729492 480.44604492 C114.12729492 480.44604492 74.52729492 480.44604492 33.72729492 480.44604492 C33.39729492 468.23604492 33.06729492 456.02604492 32.72729492 443.44604492 C26.29694576 432.91215718 26.29694576 432.91215718 18.52075195 424.24072266 C13.72729492 419.44400299 13.72729492 419.44400299 13.72729492 416.44604492 C-89.72770508 416.94104492 -89.72770508 416.94104492 -195.27270508 417.44604492 C-197.18809802 425.10761669 -196.15589617 432.5132042 -194.96020508 440.23120117 C-194.82702881 441.13172714 -194.69385254 442.03225311 -194.55664062 442.96006775 C-194.13480256 445.81051735 -193.70471897 448.65962108 -193.27270508 451.50854492 C-192.84095039 454.36107185 -192.41127123 457.21382077 -191.98876953 460.06773376 C-191.72714153 461.83495927 -191.46036747 463.60143361 -191.1875 465.36695862 C-190.43409554 470.45480734 -190.14848259 475.30227251 -190.27270508 480.44604492 C-192.91778869 480.80687369 -195.56350054 481.15999845 -198.21020508 481.50854492 C-198.96495117 481.61231445 -199.71969727 481.71608398 -200.49731445 481.82299805 C-202.41744636 482.0727013 -204.34498651 482.26394773 -206.27270508 482.44604492 C-206.60270508 482.11604492 -206.93270508 481.78604492 -207.27270508 481.44604492 C-209.48064919 481.32197677 -211.69254993 481.26802215 -213.90380859 481.24072266 C-214.59645813 481.23082306 -215.28910767 481.22092346 -216.00274658 481.21072388 C-218.30233287 481.17902462 -220.60193985 481.15431841 -222.90161133 481.12963867 C-224.49202525 481.1090764 -226.08243362 481.08808013 -227.6728363 481.06666565 C-231.8666027 481.01136983 -236.06041903 480.96199382 -240.25427246 480.91381836 C-244.53064436 480.86365801 -248.80694342 480.80794348 -253.08325195 480.75268555 C-261.47967481 480.64501218 -269.87615845 480.54358776 -278.27270508 480.44604492 C-278.23380157 479.32387573 -278.19489807 478.20170654 -278.15481567 477.04553223 C-276.77697456 451.05766126 -276.77697456 451.05766126 -289.0168457 428.91601562 C-290.36823414 427.50497949 -291.7286388 426.1024916 -293.10025024 424.71110535 C-301.50314528 415.95001872 -303.43764244 408.63500033 -303.55395508 396.73901367 C-303.58419626 395.20851197 -303.61492808 393.67801989 -303.64611816 392.14753723 C-303.70136903 388.93906527 -303.72648663 385.73186583 -303.73461914 382.52294922 C-303.74733299 379.29338952 -303.81563539 376.07336965 -303.93969727 372.84619141 C-304.82152712 349.49035192 -301.36712642 333.73382566 -287.50292969 314.66616821 C-285.21117901 311.4894464 -285.21117901 311.4894464 -283.44287109 308.01669312 C-279.45174408 300.57807628 -275.71587616 296.85726637 -268.25145626 292.71934414 C-259.82171613 288.23689601 -259.82171613 288.23689601 -254.09955978 280.93109894 C-252.32135937 273.76350487 -252.81237348 266.48770123 -253.14379883 259.17260742 C-253.17074347 256.83532779 -253.18774708 254.49791459 -253.19532776 252.16049194 C-253.23891999 246.04053576 -253.40444904 239.93021773 -253.6003418 233.81347656 C-253.85368197 225.18358417 -253.93713807 216.55004117 -254.04298401 207.91732788 C-254.09986825 203.32771551 -254.20130966 198.74253901 -254.33970642 194.1546936 C-254.38834025 192.05731399 -254.43689295 189.9599325 -254.48535156 187.86254883 C-254.54238503 186.45191666 -254.54238503 186.45191666 -254.60057068 185.01278687 C-254.73432437 177.82959077 -253.0748136 172.6436797 -248.30786133 167.20385742 C-247.65688477 166.6650293 -247.0059082 166.12620117 -246.33520508 165.57104492 C-245.68680664 165.01674805 -245.0384082 164.46245117 -244.37036133 163.89135742 C-238.77036092 160.03288415 -233.56048393 160.14181573 -226.97460938 160.12719727 C-225.94000076 160.11715164 -224.90539215 160.10710602 -223.83943176 160.09675598 C-220.42526802 160.06590558 -217.01118276 160.04888346 -213.59692383 160.03198242 C-211.22751693 160.0132723 -208.85811669 159.993699 -206.48872375 159.97329712 C-200.25645887 159.92195365 -194.02417238 159.88233963 -187.79180908 159.84515381 C-181.4305689 159.80512816 -175.06941877 159.75402922 -168.70825195 159.70385742 C-156.22979957 159.60707183 -143.75129637 159.52267534 -131.27270508 159.44604492 C-131.82206223 158.83972733 -132.37141937 158.23340973 -132.93742371 157.60871887 C-133.65803482 156.80713852 -134.37864594 156.00555817 -135.12109375 155.1796875 C-135.8354509 154.3877449 -136.54980804 153.59580231 -137.28581238 152.77986145 C-139.85587062 149.76105505 -141.79204231 146.6548731 -143.58520508 143.13354492 C-144.08310547 142.16771484 -144.08310547 142.16771484 -144.59106445 141.18237305 C-149.64185558 131.03058413 -152.00082052 119.76724215 -150.27270508 108.44604492 C-148.77294922 106.27392578 -148.77294922 106.27392578 -146.27270508 104.44604492 C-143.31098761 104.05946404 -140.73072865 103.90814079 -137.77270508 103.94995117 C-136.9411792 103.94849594 -136.10965332 103.94704071 -135.25292969 103.94554138 C-133.49109399 103.94720026 -131.72924379 103.95876046 -129.9675293 103.97949219 C-127.30948982 104.00814835 -124.65348502 104.00016084 -121.99536133 103.98706055 C-109.6814057 104.00059149 -98.53715699 105.02454369 -87.58520508 111.13354492 C-86.99932617 111.43454102 -86.41344727 111.73553711 -85.80981445 112.0456543 C-80.01174508 115.18706214 -76.49493584 118.80406202 -71.27270508 123.44604492 C-70.94270508 114.53604492 -70.61270508 105.62604492 -70.27270508 96.44604492 C-78.61823261 96.56366399 -78.61823261 96.56366399 -86.96313477 96.71630859 C-104.49343711 96.83948162 -119.55225107 90.74853241 -132.26123047 78.7253418 C-143.58924213 67.37982162 -150.28300047 52.11317721 -150.64770508 36.19604492 C-150.67388916 35.49777588 -150.70007324 34.79950684 -150.72705078 34.08007812 C-150.73726734 30.94208012 -150.56247115 28.87067929 -148.77514648 26.25146484 C-145.24169435 23.7022084 -141.96745586 23.89066019 -137.77270508 23.94995117 C-136.9411792 23.94849594 -136.10965332 23.94704071 -135.25292969 23.94554138 C-133.49109399 23.94720026 -131.72924379 23.95876046 -129.9675293 23.97949219 C-127.30948982 24.00814835 -124.65348502 24.00016084 -121.99536133 23.98706055 C-101.68367236 24.00961808 -85.86250495 29.32140574 -71.15161133 43.53979492 C-70.53157227 44.16885742 -69.9115332 44.79791992 -69.27270508 45.44604492 C-67.45824773 42.7243589 -66.1276063 40.01219093 -64.76147461 37.05126953 C-57.1666578 20.88087315 -45.22389387 9.62550451 -28.27270508 3.44604492 C-27.58088135 3.1849292 -26.88905762 2.92381348 -26.17626953 2.65478516 C-17.57662071 -0.16706628 -8.95344701 -0.04391788 0 0 Z " fill="#000000" transform="translate(318.272705078125,15.553955078125)"/>
<path d="M0 0 C1.00483674 -0.00640819 1.00483674 -0.00640819 2.02997321 -0.01294583 C4.26771408 -0.02116163 6.50356744 0.00628142 8.74113464 0.03364563 C10.34776261 0.03505643 11.9543938 0.0342635 13.5610199 0.03143311 C17.91830569 0.02999876 22.27490301 0.05939116 26.63202882 0.09430289 C31.18705392 0.12556348 35.74209488 0.12849689 40.29721069 0.13442993 C48.92098441 0.14996927 57.54444113 0.19099891 66.16807526 0.24117738 C75.98658111 0.29706807 85.80510211 0.32455665 95.62372744 0.34965456 C115.81953423 0.4019147 136.01505568 0.48985873 156.21061707 0.60127258 C156.38105282 4.68331125 156.50357212 8.76392973 156.58483887 12.84873962 C156.61876567 14.23326248 156.6650037 15.61754761 156.72454834 17.00120544 C157.13357604 26.76180287 156.01098729 33.44551799 149.39811707 40.97627258 C144.76379122 45.89813403 144.76379122 45.89813403 142.21061707 47.60127258 C139.21061707 47.60127258 139.21061707 47.60127258 137.26530457 45.80049133 C136.54600769 44.97162415 135.82671082 44.14275696 135.08561707 43.28877258 C133.90225769 41.93525696 133.90225769 41.93525696 132.69499207 40.55439758 C129.43731421 36.68206353 126.27461275 32.7386004 123.15592957 28.75361633 C120.94622007 26.30873695 119.46186911 25.68697169 116.1860323 25.46260738 C115.40711722 25.45615483 114.62820215 25.44970228 113.82568359 25.4430542 C112.92965927 25.43326538 112.03363495 25.42347656 111.11045837 25.41339111 C109.63986969 25.40475792 109.63986969 25.40475792 108.13957214 25.39595032 C107.10525558 25.38605072 106.07093903 25.37615112 105.00527954 25.36595154 C101.58025923 25.33431796 98.15522504 25.30957167 94.73014832 25.28486633 C92.35788611 25.26429842 89.98562757 25.24330199 87.6133728 25.22189331 C81.36462887 25.1666559 75.11585177 25.11725394 68.86705017 25.06904602 C62.49261009 25.01884322 56.11821828 24.96315078 49.74382019 24.90791321 C37.23279369 24.8003112 24.72172532 24.69887072 12.21061707 24.60127258 C12.21061707 29.88127258 12.21061707 35.16127258 12.21061707 40.60127258 C13.44930542 40.57018402 14.68799377 40.53909546 15.96421814 40.50706482 C27.67387565 40.22248091 39.3828264 40.01303303 51.09516525 39.87590218 C57.11607921 39.80302539 63.13418852 39.7043019 69.15348816 39.54512024 C74.96983837 39.39227948 80.78350327 39.3091508 86.60170746 39.27299118 C88.81392436 39.24724742 91.0260044 39.19696857 93.23706818 39.12105179 C111.44643068 38.52106486 111.44643068 38.52106486 117.14237976 43.60023499 C119.80183756 46.45184626 121.98643524 49.51266386 124.04790497 52.81568527 C125.87130664 55.61589944 128.0290594 58.07400608 130.21061707 60.60127258 C128.64401797 65.85398718 125.25609837 69.44682358 121.77311707 73.53877258 C120.50232803 75.05594912 119.23281376 76.57419422 117.96452332 78.09346008 C117.33175476 78.8498175 116.69898621 79.60617493 116.04704285 80.38545227 C113.38050688 83.60287855 110.78906689 86.87564936 108.21061707 90.16377258 C107.75485291 90.73426331 107.29908875 91.30475403 106.82951355 91.89253235 C104.94164478 94.27419997 103.19746946 96.62363672 101.65592957 99.24580383 C100.29590821 101.54335471 99.38961947 103.05155104 97.21061707 104.60127258 C92.67239879 105.26673247 88.83495039 104.97876918 84.21061707 104.60127258 C84.21061707 109.88127258 84.21061707 115.16127258 84.21061707 120.60127258 C137.01061707 120.60127258 189.81061707 120.60127258 244.21061707 120.60127258 C244.21061707 115.32127258 244.21061707 110.04127258 244.21061707 104.60127258 C242.29249207 104.89002258 240.37436707 105.17877258 238.39811707 105.47627258 C233.74921807 105.46622091 231.85969179 105.18197692 228.35514832 102.04658508 C225.9272213 99.05870933 223.78806439 95.86934728 221.64811707 92.67158508 C219.20414682 89.15173663 216.44641179 85.89578594 213.71061707 82.60127258 C209.19787653 77.08216972 204.76209741 71.50930881 200.37467957 65.89033508 C197.41383581 62.10798555 194.41198372 58.36243965 191.37150574 54.64375305 C190.2631267 53.28072218 189.1642971 51.90987078 188.07511902 50.53144836 C185.5167912 47.31059007 182.97960406 44.30887716 179.94108582 41.53096008 C174.15636425 35.91643053 171.92886942 31.51625411 171.75285339 23.26972961 C171.7668586 20.54777238 171.83833842 17.82980361 171.91764832 15.10908508 C171.94119992 13.69969614 171.96258085 12.29026916 171.98173523 10.8808136 C172.03673352 7.45331984 172.11366257 4.02779353 172.21061707 0.60127258 C193.24641598 0.53121085 214.28219568 0.4782983 235.31808758 0.44583607 C245.08528225 0.43036308 254.85240445 0.4092653 264.61955261 0.37495422 C273.13198085 0.3450651 281.6443566 0.32570072 290.15683585 0.3190071 C294.66469908 0.31509402 299.17241215 0.30588875 303.68022728 0.28408241 C307.92288908 0.26372496 312.16533882 0.25743727 316.40804482 0.26194954 C317.96529925 0.26112401 319.52256075 0.25515387 321.07977295 0.24365616 C323.20650839 0.2287232 325.33244392 0.2323213 327.459198 0.24050903 C329.24425011 0.23636096 329.24425011 0.23636096 331.06536388 0.2321291 C334.54297038 0.64027932 336.42475849 1.51571795 339.21061707 3.60127258 C340.38932478 5.95868801 340.33389244 7.35169657 340.33087158 9.97984314 C340.33293358 11.35968132 340.33293358 11.35968132 340.33503723 12.76739502 C340.33144196 13.77943497 340.32784668 14.79147491 340.32414246 15.83418274 C340.32428848 16.89761398 340.32443451 17.96104523 340.32458496 19.05670166 C340.32388625 22.58459996 340.31609577 26.11244597 340.30827332 29.64033508 C340.30640899 32.08128328 340.30498515 34.52223184 340.3039856 36.96318054 C340.30016158 43.39775113 340.29033226 49.83229926 340.27928162 56.26686096 C340.26906502 62.82884924 340.26448744 69.39084114 340.25944519 75.95283508 C340.24870991 88.83565718 340.23182621 101.71846369 340.21061707 114.60127258 C333.52311707 118.67158508 333.52311707 118.67158508 330.71061707 118.03877258 C329.47311707 117.32721008 329.47311707 117.32721008 328.21061707 116.60127258 C323.35271939 113.96991134 320.03135597 113.43873742 314.46061707 113.51533508 C312.70491394 113.53394592 312.70491394 113.53394592 310.91374207 113.55293274 C310.02171082 113.56888489 309.12967957 113.58483704 308.21061707 113.60127258 C308.20127136 112.46174133 308.19192566 111.32221008 308.18229675 110.14814758 C308.14220652 105.8910873 308.07639611 101.63473531 308.00309753 97.37812805 C307.97499776 95.54130706 307.95372889 93.70436761 307.93962097 91.86738586 C307.91803809 89.21556945 307.87131208 86.56516073 307.81999207 83.91377258 C307.81814911 82.69609192 307.81814911 82.69609192 307.81626892 81.45381165 C307.6458102 74.70928757 305.68585845 69.53073352 301.31608582 64.35908508 C294.89828592 58.89545911 289.12963636 57.06654933 280.69499207 57.29658508 C273.51265721 58.17743747 269.21871609 62.16621722 264.65592957 67.50361633 C261.57304951 71.97795847 260.98426249 75.58534246 261.2408905 80.97016907 C261.29203003 82.24017258 261.34316956 83.51017609 261.39585876 84.81866455 C261.44067509 85.8319045 261.44067509 85.8319045 261.48639679 86.86561394 C261.66108545 91.26808458 261.71548954 95.67418426 261.79507065 100.07920742 C261.87122799 103.92087462 261.98551712 107.75352613 262.18766785 111.59077454 C263.57373276 138.87529137 263.57373276 138.87529137 255.22819519 148.59785461 C250.70747538 153.54239597 245.63586338 157.84123389 240.31590271 161.90316772 C238.12214119 163.43204314 238.12214119 163.43204314 237.21061707 165.60127258 C236.88061707 185.07127258 236.55061707 204.54127258 236.21061707 224.60127258 C169.55061707 224.60127258 102.89061707 224.60127258 34.21061707 224.60127258 C35.54268637 219.27299536 36.7220531 215.00643823 38.81217957 210.08174133 C39.30202332 208.89387024 39.79186707 207.70599915 40.29655457 206.48213196 C41.31602222 204.02492847 42.35308502 201.57725073 43.39811707 199.13056946 C46.84352729 190.70389816 48.85141111 183.50661888 46.36296082 174.55049133 C42.37410467 167.12429291 37.65899041 161.71262389 29.43717957 159.07783508 C20.45368293 157.15505159 13.91297692 158.71568483 6.21061707 163.60127258 C2.96233926 166.33592811 0.05369494 169.32157418 -2.85188293 172.41377258 C-4.34096451 173.96368473 -5.83175033 175.51196201 -7.32453918 177.05830383 C-8.28952332 178.07887878 -8.28952332 178.07887878 -9.27400208 179.12007141 C-10.78938293 180.60127258 -10.78938293 180.60127258 -11.78938293 180.60127258 C-11.90613977 157.87052274 -11.99433367 135.13982228 -12.04844379 112.4088335 C-12.07423491 101.85463251 -12.10940287 91.30061773 -12.1665802 80.74653625 C-12.21638727 71.54851699 -12.24866734 62.35063258 -12.25982541 53.15248221 C-12.26634873 48.28122147 -12.28169926 43.41034655 -12.31803322 38.53920937 C-12.35195008 33.95501695 -12.36244464 29.37136957 -12.35492134 24.7870636 C-12.35629782 23.1040113 -12.3662562 21.42094092 -12.38541031 19.73799706 C-12.41028268 17.44006825 -12.40431155 15.14419816 -12.39065552 12.84622192 C-12.39526448 11.56032071 -12.39987345 10.2744195 -12.40462208 8.94955158 C-11.09058277 1.79823444 -6.78545115 -0.02611798 0 0 Z " fill="#C1DEF5" transform="translate(91.78938293457031,191.3987274169922)"/>
<path d="M0 0 C4.20762117 0.87658774 5.42854518 2.16839132 8 5.625 C8.72578118 9.33231679 8.63166561 12.9825569 8.56762695 16.74926758 C8.56835709 17.87165833 8.56908722 18.99404907 8.56983948 20.15045166 C8.56635834 23.85730449 8.52746917 27.56289814 8.48828125 31.26953125 C8.47895508 33.84070652 8.47183804 36.41189067 8.46684265 38.983078 C8.44970801 45.05698803 8.41030949 51.13037904 8.3600952 57.20409364 C8.30415778 64.12057999 8.27670431 71.03708819 8.25161803 77.95374453 C8.1993916 92.17774521 8.11046676 106.40134034 8 120.625 C13.28 120.625 18.56 120.625 24 120.625 C23.97381592 118.86389893 23.94763184 117.10279785 23.9206543 115.28833008 C23.83993641 109.46105281 23.78253498 103.63379484 23.74093914 97.80612659 C23.71487612 94.27367155 23.67954134 90.74182287 23.62280273 87.2097168 C23.55793936 83.14626339 23.53379268 79.08344402 23.51171875 75.01953125 C23.48591232 73.7547847 23.4601059 72.49003815 23.43351746 71.18696594 C23.43039286 61.4170157 23.43039286 61.4170157 26.34301758 58.3269043 C29.64162672 56.21401223 31.1579566 55.82457429 35 56.625 C37.57988742 58.27752184 38.57742524 59.005609 40 61.625 C40.71054058 66.08988134 40.58032124 70.50874539 40.48828125 75.01953125 C40.48120651 76.32202316 40.47413177 77.62451508 40.46684265 78.96647644 C40.44781513 82.41763884 40.39875439 85.86773739 40.34332275 89.31848145 C40.29203649 92.84433604 40.26930883 96.37036373 40.24414062 99.89648438 C40.19062863 106.80646884 40.10272947 113.71557371 40 120.625 C45.28 120.625 50.56 120.625 56 120.625 C55.97381592 118.86389893 55.94763184 117.10279785 55.9206543 115.28833008 C55.83993641 109.46105281 55.78253498 103.63379484 55.74093914 97.80612659 C55.71487612 94.27367155 55.67954134 90.74182287 55.62280273 87.2097168 C55.55793936 83.14626339 55.53379268 79.08344402 55.51171875 75.01953125 C55.48591232 73.7547847 55.4601059 72.49003815 55.43351746 71.18696594 C55.43039286 61.4170157 55.43039286 61.4170157 58.34301758 58.3269043 C61.64162672 56.21401223 63.1579566 55.82457429 67 56.625 C69.57988742 58.27752184 70.57742524 59.005609 72 61.625 C72.71054058 66.08988134 72.58032124 70.50874539 72.48828125 75.01953125 C72.48120651 76.32202316 72.47413177 77.62451508 72.46684265 78.96647644 C72.44781513 82.41763884 72.39875439 85.86773739 72.34332275 89.31848145 C72.29203649 92.84433604 72.26930883 96.37036373 72.24414062 99.89648438 C72.19062863 106.80646884 72.10272947 113.71557371 72 120.625 C77.28 120.625 82.56 120.625 88 120.625 C87.97381592 119.10624268 87.94763184 117.58748535 87.9206543 116.02270508 C87.83012105 110.38532252 87.7727382 104.74800415 87.7253418 99.11010742 C87.70020504 96.67054436 87.66609054 94.23105655 87.62280273 91.79174805 C87.56211771 88.28415354 87.533781 84.7775551 87.51171875 81.26953125 C87.48591232 80.17977493 87.4601059 79.09001862 87.43351746 77.96723938 C87.43071747 70.39976286 87.43071747 70.39976286 90.34301758 66.4362793 C93 64.625 93 64.625 96 64 C100.13200258 64.86083387 101.41147218 66.30469596 104 69.625 C104.77235105 72.66415033 104.7953929 75.63847201 104.8215332 78.76367188 C104.86117943 80.13331337 104.86117943 80.13331337 104.90162659 81.53062439 C104.97972142 84.55182727 105.01871258 87.57172642 105.05078125 90.59375 C105.0738588 92.15279305 105.0738588 92.15279305 105.09740257 93.74333191 C105.17824089 99.25943222 105.22942721 104.774885 105.25610352 110.29150391 C105.28238752 114.82084439 105.35836816 119.34483491 105.48168945 123.87255859 C106.64475221 167.39966579 106.64475221 167.39966579 96.35546875 179.59375 C93.66946514 182.39719687 90.85312262 184.9838371 88 187.625 C77.71154063 200.37220696 77.71154063 200.37220696 80 232.625 C50.96 232.625 21.92 232.625 -8 232.625 C-8.33 218.435 -8.66 204.245 -9 189.625 C-14.0643801 180.71363886 -17.97582628 174.9081081 -25.44140625 168.54370117 C-34.18341108 159.57743136 -33.20176459 148.80108244 -33.1328125 136.93945312 C-33.10046605 134.91252826 -33.06327423 132.88572628 -33.02600098 130.85888672 C-32.99125223 128.12401376 -33.01613327 125.39098426 -33.04122925 122.6561079 C-33.06303669 119.3681118 -33.02958987 116.08084366 -33 112.79296875 C-33.00789551 111.57618942 -33.01579102 110.3594101 -33.02392578 109.10575867 C-32.87908216 103.30620888 -32.6718397 99.56642034 -28.5 95.30200195 C-25.32782873 92.625 -25.32782873 92.625 -24 92.625 C-24 101.865 -24 111.105 -24 120.625 C-18.72 120.625 -13.44 120.625 -8 120.625 C-8.01110306 119.1953743 -8.02220612 117.7657486 -8.03364563 116.2928009 C-8.13494231 102.8291664 -8.21022804 89.36557148 -8.25906086 75.90164661 C-8.28483496 68.97944133 -8.31996962 62.05752065 -8.37719727 55.13549805 C-8.4323847 48.45706449 -8.46141066 41.77898788 -8.47438622 35.100317 C-8.48363471 32.55055775 -8.5016946 30.00081494 -8.52865028 27.45118141 C-8.56487359 23.88351909 -8.56994787 20.31708379 -8.56762695 16.74926758 C-8.58560333 15.69190903 -8.60357971 14.63455048 -8.62210083 13.54515076 C-8.57165857 6.39343659 -8.57165857 6.39343659 -5.65202332 2.46879578 C-3 0.625 -3 0.625 0 0 Z " fill="#FED9A9" transform="translate(376,263.375)"/>
<path d="M0 0 C0 18.81 0 37.62 0 57 C-2.64 57 -5.28 57 -8 57 C-8 62.28 -8 67.56 -8 73 C-3.76983467 72.91305826 0.45820669 72.80616201 4.6875 72.6875 C5.88568359 72.66494141 7.08386719 72.64238281 8.31835938 72.61914062 C9.47529297 72.58369141 10.63222656 72.54824219 11.82421875 72.51171875 C12.88729248 72.48553467 13.95036621 72.45935059 15.0456543 72.43237305 C20.889851 71.57706585 24.2127242 68.02406878 28.23046875 63.9296875 C28.70696365 63.44799103 29.18345856 62.96629456 29.6743927 62.47000122 C31.18364428 60.94305639 32.68597954 59.40954475 34.1875 57.875 C35.70061999 56.33423763 37.21519556 54.79497825 38.73274231 53.25857544 C40.10271876 51.8707859 41.46786525 50.47823333 42.83276367 49.08544922 C45.39003359 46.62468549 46.28582592 46.06348214 49.8125 45.75 C53.41995442 46.0329376 55.12754237 46.84565678 58 49 C60.54761083 52.82141625 60.79636132 55.58885076 60 60 C58.75555856 63.15064271 57.33283864 66.14740083 55.80078125 69.16796875 C50.80364096 79.44825648 47.77457666 90.07596642 45.25 101.1875 C44.65477819 103.76520979 44.05414451 106.34159846 43.453125 108.91796875 C43.19692383 110.03969482 42.94072266 111.1614209 42.67675781 112.31713867 C42 115 42 115 41 117 C40.43089032 124.3781333 41.46081231 131.63040731 42.53125 138.9140625 C42.66885742 139.88690186 42.80646484 140.85974121 42.94824219 141.86206055 C43.45791757 145.45079132 43.97964411 149.03780231 44.5 152.625 C45.655 160.66875 46.81 168.7125 48 177 C29.52 177 11.04 177 -8 177 C-7.814375 166.9453125 -7.814375 166.9453125 -7.625 156.6875 C-7.70682035 141.66505985 -7.9322134 129.97343617 -19.09375 118.81640625 C-21.15685122 116.77588784 -23.22358213 114.80664996 -25.41943359 112.90771484 C-35.19161697 102.78074644 -33.72841214 88.78962761 -33.63739395 75.56539536 C-33.6249465 73.49108405 -33.62898286 71.41725839 -33.63485718 69.34292603 C-33.62810355 48.48694301 -31.33638467 32.27880898 -16.98779297 16.28857422 C-15.11334595 14.1304968 -13.68355777 12.01332665 -12.24609375 9.55078125 C-10.3432268 6.35225889 -8.48474757 4.45387437 -5.25 2.5 C-4.47140625 2.0153125 -3.6928125 1.530625 -2.890625 1.03125 C-1 0 -1 0 0 0 Z " fill="#FED9A9" transform="translate(64,319)"/>
<path d="M0 0 C1.26972656 0.00257813 2.53945313 0.00515625 3.84765625 0.0078125 C5.16636719 0.03617187 6.48507812 0.06453125 7.84375 0.09375 C9.16246094 0.09117187 10.48117187 0.08859375 11.83984375 0.0859375 C22.77449158 0.19694915 22.77449158 0.19694915 27.34375 3.59375 C28.67328792 6.25282584 28.46361031 8.25940368 28.45727539 11.23681641 C28.45719986 12.41788971 28.45712433 13.59896301 28.45704651 14.81582642 C28.45188522 16.09605682 28.44672394 17.37628723 28.44140625 18.6953125 C28.43928383 20.65541763 28.43928383 20.65541763 28.43711853 22.65512085 C28.43329894 26.13051258 28.42347342 29.60586257 28.41241455 33.08123779 C28.40218843 36.62706945 28.39761833 40.17290785 28.39257812 43.71875 C28.38185066 50.67710049 28.36478092 57.63542324 28.34375 64.59375 C30.98375 64.59375 33.62375 64.59375 36.34375 64.59375 C36.34375 69.87375 36.34375 75.15375 36.34375 80.59375 C-13.81625 80.59375 -63.97625 80.59375 -115.65625 80.59375 C-115.65625 75.31375 -115.65625 70.03375 -115.65625 64.59375 C-113.01625 64.59375 -110.37625 64.59375 -107.65625 64.59375 C-107.68243408 63.80202393 -107.70861816 63.01029785 -107.7355957 62.19458008 C-107.83969122 58.59867283 -107.904619 55.00308269 -107.96875 51.40625 C-108.0315918 49.53743164 -108.0315918 49.53743164 -108.09570312 47.63085938 C-108.11181641 46.42880859 -108.12792969 45.22675781 -108.14453125 43.98828125 C-108.18380737 42.33082886 -108.18380737 42.33082886 -108.22387695 40.63989258 C-107.45268681 36.50133799 -106.0116691 35.0792982 -102.65625 32.59375 C-99.50585938 31.97851562 -99.50585938 31.97851562 -96 32 C-94.73027344 32.00257813 -93.46054688 32.00515625 -92.15234375 32.0078125 C-90.17427734 32.05035156 -90.17427734 32.05035156 -88.15625 32.09375 C-86.83753906 32.09117187 -85.51882812 32.08859375 -84.16015625 32.0859375 C-73.22550842 32.19694915 -73.22550842 32.19694915 -68.65625 35.59375 C-67.27316219 38.35992563 -67.54414804 40.60393 -67.55859375 43.6953125 C-67.56181641 44.90703125 -67.56503906 46.11875 -67.56835938 47.3671875 C-67.58092773 49.27371094 -67.58092773 49.27371094 -67.59375 51.21875 C-67.59826172 52.4975 -67.60277344 53.77625 -67.60742188 55.09375 C-67.61923797 58.26046292 -67.63571185 61.42708356 -67.65625 64.59375 C-65.01625 64.59375 -62.37625 64.59375 -59.65625 64.59375 C-59.68243408 63.31733643 -59.70861816 62.04092285 -59.7355957 60.72583008 C-59.82620416 55.9830076 -59.88353827 51.24026138 -59.9309082 46.49682617 C-59.95602806 44.44526294 -59.99013036 42.39378899 -60.03344727 40.3425293 C-60.09421002 37.39088909 -60.12248492 34.4404335 -60.14453125 31.48828125 C-60.18324089 30.11613213 -60.18324089 30.11613213 -60.22273254 28.71626282 C-60.22465429 24.33742263 -60.07473207 22.20357129 -57.54174805 18.51245117 C-54.06750367 16.20226532 -52.1487052 15.97457618 -48 16 C-46.73027344 16.00257813 -45.46054688 16.00515625 -44.15234375 16.0078125 C-42.83363281 16.03617187 -41.51492187 16.06453125 -40.15625 16.09375 C-38.83753906 16.09117187 -37.51882812 16.08859375 -36.16015625 16.0859375 C-25.22550842 16.19694915 -25.22550842 16.19694915 -20.65625 19.59375 C-19.50214746 21.90195508 -19.5352203 23.20159276 -19.54272461 25.76806641 C-19.54283791 27.05917831 -19.54283791 27.05917831 -19.54295349 28.37637329 C-19.54811478 29.30662323 -19.55327606 30.23687317 -19.55859375 31.1953125 C-19.5600087 32.14691254 -19.56142365 33.09851257 -19.56288147 34.07894897 C-19.56848988 37.12558097 -19.58104381 40.17214013 -19.59375 43.21875 C-19.59876392 45.28124894 -19.60332701 47.34374903 -19.60742188 49.40625 C-19.61846204 54.46877817 -19.63573233 59.53125173 -19.65625 64.59375 C-17.01625 64.59375 -14.37625 64.59375 -11.65625 64.59375 C-11.66735306 63.86569656 -11.67845612 63.13764313 -11.68989563 62.38752747 C-11.79019863 55.51678873 -11.86626607 48.64615982 -11.91531086 41.77487659 C-11.94137388 38.24242155 -11.97670866 34.71057287 -12.03344727 31.1784668 C-12.09831064 27.11501339 -12.12245732 23.05219402 -12.14453125 18.98828125 C-12.17033768 17.7235347 -12.1961441 16.45878815 -12.22273254 15.15571594 C-12.22550649 6.48217397 -12.22550649 6.48217397 -9.54174805 2.29370117 C-6.08301558 0.25603689 -4.00310593 -0.02453157 0 0 Z " fill="#000000" transform="translate(283.65625,327.40625)"/>
<path d="M0 0 C1.8818512 1.28935242 1.8818512 1.28935242 3.74829102 3.0144043 C4.44246124 3.65219818 5.13663147 4.28999207 5.85183716 4.94711304 C9.41038578 8.34783199 12.92666014 11.78409164 16.40234375 15.26953125 C17.54709923 16.41285164 17.54709923 16.41285164 18.71498108 17.57926941 C20.31194789 19.17556068 21.90767253 20.77309553 23.50219727 22.37182617 C25.95149736 24.82652823 28.40614904 27.27578896 30.86132812 29.72460938 C32.4169878 31.28092907 33.97233766 32.83755852 35.52734375 34.39453125 C36.2626683 35.12783157 36.99799286 35.8611319 37.75559998 36.61665344 C38.43042923 37.29463486 39.10525848 37.97261627 39.80053711 38.67114258 C40.69366859 39.56546745 40.69366859 39.56546745 41.60484314 40.4778595 C44.28895765 43.40627531 44.21182194 46.04890825 44.42578125 49.9296875 C43.7556583 53.18808349 42.775913 54.13835939 40 56 C36.57012432 56.48862525 33.20539958 56.37582688 29.75 56.25 C28.34621094 56.22292969 28.34621094 56.22292969 26.9140625 56.1953125 C24.60893562 56.14826909 22.30433646 56.07652778 20 56 C20 61.28 20 66.56 20 72 C17.36 72 14.72 72 12 72 C12 77.28 12 82.56 12 88 C14.64 88 17.28 88 20 88 C20 93.28 20 98.56 20 104 C17.36 104 14.72 104 12 104 C12 109.28 12 114.56 12 120 C-1.2 120 -14.4 120 -28 120 C-28 98.88 -28 77.76 -28 56 C-34.6 56 -41.2 56 -48 56 C-52 52 -52 52 -52.6875 48.25 C-52.49657489 44.61511679 -51.41200165 42.91383245 -48.97387695 40.25952148 C-48.33777496 39.56422333 -47.70167297 38.86892517 -47.04629517 38.15255737 C-43.65508507 34.58524489 -40.21570332 31.0731354 -36.73046875 27.59765625 C-35.58714836 26.45290077 -35.58714836 26.45290077 -34.42073059 25.28501892 C-32.82443932 23.68805211 -31.22690447 22.09232747 -29.62817383 20.49780273 C-27.17347177 18.04850264 -24.72421104 15.59385096 -22.27539062 13.13867188 C-20.71907093 11.5830122 -19.16244148 10.02766234 -17.60546875 8.47265625 C-16.87216843 7.7373317 -16.1388681 7.00200714 -15.38334656 6.24440002 C-14.70536514 5.56957077 -14.02738373 4.89474152 -13.32885742 4.19946289 C-12.73264084 3.6040419 -12.13642426 3.00862091 -11.5221405 2.39515686 C-8.18288167 -0.66552634 -4.30323948 -0.92065067 0 0 Z " fill="#000000" transform="translate(108,40)"/>
<path d="M0 0 C1.8818512 1.28935242 1.8818512 1.28935242 3.74829102 3.0144043 C4.44246124 3.65219818 5.13663147 4.28999207 5.85183716 4.94711304 C9.41038578 8.34783199 12.92666014 11.78409164 16.40234375 15.26953125 C17.54709923 16.41285164 17.54709923 16.41285164 18.71498108 17.57926941 C20.31194789 19.17556068 21.90767253 20.77309553 23.50219727 22.37182617 C25.95149736 24.82652823 28.40614904 27.27578896 30.86132812 29.72460938 C32.4169878 31.28092907 33.97233766 32.83755852 35.52734375 34.39453125 C36.2626683 35.12783157 36.99799286 35.8611319 37.75559998 36.61665344 C38.43042923 37.29463486 39.10525848 37.97261627 39.80053711 38.67114258 C40.69366859 39.56546745 40.69366859 39.56546745 41.60484314 40.4778595 C44.28895765 43.40627531 44.21182194 46.04890825 44.42578125 49.9296875 C44 52 44 52 40 56 C33.4 56 26.8 56 20 56 C20 77.12 20 98.24 20 120 C6.8 120 -6.4 120 -20 120 C-20 114.72 -20 109.44 -20 104 C-22.64 104 -25.28 104 -28 104 C-28 98.72 -28 93.44 -28 88 C-25.36 88 -22.72 88 -20 88 C-20 82.72 -20 77.44 -20 72 C-22.64 72 -25.28 72 -28 72 C-28 66.72 -28 61.44 -28 56 C-30.09601563 56.06960937 -30.09601563 56.06960937 -32.234375 56.140625 C-34.07289529 56.17814582 -35.9114387 56.21454565 -37.75 56.25 C-39.13058594 56.30027344 -39.13058594 56.30027344 -40.5390625 56.3515625 C-47.34349128 56.45017741 -47.34349128 56.45017741 -50.59765625 54.21875 C-52.29035845 51.54060278 -52.74209859 49.28946256 -52.57585144 46.12440491 C-51.86777133 43.51218801 -50.80054419 42.24815762 -48.97387695 40.25952148 C-48.33777496 39.56422333 -47.70167297 38.86892517 -47.04629517 38.15255737 C-43.65508507 34.58524489 -40.21570332 31.0731354 -36.73046875 27.59765625 C-35.58714836 26.45290077 -35.58714836 26.45290077 -34.42073059 25.28501892 C-32.82443932 23.68805211 -31.22690447 22.09232747 -29.62817383 20.49780273 C-27.17347177 18.04850264 -24.72421104 15.59385096 -22.27539062 13.13867188 C-20.71907093 11.5830122 -19.16244148 10.02766234 -17.60546875 8.47265625 C-16.87216843 7.7373317 -16.1388681 7.00200714 -15.38334656 6.24440002 C-14.70536514 5.56957077 -14.02738373 4.89474152 -13.32885742 4.19946289 C-12.73264084 3.6040419 -12.13642426 3.00862091 -11.5221405 2.39515686 C-8.18288167 -0.66552634 -4.30323948 -0.92065067 0 0 Z " fill="#000000" transform="translate(420,16)"/>
<path d="M0 0 C0.66 0 1.32 0 2 0 C3.68467264 1.9639171 5.25509766 3.93808704 6.8125 6 C7.8072784 7.29267996 8.80342705 8.58430633 9.80078125 9.875 C10.32365723 10.55304688 10.8465332 11.23109375 11.38525391 11.9296875 C14.03712328 15.32972565 16.76940922 18.66310827 19.5 22 C24.95048602 28.67999746 30.30355616 35.42952757 35.60888672 42.22509766 C37.10867644 44.13865877 38.61789097 46.04451116 40.12890625 47.94921875 C40.64050293 48.59552246 41.15209961 49.24182617 41.67919922 49.90771484 C42.66730585 51.15556332 43.65715217 52.40203666 44.64892578 53.64697266 C48 57.88773435 48 57.88773435 48 59 C16.98 59 -14.04 59 -46 59 C-41.50488225 52.25732338 -41.50488225 52.25732338 -38.9765625 49.1953125 C-38.43 48.52886719 -37.8834375 47.86242187 -37.3203125 47.17578125 C-36.76085937 46.49902344 -36.20140625 45.82226562 -35.625 45.125 C-31.27398539 39.84888649 -27.05862419 34.50511712 -23 29 C-19.09406247 30.78031649 -17.17469237 32.92791497 -14.5 36.3125 C-13.7471875 37.25738281 -12.994375 38.20226562 -12.21875 39.17578125 C-11.4865625 40.10777344 -10.754375 41.03976562 -10 42 C-8.66777974 43.66755652 -7.33481264 45.33451786 -6 47 C-2.76138697 45.55575365 -0.38030837 43.74227753 2.25 41.375 C2.95640625 40.74335938 3.6628125 40.11171875 4.390625 39.4609375 C4.92171875 38.97882813 5.4528125 38.49671875 6 38 C2.00221761 32.38742708 -2.37375363 27.2617669 -7.046875 22.19921875 C-9 20 -9 20 -11 17 C-10.47886956 12.62659162 -7.69795158 9.61361983 -5.0625 6.25 C-4.60681641 5.64800781 -4.15113281 5.04601562 -3.68164062 4.42578125 C-2.50672508 2.90854039 -1.25830593 1.44883145 0 0 Z " fill="#B1987A" transform="translate(255,237)"/>
<path d="M0 0 C3.34784108 1.4549511 5.54377373 3.29805491 8.109375 5.87890625 C8.86347656 6.63494141 9.61757812 7.39097656 10.39453125 8.16992188 C11.56048828 9.35424805 11.56048828 9.35424805 12.75 10.5625 C13.54277344 11.35591797 14.33554688 12.14933594 15.15234375 12.96679688 C21 18.85974478 21 18.85974478 21 20 C20.37351563 20.10957031 19.74703125 20.21914062 19.1015625 20.33203125 C18.28429687 20.49058594 17.46703125 20.64914063 16.625 20.8125 C15.81289062 20.96332031 15.00078125 21.11414063 14.1640625 21.26953125 C11.64179359 21.87544942 11.64179359 21.87544942 10 25 C9.63112811 27.90644244 9.63112811 27.90644244 9.5859375 31.19921875 C9.54726562 32.40771484 9.50859375 33.61621094 9.46875 34.86132812 C9.4378125 36.12396484 9.406875 37.38660156 9.375 38.6875 C9.33632812 39.96173828 9.29765625 41.23597656 9.2578125 42.54882812 C9.16342314 45.69907292 9.0778417 48.84930991 9 52 C11.64 52 14.28 52 17 52 C17 57.28 17 62.56 17 68 C19.64 68 22.28 68 25 68 C25 73.28 25 78.56 25 84 C22.36 84 19.72 84 17 84 C17 89.28 17 94.56 17 100 C9.08 100 1.16 100 -7 100 C-7.029729 96.61560669 -7.029729 96.61560669 -7.06005859 93.1628418 C-7.12691377 85.71481977 -7.20455393 78.26693845 -7.28752708 70.8190794 C-7.33750982 66.30267608 -7.38383964 61.78629638 -7.421875 57.26977539 C-7.4587029 52.91248951 -7.50505594 48.55540028 -7.55806351 44.19828224 C-7.57662076 42.53451798 -7.59172379 40.87071155 -7.60334396 39.20688438 C-7.62018381 36.87949792 -7.64921273 34.55256312 -7.68115234 32.2253418 C-7.68331253 31.53482224 -7.68547272 30.84430267 -7.68769836 30.13285828 C-7.75095996 26.53336742 -7.94208372 25.08687442 -10 22 C-12.18505129 21.20562077 -12.18505129 21.20562077 -14.625 20.8125 C-15.85089844 20.57466797 -15.85089844 20.57466797 -17.1015625 20.33203125 C-18.04128906 20.16767578 -18.04128906 20.16767578 -19 20 C-13.17371096 12.84198775 -6.5617015 6.47408234 0 0 Z " fill="#FED943" transform="translate(103,60)"/>
<path d="M0 0 C3.34784108 1.4549511 5.54377373 3.29805491 8.109375 5.87890625 C8.86347656 6.63494141 9.61757813 7.39097656 10.39453125 8.16992188 C11.56048828 9.35424805 11.56048828 9.35424805 12.75 10.5625 C13.54277344 11.35591797 14.33554687 12.14933594 15.15234375 12.96679688 C21 18.85974478 21 18.85974478 21 20 C20.37351562 20.10957031 19.74703125 20.21914063 19.1015625 20.33203125 C18.28429687 20.49058594 17.46703125 20.64914063 16.625 20.8125 C15.81289063 20.96332031 15.00078125 21.11414063 14.1640625 21.26953125 C11.64179359 21.87544942 11.64179359 21.87544942 10 25 C9.78780343 27.4445394 9.68880479 29.77918035 9.68115234 32.2253418 C9.66608391 33.3232756 9.66608391 33.3232756 9.65071106 34.44338989 C9.61982815 36.86199155 9.60282996 39.28048225 9.5859375 41.69921875 C9.56722994 43.37645933 9.54765683 45.05369046 9.5272522 46.73091125 C9.47588141 51.14493238 9.43628223 55.55898405 9.39910889 59.97314453 C9.3591002 64.4776162 9.30799358 68.98196033 9.2578125 73.48632812 C9.16099458 82.32413815 9.07763427 91.16200061 9 100 C1.08 100 -6.84 100 -15 100 C-15 94.72 -15 89.44 -15 84 C-17.64 84 -20.28 84 -23 84 C-23 78.72 -23 73.44 -23 68 C-20.36 68 -17.72 68 -15 68 C-15 62.72 -15 57.44 -15 52 C-12.36 52 -9.72 52 -7 52 C-7.10964677 47.56198004 -7.24033154 43.12482564 -7.375 38.6875 C-7.4059375 37.42486328 -7.436875 36.16222656 -7.46875 34.86132812 C-7.50742187 33.65283203 -7.54609375 32.44433594 -7.5859375 31.19921875 C-7.63306885 29.52605591 -7.63306885 29.52605591 -7.68115234 27.8190918 C-7.805249 24.79631214 -7.805249 24.79631214 -10 22 C-12.18505129 21.20562077 -12.18505129 21.20562077 -14.625 20.8125 C-15.85089844 20.57466797 -15.85089844 20.57466797 -17.1015625 20.33203125 C-18.04128906 20.16767578 -18.04128906 20.16767578 -19 20 C-13.17371096 12.84198775 -6.5617015 6.47408234 0 0 Z " fill="#FED943" transform="translate(415,36)"/>
<path d="M0 0 C1.11310547 0.00902344 2.22621094 0.01804687 3.37304688 0.02734375 C6.10309023 0.0507776 8.8326801 0.083586 11.5625 0.125 C9.2781777 13.1545702 4.13690987 22.79021045 -6.4375 31.125 C-17.17881226 37.98010176 -27.34943481 40.46475702 -39.9375 40.25 C-40.95070313 40.24097656 -41.96390625 40.23195312 -43.0078125 40.22265625 C-45.48462801 40.19929007 -47.96093379 40.16653168 -50.4375 40.125 C-48.1398334 27.01931511 -42.95764519 17.59876078 -32.4375 9.125 C-21.62381425 2.18985712 -12.71393897 -0.19617947 0 0 Z " fill="#62C07B" transform="translate(315.4375,103.875)"/>
<path d="M0 0 C1.11310547 0.00902344 2.22621094 0.01804687 3.37304688 0.02734375 C6.10309023 0.0507776 8.8326801 0.083586 11.5625 0.125 C9.2781777 13.1545702 4.13690987 22.79021045 -6.4375 31.125 C-17.17881226 37.98010176 -27.34943481 40.46475702 -39.9375 40.25 C-40.95070313 40.24097656 -41.96390625 40.23195312 -43.0078125 40.22265625 C-45.48462801 40.19929007 -47.96093379 40.16653168 -50.4375 40.125 C-48.1398334 27.01931511 -42.95764519 17.59876078 -32.4375 9.125 C-21.62381425 2.18985712 -12.71393897 -0.19617947 0 0 Z " fill="#62C07B" transform="translate(315.4375,31.875)"/>
<path d="M0 0 C19.25076352 -0.67391928 34.83086934 0.38337632 49.6875 14.0625 C56.78752573 21.52824642 61.11201225 29.77704106 62 40 C37.37657914 40.63538005 37.37657914 40.63538005 29 37 C28.09507812 36.60941406 27.19015625 36.21882813 26.2578125 35.81640625 C13.70188818 29.6775679 5.84979088 19.88828217 1 7 C0.59565744 4.67791847 0.24131587 2.3446369 0 0 Z " fill="#8FD959" transform="translate(185,136)"/>
<path d="M0 0 C19.25076352 -0.67391928 34.83086934 0.38337632 49.6875 14.0625 C56.78752573 21.52824642 61.11201225 29.77704106 62 40 C37.37657914 40.63538005 37.37657914 40.63538005 29 37 C28.09507812 36.60941406 27.19015625 36.21882813 26.2578125 35.81640625 C13.70188818 29.6775679 5.84979088 19.88828217 1 7 C0.59565744 4.67791847 0.24131587 2.3446369 0 0 Z " fill="#8FD959" transform="translate(185,56)"/>
<path d="M0 0 C15.84 0 31.68 0 48 0 C48 5.28 48 10.56 48 16 C32.16 16 16.32 16 0 16 C0 10.72 0 5.44 0 0 Z " fill="#000000" transform="translate(104,280)"/>
<path d="M0 0 C10.56 0 21.12 0 32 0 C32 5.28 32 10.56 32 16 C21.44 16 10.88 16 0 16 C0 10.72 0 5.44 0 0 Z " fill="#000000" transform="translate(104,248)"/>
<path d="M0 0 C2.64 0 5.28 0 8 0 C8 15.84 8 31.68 8 48 C5.36 48 2.72 48 0 48 C0 32.16 0 16.32 0 0 Z " fill="#FF5023" transform="translate(288,344)"/>
<path d="M0 0 C2.64 0 5.28 0 8 0 C8 10.56 8 21.12 8 32 C5.36 32 2.72 32 0 32 C0 21.44 0 10.88 0 0 Z " fill="#FF5023" transform="translate(240,360)"/>
<path d="M0 0 C5.28 0 10.56 0 16 0 C16 5.28 16 10.56 16 16 C10.72 16 5.44 16 0 16 C0 10.72 0 5.44 0 0 Z " fill="#000000" transform="translate(112,128)"/>
<path d="M0 0 C5.28 0 10.56 0 16 0 C16 5.28 16 10.56 16 16 C10.72 16 5.44 16 0 16 C0 10.72 0 5.44 0 0 Z " fill="#000000" transform="translate(392,104)"/>
<path d="M0 0 C2.64 0 5.28 0 8 0 C8 5.28 8 10.56 8 16 C5.36 16 2.72 16 0 16 C0 10.72 0 5.44 0 0 Z " fill="#FF5023" transform="translate(192,376)"/>
</svg>
